<svg width="13" height="16" viewBox="0 0 13 16" fill="none" xmlns="http://www.w3.org/2000/svg">
<g id="Group">
<path id="Vector" d="M9.02824 9.03883H6.72242V6.60335C6.72242 6.33298 6.49452 6.11378 6.21326 6.11378C5.932 6.11378 5.7041 6.33298 5.7041 6.60335V9.52841C5.7041 9.79879 5.932 10.018 6.21326 10.018H9.02824C9.3095 10.018 9.5374 9.79879 9.5374 9.52841C9.5374 9.25803 9.3095 9.03883 9.02824 9.03883Z" fill="#1988FF"/>
<path id="Vector_2" d="M11.4228 5.25779L11.7595 4.93382L11.921 5.08918C12.0204 5.18488 12.1508 5.23266 12.2811 5.23266C12.4114 5.23266 12.5417 5.18488 12.6411 5.08938C12.84 4.89825 12.8401 4.58825 12.6413 4.39705L12.1307 3.90584C12.127 3.90206 12.1238 3.89807 12.12 3.89442C12.1162 3.89083 12.1122 3.88783 12.1084 3.88437L11.5992 3.39446C11.4003 3.20314 11.078 3.20314 10.8792 3.39427C10.6803 3.5854 10.6801 3.8954 10.879 4.08659L11.0397 4.24123L10.6998 4.56834C9.97179 3.97438 9.10669 3.53148 8.15715 3.29061C8.44228 2.94425 8.61322 2.50709 8.61322 2.032C8.61315 0.911526 7.66536 0 6.50041 0C5.33497 0 4.38685 0.911526 4.38685 2.032C4.38685 2.50715 4.55786 2.94438 4.84319 3.29074C2.05897 3.99703 0 6.43891 0 9.33466C0 12.781 2.91606 15.5849 6.50041 15.5849C10.0843 15.5849 13 12.781 13 9.33466C13 7.77826 12.4052 6.35301 11.4228 5.25779ZM5.40517 2.032C5.40517 1.45143 5.89648 0.979153 6.50041 0.979153C7.10393 0.979153 7.59483 1.45143 7.59483 2.032C7.59483 2.61238 7.10386 3.08459 6.50041 3.08459C5.89648 3.08459 5.40517 2.61238 5.40517 2.032ZM6.50041 14.6057C3.47763 14.6057 1.01832 12.2411 1.01832 9.33466C1.01832 6.42827 3.47763 4.06375 6.50041 4.06375C9.52285 4.06375 11.9817 6.42827 11.9817 9.33466C11.9817 12.2411 9.52278 14.6057 6.50041 14.6057Z" fill="#1988FF"/>
</g>
</svg>
