<svg width="13" height="14" viewBox="0 0 13 14" fill="none" xmlns="http://www.w3.org/2000/svg">
<path id="Vector" d="M6.5 13.2924C4.77609 13.2924 3.12279 12.6076 1.90381 11.3886C0.684819 10.1696 0 8.51633 0 6.79242C0 5.06851 0.684819 3.41521 1.90381 2.19623C3.12279 0.977239 4.77609 0.292419 6.5 0.292419C8.22391 0.292419 9.87721 0.977239 11.0962 2.19623C12.3152 3.41521 13 5.06851 13 6.79242C13 8.51633 12.3152 10.1696 11.0962 11.3886C9.87721 12.6076 8.22391 13.2924 6.5 13.2924ZM6.5 11.9924C7.87913 11.9924 9.20177 11.4446 10.177 10.4694C11.1521 9.49419 11.7 8.17155 11.7 6.79242C11.7 5.41329 11.1521 4.09065 10.177 3.11546C9.20177 2.14028 7.87913 1.59242 6.5 1.59242C5.12087 1.59242 3.79823 2.14028 2.82304 3.11546C1.84786 4.09065 1.3 5.41329 1.3 6.79242C1.3 8.17155 1.84786 9.49419 2.82304 10.4694C3.79823 11.4446 5.12087 11.9924 6.5 11.9924ZM5.85 7.05892V2.89242H7.15V6.52592L9.7175 9.09342L8.801 10.0099L5.85 7.05892Z" fill="#1988FF"/>
</svg>
