<svg width="344" height="255" viewBox="0 0 344 255" fill="none" xmlns="http://www.w3.org/2000/svg">
<g clip-path="url(#clip0_233_1045)">
<rect width="344" height="255" fill="white"/>
<path d="M344 224.094H0V224.265H344V224.094Z" fill="#EBEBEB"/>
<path d="M217.181 228.755H199.664V228.926H217.181V228.755Z" fill="#EBEBEB"/>
<path d="M313.343 232.457H271.836V232.628H313.343V232.457Z" fill="#EBEBEB"/>
<path d="M195.936 228.837H153.052V229.008H195.936V228.837Z" fill="#EBEBEB"/>
<path d="M125.244 233.956H116.272V234.127H125.244V233.956Z" fill="#EBEBEB"/>
<path d="M174.814 233.956H133.96V234.127H174.814V233.956Z" fill="#EBEBEB"/>
<path d="M62.5461 231.068H36.0925V231.239H62.5461V231.068Z" fill="#EBEBEB"/>
<path d="M163.056 193.572H30.2101C29.1694 193.57 28.1719 193.157 27.4367 192.425C26.7014 191.692 26.2885 190.699 26.2885 189.664V3.9077C26.2885 2.8725 26.7014 1.8796 27.4367 1.14696C28.1719 0.414317 29.1694 0.00181297 30.2101 0L163.056 0C164.098 0 165.097 0.411703 165.834 1.14454C166.571 1.87738 166.984 2.87132 166.984 3.9077V189.664C166.984 190.177 166.883 190.685 166.685 191.159C166.488 191.634 166.199 192.064 165.834 192.427C165.469 192.79 165.036 193.078 164.559 193.274C164.083 193.471 163.572 193.572 163.056 193.572ZM30.2101 0.17109C29.215 0.172903 28.2613 0.567381 27.5583 1.26794C26.8553 1.96849 26.4605 2.91788 26.4605 3.9077V189.664C26.4605 190.654 26.8553 191.603 27.5583 192.304C28.2613 193.004 29.215 193.399 30.2101 193.401H163.056C164.052 193.399 165.006 193.005 165.71 192.304C166.414 191.604 166.811 190.654 166.812 189.664V3.9077C166.811 2.91725 166.414 1.96788 165.71 1.26752C165.006 0.567158 164.052 0.172899 163.056 0.17109H30.2101Z" fill="#EBEBEB"/>
<path d="M311.877 193.572H179.024C177.983 193.57 176.985 193.158 176.249 192.425C175.512 191.693 175.098 190.7 175.096 189.664V3.9077C175.098 2.87187 175.512 1.87898 176.249 1.14654C176.985 0.414094 177.983 0.00180932 179.024 0L311.877 0C312.917 0.00362179 313.912 0.416924 314.646 1.14937C315.38 1.88181 315.792 2.87368 315.792 3.9077V189.664C315.792 190.698 315.38 191.69 314.646 192.422C313.912 193.155 312.917 193.568 311.877 193.572ZM179.024 0.17109C178.029 0.172899 177.074 0.567158 176.37 1.26752C175.666 1.96788 175.27 2.91725 175.268 3.9077V189.664C175.27 190.654 175.666 191.604 176.37 192.304C177.074 193.005 178.029 193.399 179.024 193.401H311.877C312.873 193.399 313.827 193.005 314.532 192.304C315.236 191.604 315.632 190.654 315.634 189.664V3.9077C315.632 2.91725 315.236 1.96788 314.532 1.26752C313.827 0.567158 312.873 0.172899 311.877 0.17109H179.024Z" fill="#EBEBEB"/>
<path d="M134.82 164.733H89.1373L86.3646 132.91H132.048L134.82 164.733Z" fill="#E6E6E6"/>
<path d="M137.187 164.733H91.504L88.7314 132.91H134.415L137.187 164.733Z" fill="#F0F0F0"/>
<path d="M97.751 157.903L96.2237 139.747H128.168L129.695 157.903H97.751Z" fill="white"/>
<path d="M145.092 164.733H139.733V224.087H145.092V164.733Z" fill="#E6E6E6"/>
<path d="M146.785 164.733H143.063V224.087H146.785V164.733Z" fill="#F0F0F0"/>
<path d="M94.9027 171.289H146.785V164.74H94.9027V171.289Z" fill="#F0F0F0"/>
<path d="M96.7328 171.289H91.3733V224.094H96.7328V171.289Z" fill="#E6E6E6"/>
<path d="M98.4253 171.289H94.7032V224.094H98.4253V171.289Z" fill="#F0F0F0"/>
<path d="M58.5832 171.289H53.2237V224.094H58.5832V171.289Z" fill="#E6E6E6"/>
<path d="M60.2757 171.289H56.5536V224.094H60.2757V171.289Z" fill="#F0F0F0"/>
<path d="M111.174 171.289H105.814V224.094H111.174V171.289Z" fill="#E6E6E6"/>
<path d="M112.86 171.289H109.137V224.094H112.86V171.289Z" fill="#F0F0F0"/>
<path d="M94.9027 164.733H53.2237V171.282H94.9027V164.733Z" fill="#E6E6E6"/>
<path d="M250.322 16.7395H89.1029V106.021H250.322V16.7395Z" fill="#E0E0E0"/>
<path d="M259.176 16.7395H89.9147V106.021H259.176V16.7395Z" fill="#F5F5F5"/>
<path d="M256.411 103.27V19.4906L92.6805 19.4906V103.27L256.411 103.27Z" fill="white"/>
<path d="M158.976 103.27L189.888 19.4906H138.873L107.961 103.27H158.976Z" fill="#F5F5F5"/>
<path d="M208.079 103.27L238.991 19.4906H200.504L169.592 103.27H208.079Z" fill="#F5F5F5"/>
<path d="M301.42 138.823H287.715V224.094H301.42V138.823Z" fill="#E6E6E6"/>
<path d="M297.815 224.094H301.42V217.524H294.037L297.815 224.094Z" fill="#FAFAFA"/>
<path d="M175.062 138.823H161.357V224.094H175.062V138.823Z" fill="#E6E6E6"/>
<path d="M301.42 138.823H171.917V222.322H301.42V138.823Z" fill="#FAFAFA"/>
<path d="M298.97 165.766H174.374V142.183H298.97V165.766ZM175.062 165.082H298.282V142.867H175.062V165.082Z" fill="#E6E6E6"/>
<path d="M277.037 153.632H198.722C195.089 153.632 191.587 150.71 189.09 145.625L188.856 145.133H286.896L286.662 145.625C284.144 150.71 280.704 153.632 277.037 153.632ZM189.984 145.817C192.31 150.354 195.488 152.948 198.722 152.948H277.037C280.284 152.948 283.449 150.354 285.775 145.817H189.984Z" fill="#E6E6E6"/>
<path d="M175.523 224.094H171.917V217.524H179.3L175.523 224.094Z" fill="#FAFAFA"/>
<path d="M298.97 192.36H174.374V168.777H298.97V192.36ZM175.062 191.676H298.282V169.462H175.062V191.676Z" fill="#E6E6E6"/>
<path d="M277.037 180.227H198.722C195.089 180.227 191.587 177.311 189.09 172.226L188.856 171.734H286.896L286.662 172.226C284.144 177.311 280.704 180.227 277.037 180.227ZM189.984 172.418C192.31 176.955 195.488 179.542 198.722 179.542H277.037C280.284 179.542 283.449 176.955 285.775 172.418H189.984Z" fill="#E6E6E6"/>
<path d="M298.97 218.996H174.374V195.378H298.97V218.996ZM175.062 218.311H298.282V196.063H175.062V218.311Z" fill="#E6E6E6"/>
<path d="M277.037 206.828H198.722C195.089 206.828 191.587 203.912 189.09 198.821L188.856 198.335H286.896L286.662 198.821C284.144 203.94 280.704 206.828 277.037 206.828ZM189.984 199.019C192.31 203.557 195.488 206.143 198.722 206.143H277.037C280.284 206.143 283.449 203.557 285.775 199.019H189.984Z" fill="#E6E6E6"/>
<path d="M83.2342 150.101V151.757H82.1747L81.2941 164.733H68.3322L67.4584 151.757H66.392V150.101H83.2342Z" fill="#E6E6E6"/>
<path d="M78.9686 117.888C77.9091 110.182 67.424 107.944 54.1043 107.664C41.4382 107.397 37.379 102.935 37.379 102.935C37.379 102.935 37.4203 120.988 55.673 127.524C73.0037 133.731 80.035 125.635 78.9686 117.888Z" fill="#E6E6E6"/>
<path d="M72.5014 135.415C72.7216 132.232 77.8266 126.395 90.1074 129.05C98.9826 130.966 102.285 126.395 102.285 126.395C102.285 126.395 101.459 139.309 88.1122 143.196C75.4323 146.885 72.1093 140.979 72.5014 135.415Z" fill="#E6E6E6"/>
<path d="M75.3016 154.974C75.3707 154.974 75.4392 154.96 75.5022 154.932C75.5652 154.903 75.6212 154.862 75.6662 154.809C76.5538 153.762 75.8245 151.258 74.82 147.788C73.5266 143.34 71.9166 137.796 73.2789 133.772C74.0352 131.653 74.9174 129.58 75.9208 127.565C77.8472 123.514 79.5122 120.037 78.1224 116.355C78.101 116.297 78.0681 116.243 78.0255 116.197C77.9829 116.152 77.9315 116.115 77.8744 116.089C77.8173 116.064 77.7557 116.05 77.6931 116.049C77.6305 116.047 77.5683 116.058 77.5101 116.081C77.3935 116.127 77.2996 116.217 77.2482 116.33C77.1968 116.444 77.192 116.573 77.2349 116.69C78.4802 119.969 76.9734 123.144 75.0608 127.161C74.0446 129.211 73.1487 131.318 72.3776 133.471C70.9259 137.776 72.5771 143.47 73.905 148.048C74.6893 150.744 75.5011 153.523 74.9438 154.207C74.8996 154.254 74.8657 154.31 74.8444 154.371C74.8231 154.432 74.8147 154.497 74.8199 154.561C74.8251 154.626 74.8436 154.688 74.8745 154.745C74.9053 154.802 74.9477 154.852 74.9989 154.892C75.0868 154.954 75.1941 154.983 75.3016 154.974Z" fill="#E6E6E6"/>
<path d="M172 255C245.673 255 305.396 251.532 305.396 247.253C305.396 242.975 245.673 239.506 172 239.506C98.3273 239.506 38.6037 242.975 38.6037 247.253C38.6037 251.532 98.3273 255 172 255Z" fill="#F5F5F5"/>
<path d="M171.972 209.483H74.2765L68.9307 53.1954H166.627L171.972 209.483Z" fill="#1988FF"/>
<path d="M176.85 204.631H79.1544L73.8018 48.3433H171.498L176.85 204.631Z" fill="#1988FF"/>
<path opacity="0.3" d="M176.85 204.631H79.1544L73.8018 48.3433H171.498L176.85 204.631Z" fill="white"/>
<path d="M144.12 112.654C154.58 102.07 154.135 84.7618 143.126 73.9963C132.116 63.2308 114.711 63.0842 104.251 73.6689C93.7904 84.2535 94.2355 101.561 105.245 112.327C116.254 123.092 133.659 123.239 144.12 112.654Z" fill="#1988FF"/>
<path d="M146.867 93.169C147.006 96.8929 146.189 100.591 144.494 103.914C142.661 107.493 139.862 110.494 136.411 112.58C132.96 114.666 128.993 115.755 124.955 115.726C120.821 115.702 116.767 114.598 113.198 112.525C109.628 110.452 106.669 107.482 104.617 103.914C102.706 100.642 101.637 96.9508 101.508 93.169C101.381 90.2366 101.854 87.3091 102.9 84.5644C103.946 81.8198 105.541 79.3152 107.59 77.2029C109.639 75.0907 112.098 73.4148 114.818 72.2772C117.539 71.1395 120.463 70.5638 123.413 70.5851C129.492 70.6279 135.321 72.9983 139.688 77.2039C144.056 81.4095 146.627 87.1271 146.867 93.169Z" fill="white"/>
<path opacity="0.6" d="M144.48 103.914C142.647 107.493 139.848 110.494 136.397 112.58C132.946 114.666 128.979 115.755 124.941 115.726C120.808 115.702 116.753 114.598 113.184 112.525C109.615 110.452 106.656 107.482 104.604 103.914C110.417 99.9695 117.298 97.8742 124.335 97.9048C131.495 97.9123 138.497 100.001 144.48 103.914Z" fill="#1988FF"/>
<path opacity="0.6" d="M131.254 92.605C135.1 88.7129 134.936 82.3487 130.888 78.3901C126.84 74.4315 120.44 74.3777 116.593 78.2698C112.747 82.1618 112.911 88.5261 116.959 92.4846C121.007 96.4432 127.407 96.4971 131.254 92.605Z" fill="#1988FF"/>
<path d="M157.222 148.034H94.9027L94.483 135.716H156.802L157.222 148.034Z" fill="white"/>
<path d="M157.979 170.05H95.6526L95.233 157.732H157.559L157.979 170.05Z" fill="white"/>
<path d="M147.693 187.303H107.122L106.853 179.282H147.418L147.693 187.303Z" fill="#1988FF"/>
<path d="M134.946 160.826L119.927 162.879C119.784 162.896 119.645 162.943 119.521 163.015C119.396 163.088 119.287 163.186 119.202 163.302C119.117 163.418 119.057 163.55 119.025 163.691C118.994 163.831 118.992 163.977 119.019 164.118L120.994 174.13C121.058 174.423 121.232 174.682 121.479 174.854C121.726 175.027 122.029 175.1 122.329 175.061L137.348 173.008C137.49 172.991 137.628 172.944 137.752 172.872C137.876 172.8 137.983 172.703 138.068 172.587C138.153 172.471 138.212 172.34 138.243 172.2C138.275 172.061 138.276 171.916 138.249 171.776L136.281 161.764C136.219 161.468 136.047 161.207 135.8 161.033C135.552 160.859 135.247 160.785 134.946 160.826ZM130.633 170.961L127.881 171.331L127.612 168.101C127.329 167.978 127.08 167.789 126.885 167.551C126.69 167.313 126.555 167.032 126.491 166.732C126.44 166.499 126.44 166.258 126.489 166.024C126.538 165.791 126.635 165.57 126.775 165.377C126.915 165.183 127.095 165.021 127.302 164.901C127.509 164.781 127.739 164.705 127.977 164.679C128.466 164.616 128.96 164.738 129.363 165.021C129.765 165.304 130.047 165.726 130.151 166.205C130.212 166.493 130.194 166.792 130.099 167.071C130.005 167.35 129.838 167.599 129.614 167.793L130.633 170.961Z" fill="#1988FF"/>
<path d="M133.46 160.258C133.195 160.291 132.926 160.225 132.707 160.072C132.488 159.919 132.335 159.69 132.277 159.43L132.084 158.451C131.809 157.116 131.057 155.925 129.966 155.099C128.876 154.274 127.521 153.869 126.154 153.962C125.464 154.001 124.79 154.187 124.179 154.508C123.568 154.829 123.034 155.277 122.612 155.822C122.19 156.367 121.891 156.995 121.736 157.665C121.58 158.335 121.571 159.03 121.709 159.704L121.929 160.833C121.954 160.958 121.952 161.086 121.924 161.211C121.897 161.335 121.843 161.452 121.768 161.555C121.692 161.658 121.596 161.744 121.485 161.808C121.375 161.872 121.252 161.913 121.124 161.928C120.858 161.965 120.588 161.9 120.369 161.746C120.149 161.592 119.996 161.361 119.941 161.1L119.755 160.142C119.566 159.253 119.56 158.335 119.737 157.444C119.914 156.553 120.27 155.707 120.784 154.956C121.299 154.206 121.96 153.566 122.729 153.077C123.498 152.587 124.359 152.257 125.259 152.107C127.212 151.779 129.216 152.212 130.856 153.315C132.496 154.419 133.646 156.109 134.066 158.034L134.286 159.163C134.31 159.289 134.308 159.42 134.279 159.545C134.25 159.671 134.195 159.789 134.117 159.892C134.039 159.995 133.941 160.081 133.828 160.144C133.714 160.207 133.589 160.246 133.46 160.258Z" fill="#1988FF"/>
<path d="M234.154 90.51L234.154 90.5093C233.46 89.0129 232.754 87.5532 231.973 86.1016C231.226 84.714 230.502 83.3819 229.648 82.0062L223.786 85.5447C225.227 88.0975 226.665 90.7646 228.006 93.4324C229.38 96.1237 230.595 98.8927 231.643 101.725C231.763 102.046 231.861 102.355 231.958 102.666C231.969 102.701 231.98 102.735 231.991 102.769C231.991 102.77 231.991 102.77 231.991 102.771L232.265 103.603L232.268 103.611L232.27 103.62C232.379 104.048 232.399 104.494 232.33 104.93C232.33 104.931 232.33 104.931 232.33 104.931L232.083 104.892C231.884 106.213 231.53 107.506 231.03 108.745L234.154 90.51ZM234.154 90.51C235.567 93.5327 236.735 96.6622 237.649 99.869L237.649 99.869L237.651 99.8737C237.736 100.151 237.803 100.437 237.872 100.731C237.902 100.856 237.932 100.983 237.963 101.112C237.963 101.112 237.963 101.112 237.964 101.113L238.114 101.747L238.115 101.748L238.188 102.055L238.275 102.562C238.426 103.706 238.355 104.868 238.068 105.986C237.6 107.755 236.886 109.452 235.948 111.026L235.947 111.028C234.298 113.851 232.311 116.463 230.028 118.809L227.48 116.888C228.897 114.28 230.16 111.592 231.262 108.838L234.154 90.51Z" stroke="#37474F" stroke-width="0.5"/>
<path d="M228.557 121.411C228.498 121.461 228.445 121.503 228.399 121.539L225.122 117.723L227.873 116.272L230.476 118.147C230.391 119.173 229.859 120.036 229.32 120.661C229.04 120.984 228.764 121.239 228.557 121.411Z" stroke="#37474F" stroke-width="0.5"/>
<path d="M227.936 121.767L224.416 123.046L220.919 120.282L224.678 117.973L227.936 121.767Z" stroke="#37474F" stroke-width="0.5"/>
<path d="M207.191 59.2725C207.116 59.6558 206.847 59.9569 206.6 59.8679C206.352 59.779 206.207 59.471 206.283 59.0878C206.359 58.7045 206.627 58.4445 206.882 58.4924C207.136 58.5403 207.267 58.8961 207.191 59.2725Z" fill="#263238"/>
<path d="M205.287 63.1122C205.098 63.0388 204.922 62.9376 204.764 62.8125C205.36 62.2703 205.906 61.6783 206.399 61.0433L205.948 63.2479C205.722 63.2401 205.498 63.1943 205.287 63.1122Z" stroke="#37474F" stroke-width="0.5"/>
<path d="M208.19 74.3048L205.893 73.1996V69.1492L211.348 69.8056C211.339 69.9011 211.324 70.0235 211.301 70.1668C211.242 70.5331 211.129 71.0323 210.917 71.5642C210.5 72.6058 209.708 73.7566 208.19 74.3048Z" stroke="#37474F" stroke-width="0.5"/>
<path d="M206.06 68.6623L207.49 65.9335L211.322 67.0315L211.385 69.303L206.06 68.6623Z" stroke="#37474F" stroke-width="0.5"/>
<path opacity="0.2" d="M207.617 66.2299L211.077 67.2214L211.142 69.5706C211.08 70.5592 210.774 71.5155 210.254 72.3561C209.379 71.8785 208.631 71.1965 208.076 70.3665C207.467 69.4554 207.113 68.4001 207.05 67.3096L207.617 66.2299Z" stroke="black"/>
<mask id="path-64-inside-1_233_1045" fill="white">
<path d="M209.021 57.4453C209.065 57.4441 209.108 57.4306 209.145 57.4062C209.182 57.3818 209.211 57.3476 209.229 57.3075C209.247 57.2675 209.253 57.2232 209.247 57.1797C209.24 57.1363 209.222 57.0955 209.193 57.062C208.952 56.7906 208.648 56.5806 208.308 56.4496C207.968 56.3187 207.602 56.2705 207.239 56.3093C207.18 56.3193 207.127 56.3523 207.092 56.4011C207.058 56.4498 207.044 56.5103 207.054 56.5693C207.064 56.6283 207.097 56.6808 207.146 56.7155C207.195 56.7501 207.256 56.764 207.315 56.7541C207.602 56.7302 207.891 56.7735 208.159 56.8804C208.427 56.9874 208.665 57.155 208.856 57.37C208.877 57.3929 208.903 57.4113 208.931 57.4242C208.959 57.4372 208.99 57.4443 209.021 57.4453Z"/>
</mask>
<path d="M209.021 57.4453L209.006 57.9451L209.02 57.9455L209.035 57.9451L209.021 57.4453ZM209.193 57.062L209.574 56.7373L209.567 56.7296L209.193 57.062ZM207.239 56.3093L207.186 55.8121L207.171 55.8137L207.156 55.8163L207.239 56.3093ZM207.054 56.5693L206.561 56.6526L206.561 56.6537L207.054 56.5693ZM207.315 56.7541L207.274 56.2558L207.253 56.2575L207.233 56.2609L207.315 56.7541ZM208.856 57.37L208.482 57.702L208.489 57.709L208.856 57.37ZM209.035 57.9451C209.172 57.9414 209.307 57.8991 209.422 57.8226L208.868 56.9897C208.91 56.9621 208.958 56.9468 209.008 56.9455L209.035 57.9451ZM209.422 57.8226C209.537 57.7462 209.628 57.6387 209.685 57.5123L208.772 57.1028C208.793 57.0566 208.826 57.0174 208.868 56.9897L209.422 57.8226ZM209.685 57.5123C209.741 57.3859 209.761 57.2459 209.741 57.1085L208.752 57.2509C208.744 57.2004 208.752 57.149 208.772 57.1028L209.685 57.5123ZM209.741 57.1085C209.722 56.9712 209.663 56.8425 209.573 56.7373L208.813 57.3868C208.78 57.3484 208.759 57.3014 208.752 57.2509L209.741 57.1085ZM209.567 56.7296C209.272 56.3985 208.902 56.1426 208.488 55.9831L208.128 56.9162C208.394 57.0186 208.631 57.1827 208.82 57.3945L209.567 56.7296ZM208.488 55.9831C208.074 55.8235 207.628 55.7649 207.186 55.8121L207.292 56.8064C207.576 56.7761 207.863 56.8138 208.128 56.9162L208.488 55.9831ZM207.156 55.8163C206.967 55.8483 206.797 55.9538 206.686 56.1104L207.499 56.6917C207.457 56.7509 207.393 56.7903 207.323 56.8022L207.156 55.8163ZM206.686 56.1104C206.574 56.2672 206.528 56.4623 206.561 56.6526L207.547 56.486C207.559 56.5584 207.542 56.6324 207.499 56.6917L206.686 56.1104ZM206.561 56.6537C206.593 56.8439 206.7 57.0128 206.857 57.1238L207.434 56.3072C207.493 56.3488 207.534 56.4126 207.546 56.4849L206.561 56.6537ZM206.857 57.1238C207.014 57.2346 207.208 57.2789 207.397 57.2472L207.233 56.2609C207.303 56.2491 207.376 56.2656 207.434 56.3072L206.857 57.1238ZM207.356 57.2524C207.567 57.2349 207.778 57.2666 207.973 57.3447L208.345 56.4161C208.005 56.2804 207.638 56.2255 207.274 56.2558L207.356 57.2524ZM207.973 57.3447C208.169 57.4229 208.343 57.5453 208.482 57.702L209.23 57.038C208.987 56.7648 208.684 56.5519 208.345 56.4161L207.973 57.3447ZM208.489 57.709C208.555 57.7809 208.635 57.8387 208.724 57.8792L209.138 56.9693C209.171 56.9839 209.2 57.0049 209.224 57.031L208.489 57.709ZM208.724 57.8792C208.812 57.9197 208.908 57.942 209.006 57.9451L209.037 56.9455C209.072 56.9466 209.106 56.9547 209.138 56.9693L208.724 57.8792Z" fill="#000037" mask="url(#path-64-inside-1_233_1045)"/>
<path d="M210.727 70.4436L217.47 66.6769C217.172 68.3335 216.952 70.2392 217.06 72.0305C217.177 73.9491 217.673 75.7788 218.901 77.0169C218.865 77.1043 218.808 77.2305 218.72 77.3827C218.539 77.6952 218.231 78.1183 217.722 78.5441C216.709 79.3928 214.877 80.272 211.622 80.272C209.824 80.272 208.746 80.0759 208.13 79.8036C207.825 79.6688 207.647 79.5214 207.547 79.3836C207.45 79.2496 207.416 79.1104 207.423 78.966C207.437 78.6587 207.635 78.3204 207.867 78.0352C207.979 77.8978 208.091 77.7827 208.174 77.702C208.215 77.6623 208.249 77.6313 208.272 77.6103C209.845 77.1041 210.628 75.9448 210.923 74.5806C211.204 73.2779 211.045 71.7796 210.727 70.4436Z" stroke="#37474F" stroke-width="0.5"/>
<path d="M220.532 79.3038C221.178 78.3936 221.151 75.533 220.463 75.0266C219.355 74.2053 214.601 74.0206 208.203 75.4851C208.891 78.2636 207.418 79.7145 207.418 79.7145L220.532 79.3038Z" fill="#1988FF"/>
<path d="M242.038 241.771C241.843 241.843 241.635 241.874 241.427 241.863C241.219 241.853 241.015 241.8 240.828 241.71C240.757 241.642 240.708 241.555 240.689 241.46C240.669 241.365 240.679 241.265 240.717 241.176C240.74 241.102 240.778 241.035 240.829 240.977C240.88 240.919 240.943 240.873 241.013 240.841C241.667 240.533 243.167 241.142 243.236 241.169C243.257 241.176 243.275 241.19 243.287 241.209C243.3 241.227 243.306 241.249 243.304 241.272C243.303 241.292 243.297 241.313 243.286 241.331C243.275 241.348 243.26 241.363 243.242 241.374C242.856 241.547 242.452 241.68 242.038 241.771ZM241.247 241.005L241.116 241.046C241.074 241.064 241.036 241.091 241.005 241.125C240.974 241.16 240.951 241.2 240.938 241.244C240.876 241.45 240.938 241.511 240.979 241.532C241.24 241.758 242.204 241.532 242.885 241.279C242.365 241.071 241.806 240.977 241.247 241.005Z" fill="#1988FF"/>
<path d="M243.215 241.388H243.16C242.609 241.231 241.44 240.403 241.426 239.855C241.427 239.769 241.456 239.687 241.51 239.62C241.564 239.553 241.638 239.505 241.722 239.485C241.804 239.458 241.891 239.448 241.977 239.455C242.064 239.462 242.148 239.486 242.224 239.527C242.871 239.855 243.284 241.19 243.297 241.244C243.308 241.262 243.313 241.282 243.313 241.302C243.313 241.323 243.308 241.343 243.297 241.361L243.215 241.388ZM241.839 239.684H241.784C241.646 239.732 241.646 239.8 241.646 239.835C241.646 240.156 242.431 240.806 243.022 241.066C242.878 240.683 242.561 239.923 242.142 239.698C242.048 239.656 241.942 239.651 241.846 239.684H241.839Z" fill="#1988FF"/>
<path d="M206.304 242.579C205.684 242.579 205.086 242.497 204.886 242.216C204.835 242.144 204.807 242.058 204.807 241.97C204.807 241.881 204.835 241.795 204.886 241.723C204.925 241.656 204.977 241.597 205.04 241.551C205.103 241.505 205.175 241.473 205.251 241.456C206.056 241.237 207.748 242.196 207.817 242.237C207.838 242.247 207.855 242.264 207.865 242.285C207.875 242.306 207.878 242.33 207.872 242.353C207.869 242.376 207.858 242.397 207.842 242.415C207.826 242.432 207.806 242.444 207.783 242.449C207.295 242.535 206.8 242.578 206.304 242.579ZM205.54 241.648C205.467 241.636 205.393 241.636 205.32 241.648C205.273 241.658 205.229 241.677 205.19 241.704C205.151 241.731 205.118 241.765 205.093 241.805C205.01 241.949 205.045 242.018 205.093 242.059C205.32 242.367 206.538 242.38 207.439 242.25C206.851 241.931 206.206 241.726 205.54 241.648Z" fill="#1988FF"/>
<path d="M207.776 242.449H207.728C207.143 242.182 205.987 241.142 206.077 240.601C206.077 240.471 206.187 240.314 206.503 240.279C206.617 240.267 206.732 240.278 206.841 240.313C206.95 240.347 207.05 240.403 207.136 240.478C207.578 241.001 207.843 241.65 207.893 242.332C207.892 242.352 207.888 242.371 207.879 242.389C207.871 242.406 207.859 242.422 207.845 242.435C207.824 242.446 207.8 242.451 207.776 242.449ZM206.593 240.498H206.524C206.317 240.498 206.304 240.601 206.304 240.628C206.249 240.957 207.033 241.771 207.632 242.127C207.578 241.58 207.354 241.064 206.992 240.649C206.88 240.551 206.735 240.497 206.586 240.498H206.593Z" fill="#1988FF"/>
<path d="M212.366 231.434L212.826 242.082H208.49L208.03 231.434H212.366Z" stroke="#37474F" stroke-width="0.5"/>
<path d="M243.718 230.013L248.252 239.929L244.026 240.841L239.485 230.919L243.718 230.013Z" stroke="#37474F" stroke-width="0.5"/>
<path d="M243.421 240.656L248.74 239.506C248.833 239.487 248.931 239.5 249.016 239.544C249.101 239.587 249.169 239.659 249.207 239.746L251.051 243.722C251.1 243.818 251.126 243.925 251.125 244.033C251.125 244.141 251.099 244.247 251.049 244.344C251 244.44 250.928 244.523 250.84 244.586C250.751 244.649 250.649 244.691 250.542 244.707C248.684 245.077 247.756 245.166 245.423 245.665C243.985 245.973 240.738 246.76 238.75 247.191C236.761 247.623 236.08 245.72 236.858 245.371C240.332 243.79 241.777 242.401 242.72 241.107C242.888 240.875 243.139 240.713 243.421 240.656Z" fill="#1988FF"/>
<path d="M208.285 241.778H213.569C213.665 241.779 213.758 241.811 213.833 241.871C213.908 241.931 213.96 242.014 213.982 242.107L214.938 246.384C214.965 246.487 214.967 246.595 214.945 246.698C214.922 246.802 214.876 246.9 214.809 246.983C214.742 247.066 214.657 247.132 214.56 247.177C214.463 247.221 214.357 247.243 214.25 247.239C212.344 247.239 209.592 247.096 207.198 247.096C204.391 247.096 201.976 247.253 198.688 247.253C196.699 247.253 196.149 245.255 196.981 245.07C200.765 244.249 203.861 244.16 207.129 242.155C207.473 241.926 207.872 241.796 208.285 241.778Z" fill="#1988FF"/>
<path d="M227.845 78.0172C232.379 79.0506 236.101 90.5684 236.101 90.5684L227.04 97.4941C224.688 94.9928 223.029 91.9274 222.224 88.5974C220.621 82.5614 223.208 76.977 227.845 78.0172Z" fill="#1988FF"/>
<path opacity="0.4" d="M227.845 78.0172C232.379 79.0506 236.101 90.5684 236.101 90.5684L227.04 97.4941C224.688 94.9928 223.029 91.9274 222.224 88.5974C220.621 82.5614 223.208 76.977 227.845 78.0172Z" fill="#1988FF"/>
<path d="M199.539 87.9239L198.69 87.1235C198.481 87.3281 198.269 87.5359 198.055 87.7457C197.268 88.5169 196.455 89.3143 195.646 90.0732L195.645 90.0738L194.001 91.6067L193.998 91.6093L193.998 91.6093L193.772 91.8134C193.91 91.7961 194.05 91.7882 194.19 91.7898M199.539 87.9239L194.191 91.7898C194.191 91.7898 194.19 91.7898 194.19 91.7898M199.539 87.9239C199.371 88.2492 199.205 88.5756 199.042 88.9033L199.042 88.9032L199.038 88.9105C198.937 89.1305 198.825 89.3585 198.713 89.5878C198.663 89.6907 198.612 89.7938 198.562 89.8966C198.405 90.221 198.256 90.5414 198.158 90.8144C197.91 91.4245 197.694 92.0473 197.512 92.6801C197.42 92.9805 197.339 93.2843 197.27 93.5908C197.109 93.2912 196.901 93.0181 196.651 92.7824C195.989 92.1497 195.108 91.7945 194.19 91.7898M199.539 87.9239L194.19 91.7898M197.691 97.4353L197.69 97.436L197.464 97.6341C197.464 97.6342 197.464 97.6343 197.463 97.6344C197.355 97.7285 197.223 97.8406 197.085 97.9451L197.085 97.945L197.083 97.9468C196.693 98.2493 196.265 98.5004 195.811 98.694C195.309 98.9023 194.771 99.0119 194.227 99.0167C193.765 99.0185 193.306 98.9381 192.872 98.7792C192.391 98.5968 191.952 98.3197 191.582 97.9644C191.109 97.5043 190.762 96.9315 190.575 96.3006L190.575 96.3006L190.574 96.2966C190.475 95.983 190.411 95.6594 190.385 95.3319L190.385 95.3301C190.35 94.9379 190.35 94.5434 190.385 94.1511C190.418 93.8295 190.458 93.558 190.511 93.3016L190.511 93.3007C190.697 92.3814 190.96 91.4792 191.298 90.6036L191.298 90.6036L191.299 90.6002C191.607 89.7671 191.959 88.9509 192.354 88.1552C192.654 87.5638 192.94 87.0874 193.229 86.6074C193.36 86.3894 193.492 86.1707 193.625 85.9401C195.322 83.1759 197.258 80.5643 199.411 78.1352L199.412 78.1348C201.494 75.7757 203.784 73.6065 206.254 71.6528L208.48 73.9326C206.745 76.2567 205.039 78.7383 203.459 81.18C202.136 83.2172 200.908 85.3138 199.779 87.463L198.859 86.5952L198.685 86.4307L198.513 86.598C198.246 86.8584 197.975 87.1239 197.702 87.3919C196.916 88.162 196.108 88.9537 195.304 89.7084C195.304 89.7085 195.304 89.7085 195.304 89.7086L193.663 91.2384L193.66 91.241L192.83 91.9912L192.829 91.9923L192.567 92.2319L192.486 92.3062V92.4162C192.486 92.418 192.486 92.423 192.487 92.4291C192.487 92.4348 192.488 92.4464 192.49 92.4606L192.49 92.4607C192.493 92.4772 192.508 92.5689 192.599 92.6292C192.694 92.6919 192.787 92.6674 192.808 92.6612C192.836 92.6533 192.856 92.6422 192.862 92.6393L192.862 92.6391C192.873 92.633 192.887 92.6244 192.888 92.6235C192.894 92.6202 192.9 92.6163 192.908 92.6114C192.941 92.5923 193.017 92.5509 193.177 92.4825C193.496 92.3512 193.839 92.2856 194.185 92.2898L194.187 92.2898C194.978 92.2936 195.736 92.5997 196.306 93.1444L196.307 93.1455C196.646 93.465 196.895 93.8662 197.031 94.3099L197.031 94.3099L197.033 94.3145C197.069 94.426 197.094 94.5409 197.106 94.6574C197.107 94.6904 197.108 94.7234 197.11 94.7564V94.7565V94.7568V94.7569V94.757V94.7573V94.7576V94.7577V94.7578V94.7581V94.7582V94.7584V94.7586V94.7586V94.7589V94.759V94.7592V94.7594V94.7595V94.7597V94.7599V94.76V94.7602V94.7603V94.7605V94.7607V94.7608V94.761V94.7612V94.7613V94.7615V94.7616V94.7618V94.762V94.7621V94.7623V94.7624V94.7626V94.7628V94.7628V94.7631V94.7632V94.7633V94.7636V94.7636V94.7639V94.764V94.7641V94.7644V94.7646V94.7647V94.7649V94.7651V94.7654V94.7655V94.7656V94.7659V94.7659V94.7661V94.7663V94.7664V94.7666V94.7666V94.7669V94.767V94.7671V94.7673V94.7676V94.7677V94.7678V94.7681V94.7683V94.7684V94.7685V94.7688V94.769V94.7691V94.7693V94.7695V94.7695V94.7697V94.7698V94.77V94.7701V94.7702V94.7704V94.7705V94.7707V94.7708V94.7709V94.7711V94.7711V94.7714V94.7715V94.7716V94.7718V94.7718V94.772V94.7721V94.7723V94.7724V94.7725V94.7727V94.7727V94.7729V94.7731V94.7731V94.7734V94.7736V94.7737V94.7738V94.774V94.774V94.7742V94.7743V94.7745V94.7746V94.7747V94.7749V94.7749V94.7751V94.7751V94.7753V94.7754V94.7755V94.7757V94.7759V94.776V94.7761V94.7763V94.7763V94.7765V94.7767V94.7768V94.7769V94.7771V94.7771V94.7773V94.7775V94.7776V94.7777V94.7779V94.7779V94.7781V94.7783V94.7784V94.7785V94.7787V94.7787V94.7789V94.7791V94.7791V94.7793V94.7794V94.7795V94.7796V94.7796V94.7798V94.7799V94.78V94.7801V94.7802V94.7803V94.7804V94.7806V94.7807V94.7808V94.7809V94.781V94.7811V94.7812V94.7813V94.7814V94.7815V94.7816V94.7817V94.7818V94.7819V94.7819V94.7821V94.7823V94.7823V94.7824V94.7825V94.7826V94.7827V94.7828V94.7829V94.7831V94.7831V94.7832V94.7833V94.7834V94.7835V94.7835V94.7837V94.7837V94.7838V94.784V94.784V94.7841V94.7842V94.7843V94.7844V94.7844V94.7846V94.7847V94.7847V94.7849V94.7849V94.785V94.7851V94.7851V94.7852V94.7853V94.7854V94.7855V94.7856V94.7857V94.7857V94.7858V94.7859V94.7859V94.786V94.7861V94.7862V94.7862V94.7863V94.7864V94.7865V94.7866V94.7866V94.7867V94.7867V94.7868V94.7869V94.7869V94.787V94.787V94.7871V94.7872V94.7873V94.7874V94.7874V94.7875V94.7875V94.7876V94.7876V94.7877V94.7878V94.7878V94.7879V94.788V94.7881V94.7882V94.7882V94.7883V94.7883V94.7884V94.7884V94.7885V94.7885V94.7885V94.7886V94.7886V94.7887V94.7888V94.7889V94.789V94.789V94.7891V94.7891V94.7891V94.7892V94.7892V94.7893V94.7893V94.7893V94.7894V94.7894V94.7895V94.7895V94.7895V94.7896V94.7897V94.7897V94.7898V94.7898V94.7899V94.79V94.79V94.79V94.79V94.7901V94.7901V94.7901V94.7901V94.7901V94.7902V94.7902V94.7902V94.7902V94.7903V94.7903V94.7903V94.7904V94.7904V94.7904V94.7905V94.7905V94.7905V94.7905V94.7906V94.7906V94.7906V94.7906V94.7906L197.61 94.7906V94.7906V94.7906V94.7906V94.7906V94.7905V94.7905V94.7905V94.7905V94.7904V94.7904V94.7904V94.7903V94.7903V94.7903V94.7902V94.7902V94.7902V94.7902V94.7901V94.7901V94.7901V94.7901V94.7901V94.79V94.79V94.79V94.79V94.7899V94.7899V94.7898V94.7897V94.7897V94.7896V94.7895V94.7895V94.7895V94.7894V94.7894V94.7893V94.7893V94.7893V94.7892V94.7892V94.7891V94.7891V94.7891V94.789V94.789V94.7889V94.7888V94.7887V94.7886V94.7886V94.7885V94.7885V94.7885V94.7884V94.7884V94.7883V94.7883V94.7882V94.7882V94.7881V94.788V94.7879V94.7878V94.7878V94.7877V94.7876V94.7876V94.7875V94.7875V94.7874V94.7874V94.7873V94.7872V94.7871V94.787V94.787V94.7869V94.7869V94.7868V94.7867V94.7867V94.7866V94.7866V94.7865V94.7864V94.7863V94.7862V94.7862V94.7861V94.786V94.7859V94.7859V94.7858V94.7857V94.7857V94.7856V94.7855V94.7854V94.7853V94.7852V94.7851V94.7851V94.785V94.7849V94.7849V94.7847V94.7847V94.7846V94.7844V94.7844V94.7843V94.7842V94.7841V94.784V94.784V94.7839V94.7837V94.7837V94.7835V94.7835V94.7834V94.7833V94.7832V94.7831V94.7831V94.7829V94.7828V94.7827V94.7826V94.7825V94.7824V94.7823V94.7823V94.7821V94.7819V94.7819V94.7818V94.7817V94.7816V94.7815V94.7814V94.7813V94.7812V94.7811V94.781V94.7809V94.7808V94.7807V94.7806V94.7804V94.7803V94.7802V94.7801V94.78V94.7799V94.7798V94.7796V94.7796V94.7795V94.7794V94.7793V94.7791V94.7791V94.7789V94.7787V94.7787V94.7785V94.7784V94.7783V94.7781V94.7779V94.7779V94.7777V94.7776V94.7775V94.7774V94.7771V94.7771V94.7769V94.7768V94.7767V94.7766V94.7763V94.7763V94.7761V94.776V94.7759V94.7757V94.7755V94.7754V94.7753V94.7751V94.7751V94.7749V94.7749V94.7747V94.7746V94.7745V94.7743V94.7742V94.774V94.774V94.7738V94.7737V94.7736V94.7734V94.7731V94.7731V94.7729V94.7727V94.7727V94.7725V94.7724V94.7723V94.7721V94.772V94.7718V94.7718V94.7716V94.7715V94.7714V94.7711V94.7711V94.7709V94.7708V94.7707V94.7705V94.7704V94.7702V94.7701V94.77V94.7698V94.7697V94.7695V94.7695V94.7693V94.7691V94.769V94.7688V94.7685V94.7684V94.7683V94.7681V94.7678V94.7677V94.7676V94.7674V94.7671V94.767V94.7669V94.7666V94.7666V94.7664V94.7663V94.7661V94.7659V94.7659V94.7656V94.7655V94.7654V94.7651V94.7649V94.7647V94.7646V94.7644V94.7641V94.764V94.7639V94.7636V94.7636V94.7633V94.7632V94.7631V94.7628V94.7628V94.7626V94.7624V94.7623V94.7621V94.762V94.7618V94.7616V94.7615V94.7613V94.7612V94.761V94.7608V94.7607V94.7605V94.7603V94.7602V94.76V94.7599V94.7597V94.7595V94.7594V94.7592V94.759V94.7589V94.7586V94.7586V94.7584V94.7582V94.7581V94.7578V94.7577V94.7576V94.7573V94.757V94.7569V94.7568V94.7565V94.7564V94.7562V94.756V94.7557V94.7555V94.7554V94.7551V94.755V94.7549V94.7546V94.7543V94.7541V94.754V94.7538V94.7536V94.7535V94.7532V94.7532V94.7529V94.7527V94.7527V94.7524V94.7522V94.7521V94.7518V94.7517V94.7515V94.7513V94.751V94.7508V94.7507V94.7504V94.7503V94.7501V94.7499H197.61L197.61 94.7436V94.743V94.7425V94.7419V94.7414V94.7408V94.7403V94.7397V94.7391V94.7386V94.738V94.7374V94.7368V94.7362V94.7357V94.7351V94.7345V94.7339V94.7333V94.7327V94.732V94.7314V94.7308V94.7302V94.7296V94.7289V94.7283V94.7277V94.727V94.7264V94.7257V94.7251V94.7244V94.7238V94.7231V94.7224V94.7218V94.7211V94.7204V94.7197V94.719V94.7184V94.7177V94.717V94.7163V94.7156V94.7148V94.7141V94.7134V94.7127V94.712V94.7112V94.7105V94.7098V94.709V94.7083V94.7075V94.7068V94.706V94.7053V94.7045V94.7037V94.703V94.7022V94.7014V94.7006V94.6998V94.699V94.6982V94.6974V94.6966V94.6958V94.695V94.6942V94.6934V94.6925V94.6917V94.6909V94.69V94.6892V94.6884V94.6875V94.6866V94.6858V94.6849V94.6841V94.6832V94.6823V94.6814V94.6714L197.609 94.6615C197.608 94.6508 197.607 94.6401 197.606 94.6295C197.606 94.5866 197.607 94.5438 197.609 94.501C197.694 93.9338 197.822 93.3736 197.991 92.8252L197.991 92.8253L197.992 92.8206C198.17 92.2024 198.38 91.594 198.623 90.9981L198.623 90.9982L198.627 90.9878C198.715 90.7419 198.854 90.4415 199.012 90.1145C199.06 90.0165 199.109 89.9161 199.159 89.8146C199.272 89.5838 199.387 89.3477 199.491 89.123C199.631 88.8414 199.774 88.5607 199.918 88.2809L203.64 91.7911C202.573 92.9296 201.504 93.9542 200.38 95.0202C199.798 95.5722 199.208 96.1106 198.605 96.6423C198.605 96.6424 198.605 96.6426 198.605 96.6428L197.691 97.4353Z" stroke="#37474F" stroke-width="0.5"/>
<path opacity="0.2" d="M223.958 86.5101C226.421 88.9328 227.226 93.3537 227.398 97.1862L226.999 97.4941C224.647 94.9928 222.987 91.9274 222.183 88.5974C222.093 88.2347 222.011 87.8789 221.949 87.523L223.958 86.5101Z" fill="black"/>
<path d="M199.183 82.8625C198.192 88.0636 197.573 98.7465 200.442 119.893H226.352C226.531 115.938 224.033 96.6592 227.866 78.0377C225.002 77.4908 222.107 77.1274 219.197 76.9496C215.531 76.737 211.855 76.737 208.189 76.9496C206.978 77.0591 205.781 77.237 204.749 77.4218C203.376 77.6613 202.109 78.3097 201.115 79.2813C200.121 80.2528 199.448 81.5016 199.183 82.8625Z" fill="#1988FF"/>
<path opacity="0.4" d="M199.183 82.8625C198.192 88.0636 197.573 98.7465 200.442 119.893H226.352C226.531 115.938 224.033 96.6592 227.866 78.0377C225.002 77.4908 222.107 77.1274 219.197 76.9496C215.531 76.737 211.855 76.737 208.189 76.9496C206.978 77.0591 205.781 77.237 204.749 77.4218C203.376 77.6613 202.109 78.3097 201.115 79.2813C200.121 80.2528 199.448 81.5016 199.183 82.8625Z" fill="#1988FF"/>
<path opacity="0.2" d="M203.146 90.5479L198.467 89.4392C198.323 92.2519 198.309 95.749 198.516 100.067C200.669 97.6242 203.421 93.826 203.146 90.5479Z" fill="black"/>
<path opacity="0.2" d="M207.769 231.191L208.017 236.933H212.86L212.613 231.191H207.769Z" fill="black"/>
<path opacity="0.2" d="M243.862 229.727L239.128 230.746L241.577 236.098L246.311 235.078L243.862 229.727Z" fill="black"/>
<path d="M219.871 60.9768L219.871 60.9768L219.87 60.9803C219.761 61.3866 219.658 61.7776 219.559 62.154C218.521 66.0935 217.902 68.4412 215.377 70.1378C211.264 72.8936 206.095 69.7397 205.962 65.0073L205.962 65.0057C205.887 62.8385 206.357 60.076 207.456 57.747C208.556 55.4156 210.262 53.564 212.638 53.1195L212.638 53.1195C213.693 52.9212 214.78 52.9942 215.799 53.3313C216.817 53.6685 217.731 54.2586 218.456 55.0457C219.18 55.8328 219.69 56.7907 219.938 57.8286C220.185 58.8665 220.163 59.9501 219.871 60.9768Z" stroke="#37474F" stroke-width="0.5"/>
<path d="M209.255 61.223C209.021 60.6071 207.955 55.8371 208.959 54.5984C209.964 53.3597 221.419 54.2493 223.112 55.9123C225.925 58.6498 223.972 61.1135 220.896 64.2821C218.584 66.6637 218.495 69.3464 217.325 69.757C215.261 70.4413 212.11 69.798 211.477 67.6286C210.844 65.4592 209.255 61.223 209.255 61.223Z" fill="black"/>
<path d="M221.722 50.4853C217.676 48.7676 210.088 50.6701 205.987 49.6846C205.928 51.2049 206.425 52.6949 207.387 53.878C208.349 55.0611 209.709 55.8569 211.216 56.1176C214.617 56.7623 218.073 57.0786 221.536 57.062C226.042 56.8567 225.162 51.943 221.722 50.4853Z" fill="black"/>
<path d="M222.355 56.056C223.833 56.2005 225.322 55.9153 226.641 55.2348C227.398 57.0552 223.235 57.5548 222.355 56.056Z" fill="black"/>
<path d="M210.688 59.9334C211.028 60.2222 211.248 60.7435 211.207 61.3971C211.119 62.5256 210.658 63.5937 209.896 64.4354C209.414 64.9617 208.989 65.0022 208.69 64.8558C208.363 64.6951 208.069 64.258 207.983 63.5994C207.904 62.9998 207.947 62.1795 208.164 61.4405C208.383 60.6945 208.762 60.0868 209.314 59.8272C209.881 59.56 210.359 59.6529 210.688 59.9334Z" stroke="#37474F" stroke-width="0.5"/>
<path d="M209.627 119.893C209.627 119.893 215.131 156.678 218.137 170.461C221.433 185.517 239.142 235.475 239.142 235.475L247.804 233.614C247.804 233.614 235.42 192.922 232.668 171.823C230.535 155.617 226.345 119.886 226.345 119.886L209.627 119.893Z" fill="#37474F"/>
<path d="M237.064 232.608C237.03 232.608 238.681 235.722 238.681 235.722L248.423 233.627L247.604 230.712L237.064 232.608Z" fill="#263238"/>
<path opacity="0.3" d="M213.101 132.999C219.451 134.238 218.777 157.793 218.013 169.906C216.183 161.345 213.5 144.866 211.67 133.17C212.113 132.952 212.618 132.892 213.101 132.999Z" fill="#37474F"/>
<path d="M200.442 119.893C200.442 119.893 199.754 155.884 200.304 170.536C200.855 185.804 206.214 235.797 206.214 235.797H214.415C214.415 235.797 214.711 186.694 215.103 171.699C215.502 155.35 217.484 119.866 217.484 119.866L200.442 119.893Z" fill="#37474F"/>
<path d="M204.639 232.573C204.597 232.573 205.1 235.995 205.1 235.995H215.069L215.344 232.977L204.639 232.573Z" fill="#263238"/>
<path d="M209.324 84.4434C211.643 90.6642 198.013 97.9869 198.013 97.9869L192.11 90.4589C192.11 90.4589 196.08 82.6503 200.896 79.1327C206.847 74.7939 207.556 79.7076 209.324 84.4434Z" fill="#1988FF"/>
<path opacity="0.4" d="M209.324 84.4434C211.643 90.6642 198.013 97.9869 198.013 97.9869L192.11 90.4589C192.11 90.4589 196.08 82.6503 200.896 79.1327C206.847 74.7939 207.556 79.7076 209.324 84.4434Z" fill="#1988FF"/>
<path d="M262.727 37.2156C276.44 37.2156 287.556 30.1684 287.556 21.4752C287.556 12.7821 276.44 5.73492 262.727 5.73492C249.013 5.73492 237.897 12.7821 237.897 21.4752C237.897 30.1684 249.013 37.2156 262.727 37.2156Z" fill="#1988FF"/>
<path d="M253.769 29.4275C252.132 29.4233 250.549 28.8444 249.299 27.7927C248.049 26.741 247.213 25.2841 246.937 23.6789C246.648 21.9337 247.035 20.1445 248.019 18.6715C249.003 17.1986 250.512 16.1512 252.241 15.7403C253.652 15.4171 255.128 15.5416 256.463 16.0965C257.799 16.6514 258.926 17.6086 259.686 18.8336L275.627 15.5555C276.24 15.424 276.881 15.527 277.421 15.844C277.962 16.1611 278.362 16.6689 278.544 17.2664C278.627 17.5804 278.645 17.908 278.597 18.2292C278.549 18.5504 278.435 18.8584 278.263 19.1345C278.092 19.4106 277.865 19.6489 277.597 19.8348C277.329 20.0208 277.027 20.1505 276.707 20.216L276.294 20.2981C276.233 20.3091 276.175 20.3339 276.125 20.3707C276.074 20.4075 276.034 20.4553 276.005 20.5103C275.98 20.5662 275.966 20.6269 275.966 20.6882C275.966 20.7496 275.98 20.8103 276.005 20.8662L276.287 21.5916C276.382 21.8255 276.392 22.0855 276.314 22.3258C276.236 22.566 276.075 22.7713 275.86 22.9056C275.692 23.0117 275.549 23.1541 275.443 23.3223C275.337 23.4905 275.271 23.6801 275.248 23.8774C275.228 24.103 275.137 24.3164 274.987 24.4873C274.838 24.6581 274.638 24.7776 274.416 24.8286L274.092 24.8902C273.869 24.9342 273.637 24.9054 273.431 24.808C273.226 24.7106 273.057 24.5498 272.95 24.3496C272.811 24.1071 272.598 23.9147 272.341 23.7998C272.085 23.6848 271.799 23.6531 271.524 23.7092C271.249 23.7653 270.999 23.9064 270.809 24.1123C270.619 24.3182 270.499 24.5784 270.467 24.856C270.449 25.0814 270.359 25.2952 270.211 25.4663C270.062 25.6374 269.863 25.7569 269.641 25.8073L269.318 25.8757C269.094 25.9158 268.862 25.8845 268.657 25.7861C268.452 25.6878 268.284 25.5275 268.176 25.3282C268.075 25.1563 267.937 25.0091 267.771 24.8978C267.606 24.7864 267.417 24.7136 267.219 24.6849C266.96 24.6541 266.721 24.5324 266.545 24.3417C266.368 24.1509 266.266 23.9038 266.256 23.6447V22.8645C266.254 22.803 266.239 22.7426 266.21 22.6881C266.181 22.6335 266.141 22.5862 266.091 22.5497C266.044 22.5102 265.988 22.4821 265.929 22.4679C265.869 22.4536 265.807 22.4535 265.747 22.4676L260.663 23.5078C260.454 24.9077 259.817 26.2097 258.838 27.237C257.86 28.2643 256.587 28.967 255.193 29.2496C254.726 29.3597 254.249 29.4194 253.769 29.4275ZM252.393 16.4247C250.832 16.7872 249.468 17.7245 248.574 19.0476C247.681 20.3708 247.324 21.9816 247.577 23.5557C247.837 25.0282 248.621 26.3584 249.786 27.3034C250.95 28.2484 252.418 28.7451 253.92 28.7027C255.423 28.6604 256.86 28.0818 257.969 27.0728C259.078 26.0637 259.785 24.6914 259.961 23.2067V22.9603L265.568 21.7969C265.727 21.7624 265.891 21.7636 266.05 21.8003C266.208 21.837 266.356 21.9083 266.483 22.009C266.61 22.1081 266.714 22.2334 266.788 22.3764C266.862 22.5194 266.903 22.6766 266.91 22.8371V23.6105C266.911 23.7042 266.944 23.7946 267.004 23.8669C267.064 23.9391 267.148 23.9886 267.24 24.0074C267.541 24.0502 267.828 24.1606 268.079 24.3302C268.331 24.4997 268.54 24.724 268.692 24.986C268.728 25.0599 268.787 25.1206 268.859 25.1599C268.932 25.1991 269.015 25.2149 269.097 25.205L269.414 25.1366C269.495 25.1147 269.566 25.0677 269.618 25.0025C269.67 24.9372 269.7 24.8571 269.703 24.7739C269.753 24.3535 269.934 23.9594 270.222 23.6477C270.51 23.3359 270.889 23.1224 271.306 23.0375C271.723 22.9526 272.156 23.0007 272.544 23.1748C272.932 23.3489 273.255 23.6403 273.466 24.0074C273.501 24.0808 273.558 24.1411 273.63 24.1793C273.702 24.2175 273.785 24.2317 273.865 24.2195L274.196 24.1579C274.276 24.1358 274.346 24.0885 274.397 24.0232C274.448 23.9578 274.476 23.8779 274.478 23.7952C274.513 23.496 274.616 23.2086 274.779 22.9548C274.942 22.7011 275.162 22.4876 275.42 22.3307C275.496 22.2763 275.551 22.1983 275.578 22.109C275.604 22.0198 275.599 21.9244 275.565 21.838L275.283 21.1125C275.224 20.9625 275.199 20.8017 275.21 20.6412C275.22 20.4807 275.266 20.3244 275.343 20.1831C275.42 20.0418 275.527 19.9189 275.657 19.823C275.787 19.727 275.936 19.6603 276.094 19.6275L276.514 19.5453C276.743 19.5 276.959 19.4078 277.15 19.2746C277.34 19.1415 277.501 18.9703 277.622 18.772C277.747 18.5756 277.829 18.3558 277.865 18.1262C277.9 17.8965 277.888 17.6621 277.828 17.4375C277.691 17.0087 277.398 16.6464 277.005 16.4222C276.613 16.198 276.151 16.128 275.709 16.2262L259.376 19.6001L259.252 19.3879C258.586 18.2217 257.557 17.3022 256.32 16.7679C255.083 16.2335 253.705 16.113 252.393 16.4247ZM253.769 26.8885C252.644 26.8853 251.563 26.4524 250.749 25.6791C249.936 24.9059 249.452 23.8514 249.397 22.7335C249.343 21.6156 249.722 20.5195 250.457 19.6717C251.191 18.8239 252.225 18.2891 253.345 18.1778C254.464 18.0664 255.584 18.387 256.473 19.0733C257.362 19.7596 257.952 20.7592 258.121 21.8657C258.29 22.9723 258.026 24.1012 257.382 25.0193C256.739 25.9375 255.765 26.5748 254.663 26.7996C254.37 26.8523 254.073 26.8752 253.776 26.868L253.769 26.8885ZM253.769 18.8062C253.512 18.8077 253.257 18.8329 253.005 18.8815C252.093 19.1355 251.313 19.7258 250.823 20.5322C250.333 21.3386 250.171 22.3004 250.369 23.2217C250.567 24.1429 251.111 24.9544 251.89 25.4908C252.668 26.0271 253.623 26.248 254.56 26.1084C255.456 25.9179 256.249 25.4057 256.789 24.6697C257.328 23.9338 257.576 23.0258 257.485 22.1195C257.394 21.2131 256.97 20.3719 256.295 19.7569C255.619 19.1418 254.74 18.7961 253.824 18.7857L253.769 18.8062Z" fill="white"/>
<path opacity="0.6" d="M242.52 46.4476C247.026 46.4476 250.68 44.1312 250.68 41.2738C250.68 38.4164 247.026 36.1 242.52 36.1C238.014 36.1 234.36 38.4164 234.36 41.2738C234.36 44.1312 238.014 46.4476 242.52 46.4476Z" fill="#1988FF"/>
<path opacity="0.3" d="M229.537 48.5623C231.388 48.5623 232.888 47.6124 232.888 46.4407C232.888 45.2691 231.388 44.3192 229.537 44.3192C227.687 44.3192 226.187 45.2691 226.187 46.4407C226.187 47.6124 227.687 48.5623 229.537 48.5623Z" fill="#1988FF"/>
<path d="M116.017 163.941H115.483V164.884C115.475 164.943 115.446 164.996 115.402 165.035C115.357 165.073 115.3 165.095 115.241 165.095C115.183 165.095 115.126 165.073 115.081 165.035C115.037 164.996 115.008 164.943 115 164.884V162.322C115 162.259 115.025 162.198 115.07 162.153C115.115 162.108 115.176 162.083 115.239 162.083H116.017C116.261 162.083 116.495 162.18 116.667 162.352C116.84 162.525 116.937 162.759 116.937 163.003C116.937 163.247 116.84 163.481 116.667 163.654C116.495 163.826 116.261 163.923 116.017 163.923V163.941ZM115.483 163.481H116.017C116.084 163.498 116.155 163.5 116.224 163.485C116.292 163.471 116.356 163.441 116.411 163.398C116.467 163.355 116.511 163.3 116.542 163.237C116.572 163.174 116.588 163.105 116.588 163.035C116.588 162.965 116.572 162.896 116.542 162.833C116.511 162.771 116.467 162.716 116.411 162.673C116.356 162.63 116.292 162.6 116.224 162.585C116.155 162.571 116.084 162.572 116.017 162.589H115.483V163.481Z" fill="black" fill-opacity="0.5"/>
<path d="M118.777 164.406H117.723L117.512 164.972C117.492 165.016 117.461 165.054 117.421 165.081C117.381 165.107 117.334 165.122 117.286 165.124C117.259 165.129 117.231 165.129 117.203 165.124C117.143 165.101 117.094 165.055 117.068 164.997C117.041 164.938 117.038 164.871 117.061 164.811L118.018 162.253C118.036 162.208 118.068 162.168 118.109 162.141C118.15 162.113 118.198 162.099 118.248 162.099C118.297 162.099 118.345 162.113 118.386 162.141C118.427 162.168 118.459 162.208 118.478 162.253L119.457 164.802C119.48 164.862 119.477 164.929 119.451 164.987C119.424 165.046 119.375 165.092 119.315 165.114C119.287 165.12 119.259 165.12 119.232 165.114C119.184 165.113 119.138 165.099 119.099 165.072C119.06 165.045 119.029 165.007 119.011 164.963L118.777 164.406ZM118.597 163.946L118.248 163.026L117.893 163.946H118.597Z" fill="black" fill-opacity="0.5"/>
<path d="M119.862 164.365C119.901 164.32 119.956 164.292 120.015 164.287C120.074 164.282 120.133 164.3 120.18 164.337C120.411 164.536 120.703 164.652 121.008 164.668C121.2 164.671 121.389 164.617 121.55 164.512C121.604 164.478 121.648 164.432 121.68 164.378C121.712 164.323 121.731 164.262 121.734 164.199C121.735 164.149 121.722 164.1 121.698 164.056C121.662 164.005 121.617 163.961 121.564 163.928C121.381 163.823 121.18 163.754 120.971 163.725V163.725C120.779 163.691 120.592 163.633 120.414 163.555C120.249 163.485 120.109 163.368 120.009 163.219C119.943 163.111 119.908 162.987 119.908 162.86C119.913 162.735 119.947 162.613 120.008 162.503C120.068 162.394 120.154 162.3 120.258 162.23C120.478 162.077 120.74 161.997 121.008 162C121.341 162.022 121.661 162.142 121.928 162.345C121.976 162.378 122.01 162.429 122.023 162.486C122.035 162.544 122.024 162.604 121.992 162.653C121.976 162.678 121.956 162.699 121.931 162.716C121.907 162.732 121.88 162.744 121.851 162.75C121.823 162.756 121.793 162.756 121.764 162.751C121.736 162.745 121.708 162.734 121.684 162.718C121.484 162.557 121.24 162.461 120.985 162.442C120.811 162.438 120.64 162.49 120.497 162.589C120.45 162.618 120.41 162.658 120.382 162.705C120.353 162.752 120.336 162.805 120.331 162.86C120.329 162.904 120.34 162.948 120.364 162.985C120.396 163.029 120.436 163.067 120.483 163.095C120.648 163.193 120.831 163.259 121.021 163.288C121.228 163.322 121.429 163.382 121.619 163.468C121.796 163.545 121.948 163.671 122.056 163.831C122.124 163.942 122.159 164.069 122.158 164.199C122.153 164.332 122.117 164.463 122.052 164.58C121.988 164.696 121.896 164.796 121.785 164.871C121.551 165.036 121.271 165.123 120.985 165.119C120.573 165.093 120.181 164.931 119.871 164.659C119.836 164.618 119.816 164.567 119.815 164.513C119.813 164.46 119.83 164.407 119.862 164.365Z" fill="black" fill-opacity="0.5"/>
<path d="M122.714 164.365C122.753 164.32 122.807 164.292 122.865 164.287C122.923 164.282 122.982 164.3 123.027 164.337C123.262 164.534 123.554 164.65 123.86 164.668C124.051 164.672 124.238 164.617 124.398 164.512C124.452 164.479 124.498 164.433 124.531 164.379C124.564 164.324 124.583 164.262 124.586 164.199C124.588 164.148 124.573 164.099 124.545 164.056C124.512 164.005 124.468 163.961 124.416 163.928C124.233 163.823 124.032 163.754 123.823 163.725V163.725C123.631 163.691 123.444 163.634 123.266 163.555C123.102 163.485 122.961 163.368 122.861 163.219C122.795 163.111 122.76 162.987 122.76 162.86C122.765 162.735 122.799 162.613 122.86 162.503C122.92 162.394 123.006 162.3 123.11 162.23C123.329 162.077 123.592 161.996 123.86 162C124.202 162.018 124.53 162.138 124.803 162.345C124.845 162.381 124.872 162.431 124.88 162.486C124.888 162.54 124.875 162.596 124.844 162.642C124.814 162.688 124.767 162.721 124.714 162.735C124.66 162.749 124.603 162.743 124.554 162.718C124.356 162.557 124.114 162.461 123.86 162.442C123.686 162.438 123.515 162.49 123.372 162.589C123.325 162.618 123.285 162.658 123.257 162.705C123.228 162.752 123.211 162.805 123.206 162.86C123.204 162.904 123.215 162.948 123.239 162.985C123.27 163.028 123.309 163.065 123.354 163.095C123.521 163.193 123.705 163.258 123.896 163.288V163.288C124.103 163.322 124.304 163.383 124.494 163.468C124.671 163.544 124.821 163.67 124.927 163.831C124.998 163.94 125.035 164.068 125.033 164.199C125.028 164.332 124.992 164.463 124.927 164.58C124.863 164.696 124.771 164.796 124.66 164.871C124.426 165.036 124.146 165.123 123.86 165.119C123.448 165.093 123.057 164.931 122.746 164.659C122.707 164.622 122.683 164.571 122.677 164.518C122.671 164.464 122.684 164.41 122.714 164.365V164.365Z" fill="black" fill-opacity="0.5"/>
<path d="M129.577 162.446L128.515 164.972C128.517 164.985 128.517 165 128.515 165.013L128.492 165.041H128.46C128.45 165.053 128.438 165.063 128.423 165.068H128.391H128.285H128.253C128.239 165.062 128.226 165.052 128.216 165.041H128.184V165.013C128.181 165 128.181 164.985 128.184 164.972L127.618 163.629L127.047 164.972V165.013L127.024 165.041H126.997L126.965 165.068H126.928H126.822H126.79C126.776 165.062 126.763 165.052 126.753 165.041C126.753 165.041 126.753 165.041 126.721 165.041L126.698 165.013C126.699 164.999 126.699 164.986 126.698 164.972L125.437 162.446C125.413 162.385 125.414 162.317 125.44 162.257C125.466 162.196 125.514 162.149 125.575 162.124C125.636 162.1 125.705 162.101 125.765 162.127C125.825 162.153 125.873 162.201 125.897 162.262L126.748 164.273L127.31 162.939C127.328 162.894 127.359 162.856 127.399 162.829C127.439 162.803 127.487 162.79 127.535 162.791C127.581 162.798 127.624 162.818 127.66 162.848C127.696 162.878 127.723 162.917 127.737 162.962L128.294 164.296L129.14 162.285C129.153 162.256 129.171 162.23 129.194 162.208C129.217 162.186 129.244 162.168 129.273 162.157C129.303 162.145 129.334 162.14 129.366 162.14C129.398 162.141 129.429 162.148 129.458 162.161C129.51 162.185 129.551 162.228 129.573 162.281C129.595 162.333 129.596 162.393 129.577 162.446Z" fill="black" fill-opacity="0.5"/>
<path d="M132.618 162.46C132.899 162.757 133.055 163.151 133.055 163.56C133.055 163.968 132.899 164.362 132.618 164.659C132.486 164.802 132.326 164.917 132.148 164.996C131.97 165.075 131.778 165.117 131.583 165.119C131.384 165.119 131.187 165.078 131.004 164.999C130.822 164.919 130.657 164.804 130.52 164.659C130.243 164.36 130.088 163.967 130.088 163.56C130.088 163.152 130.243 162.759 130.52 162.46C130.656 162.314 130.82 162.198 131.003 162.119C131.186 162.039 131.384 161.999 131.583 162C131.778 162.001 131.971 162.042 132.149 162.121C132.327 162.201 132.487 162.316 132.618 162.46V162.46ZM132.563 163.56C132.561 163.279 132.456 163.009 132.268 162.801C132.182 162.703 132.076 162.624 131.957 162.571C131.838 162.517 131.709 162.489 131.578 162.489C131.448 162.489 131.319 162.517 131.2 162.571C131.081 162.624 130.975 162.703 130.888 162.801C130.697 163.007 130.591 163.278 130.594 163.56C130.59 163.84 130.695 164.111 130.888 164.314C130.975 164.412 131.081 164.49 131.2 164.544C131.319 164.598 131.448 164.625 131.578 164.625C131.709 164.625 131.838 164.598 131.957 164.544C132.076 164.49 132.182 164.412 132.268 164.314C132.458 164.108 132.563 163.839 132.563 163.56Z" fill="black" fill-opacity="0.5"/>
<path d="M135.921 164.76C135.931 164.79 135.935 164.822 135.933 164.853C135.931 164.885 135.922 164.915 135.908 164.943C135.894 164.972 135.874 164.997 135.85 165.017C135.827 165.038 135.799 165.054 135.769 165.064C135.737 165.068 135.704 165.068 135.672 165.064C135.613 165.063 135.554 165.047 135.502 165.018C135.446 164.977 135.399 164.926 135.364 164.866C135.297 164.701 135.267 164.524 135.277 164.346C135.277 164.279 135.257 164.214 135.222 164.157C135.189 164.106 135.145 164.064 135.093 164.033C135.018 163.984 134.936 163.948 134.849 163.927H134.338V164.87C134.337 164.934 134.311 164.995 134.265 165.04C134.22 165.085 134.158 165.11 134.095 165.11C134.031 165.11 133.97 165.084 133.925 165.04C133.881 164.995 133.855 164.934 133.855 164.87V162.322C133.855 162.259 133.881 162.198 133.925 162.153C133.97 162.108 134.031 162.083 134.095 162.083H134.872C135.066 162.078 135.257 162.134 135.417 162.243C135.577 162.353 135.698 162.51 135.763 162.693C135.829 162.875 135.835 163.074 135.78 163.26C135.726 163.447 135.614 163.611 135.461 163.73C135.52 163.774 135.572 163.829 135.613 163.891C135.706 164.026 135.755 164.186 135.755 164.351C135.744 164.435 135.744 164.52 135.755 164.604C135.794 164.614 135.829 164.634 135.858 164.661C135.887 164.688 135.908 164.722 135.921 164.76V164.76ZM135.314 163.017C135.314 162.895 135.265 162.778 135.179 162.691C135.093 162.605 134.976 162.557 134.854 162.557H134.32V163.449H134.854C134.971 163.449 135.084 163.405 135.169 163.324C135.255 163.244 135.307 163.134 135.314 163.017V163.017Z" fill="black" fill-opacity="0.5"/>
<path d="M136.625 164.884V162.322C136.625 162.259 136.65 162.198 136.695 162.153C136.739 162.108 136.8 162.083 136.864 162.083H137.397C137.786 162.104 138.152 162.274 138.419 162.557C138.687 162.839 138.836 163.214 138.836 163.603C138.836 163.993 138.687 164.367 138.419 164.65C138.152 164.933 137.786 165.102 137.397 165.124H136.887C136.853 165.127 136.82 165.123 136.788 165.112C136.756 165.102 136.727 165.085 136.702 165.062C136.678 165.04 136.658 165.012 136.645 164.982C136.631 164.951 136.624 164.918 136.625 164.884V164.884ZM137.108 164.641H137.397C137.66 164.623 137.907 164.506 138.087 164.314C138.268 164.121 138.368 163.867 138.368 163.603C138.368 163.34 138.268 163.086 138.087 162.893C137.907 162.7 137.66 162.584 137.397 162.566H137.131L137.108 164.641Z" fill="black" fill-opacity="0.5"/>
<path d="M107 142.677V140.23C107 140.2 107.006 140.17 107.018 140.143C107.029 140.115 107.046 140.09 107.068 140.069C107.089 140.048 107.114 140.031 107.142 140.02C107.17 140.009 107.2 140.004 107.23 140.005H108.582C108.642 140.006 108.698 140.03 108.74 140.072C108.782 140.114 108.807 140.171 108.808 140.23C108.808 140.291 108.784 140.349 108.742 140.393C108.7 140.436 108.643 140.462 108.582 140.465H107.46V141.224H108.426C108.487 141.224 108.545 141.248 108.589 141.291C108.632 141.334 108.656 141.393 108.656 141.454C108.656 141.515 108.632 141.573 108.589 141.616C108.545 141.659 108.487 141.684 108.426 141.684H107.46V142.677C107.459 142.737 107.434 142.795 107.391 142.837C107.348 142.879 107.29 142.903 107.23 142.903C107.2 142.903 107.17 142.898 107.142 142.887C107.114 142.876 107.089 142.859 107.068 142.838C107.046 142.817 107.029 142.792 107.018 142.765C107.006 142.737 107 142.707 107 142.677V142.677Z" fill="#263238"/>
<path d="M109.346 142.599C109.16 142.403 109.058 142.142 109.061 141.872C109.064 141.603 109.165 141.345 109.346 141.145C109.437 141.047 109.547 140.969 109.67 140.915C109.793 140.861 109.925 140.833 110.059 140.833C110.19 140.832 110.32 140.86 110.44 140.914C110.56 140.968 110.667 141.047 110.754 141.145C110.94 141.342 111.043 141.602 111.043 141.872C111.046 142.007 111.022 142.14 110.972 142.265C110.923 142.39 110.848 142.503 110.754 142.599C110.667 142.698 110.561 142.778 110.441 142.833C110.321 142.888 110.191 142.916 110.059 142.916C109.925 142.916 109.792 142.887 109.669 142.833C109.546 142.778 109.436 142.699 109.346 142.599ZM109.512 141.872C109.507 142.031 109.561 142.187 109.663 142.309C109.716 142.36 109.778 142.4 109.845 142.427C109.913 142.454 109.986 142.467 110.059 142.466C110.13 142.466 110.2 142.452 110.266 142.425C110.331 142.399 110.391 142.359 110.441 142.309C110.545 142.188 110.602 142.034 110.602 141.874C110.602 141.715 110.545 141.561 110.441 141.44C110.337 141.343 110.201 141.287 110.059 141.283C109.912 141.284 109.771 141.34 109.663 141.44C109.563 141.561 109.509 141.714 109.512 141.872V141.872Z" fill="#263238"/>
<path d="M112.939 141.053C112.937 141.111 112.914 141.166 112.872 141.207C112.831 141.247 112.776 141.27 112.718 141.27C112.629 141.268 112.541 141.295 112.469 141.348C112.392 141.4 112.327 141.469 112.281 141.55C112.206 141.655 112.148 141.772 112.111 141.895V142.682C112.11 142.711 112.104 142.741 112.092 142.768C112.08 142.795 112.063 142.819 112.041 142.84C112.02 142.86 111.995 142.876 111.967 142.887C111.94 142.898 111.91 142.903 111.881 142.903C111.822 142.903 111.766 142.879 111.724 142.838C111.683 142.797 111.66 142.74 111.66 142.682V141.053C111.661 140.996 111.685 140.941 111.726 140.9C111.767 140.86 111.823 140.837 111.881 140.837C111.94 140.836 111.997 140.858 112.04 140.898C112.083 140.939 112.108 140.994 112.111 141.053V141.099C112.135 141.068 112.162 141.041 112.193 141.017C112.348 140.911 112.531 140.855 112.718 140.856C112.773 140.854 112.826 140.874 112.867 140.911C112.908 140.947 112.934 140.999 112.939 141.053V141.053Z" fill="#263238"/>
<path d="M115.331 141.881V142.65C115.331 142.818 115.288 142.984 115.206 143.132C115.124 143.279 115.006 143.403 114.863 143.493C114.72 143.582 114.556 143.633 114.388 143.642C114.219 143.651 114.051 143.616 113.9 143.542C113.874 143.529 113.851 143.511 113.832 143.488C113.813 143.466 113.798 143.44 113.789 143.413C113.78 143.385 113.777 143.355 113.779 143.326C113.782 143.297 113.79 143.269 113.803 143.243C113.83 143.19 113.876 143.15 113.932 143.13C113.987 143.111 114.048 143.113 114.102 143.137C114.174 143.178 114.255 143.198 114.337 143.197C114.467 143.196 114.592 143.149 114.691 143.065C114.791 142.981 114.857 142.865 114.88 142.737C114.719 142.844 114.53 142.902 114.337 142.903C114.204 142.902 114.072 142.874 113.951 142.819C113.83 142.764 113.721 142.685 113.633 142.585C113.539 142.489 113.466 142.375 113.416 142.251C113.366 142.126 113.342 141.993 113.343 141.858C113.343 141.585 113.447 141.322 113.633 141.122C113.723 141.026 113.832 140.949 113.953 140.896C114.074 140.843 114.205 140.815 114.337 140.814C114.537 140.81 114.732 140.872 114.894 140.989C114.903 140.939 114.93 140.894 114.97 140.862C115.009 140.83 115.059 140.813 115.11 140.814C115.168 140.814 115.224 140.837 115.266 140.879C115.307 140.92 115.331 140.976 115.331 141.035V141.858V141.881ZM114.871 141.881C114.869 141.725 114.812 141.575 114.71 141.458C114.661 141.402 114.601 141.357 114.534 141.326C114.466 141.295 114.393 141.279 114.319 141.279C114.246 141.279 114.174 141.295 114.108 141.326C114.042 141.357 113.984 141.402 113.937 141.458C113.829 141.572 113.769 141.724 113.771 141.881C113.769 141.96 113.783 142.038 113.811 142.112C113.839 142.185 113.882 142.252 113.937 142.309C113.985 142.362 114.044 142.404 114.11 142.433C114.176 142.462 114.247 142.476 114.319 142.475C114.392 142.476 114.464 142.462 114.532 142.434C114.599 142.405 114.66 142.363 114.71 142.309C114.826 142.195 114.894 142.04 114.898 141.877L114.871 141.881Z" fill="#263238"/>
<path d="M116.402 142.599C116.309 142.503 116.236 142.389 116.187 142.264C116.138 142.139 116.114 142.006 116.117 141.872C116.118 141.603 116.22 141.343 116.402 141.145C116.493 141.047 116.603 140.968 116.726 140.914C116.849 140.86 116.981 140.833 117.115 140.833C117.246 140.833 117.375 140.861 117.494 140.915C117.613 140.969 117.719 141.047 117.805 141.145C117.993 141.341 118.097 141.601 118.095 141.872C118.099 142.007 118.075 142.141 118.026 142.266C117.976 142.391 117.901 142.504 117.805 142.599C117.72 142.698 117.614 142.777 117.495 142.832C117.376 142.887 117.246 142.916 117.115 142.916C116.981 142.916 116.848 142.888 116.725 142.834C116.602 142.779 116.492 142.699 116.402 142.599V142.599ZM116.568 141.872C116.564 142.031 116.616 142.185 116.715 142.309C116.823 142.412 116.967 142.468 117.115 142.466C117.258 142.465 117.395 142.409 117.497 142.309C117.601 142.188 117.658 142.034 117.658 141.874C117.658 141.715 117.601 141.561 117.497 141.44C117.393 141.344 117.257 141.288 117.115 141.283C116.967 141.285 116.825 141.341 116.715 141.44C116.618 141.563 116.566 141.715 116.568 141.872V141.872Z" fill="#263238"/>
<path d="M119.65 141.058C119.649 141.119 119.624 141.176 119.581 141.219C119.538 141.262 119.481 141.287 119.42 141.288H119.319V142.443C119.349 142.443 119.379 142.45 119.406 142.462C119.434 142.474 119.459 142.491 119.48 142.513C119.501 142.535 119.517 142.561 119.528 142.589C119.539 142.617 119.545 142.647 119.544 142.677C119.545 142.707 119.539 142.737 119.528 142.764C119.517 142.792 119.501 142.817 119.48 142.838C119.458 142.859 119.433 142.876 119.406 142.887C119.378 142.898 119.349 142.903 119.319 142.903C119.197 142.903 119.08 142.854 118.993 142.768C118.907 142.682 118.859 142.565 118.859 142.443V141.288H118.735C118.674 141.287 118.617 141.262 118.575 141.219C118.533 141.176 118.509 141.118 118.509 141.058C118.509 140.998 118.533 140.941 118.575 140.899C118.617 140.856 118.675 140.833 118.735 140.833H118.859V140.23C118.859 140.169 118.883 140.11 118.926 140.067C118.969 140.024 119.028 140 119.089 140C119.15 140 119.208 140.024 119.251 140.067C119.295 140.11 119.319 140.169 119.319 140.23V140.833H119.42C119.48 140.833 119.538 140.856 119.581 140.898C119.624 140.94 119.649 140.998 119.65 141.058Z" fill="#263238"/>
<path d="M122.631 141.776H122.125V142.696C122.124 142.726 122.118 142.756 122.106 142.783C122.093 142.811 122.076 142.836 122.054 142.857C122.032 142.878 122.007 142.894 121.979 142.905C121.95 142.916 121.92 142.922 121.89 142.921C121.83 142.921 121.773 142.897 121.731 142.855C121.689 142.813 121.665 142.755 121.665 142.696V140.248C121.665 140.189 121.689 140.131 121.731 140.089C121.773 140.047 121.83 140.023 121.89 140.023H122.631C122.752 140.014 122.875 140.031 122.99 140.071C123.105 140.112 123.21 140.176 123.299 140.259C123.389 140.342 123.46 140.442 123.509 140.554C123.557 140.666 123.582 140.787 123.582 140.909C123.582 141.031 123.557 141.151 123.509 141.263C123.46 141.375 123.389 141.475 123.299 141.559C123.21 141.642 123.105 141.705 122.99 141.746C122.875 141.786 122.752 141.803 122.631 141.794V141.776ZM122.125 141.316H122.631C122.69 141.322 122.751 141.315 122.808 141.297C122.865 141.278 122.917 141.248 122.962 141.208C123.006 141.168 123.042 141.119 123.066 141.064C123.09 141.009 123.103 140.95 123.103 140.89C123.103 140.83 123.09 140.771 123.066 140.716C123.042 140.662 123.006 140.612 122.962 140.572C122.917 140.532 122.865 140.502 122.808 140.483C122.751 140.465 122.69 140.458 122.631 140.465H122.125V141.316Z" fill="#263238"/>
<path d="M125.782 141.872V142.682C125.782 142.711 125.777 142.739 125.767 142.766C125.756 142.793 125.74 142.817 125.72 142.838C125.7 142.858 125.676 142.875 125.649 142.886C125.623 142.897 125.594 142.903 125.566 142.903C125.514 142.902 125.465 142.884 125.425 142.852C125.386 142.819 125.359 142.774 125.349 142.723C125.19 142.841 124.996 142.904 124.797 142.903C124.666 142.903 124.535 142.877 124.414 142.824C124.293 142.772 124.184 142.695 124.094 142.599C123.913 142.399 123.812 142.139 123.812 141.87C123.812 141.6 123.913 141.34 124.094 141.141C124.183 141.044 124.292 140.966 124.413 140.913C124.535 140.86 124.665 140.833 124.797 140.833C124.997 140.833 125.19 140.897 125.349 141.017C125.355 140.959 125.383 140.906 125.427 140.87C125.472 140.833 125.529 140.816 125.586 140.821C125.644 140.827 125.697 140.855 125.733 140.899C125.77 140.943 125.787 141.001 125.782 141.058V141.872ZM125.322 141.872C125.324 141.714 125.267 141.562 125.161 141.444C125.112 141.391 125.052 141.348 124.986 141.318C124.919 141.289 124.847 141.274 124.774 141.274C124.702 141.273 124.629 141.288 124.563 141.317C124.496 141.347 124.437 141.39 124.388 141.444C124.284 141.562 124.228 141.715 124.232 141.872C124.23 142.029 124.285 142.181 124.388 142.3C124.438 142.351 124.499 142.392 124.565 142.42C124.631 142.447 124.703 142.461 124.774 142.461C124.919 142.461 125.058 142.403 125.161 142.3C125.273 142.185 125.339 142.033 125.345 141.872H125.322Z" fill="#263238"/>
<path d="M126.495 142.309C126.513 142.286 126.536 142.267 126.561 142.253C126.587 142.239 126.615 142.231 126.644 142.228C126.674 142.225 126.703 142.228 126.731 142.236C126.759 142.244 126.785 142.258 126.808 142.277C126.936 142.389 127.098 142.454 127.268 142.461C127.366 142.46 127.463 142.433 127.548 142.383C127.568 142.368 127.585 142.35 127.598 142.328C127.611 142.307 127.619 142.283 127.622 142.259C127.625 142.252 127.626 142.245 127.626 142.238C127.626 142.231 127.625 142.224 127.622 142.217C127.612 142.195 127.594 142.177 127.571 142.167C127.469 142.108 127.356 142.069 127.24 142.052V142.052C127.115 142.028 126.993 141.991 126.877 141.941C126.762 141.888 126.663 141.806 126.591 141.702C126.544 141.623 126.521 141.532 126.522 141.44C126.525 141.35 126.548 141.261 126.59 141.181C126.632 141.101 126.693 141.032 126.766 140.98C126.918 140.88 127.095 140.827 127.277 140.828C127.502 140.837 127.719 140.916 127.898 141.053C127.946 141.087 127.979 141.138 127.991 141.195C128.003 141.252 127.993 141.312 127.962 141.362C127.946 141.386 127.926 141.406 127.902 141.423C127.878 141.439 127.851 141.45 127.823 141.455C127.795 141.461 127.766 141.461 127.737 141.455C127.709 141.449 127.682 141.438 127.659 141.421C127.549 141.333 127.417 141.278 127.277 141.265C127.188 141.264 127.101 141.291 127.028 141.343C126.973 141.38 126.959 141.417 126.959 141.435C126.959 141.454 126.959 141.435 126.959 141.467C126.97 141.486 126.986 141.5 127.005 141.509C127.098 141.564 127.202 141.599 127.309 141.61C127.441 141.633 127.569 141.673 127.691 141.73C127.812 141.778 127.915 141.864 127.985 141.973C128.036 142.057 128.063 142.152 128.063 142.249C128.059 142.341 128.033 142.43 127.988 142.51C127.944 142.589 127.881 142.658 127.806 142.709C127.648 142.82 127.46 142.877 127.268 142.875C126.995 142.867 126.734 142.766 126.527 142.59C126.49 142.554 126.467 142.506 126.461 142.455C126.456 142.404 126.467 142.353 126.495 142.309Z" fill="#263238"/>
<path d="M128.491 142.309C128.509 142.287 128.531 142.268 128.557 142.254C128.582 142.24 128.61 142.231 128.638 142.228C128.667 142.225 128.696 142.228 128.724 142.236C128.751 142.245 128.777 142.259 128.799 142.277C128.928 142.388 129.09 142.453 129.259 142.461C129.36 142.461 129.458 142.434 129.545 142.383C129.565 142.368 129.582 142.35 129.594 142.328C129.607 142.307 129.615 142.283 129.618 142.259C129.621 142.252 129.623 142.245 129.623 142.238C129.623 142.231 129.621 142.224 129.618 142.217C129.618 142.217 129.618 142.185 129.563 142.167C129.461 142.107 129.349 142.068 129.232 142.052V142.052C129.107 142.028 128.985 141.991 128.868 141.941C128.753 141.89 128.654 141.807 128.583 141.702C128.536 141.623 128.512 141.532 128.514 141.44C128.516 141.35 128.54 141.261 128.582 141.181C128.624 141.101 128.685 141.032 128.758 140.98C128.909 140.88 129.087 140.827 129.269 140.828C129.494 140.837 129.711 140.916 129.89 141.053C129.937 141.087 129.971 141.138 129.983 141.195C129.995 141.252 129.984 141.312 129.954 141.362C129.938 141.386 129.917 141.407 129.893 141.423C129.868 141.439 129.841 141.45 129.812 141.456C129.784 141.461 129.754 141.461 129.726 141.455C129.697 141.449 129.67 141.438 129.646 141.421C129.538 141.333 129.407 141.278 129.269 141.265C129.179 141.263 129.092 141.291 129.02 141.343C128.965 141.38 128.951 141.417 128.951 141.435C128.951 141.454 128.951 141.435 128.951 141.467C128.962 141.486 128.978 141.5 128.997 141.509C129.09 141.564 129.193 141.599 129.301 141.61C129.434 141.632 129.564 141.673 129.687 141.73C129.807 141.78 129.91 141.865 129.982 141.973C130.032 142.057 130.059 142.152 130.06 142.249C130.055 142.341 130.029 142.431 129.984 142.511C129.938 142.591 129.874 142.659 129.798 142.709C129.64 142.82 129.452 142.877 129.259 142.875C128.989 142.866 128.73 142.765 128.523 142.59C128.486 142.554 128.462 142.507 128.457 142.455C128.451 142.404 128.463 142.352 128.491 142.309Z" fill="#263238"/>
<path d="M133.229 141.164L132.544 142.769V142.806L132.521 142.834H132.498C132.498 142.834 132.498 142.834 132.461 142.834H132.429H132.332C132.323 142.831 132.314 142.831 132.305 142.834V142.834C132.305 142.834 132.282 142.834 132.268 142.834C132.26 142.835 132.252 142.835 132.245 142.834V142.834V142.806C132.244 142.794 132.244 142.781 132.245 142.769L131.941 142.056L131.647 142.769V142.806L131.619 142.834C131.619 142.834 131.619 142.834 131.619 142.857C131.619 142.88 131.592 142.857 131.582 142.857H131.559H131.454C131.448 142.859 131.442 142.86 131.435 142.86C131.429 142.86 131.423 142.859 131.417 142.857C131.417 142.857 131.417 142.857 131.417 142.857H131.394V142.829C131.394 142.829 131.394 142.801 131.394 142.792L130.713 141.187C130.702 141.16 130.696 141.132 130.696 141.103C130.696 141.074 130.702 141.046 130.713 141.019C130.724 140.992 130.74 140.968 130.761 140.948C130.781 140.928 130.806 140.912 130.833 140.902C130.859 140.891 130.887 140.885 130.915 140.885C130.944 140.886 130.972 140.892 130.998 140.904C131.023 140.915 131.047 140.932 131.066 140.953C131.085 140.974 131.099 140.999 131.109 141.026L131.596 142.139L131.886 141.449C131.903 141.409 131.931 141.376 131.967 141.352C132.003 141.328 132.045 141.316 132.088 141.316C132.132 141.314 132.174 141.326 132.211 141.35C132.247 141.374 132.275 141.409 132.291 141.449L132.585 142.139L133.073 141.026C133.082 140.999 133.097 140.974 133.117 140.953C133.137 140.932 133.16 140.915 133.186 140.903C133.213 140.892 133.241 140.886 133.27 140.885C133.298 140.885 133.327 140.89 133.353 140.902C133.369 140.953 133.365 141.008 133.342 141.057C133.319 141.105 133.279 141.143 133.229 141.164V141.164Z" fill="#263238"/>
<path d="M134.218 142.599C134.125 142.503 134.051 142.389 134.001 142.264C133.951 142.14 133.927 142.006 133.928 141.872C133.931 141.602 134.034 141.343 134.218 141.145C134.308 141.047 134.418 140.968 134.54 140.914C134.662 140.861 134.793 140.833 134.927 140.833C135.058 140.832 135.188 140.86 135.308 140.914C135.428 140.968 135.535 141.047 135.621 141.145C135.807 141.342 135.911 141.602 135.911 141.872C135.914 142.007 135.89 142.14 135.84 142.265C135.79 142.39 135.716 142.503 135.621 142.599C135.535 142.698 135.428 142.778 135.308 142.833C135.189 142.888 135.058 142.916 134.927 142.916C134.793 142.916 134.661 142.888 134.538 142.833C134.416 142.779 134.307 142.699 134.218 142.599ZM134.384 141.872C134.378 142.031 134.43 142.186 134.531 142.309C134.637 142.412 134.779 142.468 134.927 142.466C134.997 142.466 135.068 142.453 135.133 142.426C135.199 142.399 135.258 142.359 135.308 142.309C135.412 142.188 135.47 142.034 135.47 141.874C135.47 141.715 135.412 141.561 135.308 141.44C135.205 141.342 135.069 141.286 134.927 141.283C134.78 141.285 134.639 141.341 134.531 141.44C134.432 141.562 134.38 141.715 134.384 141.872V141.872Z" fill="#263238"/>
<path d="M137.806 141.053C137.805 141.111 137.781 141.166 137.74 141.207C137.699 141.247 137.643 141.27 137.585 141.27C137.497 141.27 137.41 141.297 137.337 141.348C137.261 141.401 137.196 141.47 137.148 141.55C137.073 141.655 137.016 141.772 136.978 141.895V142.682C136.978 142.711 136.971 142.741 136.959 142.768C136.947 142.795 136.93 142.819 136.909 142.84C136.888 142.86 136.862 142.876 136.835 142.887C136.807 142.898 136.778 142.903 136.748 142.903C136.719 142.903 136.691 142.897 136.664 142.886C136.638 142.875 136.614 142.858 136.594 142.838C136.574 142.817 136.558 142.793 136.547 142.766C136.537 142.739 136.531 142.711 136.532 142.682V141.053C136.532 140.996 136.555 140.941 136.595 140.901C136.636 140.86 136.691 140.837 136.748 140.837C136.807 140.836 136.864 140.858 136.907 140.898C136.95 140.939 136.976 140.994 136.978 141.053V141.099C137.003 141.067 137.032 141.039 137.066 141.017C137.219 140.912 137.4 140.856 137.585 140.856C137.641 140.854 137.694 140.874 137.735 140.911C137.776 140.947 137.802 140.999 137.806 141.053V141.053Z" fill="#263238"/>
<path d="M140.12 142.677C140.121 142.707 140.115 142.736 140.105 142.763C140.094 142.79 140.078 142.815 140.057 142.836C140.036 142.857 140.012 142.874 139.985 142.885C139.958 142.897 139.929 142.903 139.899 142.903C139.847 142.903 139.796 142.886 139.756 142.853C139.716 142.82 139.688 142.774 139.678 142.723C139.512 142.839 139.315 142.902 139.113 142.903C138.838 142.903 138.575 142.794 138.381 142.599C138.187 142.405 138.078 142.142 138.078 141.868C138.078 141.593 138.187 141.33 138.381 141.136C138.575 140.942 138.838 140.833 139.113 140.833C139.312 140.832 139.506 140.893 139.669 141.007V140.225C139.67 140.196 139.676 140.167 139.688 140.139C139.7 140.112 139.717 140.088 139.738 140.067C139.76 140.047 139.785 140.031 139.813 140.02C139.84 140.009 139.87 140.004 139.899 140.005C139.958 140.005 140.014 140.028 140.055 140.069C140.097 140.111 140.12 140.167 140.12 140.225V141.868V142.677ZM139.113 141.297C139.04 141.298 138.968 141.314 138.902 141.343C138.836 141.372 138.776 141.414 138.726 141.467C138.672 141.523 138.63 141.588 138.601 141.66C138.573 141.732 138.559 141.809 138.561 141.886C138.56 141.962 138.574 142.037 138.602 142.107C138.631 142.178 138.673 142.242 138.726 142.295C138.776 142.349 138.836 142.392 138.903 142.421C138.97 142.45 139.042 142.466 139.115 142.466C139.188 142.466 139.26 142.45 139.327 142.421C139.394 142.392 139.454 142.349 139.504 142.295C139.61 142.186 139.669 142.039 139.669 141.886C139.67 141.73 139.611 141.58 139.504 141.467C139.455 141.411 139.395 141.366 139.327 141.334C139.26 141.303 139.187 141.285 139.113 141.283V141.297Z" fill="#263238"/>
<path d="M141.753 141.72V141.987C141.754 142.014 141.749 142.041 141.739 142.065C141.729 142.09 141.714 142.113 141.695 142.132C141.676 142.151 141.654 142.166 141.629 142.175C141.604 142.185 141.577 142.19 141.551 142.19C141.497 142.19 141.445 142.168 141.408 142.13C141.37 142.092 141.348 142.041 141.348 141.987V141.559C141.35 141.506 141.373 141.456 141.41 141.419C141.447 141.381 141.498 141.359 141.551 141.357C141.673 141.357 141.79 141.309 141.876 141.222C141.962 141.136 142.011 141.019 142.011 140.897C142.011 140.775 141.962 140.658 141.876 140.572C141.79 140.485 141.673 140.437 141.551 140.437C141.47 140.437 141.392 140.459 141.322 140.499C141.253 140.54 141.195 140.597 141.155 140.667C141.127 140.714 141.082 140.747 141.03 140.761C140.977 140.775 140.922 140.768 140.874 140.741C140.828 140.714 140.794 140.67 140.781 140.618C140.767 140.566 140.774 140.511 140.801 140.465C140.873 140.34 140.975 140.236 141.098 140.161C141.221 140.086 141.36 140.042 141.504 140.034C141.648 140.026 141.791 140.054 141.921 140.115C142.052 140.176 142.165 140.269 142.25 140.384C142.336 140.5 142.392 140.635 142.412 140.777C142.433 140.919 142.418 141.065 142.369 141.2C142.32 141.335 142.238 141.456 142.13 141.552C142.023 141.647 141.893 141.715 141.753 141.748V141.72ZM141.753 142.64V142.714C141.754 142.741 141.749 142.767 141.739 142.792C141.729 142.817 141.714 142.84 141.695 142.859C141.676 142.877 141.654 142.892 141.629 142.902C141.604 142.912 141.577 142.917 141.551 142.916C141.497 142.916 141.445 142.895 141.408 142.857C141.37 142.819 141.348 142.768 141.348 142.714V142.64C141.348 142.587 141.37 142.535 141.408 142.497C141.445 142.459 141.497 142.438 141.551 142.438C141.602 142.437 141.652 142.456 141.69 142.491C141.728 142.526 141.751 142.575 141.753 142.627V142.64Z" fill="#263238"/>
</g>
<defs>
<clipPath id="clip0_233_1045">
<rect width="344" height="255" fill="white"/>
</clipPath>
</defs>
</svg>
