<svg width="194" height="129" viewBox="0 0 194 129" fill="none" xmlns="http://www.w3.org/2000/svg">
<path d="M54.5943 38.2124C52.5043 38.2124 50.4091 38.1737 48.332 38.1943C42.0697 38.2562 35.7556 38.9864 31.2988 43.5659C26.7359 48.246 23.0421 53.9452 23.4638 60.7616C24.1001 71.0506 33.6242 78.7545 35.8798 88.8165C36.9894 93.8011 36.26 99.1907 38.2517 103.897C40.0624 108.154 43.9191 111.288 48.169 113.128C52.4189 114.967 57.0723 115.656 61.6766 116.193C91.863 119.704 123.547 117.106 150.573 103.241C157.269 99.8047 163.785 95.5503 168.133 89.4099C172.482 83.2695 174.279 74.9129 171.108 68.0939C168.713 62.9339 163.902 59.3374 158.971 56.4839C154.041 53.6305 148.757 51.3033 144.406 47.6397C140.055 43.9761 136.757 39.2031 133.283 34.7655C130.676 31.445 129.165 27.5699 125.523 25.2195C115.849 18.9656 102.166 16.6874 91.4388 21.3495C82.1992 25.3795 75.3626 34.056 65.7014 36.9353C62.1137 38.006 58.3631 38.1969 54.5943 38.2124Z" fill="#BACDFF"/>
<path d="M123.198 49.6341C123.507 49.353 123.832 49.0895 124.17 48.8446L138.976 63.6125C138.733 63.9524 138.468 64.2772 138.185 64.5852L123.198 49.6341Z" fill="#1988FF"/>
<path d="M140.813 59.2265C140.731 59.7069 140.617 60.181 140.469 60.6455L127.148 47.3585C127.613 47.2111 128.089 47.0965 128.57 47.0154L140.813 59.2265Z" fill="#1988FF"/>
<path d="M127.401 67.6141C125.681 67.1168 124.115 66.1938 122.849 64.9307C121.582 63.6677 120.657 62.1057 120.158 60.3901L127.401 67.6141Z" fill="#1988FF"/>
<path d="M124.99 48.3131C125.369 48.0927 125.76 47.8954 126.162 47.7223L140.104 61.6285C139.93 62.03 139.732 62.4203 139.509 62.7972L124.99 48.3131Z" fill="#1988FF"/>
<path d="M121.731 51.2801C121.974 50.9405 122.239 50.6165 122.523 50.31L137.51 65.2585C137.202 65.5411 136.877 65.8047 136.537 66.048L121.731 51.2801Z" fill="#1988FF"/>
<path d="M133.307 47.2811C135.026 47.7788 136.592 48.702 137.858 49.965C139.125 51.228 140.05 52.7897 140.549 54.5051L133.307 47.2811Z" fill="#1988FF"/>
<path d="M119.82 58.7002C119.747 58.0968 119.727 57.4882 119.76 56.8813L130.922 68.014C130.313 68.0458 129.703 68.026 129.098 67.9547L119.82 58.7002Z" fill="#1988FF"/>
<path d="M129.786 46.8812C130.395 46.8485 131.005 46.8675 131.61 46.9379L140.888 56.1924C140.961 56.7967 140.981 57.4062 140.948 58.0139L129.786 46.8812Z" fill="#1988FF"/>
<path d="M119.895 55.6661C119.976 55.1865 120.091 54.7132 120.239 54.2497L133.56 67.5367C133.094 67.6829 132.619 67.7975 132.137 67.8798L119.895 55.6661Z" fill="#1988FF"/>
<path d="M120.604 53.2667C120.777 52.865 120.976 52.4746 121.198 52.098L135.717 66.5795C135.34 66.802 134.949 66.9993 134.546 67.1703L120.604 53.2667Z" fill="#1988FF"/>
<path d="M83.9427 52.1186L84.7782 54.6831L82.5898 53.099L80.4041 54.6831L81.2396 52.1186L79.0513 50.5345H81.7543L82.5898 47.97L83.4253 50.5345H86.1284L83.9427 52.1186Z" fill="#F8CC48"/>
<path d="M83.9427 52.1186L84.7782 54.6831L82.5898 53.099V47.97L83.4253 50.5345H86.1284L83.9427 52.1186Z" fill="#EDA441"/>
<path d="M141.232 103.234H110.828V82.3871H141.232V103.234ZM111.516 102.537H140.544V83.076H111.527L111.516 102.537Z" fill="#DCE7FF"/>
<path d="M68.9115 65.2946H38.4949V44.4482H68.9115V65.2946ZM39.1933 64.6006H68.2131V45.15H39.1933V64.6006Z" fill="#DCE7FF"/>
<path d="M149.866 24.6364C149.867 25.5219 149.692 26.3989 149.353 27.2171C149.013 28.0353 148.515 28.7788 147.888 29.4051C147.26 30.0314 146.515 30.5282 145.695 30.8671C144.874 31.2061 143.995 31.3805 143.107 31.3805C142.048 31.3819 141.003 31.1335 140.058 30.6556C139.915 30.5859 139.781 30.5111 139.646 30.4337C138.539 29.7736 137.642 28.8136 137.06 27.6653C136.315 26.1858 136.143 24.4849 136.574 22.8864C137.006 21.288 138.012 19.9038 139.401 18.9974C140.789 18.0909 142.464 17.7256 144.105 17.9709C145.747 18.2163 147.24 19.0551 148.301 20.3278C148.402 20.4465 148.498 20.5703 148.589 20.6968C148.959 21.2063 149.255 21.7657 149.468 22.3583C149.731 23.0891 149.866 23.8598 149.866 24.6364Z" fill="#F3BC44"/>
<path d="M148.369 25.4925C148.841 22.5952 146.868 19.8651 143.964 19.3948C141.059 18.9245 138.322 20.892 137.85 23.7894C137.379 26.6868 139.351 29.4168 142.256 29.8871C145.161 30.3574 147.898 28.3899 148.369 25.4925Z" fill="#F3BC44"/>
<path d="M142.97 30.088C145.913 30.088 148.299 27.7085 148.299 24.7732C148.299 21.8379 145.913 19.4584 142.97 19.4584C140.028 19.4584 137.642 21.8379 137.642 24.7732C137.642 27.7085 140.028 30.088 142.97 30.088Z" fill="#F3BC44"/>
<g style="mix-blend-mode:overlay">
<path d="M148.304 20.3278L147.357 21.4346L147.233 21.5817L140.593 29.3217L140.472 29.4636L139.646 30.444C138.539 29.7839 137.642 28.8239 137.06 27.6757L137.965 26.6204L138.094 26.4682L144.01 19.5693L144.127 19.43L145.161 18.2225C146.389 18.6097 147.48 19.3404 148.304 20.3278Z" fill="#F3BC44"/>
</g>
<g style="mix-blend-mode:overlay">
<path d="M149.47 22.3583L148.348 23.6689L148.216 23.8237L142.965 29.9512L142.849 30.0854L141.84 31.2619C141.22 31.1466 140.619 30.9424 140.058 30.6556L140.898 29.6726L141.02 29.5307L147.499 21.9713L147.626 21.8217L148.591 20.6968C148.962 21.2063 149.258 21.7657 149.47 22.3583Z" fill="#F3BC44"/>
</g>
<path d="M27.9232 47.0463L29.364 51.471L25.59 48.7362L21.8161 51.471L23.2569 47.0463L19.4829 44.3115H24.1493L25.59 39.8842L27.0308 44.3115H31.6972L27.9232 47.0463Z" fill="#F3BC44"/>
<g style="mix-blend-mode:overlay">
<path d="M27.923 47.0463L29.3638 51.471L25.5898 48.7362V39.8842L27.0306 44.3115H31.697L27.923 47.0463Z" fill="#F3BC44"/>
</g>
<path d="M124.683 38.2717L125.2 39.8584L123.85 38.878L122.497 39.8584L123.014 38.2717L121.661 37.2939H123.332L123.85 35.7098L124.364 37.2939H126.035L124.683 38.2717Z" fill="#F3BC44"/>
<g style="mix-blend-mode:overlay">
<path d="M124.683 38.2717L125.2 39.8584L123.85 38.878V35.7098L124.364 37.2939H126.035L124.683 38.2717Z" fill="#F3BC44"/>
</g>
<path d="M138.019 40.2454L139.075 43.4807L136.315 41.4812L133.557 43.4807L134.61 40.2454L131.853 38.2459H135.262L136.315 35.0132L137.37 38.2459H140.779L138.019 40.2454Z" fill="#F3BC44"/>
<g style="mix-blend-mode:overlay">
<path d="M138.019 40.2454L139.075 43.4807L136.315 41.4812V35.0132L137.37 38.2459H140.779L138.019 40.2454Z" fill="#F3BC44"/>
</g>
<path d="M34.5165 55.4081L35.5357 58.5351L32.8662 56.6026L30.1994 58.5351L31.2185 55.4081L28.5491 53.4757H31.8471L32.8662 50.3461L33.8854 53.4757H37.1834L34.5165 55.4081Z" fill="#F3BC44"/>
<g style="mix-blend-mode:overlay">
<path d="M34.5165 55.4081L35.5357 58.5351L32.8662 56.6026V50.3461L33.8854 53.4757H37.1834L34.5165 55.4081Z" fill="#F3BC44"/>
</g>
<path d="M42.4213 71.6544C42.4207 72.646 42.2009 73.6254 41.7776 74.5227C41.3543 75.4199 40.7379 76.2131 39.9722 76.8457C39.2066 77.4784 38.3105 77.9348 37.3479 78.1827C36.3852 78.4306 35.3796 78.4637 34.4026 78.2798C33.7828 78.163 33.1827 77.9588 32.6204 77.6735C32.4807 77.6047 32.3436 77.5299 32.2091 77.449C31.3649 76.9455 30.6411 76.2643 30.088 75.453C29.5349 74.6417 29.166 73.7197 29.007 72.7516C28.8479 71.7834 28.9025 70.7922 29.1671 69.8473C29.4316 68.9023 29.8996 68.0263 30.5386 67.2804C31.1775 66.5344 31.9719 65.9365 32.8663 65.5283C33.7608 65.1201 34.7337 64.9115 35.7173 64.917C36.701 64.9225 37.6715 65.1419 38.5613 65.5601C39.4512 65.9782 40.2388 66.585 40.8693 67.338C40.9676 67.4567 41.0659 67.578 41.1538 67.707C41.5249 68.2161 41.8211 68.7756 42.0333 69.3685C42.2954 70.102 42.4268 70.8757 42.4213 71.6544Z" fill="#F3BC44"/>
<path d="M40.9166 72.5086C41.3881 69.6113 39.4155 66.8812 36.5107 66.4109C33.6058 65.9406 30.8687 67.9081 30.3972 70.8055C29.9257 73.7029 31.8983 76.4329 34.8031 76.9032C37.708 77.3735 40.4451 75.406 40.9166 72.5086Z" fill="#F3BC44"/>
<path d="M35.5202 77.1034C38.4631 77.1034 40.8487 74.7238 40.8487 71.7886C40.8487 68.8533 38.4631 66.4738 35.5202 66.4738C32.5773 66.4738 30.1917 68.8533 30.1917 71.7886C30.1917 74.7238 32.5773 77.1034 35.5202 77.1034Z" fill="#F3BC44"/>
<g style="mix-blend-mode:overlay">
<path d="M40.8694 67.338L39.9201 68.4449L39.7959 68.5893L33.1585 76.3293L33.037 76.4712L32.2092 77.4362C31.1011 76.7781 30.2038 75.8187 29.6226 74.6704L30.5279 73.6126L30.6572 73.463L36.5703 66.564L36.6893 66.4247L37.724 65.2173C38.9542 65.6097 40.0458 66.3457 40.8694 67.338Z" fill="#F3BC44"/>
</g>
<g style="mix-blend-mode:overlay">
<path d="M42.0203 69.3763L40.8977 70.6921L40.7658 70.8469L35.5148 76.9769L35.3984 77.1111L34.3896 78.2876C33.7698 78.1707 33.1697 77.9666 32.6074 77.6813L33.4507 76.6957L33.5722 76.5538L40.0518 68.997L40.1786 68.8474L41.1408 67.7225C41.5113 68.2293 41.8074 68.7861 42.0203 69.3763Z" fill="#F3BC44"/>
</g>
<path d="M91.9561 26.6101C91.9561 27.6878 91.5269 28.7214 90.7628 29.4834C89.9988 30.2455 88.9626 30.6736 87.8821 30.6736C87.626 30.6745 87.3704 30.6503 87.119 30.6014C86.7457 30.5317 86.3842 30.4092 86.0456 30.2376C85.9602 30.1963 85.88 30.1499 85.7869 30.1034C85.1221 29.7041 84.5841 29.1254 84.2349 28.4342C83.7844 27.5424 83.6788 26.5165 83.9384 25.552C84.1979 24.5876 84.8044 23.7523 85.6421 23.2055C86.4798 22.6587 87.4901 22.4386 88.48 22.5874C89.47 22.7362 90.3704 23.2433 91.0094 24.0121C91.0715 24.0843 91.1284 24.1591 91.1827 24.2339C91.4067 24.5414 91.5853 24.8794 91.7129 25.2376C91.8734 25.6775 91.9556 26.142 91.9561 26.6101Z" fill="#F3BC44"/>
<path d="M91.057 27.1249C91.3413 25.378 90.152 23.732 88.4006 23.4485C86.6492 23.1649 84.999 24.3512 84.7147 26.098C84.4304 27.8449 85.6197 29.4909 87.3711 29.7744C89.1225 30.058 90.7727 28.8717 91.057 27.1249Z" fill="#F3BC44"/>
<path d="M87.802 29.8944C89.5763 29.8944 91.0146 28.4598 91.0146 26.6901C91.0146 24.9204 89.5763 23.4857 87.802 23.4857C86.0277 23.4857 84.5894 24.9204 84.5894 26.6901C84.5894 28.4598 86.0277 29.8944 87.802 29.8944Z" fill="#F3BC44"/>
<g style="mix-blend-mode:overlay">
<path d="M91.0144 24.0121L90.4454 24.6803L90.3703 24.768L86.3688 29.4352L86.2963 29.5204L85.7971 30.1034C85.1323 29.7041 84.5943 29.1254 84.2451 28.4342L84.7909 27.7969L84.8685 27.7066L88.4329 23.5502L88.5054 23.4651L89.1287 22.7375C89.8659 22.9752 90.5199 23.4173 91.0144 24.0121Z" fill="#F3BC44"/>
</g>
<g style="mix-blend-mode:overlay">
<path d="M91.7181 25.2376L91.0508 26.027L90.9732 26.1199L87.8071 29.8119L87.7372 29.8945L87.1294 30.6014C86.756 30.5318 86.3945 30.4093 86.0559 30.2376L86.5732 29.6442L86.6483 29.5591L90.5334 25.0028L90.611 24.9125L91.1904 24.2339C91.4135 24.5416 91.5912 24.8796 91.7181 25.2376Z" fill="#F3BC44"/>
</g>
<path d="M99.897 25.5472C102.556 25.5472 104.711 23.3975 104.711 20.7458C104.711 18.094 102.556 15.9444 99.897 15.9444C97.2385 15.9444 95.0833 18.094 95.0833 20.7458C95.0833 23.3975 97.2385 25.5472 99.897 25.5472Z" fill="#1988FF"/>
<path d="M97.6234 20.2633H99.1754C99.1754 20.2633 100.019 19.4016 100.148 19.0327C100.183 18.7577 100.183 18.4795 100.148 18.2045C100.148 18.2045 100.665 18.0703 100.771 18.398C100.865 18.596 100.932 18.8049 100.973 19.0198C100.94 19.3161 100.881 19.6089 100.795 19.8944L102.484 20.026L101.581 22.446H99.6022C99.5238 22.3746 99.4369 22.3131 99.3435 22.2628C98.9348 22.1287 97.613 22.2628 97.613 22.2628L97.6234 20.2633Z" fill="white"/>
<path d="M102.458 20.0182H101.542C101.374 20.0182 101.237 20.1546 101.237 20.3227C101.237 20.4908 101.374 20.6271 101.542 20.6271H102.458C102.627 20.6271 102.763 20.4908 102.763 20.3227C102.763 20.1546 102.627 20.0182 102.458 20.0182Z" fill="white"/>
<path d="M102.29 21.2334H101.374C101.334 21.2334 101.294 21.2255 101.257 21.2102C101.22 21.1949 101.187 21.1725 101.158 21.1442C101.13 21.116 101.107 21.0824 101.092 21.0455C101.077 21.0085 101.069 20.9689 101.069 20.929C101.069 20.8482 101.101 20.7708 101.158 20.7137C101.215 20.6566 101.293 20.6245 101.374 20.6245H102.29C102.371 20.6245 102.448 20.6566 102.506 20.7137C102.563 20.7708 102.595 20.8482 102.595 20.929C102.595 20.9689 102.587 21.0085 102.572 21.0455C102.556 21.0824 102.534 21.116 102.506 21.1442C102.477 21.1725 102.444 21.1949 102.407 21.2102C102.37 21.2255 102.33 21.2334 102.29 21.2334Z" fill="white"/>
<path d="M102.078 21.8423H101.162C101.122 21.8423 101.082 21.8344 101.045 21.8191C101.008 21.8038 100.974 21.7814 100.946 21.7531C100.918 21.7248 100.895 21.6913 100.88 21.6543C100.865 21.6174 100.857 21.5778 100.857 21.5378C100.857 21.4571 100.889 21.3797 100.946 21.3226C101.003 21.2655 101.081 21.2334 101.162 21.2334H102.078C102.159 21.2334 102.236 21.2655 102.293 21.3226C102.351 21.3797 102.383 21.4571 102.383 21.5378C102.383 21.5778 102.375 21.6174 102.36 21.6543C102.344 21.6913 102.322 21.7248 102.293 21.7531C102.265 21.7814 102.231 21.8038 102.194 21.8191C102.157 21.8344 102.118 21.8423 102.078 21.8423Z" fill="white"/>
<path d="M101.915 22.446H100.999C100.959 22.446 100.919 22.4381 100.882 22.4228C100.845 22.4075 100.812 22.3851 100.783 22.3569C100.755 22.3286 100.732 22.295 100.717 22.2581C100.702 22.2211 100.694 22.1816 100.694 22.1416C100.695 22.0613 100.727 21.9845 100.784 21.928C100.841 21.8714 100.919 21.8397 100.999 21.8397H101.915C101.995 21.8397 102.073 21.8714 102.13 21.928C102.187 21.9845 102.219 22.0613 102.22 22.1416C102.22 22.2223 102.188 22.2998 102.131 22.3569C102.073 22.4139 101.996 22.446 101.915 22.446Z" fill="white"/>
<path d="M147.771 58.2126C150.43 58.2126 152.585 56.0629 152.585 53.4112C152.585 50.7595 150.43 48.6098 147.771 48.6098C145.112 48.6098 142.957 50.7595 142.957 53.4112C142.957 56.0629 145.112 58.2126 147.771 58.2126Z" fill="#1988FF"/>
<path d="M150.337 51.68C150.066 51.4122 149.7 51.2619 149.318 51.2619C148.936 51.2619 148.57 51.4122 148.299 51.68L147.768 52.2089L147.251 51.68C147.118 51.5384 146.958 51.4249 146.781 51.3464C146.603 51.268 146.411 51.2261 146.217 51.2234C146.023 51.2207 145.83 51.2571 145.65 51.3306C145.47 51.404 145.307 51.5129 145.17 51.6508C145.033 51.7886 144.926 51.9526 144.855 52.1328C144.783 52.313 144.749 52.5058 144.754 52.6996C144.759 52.8934 144.803 53.0842 144.883 53.2606C144.964 53.4369 145.08 53.5952 145.223 53.7259L145.741 54.2419L147.593 56.0892C147.617 56.1142 147.646 56.134 147.678 56.1476C147.71 56.1612 147.744 56.1682 147.779 56.1682C147.814 56.1682 147.848 56.1612 147.88 56.1476C147.912 56.134 147.941 56.1142 147.965 56.0892L149.82 54.2419L150.337 53.7259C150.606 53.455 150.756 53.0892 150.756 52.7081C150.756 52.327 150.606 51.9613 150.337 51.6903V51.68Z" fill="white"/>
<path d="M171.105 42.0308H144.365C143.949 41.3334 143.775 40.5188 143.871 39.7131C143.966 38.9074 144.325 38.1555 144.892 37.5739C145.459 36.9922 146.202 36.6131 147.007 36.4953C147.812 36.3776 148.633 36.5277 149.344 36.9224C149.795 36.092 150.548 35.4649 151.447 35.169C152.347 34.8732 153.325 34.931 154.184 35.3305C154.908 33.9757 156.066 32.9013 157.472 32.2779C158.879 31.6546 160.455 31.5182 161.948 31.8903C163.442 32.2624 164.768 33.1218 165.716 34.3318C166.663 35.5418 167.178 37.033 167.179 38.5684V38.6845H167.357C168.284 38.6885 169.178 39.0313 169.868 39.6479C170.559 40.2646 170.999 41.1123 171.105 42.0308Z" fill="white"/>
<path d="M67.1369 20.64C66.7247 19.7996 66.0423 19.121 65.1985 18.7124C64.3547 18.3037 63.398 18.1885 62.481 18.3851C61.9389 17.564 61.1809 16.9074 60.2899 16.4873C59.3988 16.0671 58.409 15.8995 57.4289 16.0029C56.4487 16.1063 55.5159 16.4766 54.7327 17.0733C53.9494 17.67 53.3458 18.4701 52.9879 19.3861C52.8659 19.3736 52.7432 19.3676 52.6206 19.3681C51.6464 19.3681 50.7122 19.754 50.0233 20.4411C49.3345 21.1282 48.9475 22.06 48.9475 23.0317C48.9487 23.1861 48.959 23.3403 48.9786 23.4935H70.0987C70.0559 22.7333 69.7271 22.0172 69.1781 21.4882C68.629 20.9592 67.9001 20.6563 67.1369 20.64Z" fill="white"/>
<path d="M23.4171 22.8021C23.1859 22.8022 22.9553 22.8264 22.7291 22.8743C22.3088 22.239 21.7215 21.7312 21.0315 21.4062C20.3414 21.0812 19.5751 20.9515 18.8162 21.0314C18.0573 21.1113 17.335 21.3976 16.7282 21.8591C16.1214 22.3206 15.6533 22.9395 15.3752 23.6483C15.2795 23.6483 15.1864 23.6483 15.0907 23.6483C14.4218 23.6485 13.7745 23.8837 13.2622 24.3125C12.7499 24.7414 12.4054 25.3366 12.2893 25.9935H26.6763C26.6601 25.1419 26.3096 24.3306 25.7002 23.7339C25.0908 23.1371 24.2711 22.8026 23.4171 22.8021Z" fill="white"/>
<path d="M46.9947 12.8768C46.8111 12.8767 46.6281 12.8966 46.4489 12.9361C46.0576 12.3459 45.4862 11.8968 44.8193 11.6554C44.1524 11.414 43.4253 11.393 42.7455 11.5955C42.0657 11.7979 41.4693 12.2132 41.0443 12.7799C40.6194 13.3465 40.3885 14.0345 40.3857 14.7421H49.483C49.3275 14.2039 49.0006 13.7309 48.5517 13.3943C48.1027 13.0578 47.5562 12.8762 46.9947 12.8768Z" fill="white"/>
<path d="M153.115 53.3725H152.497V53.8859H153.115V53.3725Z" fill="white"/>
<path d="M161.884 84.268H160.632V83.752H161.887L161.884 84.268ZM163.485 84.1803L163.405 83.6643C163.801 83.5999 164.191 83.4997 164.569 83.365L164.745 83.8475C164.334 83.9987 163.91 84.1102 163.477 84.1803H163.485ZM166.196 83.1328L165.914 82.7045C166.249 82.4836 166.564 82.2322 166.853 81.9537L167.21 82.3253C166.897 82.6242 166.557 82.8944 166.196 83.1328ZM168.239 81.0688L167.805 80.7927C168.022 80.4561 168.207 80.0993 168.356 79.7272L168.834 79.9181C168.673 80.3202 168.473 80.7064 168.239 81.0714V81.0688ZM169.259 78.3546L168.741 78.2798C168.788 77.9672 168.811 77.6516 168.811 77.3355C168.811 77.2504 168.811 77.1653 168.811 77.0775L169.328 77.0569C169.328 77.1472 169.328 77.2401 169.328 77.3304C169.33 77.6739 169.307 78.0171 169.259 78.3572V78.3546ZM168.581 75.594C168.472 75.2083 168.327 74.8334 168.149 74.4743L168.609 74.2447C168.802 74.6328 168.957 75.0379 169.075 75.4547L168.581 75.594ZM167.326 73.2204C167.069 72.9125 166.783 72.6292 166.473 72.3742L166.801 71.9769C167.135 72.2529 167.443 72.5586 167.722 72.8902L167.326 73.2204ZM165.21 71.5615C164.849 71.386 164.473 71.2444 164.085 71.1384L164.22 70.643C164.639 70.7568 165.046 70.9106 165.435 71.1023L165.21 71.5615ZM162.598 70.9165H161.354V70.4005H162.616L162.598 70.9165ZM159.789 70.9165H158.702H158.526L158.545 70.4005H159.789V70.9165ZM156.915 70.563C156.506 70.3933 156.123 70.1675 155.777 69.8922L156.1 69.4898C156.407 69.7369 156.747 69.9385 157.112 70.0883L156.915 70.563ZM154.693 68.6538C154.462 68.2761 154.288 67.8667 154.176 67.4387L154.672 67.3097C154.772 67.6892 154.927 68.0523 155.13 68.3881L154.693 68.6538ZM154.556 65.8494L154.039 65.8004C154.081 65.358 154.186 64.9238 154.349 64.5104L154.828 64.6987C154.683 65.0702 154.591 65.4602 154.556 65.8571V65.8494ZM155.609 63.468L155.226 63.1249C155.523 62.7971 155.864 62.5122 156.24 62.2787L156.511 62.7147C156.177 62.9225 155.873 63.1761 155.609 63.468ZM157.875 62.178L157.774 61.662C158.08 61.6021 158.391 61.5719 158.702 61.5717H159.08V62.0877H158.713C158.431 62.0898 158.15 62.1201 157.875 62.178ZM160.658 62.08L160.614 61.564C161.004 61.5306 161.387 61.4375 161.749 61.2879L161.946 61.7601C161.536 61.9342 161.101 62.0438 160.658 62.0852V62.08ZM163.327 60.8571L162.96 60.4959C163.241 60.2228 163.479 59.9088 163.666 59.5645L164.119 59.807C163.909 60.1962 163.642 60.5519 163.327 60.8622V60.8571ZM164.621 58.2281L164.103 58.1687C164.121 58.0241 164.13 57.8784 164.129 57.7327C164.129 57.4877 164.106 57.2432 164.059 57.0026L164.577 56.9071C164.629 57.1792 164.656 57.4556 164.657 57.7327C164.654 57.9001 164.642 58.0672 164.621 58.2332V58.2281ZM163.524 55.6481C163.31 55.3199 163.048 55.0252 162.748 54.7734L163.079 54.3813C163.42 54.6648 163.716 54.999 163.956 55.372L163.524 55.6481ZM161.473 54.0665C161.099 53.9469 160.709 53.8835 160.316 53.8782V53.3622C160.761 53.3671 161.202 53.4393 161.625 53.5763L161.473 54.0665ZM158.754 53.8782H157.502V53.3622H158.754V53.8782ZM155.935 53.8782H154.683V53.3622H155.935V53.8782Z" fill="white"/>
<path d="M159.039 83.7546H158.42V84.268H159.039V83.7546Z" fill="white"/>
<path d="M59.2863 103.975L59.2805 104.488L59.8987 104.495L59.9044 103.982L59.2863 103.975Z" fill="white"/>
<path d="M50.8618 73.5016L52.1137 73.5145V74.0305L50.8618 74.0176V73.5016ZM49.258 73.5713L49.3331 74.0873C48.9361 74.1465 48.5456 74.2423 48.1665 74.3737L47.9957 73.8886C48.4054 73.7429 48.8281 73.6366 49.258 73.5713ZM46.5369 74.5878L46.8162 75.0187C46.4772 75.2353 46.1594 75.4832 45.8669 75.7591L45.5255 75.385C45.837 75.0885 46.1756 74.8216 46.5369 74.5878ZM44.4675 76.626L44.8969 76.9072C44.6756 77.2421 44.4868 77.5971 44.333 77.9676L43.8571 77.769C44.026 77.3696 44.2322 76.987 44.4727 76.626H44.4675ZM43.4173 79.3273L43.9347 79.4098C43.8859 79.7215 43.8591 80.0362 43.8545 80.3515C43.8545 80.4367 43.8545 80.5218 43.8545 80.6095L43.3372 80.6224C43.3372 80.5321 43.3372 80.4418 43.3372 80.349C43.3408 80.0068 43.3694 79.6653 43.4225 79.3273H43.4173ZM44.064 82.0905C44.1673 82.4771 44.3077 82.8529 44.4831 83.2128L44.02 83.4372C43.8308 83.0474 43.6792 82.6405 43.5674 82.222L44.064 82.0905ZM45.2901 84.477C45.5445 84.7875 45.8267 85.0742 46.1333 85.3335L45.8023 85.7257C45.4713 85.4459 45.1666 85.1368 44.8917 84.802L45.2901 84.477ZM47.3879 86.1591C47.7474 86.3376 48.1222 86.4836 48.5079 86.5951L48.3682 87.0879C47.9504 86.9697 47.545 86.8116 47.1577 86.6158L47.3879 86.1591ZM49.9927 86.8325C50.0625 86.8325 50.1323 86.8325 50.2048 86.8325H51.2394V87.3485L50.2048 87.3356H49.9745L49.9927 86.8325ZM52.8018 86.8686L53.8882 86.8815C53.9477 86.8815 54.0072 86.8815 54.0641 86.8815L54.0408 87.3975H53.883H52.7966L52.8018 86.8686ZM55.673 87.253C56.0798 87.4259 56.4596 87.6562 56.8008 87.9367L56.4748 88.3341C56.17 88.0846 55.8312 87.8796 55.4686 87.7252L55.673 87.253ZM57.8716 89.1855C58.096 89.5665 58.265 89.9774 58.3735 90.4058L57.8742 90.5322C57.7783 90.151 57.6285 89.7853 57.4293 89.446L57.8716 89.1855ZM57.9777 91.9925L58.495 92.0467C58.4498 92.4899 58.341 92.9244 58.1717 93.3367L57.6828 93.138C57.8366 92.7722 57.9376 92.3866 57.9829 91.9925H57.9777ZM56.9068 94.3609L57.2845 94.7092C56.9853 95.034 56.6413 95.3146 56.2627 95.5426L56.0041 95.104C56.3378 94.8989 56.6416 94.6488 56.9068 94.3609ZM54.6254 95.6277L54.7211 96.1437C54.4142 96.2022 54.1023 96.2299 53.7899 96.2263H53.4226V95.7103H53.8028C54.0782 95.7095 54.3528 95.6818 54.6228 95.6277H54.6254ZM51.8395 95.6948L51.8783 96.2108C51.488 96.2384 51.1042 96.3254 50.7402 96.4688L50.5488 95.9941C50.9603 95.8291 51.3947 95.7282 51.8369 95.6948H51.8395ZM49.1468 96.8893L49.5038 97.2609C49.2189 97.5303 48.9772 97.8418 48.7873 98.1845L48.3372 97.9265C48.5536 97.5424 48.8265 97.1928 49.1468 96.8893ZM47.825 99.5055L48.3424 99.5674C48.3252 99.7121 48.3157 99.8577 48.3139 100.003C48.3111 100.248 48.3319 100.493 48.376 100.734L47.8587 100.826C47.7795 100.39 47.7673 99.9451 47.8224 99.5055H47.825ZM48.8933 102.085C49.1051 102.418 49.3668 102.717 49.6693 102.97L49.3356 103.36C48.9971 103.073 48.7048 102.735 48.4691 102.359L48.8933 102.085ZM50.9264 103.69C51.2984 103.816 51.6874 103.885 52.0801 103.894L52.0672 104.41C51.6271 104.399 51.1911 104.323 50.7738 104.183L50.9264 103.69ZM53.6424 103.91L54.8944 103.925V104.441L53.6424 104.426V103.91ZM56.4619 103.943L57.7139 103.956V104.472L56.4619 104.456V103.943Z" fill="white"/>
<path d="M53.7086 73.5338L53.7029 74.0472L54.3211 74.0541L54.3268 73.5407L53.7086 73.5338Z" fill="white"/>
<path d="M151.147 87.8851C151.422 87.2158 151.848 86.6183 152.391 86.1385C154.81 84.0899 157.96 87.622 155.666 89.8072C155.304 90.1449 154.904 90.4393 154.473 90.6844C154.393 90.6844 150.767 92.622 150.767 92.622L151.147 87.8851Z" fill="#054F59"/>
<path d="M148.26 97.7639C148.26 97.7639 147.96 94.3274 145.472 93.6359C144.818 93.4632 144.125 93.506 143.498 93.758C142.87 94.01 142.341 94.4578 141.99 95.0343C141.558 95.7257 141.214 96.7397 141.351 98.1922C141.302 98.2774 143.86 106.546 143.86 106.546L148.26 97.7639Z" fill="#054F59"/>
<path d="M138.622 117.568C138.551 117.531 138.496 117.467 138.471 117.39C138.445 117.314 138.45 117.231 138.485 117.158L150.901 91.3578C150.914 91.3158 150.936 91.2772 150.966 91.2444C150.995 91.2116 151.031 91.1854 151.072 91.1676C151.112 91.1499 151.156 91.1409 151.2 91.1412C151.244 91.1416 151.288 91.1514 151.328 91.1699C151.368 91.1884 151.403 91.2152 151.432 91.2485C151.461 91.2818 151.482 91.3208 151.495 91.363C151.507 91.4052 151.511 91.4496 151.505 91.4932C151.499 91.5368 151.483 91.5786 151.46 91.6158L139.044 117.429C139.026 117.465 139.002 117.498 138.971 117.526C138.941 117.553 138.906 117.574 138.867 117.587C138.829 117.601 138.788 117.606 138.747 117.604C138.706 117.602 138.667 117.591 138.63 117.573L138.622 117.568Z" fill="#054F59"/>
<path d="M152.696 103.321C153.138 103.526 153.5 103.87 153.729 104.299C153.957 104.728 154.039 105.22 153.961 105.7C153.961 105.777 153.811 107.506 151.374 107.398C151.374 107.439 141.561 111.451 141.561 111.451L144.17 106.126C144.17 106.126 151.592 102.914 152.696 103.321Z" fill="#054F59"/>
<path d="M142.034 110.922C142.034 110.922 147.952 104.309 152.639 108.234C153.155 108.66 153.492 109.264 153.583 109.926C153.674 110.588 153.513 111.26 153.131 111.809C152.694 112.429 151.975 112.878 150.831 112.741C150.676 112.898 146.517 112.196 146.517 112.196C146.517 112.196 142.895 111.706 140.668 113.543C140.694 113.52 142.034 110.922 142.034 110.922Z" fill="#276B5B"/>
<path d="M144.007 107.209C144.007 107.209 143.389 104.34 144.173 101.665C144.389 100.923 144.75 100.231 145.234 99.6278C145.719 99.0249 146.318 98.5233 146.997 98.1516C147.676 97.7799 148.423 97.5455 149.193 97.4617C149.963 97.3779 150.742 97.4464 151.486 97.6633L151.721 97.7304C152.192 97.8613 152.627 98.1003 152.989 98.4285C153.351 98.7567 153.632 99.1648 153.808 99.6204C153.984 100.076 154.05 100.566 154.002 101.052C153.954 101.538 153.793 102.006 153.532 102.418L153.477 102.501C152.955 103.262 152.153 103.787 151.245 103.964C149.235 104.364 144.3 105.522 144.007 107.209Z" fill="#276B5B"/>
<path d="M148.426 97.2351C148.426 97.2351 148.653 93.525 146.76 91.203C146.401 90.7648 146.136 90.257 145.984 89.7118C145.86 89.3319 145.823 88.9294 145.874 88.5333C145.925 88.1371 146.063 87.7572 146.279 87.4207C146.697 86.8028 147.336 86.3664 148.065 86.1997C148.793 86.0331 149.558 86.1486 150.205 86.5229C150.797 86.8784 151.265 87.4072 151.545 88.0374C151.831 88.6432 151.977 89.3051 151.974 89.9747C151.97 90.6443 151.817 91.3046 151.524 91.9074C150.649 93.7696 149.612 95.5523 148.426 97.2351Z" fill="#276B5B"/>
<path d="M141.198 112.576C141.17 112.563 141.146 112.542 141.129 112.516C141.102 112.476 141.092 112.426 141.1 112.378C141.109 112.33 141.136 112.287 141.175 112.258C142.34 111.469 143.583 110.8 144.884 110.264C145.956 109.81 147.089 109.519 148.247 109.402C149.527 109.302 150.616 109.542 151.488 110.114C151.512 110.127 151.533 110.144 151.549 110.165C151.566 110.186 151.578 110.21 151.585 110.236C151.591 110.262 151.592 110.288 151.588 110.315C151.584 110.341 151.574 110.366 151.559 110.388C151.544 110.411 151.525 110.43 151.503 110.444C151.48 110.459 151.455 110.468 151.428 110.472C151.402 110.476 151.375 110.475 151.349 110.468C151.323 110.461 151.299 110.449 151.279 110.432C149.468 109.235 146.881 109.872 145.037 110.618C143.766 111.142 142.553 111.796 141.416 112.568C141.385 112.591 141.347 112.604 141.308 112.606C141.269 112.607 141.231 112.597 141.198 112.576Z" fill="#054F59"/>
<path d="M143.772 106.717C143.73 106.695 143.698 106.659 143.681 106.615C143.664 106.571 143.664 106.523 143.682 106.479C144.377 104.699 145.234 103.262 146.222 102.204C146.946 101.403 147.85 100.784 148.86 100.398C149.793 100.03 150.816 99.9593 151.791 100.194C151.839 100.209 151.879 100.243 151.902 100.287C151.926 100.332 151.93 100.384 151.915 100.432C151.9 100.48 151.866 100.52 151.822 100.543C151.777 100.566 151.725 100.571 151.677 100.556C150.773 100.351 149.828 100.423 148.966 100.762C146.949 101.513 145.241 103.538 144.036 106.624C144.027 106.648 144.013 106.671 143.995 106.69C143.977 106.709 143.955 106.724 143.93 106.734C143.906 106.744 143.88 106.748 143.853 106.748C143.827 106.747 143.801 106.741 143.777 106.729L143.772 106.717Z" fill="#054F59"/>
<path d="M143.788 107.294C143.788 107.294 144.53 101.379 140.849 99.6087C140.448 99.4105 140.005 99.3106 139.558 99.3173C139.11 99.3241 138.671 99.4372 138.276 99.6474C137.974 99.8041 137.714 100.029 137.515 100.305C137.317 100.581 137.187 100.899 137.135 101.234C137.05 101.724 137.097 102.227 137.272 102.693C137.446 103.159 137.742 103.57 138.128 103.884C139.773 105.225 143.317 108.528 142.029 110.592C142.083 110.656 143.788 107.294 143.788 107.294Z" fill="#276B5B"/>
<path d="M142.978 108.876C142.945 108.858 142.917 108.831 142.899 108.798C142.881 108.765 142.872 108.728 142.875 108.69C143.17 105.212 139.385 101.982 139.349 101.949C139.33 101.933 139.314 101.913 139.303 101.891C139.291 101.869 139.284 101.845 139.282 101.821C139.28 101.796 139.283 101.771 139.29 101.747C139.298 101.724 139.31 101.702 139.326 101.683C139.342 101.664 139.361 101.648 139.383 101.637C139.405 101.625 139.429 101.618 139.454 101.616C139.479 101.614 139.504 101.617 139.527 101.624C139.551 101.632 139.573 101.644 139.592 101.66C140.315 102.298 140.967 103.011 141.537 103.788C142.789 105.491 143.384 107.196 143.255 108.721C143.253 108.746 143.246 108.771 143.235 108.793C143.223 108.815 143.207 108.835 143.188 108.851C143.169 108.867 143.146 108.879 143.122 108.887C143.098 108.894 143.073 108.897 143.048 108.894C143.024 108.893 143 108.887 142.978 108.876Z" fill="#054F59"/>
<path d="M149.401 95.2742C149.359 95.2522 149.328 95.2161 149.311 95.1724C149.294 95.1288 149.294 95.0807 149.31 95.0369C150.653 91.5694 148.521 88.4011 148.501 88.3702C148.473 88.3292 148.463 88.2794 148.473 88.2312C148.482 88.183 148.509 88.1403 148.55 88.1122C148.591 88.0858 148.641 88.0761 148.689 88.0853C148.737 88.0944 148.78 88.1215 148.808 88.1612C149.228 88.8203 149.551 89.5352 149.771 90.2845C150.283 91.8849 150.245 93.6102 149.662 95.1865C149.653 95.2114 149.639 95.2342 149.621 95.2535C149.603 95.2727 149.581 95.2879 149.557 95.2981C149.532 95.3083 149.506 95.3133 149.48 95.3128C149.453 95.3122 149.427 95.3061 149.403 95.2949L149.401 95.2742Z" fill="#054F59"/>
<path d="M153.211 91.2572C153.211 91.2572 157.694 90.9244 157.988 94.0952C158.032 94.5587 157.943 95.0251 157.73 95.4394C157.391 96.0947 156.617 96.83 154.76 96.6056C154.76 96.6056 150.5 95.6948 148.444 97.475C148.581 97.3486 148.503 91.9074 153.211 91.2572Z" fill="#276B5B"/>
<path d="M148.366 97.6427C148.336 97.627 148.311 97.6037 148.293 97.5752C148.274 97.5467 148.264 97.5139 148.263 97.4802C148.169 95.0317 149.072 93.5173 149.846 92.6788C150.328 92.1396 150.922 91.7117 151.586 91.4249C151.632 91.4135 151.681 91.4193 151.722 91.4413C151.764 91.4633 151.796 91.4998 151.812 91.5439C151.829 91.5881 151.828 91.6366 151.811 91.6804C151.793 91.7241 151.76 91.7599 151.718 91.7809C151.105 92.0519 150.558 92.4504 150.112 92.9497C149.077 94.0926 148.56 95.6122 148.643 97.4647C148.644 97.4898 148.64 97.5148 148.631 97.5383C148.623 97.5619 148.609 97.5835 148.592 97.602C148.575 97.6204 148.555 97.6354 148.532 97.6459C148.509 97.6564 148.484 97.6623 148.459 97.6633C148.427 97.6633 148.395 97.6562 148.366 97.6427Z" fill="#054F59"/>
<path d="M148.366 96.9435C148.343 96.9326 148.323 96.9171 148.306 96.8981C148.289 96.879 148.276 96.8568 148.268 96.8327C148.26 96.8086 148.257 96.7831 148.259 96.7578C148.262 96.7326 148.269 96.708 148.281 96.6855C149.455 94.1804 151.411 93.4657 152.844 93.3083C153.8 93.2043 154.767 93.292 155.689 93.5663C155.736 93.5828 155.775 93.6171 155.798 93.662C155.82 93.7069 155.824 93.7587 155.808 93.8063C155.8 93.8299 155.788 93.8517 155.771 93.8705C155.755 93.8893 155.735 93.9046 155.712 93.9156C155.69 93.9267 155.666 93.9332 155.641 93.9348C155.616 93.9364 155.591 93.933 155.567 93.9249C154.694 93.6714 153.779 93.5899 152.875 93.685C150.937 93.9017 149.512 94.975 148.627 96.8429C148.617 96.8665 148.602 96.8877 148.583 96.9052C148.564 96.9227 148.542 96.9362 148.518 96.9447C148.494 96.9531 148.468 96.9565 148.442 96.9545C148.416 96.9526 148.391 96.9453 148.369 96.9332L148.366 96.9435Z" fill="#054F59"/>
<path d="M143.702 107.462C143.661 107.442 143.628 107.407 143.611 107.364C143.593 107.321 143.593 107.273 143.609 107.23C143.609 107.212 144.111 105.777 143.376 103.466C143.365 103.419 143.372 103.369 143.396 103.327C143.42 103.284 143.459 103.253 143.505 103.238C143.552 103.224 143.602 103.227 143.646 103.249C143.69 103.27 143.724 103.307 143.741 103.352C144.517 105.801 144 107.297 143.966 107.359C143.958 107.382 143.945 107.404 143.928 107.422C143.911 107.441 143.891 107.456 143.868 107.466C143.846 107.477 143.821 107.483 143.796 107.484C143.771 107.485 143.746 107.481 143.723 107.472L143.702 107.462Z" fill="#054F59"/>
<path d="M60.1323 116.557H64.7754L62.3387 102.648C61.78 99.4771 61.5187 97.5034 59.9719 94.6757C59.3165 93.5692 58.5844 92.5097 57.781 91.5049C56.6015 90.0601 51.7205 87.4079 51.7049 87.591C51.1462 94.0668 53.8855 96.9152 55.9885 99.6293C57.7965 101.977 59.6641 113.505 60.1323 116.557Z" fill="#054F59"/>
<path d="M72.0413 85.1839C72.0413 85.1839 71.524 86.1075 72.9441 91.9667C74.2012 97.1267 68.6657 112.924 67.3491 116.557H69.3926C71.4619 113.977 77.8174 105.543 78.3864 98.3806C79.0667 89.8073 72.0413 85.1839 72.0413 85.1839Z" fill="#054F59"/>
<path d="M52.1291 108.138C52.6464 109.059 54.0277 111.023 55.0158 111.541C56.8653 112.509 58.2517 115.241 58.8337 116.557H61.6558C61.3842 115.003 61.2235 113.432 61.1747 111.856C61.1178 109.34 59.7416 104.547 56.3091 101.559C55.1087 100.528 54.0316 99.3616 53.0991 98.0839C52.0955 96.6907 51.0298 94.9647 50.603 93.4786C49.8865 90.9347 50.6469 100.703 50.9341 104.191C51.0414 105.577 51.4492 106.924 52.1291 108.138Z" fill="#276B5B"/>
<path d="M87.1292 96.6984C77.6077 97.6865 74.3304 105.826 74.3304 105.826L69.2683 116.557H72.2042C73.1871 110.979 83.0475 103.871 83.0475 103.636L83.2544 103.489C85.2067 102.073 86.6989 100.116 87.5457 97.862L88.1173 96.3604C88.1173 96.3604 87.1913 96.6984 87.1292 96.6984Z" fill="#276B5B"/>
<path d="M67.6208 116.557C68.7693 114.108 72.2044 106.304 70.5696 103.742C68.6244 100.687 68.4615 93.0425 68.4615 93.0425L63.2726 102.684C61.3947 105.963 63.5313 114.072 64.2737 116.57L67.6208 116.557Z" fill="#276B5B"/>
<path d="M55.916 107.939C58.9967 110.486 59.7805 114.823 59.9719 116.557H60.3961C60.2949 115.597 60.1141 114.648 59.8555 113.719C59.3382 111.897 58.3035 109.358 56.1824 107.607C52.2688 104.374 50.5823 93.2231 50.5642 93.1122C50.562 93.0837 50.5539 93.0559 50.5406 93.0306C50.5272 93.0053 50.5087 92.983 50.4863 92.9651C50.4639 92.9472 50.4381 92.9341 50.4104 92.9266C50.3828 92.919 50.3538 92.9172 50.3255 92.9213C50.2971 92.9254 50.2698 92.9352 50.2454 92.9502C50.221 92.9652 50.1999 92.9851 50.1835 93.0085C50.1671 93.032 50.1556 93.0586 50.1499 93.0866C50.1442 93.1146 50.1444 93.1436 50.1503 93.1715C50.2202 93.654 51.8782 104.604 55.916 107.939Z" fill="#054F59"/>
<path d="M66.0971 116.557C65.0081 107.011 68.6268 93.2386 68.6656 93.0967C68.6797 93.043 68.6718 92.9859 68.6437 92.938C68.6155 92.8901 68.5695 92.8554 68.5156 92.8413C68.4618 92.8273 68.4045 92.8352 68.3565 92.8632C68.3085 92.8913 68.2736 92.9372 68.2595 92.991C68.2233 93.1303 64.5968 106.923 65.6729 116.557H66.0971Z" fill="#054F59"/>
<path d="M88.2934 96.234C88.2623 96.1885 88.2147 96.1568 88.1606 96.1457C88.1065 96.1346 88.0502 96.145 88.0037 96.1747C87.5691 96.4585 77.3259 103.169 75.0083 106.856C73.4795 109.286 71.2084 114.578 70.3833 116.546H70.836C71.7103 114.482 73.8882 109.42 75.3626 107.078C77.6311 103.466 88.1252 96.5926 88.2313 96.5256C88.2781 96.495 88.3109 96.4472 88.3225 96.3925C88.3342 96.3379 88.3237 96.281 88.2934 96.234Z" fill="#054F59"/>
<path d="M113.332 32.5286C113.187 30.9806 112.621 29.6132 110.746 29.0663C110.183 28.8852 109.58 28.8663 109.007 29.0119C108.434 29.1575 107.914 29.4617 107.507 29.8893C106.85 30.5704 106.79 31.2799 106.684 32.1623C106.568 33.1246 106.356 34.0818 106.485 35.0544C107.701 35.2015 108.928 35.2274 110.148 35.1318C111.214 35.0751 112.282 35.0957 113.348 35.1164C113.393 34.2542 113.388 33.3902 113.332 32.5286Z" fill="black"/>
<path d="M108.994 29.3759C109.468 29.3165 109.99 29.6339 110.495 30.5033C110.901 31.2103 110.945 32.1752 111.397 32.8253C111.501 32.7234 111.638 32.6628 111.783 32.6551C111.859 32.6483 111.935 32.6627 112.003 32.6965C112.071 32.7304 112.128 32.7824 112.169 32.8469C112.209 32.9113 112.23 32.9856 112.231 33.0616C112.231 33.1375 112.21 33.212 112.171 33.2768C112.077 33.4859 111.931 33.6671 111.746 33.8028C111.561 33.9385 111.344 34.0239 111.116 34.0508C110.971 34.443 111.423 35.893 111.434 36.3728C111.449 37.0488 111.196 37.3171 110.999 37.4642C110.052 37.2939 109.09 37.2062 108.138 37.072C108.239 36.6721 108.317 35.9471 108.412 35.862C108.687 35.6221 109.17 35.088 109.201 34.7113C108.208 34.9693 107.347 33.6793 107.285 32.7557C107.186 31.347 107.975 29.5049 108.994 29.3759Z" fill="white" stroke="#222221" stroke-width="0.5"/>
<path d="M111.548 31.8759C111.154 32.1339 110.19 31.4786 110.231 31.0426C110.217 31.1792 110.193 31.3146 110.159 31.4476C109.736 31.3968 109.319 31.3105 108.912 31.1896C108.547 31.0452 108.738 30.6349 108.653 30.2944C108.63 30.5776 108.564 30.8558 108.459 31.12C108.102 31.0735 107.608 31.1793 107.267 31.0581C107.199 31.0348 107.81 29.8919 107.867 29.8119C108.048 29.5228 108.321 29.3028 108.643 29.1876C109.333 28.9605 110.306 28.9476 110.826 29.523C111.157 29.8919 111.835 30.813 111.62 31.3573C111.61 31.4218 111.615 31.8346 111.548 31.8759Z" fill="black"/>
<path d="M109.201 34.6985C109.666 34.702 110.119 34.5564 110.495 34.2831C110.495 34.2831 109.789 35.4363 108.881 35.3589C109.021 35.1567 109.13 34.9339 109.201 34.6985Z" fill="white" stroke="#222221" stroke-width="0.5"/>
<path d="M108.687 31.5741C108.65 31.9482 108.614 32.3197 108.581 32.6938C108.581 32.7764 108.565 32.8589 108.555 32.9518V32.9286L108.8 33.0266C108.829 33.0266 108.8 33.0782 108.782 33.0679L108.524 32.9699C108.519 32.9673 108.516 32.9635 108.513 32.9589C108.511 32.9543 108.51 32.9491 108.511 32.9441C108.547 32.5725 108.583 32.1984 108.617 31.8269C108.617 31.7444 108.632 31.6592 108.643 31.5689C108.643 31.5405 108.689 31.5483 108.687 31.5689V31.5741Z" fill="#222221"/>
<path d="M109.225 32.2861C109.207 32.3661 109.238 32.4435 109.294 32.4564C109.351 32.4693 109.413 32.4151 109.432 32.3326C109.45 32.25 109.419 32.1752 109.362 32.1623C109.305 32.1494 109.245 32.2036 109.225 32.2861Z" fill="#10130D"/>
<path d="M107.836 32.1442C107.823 32.2268 107.861 32.3016 107.918 32.3093C107.975 32.3171 108.032 32.2577 108.042 32.1752C108.053 32.0926 108.017 32.0178 107.96 32.0101C107.903 32.0023 107.846 32.0642 107.836 32.1442Z" fill="#10130D"/>
<path d="M108.469 33.7827C108.469 33.8035 108.498 33.8269 108.542 33.8347C108.586 33.8425 108.623 33.8347 108.628 33.8139C108.633 33.7931 108.599 33.7697 108.555 33.7619C108.511 33.7541 108.474 33.7619 108.469 33.7827Z" fill="#222221"/>
<path d="M109.933 31.7908C109.905 31.863 109.773 31.7908 109.605 31.734C109.437 31.6772 109.297 31.6231 109.325 31.5534C109.354 31.4837 109.512 31.4786 109.68 31.5534C109.848 31.6282 109.967 31.7185 109.933 31.7908Z" fill="#10130D"/>
<path d="M108.327 31.4399C108.327 31.5173 108.182 31.5096 108.001 31.5096C107.82 31.5096 107.675 31.5225 107.675 31.4476C107.675 31.3728 107.82 31.3083 108.001 31.3057C108.182 31.3032 108.327 31.3651 108.327 31.4399Z" fill="#10130D"/>
<path d="M109.235 33.4058C109.168 33.4833 109.085 33.5452 108.992 33.5872C108.898 33.6291 108.797 33.65 108.694 33.6484C108.563 33.6514 108.434 33.6132 108.325 33.5391C108.217 33.4651 108.134 33.3589 108.089 33.2356C108.084 33.2187 108.079 33.2014 108.076 33.184C108.076 33.1556 108.115 33.1504 108.12 33.184C108.12 33.1969 108.12 33.2098 108.12 33.2227C108.136 33.264 108.156 33.3037 108.18 33.3413C108.26 33.4632 108.386 33.5485 108.529 33.5787C108.647 33.6075 108.77 33.6037 108.886 33.5678C109.001 33.5319 109.105 33.4652 109.186 33.3749C109.204 33.3517 109.238 33.3749 109.219 33.4058H109.235Z" fill="#222221"/>
<mask id="path-92-inside-1_1_1721" fill="white">
<path d="M111.485 33.491C111.509 33.5194 111.612 33.4704 111.721 33.3826C111.829 33.2949 111.899 33.2046 111.876 33.1762C111.853 33.1479 111.749 33.1995 111.641 33.2846C111.532 33.3697 111.457 33.4652 111.485 33.491Z"/>
</mask>
<path d="M111.485 33.491C111.509 33.5194 111.612 33.4704 111.721 33.3826C111.829 33.2949 111.899 33.2046 111.876 33.1762C111.853 33.1479 111.749 33.1995 111.641 33.2846C111.532 33.3697 111.457 33.4652 111.485 33.491Z" fill="white"/>
<path d="M111.485 33.491L111.872 33.1739L111.848 33.1454L111.821 33.1206L111.485 33.491ZM111.099 33.8081C111.277 34.0257 111.525 34.0017 111.583 33.9939C111.669 33.9823 111.74 33.9532 111.782 33.9338C111.872 33.8918 111.96 33.8321 112.035 33.7717L111.407 32.9936C111.373 33.0209 111.355 33.0295 111.36 33.0269C111.363 33.0255 111.371 33.022 111.384 33.0178C111.395 33.014 111.418 33.0071 111.45 33.0028C111.479 32.9989 111.537 32.9942 111.609 33.0107C111.686 33.0283 111.79 33.0735 111.872 33.1739L111.099 33.8081ZM112.035 33.7717C112.109 33.7116 112.186 33.6386 112.246 33.5593C112.274 33.523 112.318 33.4597 112.347 33.3773C112.368 33.321 112.443 33.0796 112.262 32.8591L111.489 33.4933C111.406 33.3923 111.382 33.2811 111.38 33.1995C111.379 33.1241 111.396 33.0672 111.406 33.039C111.417 33.0082 111.429 32.9868 111.435 32.9762C111.442 32.9647 111.447 32.9576 111.449 32.955C111.453 32.9499 111.441 32.9659 111.407 32.9936L112.035 33.7717ZM112.262 32.8591C112.08 32.637 111.826 32.6665 111.771 32.6746C111.686 32.6872 111.617 32.7168 111.577 32.7357C111.489 32.777 111.404 32.8347 111.332 32.891L111.949 33.6781C111.986 33.6493 112.006 33.6387 112.004 33.64C112.002 33.641 111.994 33.6443 111.983 33.6484C111.972 33.6521 111.949 33.6592 111.918 33.6638C111.889 33.668 111.831 33.6738 111.758 33.658C111.679 33.6409 111.573 33.5957 111.489 33.4933L112.262 32.8591ZM111.332 32.891C111.255 32.9513 111.176 33.0259 111.114 33.1068C111.086 33.143 111.039 33.2101 111.009 33.2989C110.988 33.361 110.909 33.6438 111.149 33.8614L111.821 33.1206C111.925 33.215 111.969 33.3352 111.977 33.4346C111.985 33.5226 111.966 33.5896 111.956 33.6208C111.944 33.6553 111.931 33.6792 111.924 33.6905C111.917 33.7029 111.911 33.7106 111.909 33.7133C111.905 33.7187 111.917 33.703 111.949 33.6781L111.332 32.891Z" fill="#222221" mask="url(#path-92-inside-1_1_1721)"/>
<path d="M111.873 29.6829C111.873 29.6829 111.824 31.4502 113.04 31.138C113.037 31.138 112.698 29.8326 111.873 29.6829Z" fill="black"/>
<path d="M111.744 30.3744C111.99 31.4863 113.656 30.4956 113.979 30.0286C114.538 29.2288 114.126 27.6499 112.88 28.1246C112.135 28.4032 111.563 29.6133 111.744 30.3744Z" fill="black"/>
<path d="M113.001 111.946L112.662 108.045H118.772L118.547 111.993L113.001 111.946Z" fill="#DF7654"/>
<path d="M100.611 111.505L101.817 105.184L95.9034 104.642L95.7534 111.309L100.611 111.505Z" fill="#DF7654"/>
<path d="M117.753 53.793C117.753 53.793 121.149 63.7931 119.905 83.4321V108.946L111.079 109.284L108.72 71.9201L102.432 109.162L93.0942 108.938L102.251 54.5386L117.753 53.793Z" fill="#37474F"/>
<path d="M98.7253 42.0256C98.7253 42.0256 101.291 37.041 102.432 36.7366L106.415 35.6736L112.106 35.4156L117.339 36.2258C118.017 36.3303 118.654 36.6129 119.186 37.0446C119.718 37.4763 120.125 38.0414 120.365 38.6819L123.211 46.2646L117.546 47.0386L117.771 54.1852H102.251L103.045 46.3987L98.7253 42.0256Z" fill="#1988FF"/>
<path d="M117.518 47.0205L116.136 43.5994V54.536L117.768 54.1955V47.6345" fill="#C98308"/>
<path opacity="0.71" d="M103.081 46.4091V41.4426L101.853 45.15L103.081 46.4091Z" fill="#C98308"/>
<path d="M100.621 111.505L100.345 114.085L100.169 116.799L88.9606 117.599C88.8649 117.604 88.7702 117.578 88.6912 117.523C88.6121 117.469 88.5533 117.391 88.5238 117.3C88.4943 117.209 88.4958 117.111 88.528 117.02C88.5602 116.93 88.6214 116.854 88.702 116.802C89.1908 116.497 93.6425 115.512 94.3642 114.885C94.3642 114.885 95.9162 113.419 95.7713 111.306L100.621 111.505Z" fill="#1988FF"/>
<path d="M108.72 71.577L107.797 65.4288L107.326 79.833L108.72 71.577Z" fill="#5E60F4"/>
<path d="M123.637 53.1794L123.636 53.1806C123.495 53.294 123.343 53.4144 123.178 53.5448C123.104 53.6032 123.028 53.6636 122.949 53.7262L122.949 53.7262C121.472 54.8987 119.261 56.6487 117.359 58.1332C116.407 58.8755 115.533 59.5507 114.867 60.054C114.534 60.3057 114.254 60.5135 114.042 60.6648C113.937 60.7406 113.85 60.8011 113.782 60.8456C113.766 60.8564 113.751 60.866 113.738 60.8746L113.39 60.6434L113.443 61.1446C112.869 61.9903 111.963 62.866 111.122 63.2337C110.916 63.3231 110.786 63.2432 110.751 63.1946C110.734 63.1718 110.738 63.1608 110.739 63.1567C110.742 63.1497 110.761 63.1044 110.869 63.0571L110.87 63.0569C111.277 62.8769 111.651 62.6291 111.975 62.3239L111.643 61.9505C111.5 62.0708 111.343 62.1741 111.176 62.2582C110.86 62.4102 110.516 62.48 110.144 62.5241C109.984 62.5431 109.823 62.5569 109.656 62.5712C109.628 62.5736 109.6 62.576 109.572 62.5784C109.378 62.5953 109.177 62.6138 108.977 62.6426C108.813 62.6662 108.71 62.6482 108.656 62.6261C108.635 62.6179 108.623 62.6102 108.617 62.6048C108.619 62.6003 108.623 62.5942 108.63 62.5863C108.658 62.5548 108.721 62.507 108.844 62.4738C108.844 62.4737 108.845 62.4736 108.845 62.4736L109.089 62.4095L109.026 61.9177C108.636 61.9172 108.247 61.8711 107.868 61.7801L107.866 61.7797C107.78 61.7597 107.741 61.6808 107.758 61.6089C107.765 61.5794 107.78 61.5592 107.806 61.5465C107.833 61.533 107.901 61.514 108.034 61.5517L108.036 61.5522C108.387 61.6489 108.753 61.6777 109.115 61.637L109.13 61.1422C108.942 61.1096 108.749 61.0693 108.545 61.0255C108.43 61.0002 108.383 60.9568 108.366 60.9344C108.351 60.9139 108.351 60.8985 108.355 60.8866C108.359 60.8729 108.373 60.8475 108.414 60.8274C108.455 60.8076 108.529 60.7906 108.645 60.8152L108.647 60.8155C109.352 60.9608 110.087 60.838 110.707 60.4711L110.707 60.4712L110.714 60.4669C110.908 60.3438 111.083 60.1934 111.234 60.0204L111.67 59.521L111.013 59.6082C110.74 59.6444 110.464 59.6444 110.191 59.6082L110.189 59.6079C110.065 59.5924 109.967 59.5521 109.9 59.5066C109.831 59.4591 109.81 59.4164 109.806 59.4018C109.805 59.4014 109.805 59.401 109.805 59.4007C109.806 59.3991 109.808 59.397 109.811 59.3942C109.833 59.3729 109.901 59.3274 110.067 59.3037L110.068 59.3035C110.362 59.2601 110.679 59.1829 110.989 59.1032C111.056 59.0858 111.123 59.0683 111.19 59.051C111.433 58.9876 111.67 58.926 111.895 58.8775L111.964 58.8627L112.015 58.814L119.602 51.5745L119.708 51.4731L119.671 51.331L118.593 47.1657L123.007 46.5632L123.848 49.9267L123.848 49.9269L124.228 51.4507C124.228 51.4508 124.228 51.4509 124.228 51.451C124.305 51.7652 124.29 52.0948 124.186 52.4011C124.081 52.7074 123.891 52.9775 123.637 53.1794ZM108.61 62.5971C108.61 62.5971 108.61 62.5976 108.611 62.5986L108.61 62.5971ZM108.613 62.612C108.613 62.6133 108.613 62.614 108.613 62.614L108.613 62.612Z" fill="white" stroke="#222221" stroke-width="0.5"/>
<path d="M112.947 111.304C113.136 111.376 112.054 114.454 111.943 116.126C111.938 116.217 111.952 116.308 111.984 116.394C112.015 116.48 112.064 116.558 112.128 116.625C112.191 116.691 112.267 116.743 112.351 116.779C112.436 116.815 112.527 116.833 112.618 116.833H118.674C118.853 116.833 119.024 116.762 119.151 116.635C119.278 116.509 119.349 116.338 119.349 116.159C119.349 115.003 119.25 112.632 118.586 111.304H112.947Z" fill="#1988FF"/>
<path d="M109.157 61.5691C109.455 61.5691 110.59 61.5253 111.333 60.8751C111.349 60.8609 111.362 60.8435 111.372 60.824C111.382 60.8045 111.387 60.7834 111.388 60.7617C111.389 60.7401 111.386 60.7184 111.379 60.698C111.372 60.6776 111.36 60.6589 111.346 60.6429C111.332 60.6264 111.314 60.6129 111.295 60.6032C111.275 60.5934 111.254 60.5877 111.233 60.5862C111.211 60.5848 111.189 60.5877 111.169 60.5948C111.148 60.6018 111.129 60.613 111.113 60.6274C110.373 61.275 109.111 61.2389 109.098 61.2389C109.054 61.2389 109.012 61.2563 108.981 61.2873C108.95 61.3182 108.932 61.3602 108.932 61.404C108.932 61.4478 108.95 61.4898 108.981 61.5208C109.012 61.5517 109.054 61.5691 109.098 61.5691H109.157Z" fill="#9A4042"/>
<path d="M109.442 62.369C110.003 62.369 110.968 62.2709 111.553 61.6646C111.584 61.6333 111.601 61.5911 111.601 61.5472C111.601 61.5033 111.584 61.4612 111.553 61.4298C111.538 61.4144 111.519 61.4021 111.499 61.3937C111.479 61.3854 111.458 61.381 111.436 61.381C111.415 61.381 111.393 61.3854 111.373 61.3937C111.353 61.4021 111.335 61.4144 111.32 61.4298C110.585 62.1884 109.057 62.0155 109.041 62.0129C109.019 62.0094 108.997 62.0103 108.975 62.0156C108.953 62.021 108.933 62.0307 108.915 62.0441C108.897 62.0575 108.882 62.0744 108.871 62.0937C108.86 62.1131 108.853 62.1344 108.85 62.1565C108.848 62.1787 108.85 62.2011 108.856 62.2225C108.862 62.2438 108.873 62.2637 108.887 62.2809C108.901 62.2981 108.919 62.3123 108.938 62.3225C108.958 62.3328 108.98 62.3389 109.002 62.3406C109.148 62.3584 109.295 62.3679 109.442 62.369Z" fill="#9A4042"/>
<path d="M137.58 90.2329L137.448 102.075L127.758 101.967C127.758 101.967 133.4 98.9482 135.024 93.1948C135.091 92.9626 135.151 92.7252 135.202 92.4827C135.364 91.732 135.451 90.9672 135.461 90.1994L137.58 90.2329Z" fill="#F9CF70"/>
<path d="M143.904 102.147L137.438 102.075L137.569 90.2329L139.69 90.2561C139.69 90.6612 139.69 91.0585 139.74 91.4429L139.067 92.8697C139.31 96.8635 143.904 102.147 143.904 102.147Z" fill="#F9CF70"/>
<path d="M147.135 102.183L143.904 102.147C143.904 102.147 139.765 97.4027 139.147 93.5069C139.114 93.2902 139.09 93.0787 139.077 92.8697L139.494 91.9822L139.753 91.4429C139.753 91.5074 139.765 91.5719 139.771 91.6339C139.804 91.946 139.851 92.2505 139.908 92.5472C139.963 92.8224 140.025 93.0933 140.094 93.3599C141.625 99.072 147.135 102.183 147.135 102.183Z" fill="#F3BC44"/>
<path d="M133.175 86.2726C131.351 86.2668 129.537 86.0143 127.782 85.5218C125.791 84.9619 123.935 84.0045 122.326 82.7078C120.717 81.411 119.389 79.8019 118.423 77.9779C117.903 77.0272 117.462 76.0358 117.104 75.0135C116.809 74.1736 116.567 73.3162 116.379 72.4464C116.187 71.6078 116.061 70.7555 116.002 69.8974L115.948 68.8189L125.001 68.9221L125.208 70.9577L118.151 70.8778C118.203 71.2183 118.276 71.6285 118.376 72.0878C118.756 73.8246 119.381 75.4986 120.234 77.0594C122.854 81.7576 127.218 84.1725 133.19 84.2396L133.175 86.2726Z" fill="#F9CF70"/>
<path d="M142.062 86.3707C143.887 86.4055 145.709 86.1938 147.476 85.7411C149.481 85.2277 151.36 84.3129 152.999 83.0524C154.638 81.7919 156.003 80.212 157.011 78.4088C157.553 77.4708 158.017 76.4896 158.397 75.4753C158.709 74.6417 158.968 73.7895 159.173 72.9237C159.382 72.0894 159.528 71.2408 159.61 70.385L159.685 69.3091L150.632 69.2059L150.373 71.2364L157.43 71.3164C157.37 71.6569 157.288 72.062 157.171 72.5187C156.754 74.2476 156.09 75.9079 155.2 77.449C152.476 82.093 148.066 84.415 142.086 84.3376L142.062 86.3707Z" fill="#F9CF70"/>
<path d="M148.241 115.317L126.643 115.102L126.622 117.217L148.22 117.433L148.241 115.317Z" fill="#1C2684"/>
<path opacity="0.05" d="M143.198 89.8305L142.957 90.1117C142.937 90.1349 142.918 90.1581 142.898 90.1788C142.768 90.3232 142.639 90.4626 142.507 90.5993L142.448 90.6586L142.378 90.7309L142.313 90.7928L142.093 91.0069L142.021 91.074L141.902 91.1824L141.842 91.234C141.757 91.3088 141.672 91.3836 141.584 91.4533L141.511 91.5126L141.385 91.6158L141.341 91.6494C141.21 91.7526 141.075 91.8506 140.937 91.9435L140.875 91.9873L140.81 92.0286L140.746 92.0725L140.681 92.1138C140.57 92.186 140.459 92.2531 140.345 92.315L140.303 92.3408L140.244 92.3718L140.182 92.4079L139.923 92.5369H139.9C139.955 92.8121 140.017 93.083 140.086 93.3496C139.765 93.4115 139.45 93.4605 139.142 93.4966C138.609 93.5577 138.072 93.5801 137.536 93.5637C136.685 93.5395 135.84 93.4156 135.019 93.1948C135.086 92.9626 135.146 92.7252 135.197 92.4827C133.992 91.8296 132.936 90.9355 132.093 89.8563L140.96 89.8279L143.198 89.8305Z" fill="black"/>
<path d="M150.836 65.6171C150.836 65.6687 150.836 65.7203 150.836 65.7719V65.9912C150.838 66.0041 150.838 66.0171 150.836 66.0299C150.836 66.0841 150.836 66.1383 150.836 66.1925V66.2286V66.4092C150.836 66.4685 150.836 66.5304 150.836 66.5924C150.836 66.7394 150.836 66.8865 150.816 67.0336V67.2013V67.2245C150.816 67.289 150.816 67.3509 150.816 67.4128C150.816 67.4747 150.816 67.5392 150.816 67.6011L150.8 67.8308C150.8 67.8746 150.8 67.9211 150.8 67.9649V68.0707C150.8 68.1146 150.8 68.161 150.8 68.2049C150.8 68.2487 150.8 68.3623 150.782 68.4422C150.764 68.5222 150.769 68.5712 150.764 68.6383L150.748 68.8241C150.747 68.8309 150.747 68.8379 150.748 68.8447C150.748 68.9118 150.736 68.9815 150.728 69.0511C150.72 69.1208 150.728 69.1724 150.71 69.2343C150.71 69.2343 150.71 69.2498 150.71 69.2601C150.71 69.3272 150.71 69.3968 150.689 69.4665C150.666 69.6729 150.642 69.8819 150.617 70.0909C150.617 70.1579 150.601 70.2276 150.591 70.2973C150.591 70.2973 150.591 70.3231 150.591 70.3385C150.591 70.3953 150.575 70.4521 150.57 70.5088C150.565 70.5656 150.549 70.6481 150.541 70.7178C150.534 70.7875 150.521 70.8597 150.513 70.9294L150.482 71.1358C150.482 71.1951 150.466 71.2518 150.456 71.3112C150.458 71.3387 150.458 71.3662 150.456 71.3938C150.456 71.4428 150.456 71.4892 150.435 71.5382C150.412 71.6956 150.386 71.853 150.36 72.0104C150.36 72.0697 150.342 72.1316 150.332 72.1936C150.322 72.2555 150.332 72.2632 150.314 72.2993L150.291 72.4283C150.291 72.4412 150.291 72.4541 150.291 72.467C150.291 72.4799 150.272 72.5651 150.265 72.6141L150.226 72.8256C150.226 72.8256 150.226 72.8411 150.226 72.8489C150.213 72.9108 150.203 72.9753 150.19 73.0372C150.177 73.0991 150.166 73.1714 150.153 73.241C150.152 73.2504 150.152 73.26 150.153 73.2694L150.115 73.4603C150.115 73.53 150.089 73.6022 150.073 73.6719L150.035 73.8757C150.019 73.9531 150.003 74.0305 149.985 74.1105C149.967 74.1905 149.959 74.2395 149.944 74.3066C149.928 74.3737 149.918 74.4407 149.903 74.5052C149.887 74.5697 149.869 74.6575 149.853 74.7349L149.76 75.1502C149.76 75.2018 149.737 75.2534 149.724 75.3076C149.711 75.3618 149.724 75.3463 149.724 75.3669L149.623 75.7952C149.605 75.8597 149.59 75.9268 149.574 75.9913C149.559 76.0558 149.54 76.1306 149.522 76.2003C149.504 76.27 149.486 76.3396 149.471 76.4067L149.416 76.6157C149.38 76.755 149.344 76.8943 149.305 77.0336L149.253 77.2323V77.2504L149.199 77.4439C149.178 77.5135 149.16 77.5832 149.14 77.6528L149.085 77.8489L148.961 78.2694L148.902 78.4759L148.842 78.6668C148.842 78.6711 148.842 78.6754 148.842 78.6797L148.78 78.8835C148.78 78.9016 148.78 78.9196 148.762 78.9351L148.715 79.0873C148.695 79.157 148.671 79.224 148.651 79.2911C148.63 79.3582 148.612 79.4124 148.591 79.4743C148.592 79.4803 148.592 79.4864 148.591 79.4924L148.539 79.6523C148.539 79.6807 148.521 79.7117 148.511 79.7401L148.495 79.7839C148.495 79.82 148.472 79.8587 148.459 79.8974C148.446 79.9361 148.415 80.0316 148.392 80.0961C148.369 80.1606 148.351 80.2148 148.332 80.2715V80.3076L148.268 80.496C148.247 80.5528 148.226 80.6095 148.208 80.6663V80.6946C148.185 80.7566 148.164 80.8211 148.141 80.883C148.118 80.9449 148.1 81.0017 148.076 81.0584C148.053 81.1152 148.048 81.1384 148.035 81.1771C148.022 81.2158 148.007 81.2494 147.994 81.2855C147.981 81.3216 147.947 81.4145 147.921 81.479L147.849 81.6725C147.725 82.0027 147.59 82.3278 147.463 82.6477L147.394 82.8206L147.316 83.0063C147.29 83.0708 147.264 83.1327 147.236 83.1947L147.181 83.3237V83.3391L147.135 83.4449C147.096 83.5301 147.06 83.6178 147.021 83.7029C147.008 83.7313 146.998 83.7571 146.985 83.7829L146.92 83.93L146.858 84.0667L146.819 84.1493L146.775 84.2473C146.69 84.4279 146.607 84.6085 146.517 84.784L146.462 84.8923C146.18 85.4728 145.886 86.0327 145.583 86.5693C145.562 86.6054 145.544 86.6416 145.523 86.6751C145.381 86.9331 145.236 87.1679 145.091 87.4052C145.071 87.4388 145.047 87.4723 145.027 87.5084C145.006 87.5445 144.952 87.6297 144.913 87.6916C144.719 87.9961 144.522 88.2928 144.321 88.5766L144.256 88.6694L144.191 88.7623L144.129 88.8449C144.08 88.9119 144.031 88.9816 143.979 89.0487L143.878 89.1829L143.772 89.3196C143.744 89.3583 143.715 89.3944 143.684 89.4305C143.581 89.5647 143.475 89.6885 143.366 89.8201L143.126 90.1013C143.105 90.1246 143.087 90.1478 143.066 90.1684C142.937 90.3129 142.807 90.4522 142.675 90.589L142.616 90.6483L142.546 90.7205L142.481 90.7824L142.262 90.9966L142.189 91.0637L142.07 91.172L142.011 91.2236C141.925 91.2984 141.84 91.3733 141.752 91.4429L141.68 91.5023L141.553 91.6055L141.509 91.639C141.378 91.7422 141.243 91.8402 141.105 91.9331L141.043 91.977L140.979 92.0183L140.914 92.0621L140.849 92.1034C140.738 92.1756 140.627 92.2427 140.513 92.3046L140.472 92.3305L140.412 92.3614L140.35 92.3975L140.091 92.5265H140.068L140.029 92.5446L139.959 92.5756H139.947L139.897 92.5962L139.848 92.6168C139.711 92.6762 139.571 92.7303 139.432 92.7794L139.383 92.7949H139.367L139.313 92.8129L139.251 92.8336L139.052 92.8903L138.997 92.9032H138.979H138.935L138.87 92.9187H138.816L138.72 92.9368C138.391 93.0011 138.055 93.0322 137.719 93.0296C136.902 93.0114 136.1 92.8057 135.376 92.4285C134.171 91.7754 133.114 90.8813 132.272 89.8021C127.9 84.5079 124.954 73.7209 125.047 65.2637L150.836 65.6171Z" fill="#F9CF70"/>
<path d="M150.836 65.6172C150.836 65.6688 150.836 65.7204 150.836 65.772V65.9913C150.838 66.0041 150.838 66.0171 150.836 66.03C150.836 66.0841 150.836 66.1383 150.836 66.1925V66.2286V66.4092C150.836 66.4686 150.836 66.5305 150.836 66.5924C150.836 66.7395 150.836 66.8865 150.816 67.0336V67.2013V67.2245C150.816 67.289 150.816 67.3509 150.816 67.4128C150.816 67.4748 150.816 67.5393 150.816 67.6012L150.8 67.8308C150.8 67.8747 150.8 67.9211 150.8 67.965V68.0707C150.8 68.1146 150.8 68.161 150.8 68.2049C150.8 68.2488 150.8 68.3623 150.782 68.4423C150.764 68.5222 150.769 68.5713 150.764 68.6383L150.748 68.8241C150.747 68.8309 150.747 68.8379 150.748 68.8447C150.748 68.9118 150.736 68.9815 150.728 69.0511C150.72 69.1208 150.728 69.1724 150.71 69.2343C150.71 69.2343 150.71 69.2498 150.71 69.2601C150.71 69.3272 150.71 69.3969 150.689 69.4665C150.666 69.6729 150.642 69.8819 150.617 70.0909C150.617 70.158 150.601 70.2276 150.591 70.2973C150.591 70.2973 150.591 70.3231 150.591 70.3386C150.591 70.3953 150.575 70.4521 150.57 70.5088C150.565 70.5656 150.549 70.6482 150.542 70.7178C150.534 70.7875 150.521 70.8597 150.513 70.9294L150.482 71.1358C150.482 71.1951 150.467 71.2519 150.456 71.3112C150.458 71.3387 150.458 71.3663 150.456 71.3938C150.456 71.4428 150.456 71.4892 150.435 71.5383C150.412 71.6956 150.386 71.853 150.36 72.0104C150.36 72.0697 150.342 72.1317 150.332 72.1936C150.322 72.2555 150.332 72.2632 150.314 72.2994L150.291 72.4284C150.291 72.4413 150.291 72.4542 150.291 72.4671C150.291 72.48 150.273 72.5651 150.265 72.6141L150.226 72.8257C150.226 72.8257 150.226 72.8412 150.226 72.8489C150.213 72.9108 150.203 72.9753 150.19 73.0372C150.177 73.0992 150.166 73.1714 150.154 73.2411C150.152 73.2505 150.152 73.26 150.154 73.2694L150.115 73.4604C150.115 73.53 150.089 73.6023 150.073 73.6719L150.035 73.8757C150.019 73.9531 150.004 74.0305 149.985 74.1105C149.967 74.1905 149.96 74.2395 149.944 74.3066C149.928 74.3737 149.918 74.4408 149.903 74.5053C149.887 74.5698 149.869 74.6575 149.853 74.7349L149.76 75.1503C149.76 75.2019 149.737 75.2535 149.724 75.3076C149.711 75.3618 149.724 75.3463 149.724 75.367L149.623 75.7953C149.605 75.8598 149.59 75.9268 149.574 75.9913C149.559 76.0558 149.54 76.1307 149.522 76.2003C149.504 76.27 149.486 76.3396 149.471 76.4067L149.416 76.6157C149.38 76.755 149.344 76.8943 149.305 77.0337L149.253 77.2323V77.2504L149.199 77.4439C149.178 77.5135 149.16 77.5832 149.14 77.6529L149.085 77.8489L148.961 78.2695L148.902 78.4759L148.842 78.6668C148.842 78.6711 148.842 78.6754 148.842 78.6797L148.78 78.8835C148.78 78.9016 148.78 78.9196 148.762 78.9351L148.715 79.0873C148.695 79.157 148.671 79.2241 148.651 79.2912C148.63 79.3582 148.612 79.4124 148.591 79.4743C148.592 79.4803 148.592 79.4864 148.591 79.4924L148.539 79.6524C148.539 79.6807 148.521 79.7117 148.511 79.7401L148.495 79.7839C148.495 79.8201 148.472 79.8588 148.459 79.8975C148.446 79.9362 148.415 80.0316 148.392 80.0961C148.369 80.1606 148.351 80.2148 148.333 80.2716V80.3077L148.268 80.496C148.247 80.5528 148.226 80.6095 148.208 80.6663V80.6947C148.185 80.7566 148.164 80.8211 148.141 80.883C148.118 80.9449 148.1 81.0017 148.076 81.0585C148.053 81.1152 148.048 81.1384 148.035 81.1771C148.022 81.2158 148.007 81.2494 147.994 81.2855C147.981 81.3216 147.947 81.4145 147.921 81.479L147.849 81.6725C147.725 82.0027 147.59 82.3278 147.463 82.6477L147.394 82.8206L147.316 83.0064C147.29 83.0709 147.264 83.1328 147.236 83.1947L147.181 83.3237V83.3392L147.135 83.445C147.096 83.5301 147.06 83.6178 147.021 83.703C147.008 83.7313 146.998 83.7571 146.985 83.7829L146.92 83.93L146.858 84.0667L146.819 84.1493L146.775 84.2473C146.69 84.4279 146.607 84.6085 146.517 84.784L146.462 84.8923C146.18 85.4728 145.886 86.0327 145.583 86.5693C145.562 86.6055 145.544 86.6416 145.523 86.6751C145.381 86.9331 145.236 87.1679 145.091 87.4053C145.071 87.4388 145.047 87.4723 145.027 87.5085C145.006 87.5446 144.952 87.6297 144.913 87.6916C144.719 87.9961 144.522 88.2928 144.321 88.5766L144.256 88.6695L144.191 88.7623L144.129 88.8449C144.08 88.912 144.031 88.9816 143.979 89.0487L143.878 89.1829L143.772 89.3196C143.744 89.3583 143.715 89.3944 143.684 89.4306C143.581 89.5647 143.475 89.6886 143.366 89.8201L143.126 90.1014C143.105 90.1246 143.087 90.1478 143.066 90.1684C142.937 90.3129 142.807 90.4522 142.675 90.589L142.616 90.6483L142.546 90.7206L142.481 90.7825L142.262 90.9966L142.189 91.0637L142.07 91.1721L142.011 91.2237C141.925 91.2985 141.84 91.3733 141.752 91.443L141.68 91.5023L141.553 91.6055L141.509 91.639C141.378 91.7422 141.243 91.8403 141.105 91.9332L141.043 91.977L140.979 92.0183L140.914 92.0622L140.849 92.1034C140.738 92.1757 140.627 92.2428 140.513 92.3047L140.472 92.3305L140.412 92.3614L140.35 92.3976L140.091 92.5266H140.068L140.029 92.5446L139.959 92.5756H139.947L139.897 92.5962L139.848 92.6169C139.711 92.6762 139.571 92.7304 139.432 92.7794L139.383 92.7949H139.367L139.313 92.8129L139.251 92.8336L139.052 92.8903L138.997 92.9032H138.979H138.935L138.87 92.9187H138.816L138.72 92.9368C139.065 92.6206 139.382 92.2753 139.667 91.9048C139.755 91.799 139.846 91.6829 139.941 91.5565C140.377 90.9789 140.778 90.3759 141.142 89.7505C143.348 86.0043 146.183 78.5533 145.604 65.4701L150.836 65.6172Z" fill="#F3BC44"/>
<path d="M133.159 87.4388C128.684 82.5368 127.468 69.8948 127.166 65.354L129.952 65.385C128.868 76.11 133.146 87.4001 133.159 87.4388Z" fill="#F8E5A2"/>
<path d="M133.886 102.036L131.315 102.008C132.724 100.648 135.728 97.364 135.914 93.7881C135.914 93.7881 136.527 99.0513 133.886 102.036Z" fill="#F8E5A2"/>
<path d="M147.136 102.182L127.761 101.966L127.612 115.255L146.987 115.471L147.136 102.182Z" fill="#1988FF"/>
<path d="M145.057 104.213L129.794 104.043L129.69 113.32L144.953 113.49L145.057 104.213Z" fill="#F9CF70"/>
<path d="M62.6311 117.602H63.0372L72.5665 94.3248H70.254L62.6311 117.602Z" fill="#1988FF"/>
<path d="M104.972 117.602H104.566L95.0342 94.3248H97.3467L104.972 117.602Z" fill="#1C2684"/>
<path d="M106.902 90.4359C119.66 77.7105 119.66 57.0786 106.902 44.3532C94.1433 31.6278 73.458 31.6278 60.6998 44.3532C47.9415 57.0786 47.9415 77.7105 60.6998 90.4359C73.458 103.161 94.1433 103.161 106.902 90.4359Z" fill="white"/>
<path d="M103.315 86.8584C114.092 76.1088 114.092 58.6803 103.315 47.9307C92.5375 37.1811 75.0639 37.1811 64.2866 47.9307C53.5092 58.6803 53.5092 76.1088 64.2866 86.8584C75.0639 97.6079 92.5375 97.6079 103.315 86.8584Z" fill="#F9CF70"/>
<path d="M83.8003 90.1607C96.4061 90.1607 106.625 79.968 106.625 67.3948C106.625 54.8215 96.4061 44.6288 83.8003 44.6288C71.1946 44.6288 60.9756 54.8215 60.9756 67.3948C60.9756 79.968 71.1946 90.1607 83.8003 90.1607Z" fill="#1988FF"/>
<path d="M83.8004 85.1013C93.6047 85.1013 101.553 77.1738 101.553 67.3948C101.553 57.6157 93.6047 49.6882 83.8004 49.6882C73.9961 49.6882 66.0481 57.6157 66.0481 67.3948C66.0481 77.1738 73.9961 85.1013 83.8004 85.1013Z" fill="white"/>
<path d="M83.8003 80.5373C91.0774 80.5373 96.9767 74.6532 96.9767 67.3948C96.9767 60.1364 91.0774 54.2523 83.8003 54.2523C76.5231 54.2523 70.6238 60.1364 70.6238 67.3948C70.6238 74.6532 76.5231 80.5373 83.8003 80.5373Z" fill="#1988FF"/>
<path d="M83.9632 67.2864C84.1055 67.2866 84.2443 67.2426 84.3602 67.1603C84.4761 67.0781 84.5634 66.9618 84.6098 66.8276C84.6562 66.6935 84.6595 66.5483 84.6192 66.4122C84.5789 66.2761 84.4969 66.156 84.3849 66.0687L44.2605 34.652C44.1169 34.5521 43.9405 34.5108 43.7674 34.5365C43.5943 34.5622 43.4376 34.653 43.3294 34.7902C43.2213 34.9275 43.1698 35.1008 43.1857 35.2747C43.2015 35.4485 43.2834 35.6097 43.4147 35.7253L83.5494 67.1419C83.6675 67.2345 83.813 67.2853 83.9632 67.2864Z" fill="#1C2684"/>
<path d="M46.7566 36.5896L43.7043 28.6509L54.2036 36.1897L56.811 44.4612L46.7566 36.5896Z" fill="#F3BC44"/>
<path d="M46.2782 37.957L37.812 36.9585L47.7215 45.2558L56.1929 45.7305L46.2782 37.957Z" fill="#F3BC44"/>
<path d="M119.605 23.8443C121.406 23.8443 122.867 22.3878 122.867 20.591C122.867 18.7942 121.406 17.3376 119.605 17.3376C117.804 17.3376 116.343 18.7942 116.343 20.591C116.343 22.3878 117.804 23.8443 119.605 23.8443Z" fill="#1988FF"/>
<path d="M122.867 20.3253C123.488 20.3253 124.096 20.5091 124.613 20.8536C125.13 21.198 125.533 21.6876 125.77 22.2604C126.008 22.8332 126.07 23.4635 125.949 24.0715C125.828 24.6796 125.529 25.2381 125.089 25.6765C124.65 26.1149 124.09 26.4135 123.48 26.5344C122.87 26.6554 122.238 26.5933 121.664 26.3561C121.09 26.1188 120.599 25.717 120.254 25.2015C119.908 24.686 119.724 24.08 119.724 23.46C119.725 22.6288 120.056 21.8319 120.645 21.2442C121.235 20.6564 122.033 20.326 122.867 20.3253ZM122.867 19.35C122.054 19.35 121.259 19.5905 120.583 20.0409C119.907 20.4914 119.381 21.1317 119.069 21.8808C118.758 22.6299 118.677 23.4542 118.836 24.2495C118.994 25.0447 119.386 25.7752 119.96 26.3485C120.535 26.9219 121.268 27.3123 122.065 27.4705C122.862 27.6287 123.689 27.5475 124.44 27.2372C125.191 26.9269 125.833 26.4015 126.284 25.7273C126.736 25.0531 126.977 24.2605 126.977 23.4497C126.977 22.9112 126.871 22.3779 126.665 21.8804C126.458 21.3829 126.156 20.9308 125.774 20.55C125.392 20.1693 124.939 19.8673 124.44 19.6614C123.941 19.4555 123.407 19.3497 122.867 19.35Z" fill="#1988FF"/>
<path d="M12.2144 65.4056C12.5387 65.4056 12.8015 65.1434 12.8015 64.8199C12.8015 64.4965 12.5387 64.2343 12.2144 64.2343C11.8901 64.2343 11.6272 64.4965 11.6272 64.8199C11.6272 65.1434 11.8901 65.4056 12.2144 65.4056Z" fill="#1988FF"/>
<path d="M14.9561 65.4056C15.2804 65.4056 15.5432 65.1434 15.5432 64.8199C15.5432 64.4965 15.2804 64.2343 14.9561 64.2343C14.6318 64.2343 14.3689 64.4965 14.3689 64.8199C14.3689 65.1434 14.6318 65.4056 14.9561 65.4056Z" fill="#1988FF"/>
<path d="M17.8924 65.372C18.1983 65.2646 18.3589 64.9302 18.2512 64.6251C18.1435 64.32 17.8082 64.1598 17.5023 64.2672C17.1964 64.3746 17.0358 64.7091 17.1435 65.0141C17.2512 65.3192 17.5865 65.4794 17.8924 65.372Z" fill="#1988FF"/>
<path d="M20.6647 65.3626C20.9643 65.2388 21.1066 64.8962 20.9825 64.5974C20.8584 64.2985 20.5149 64.1566 20.2153 64.2804C19.9157 64.4042 19.7735 64.7468 19.8976 65.0456C20.0217 65.3444 20.3651 65.4863 20.6647 65.3626Z" fill="#1988FF"/>
<path d="M12.2144 62.8488C12.5387 62.8488 12.8015 62.5866 12.8015 62.2632C12.8015 61.9397 12.5387 61.6775 12.2144 61.6775C11.8901 61.6775 11.6272 61.9397 11.6272 62.2632C11.6272 62.5866 11.8901 62.8488 12.2144 62.8488Z" fill="#1988FF"/>
<path d="M14.9561 62.8488C15.2804 62.8488 15.5432 62.5866 15.5432 62.2632C15.5432 61.9397 15.2804 61.6775 14.9561 61.6775C14.6318 61.6775 14.3689 61.9397 14.3689 62.2632C14.3689 62.5866 14.6318 62.8488 14.9561 62.8488Z" fill="#1988FF"/>
<path d="M17.698 62.8488C18.0223 62.8488 18.2852 62.5866 18.2852 62.2632C18.2852 61.9397 18.0223 61.6775 17.698 61.6775C17.3737 61.6775 17.1108 61.9397 17.1108 62.2632C17.1108 62.5866 17.3737 62.8488 17.698 62.8488Z" fill="#1988FF"/>
<path d="M20.44 62.8488C20.7642 62.8488 21.0271 62.5866 21.0271 62.2632C21.0271 61.9397 20.7642 61.6775 20.44 61.6775C20.1157 61.6775 19.8528 61.9397 19.8528 62.2632C19.8528 62.5866 20.1157 62.8488 20.44 62.8488Z" fill="#1988FF"/>
<path d="M12.2144 70.5243C12.5387 70.5243 12.8015 70.2621 12.8015 69.9386C12.8015 69.6152 12.5387 69.353 12.2144 69.353C11.8901 69.353 11.6272 69.6152 11.6272 69.9386C11.6272 70.2621 11.8901 70.5243 12.2144 70.5243Z" fill="#1988FF"/>
<path d="M14.9561 70.5243C15.2804 70.5243 15.5432 70.2621 15.5432 69.9386C15.5432 69.6152 15.2804 69.353 14.9561 69.353C14.6318 69.353 14.3689 69.6152 14.3689 69.9386C14.3689 70.2621 14.6318 70.5243 14.9561 70.5243Z" fill="#1988FF"/>
<path d="M17.698 70.5243C18.0223 70.5243 18.2852 70.2621 18.2852 69.9386C18.2852 69.6152 18.0223 69.353 17.698 69.353C17.3737 69.353 17.1108 69.6152 17.1108 69.9386C17.1108 70.2621 17.3737 70.5243 17.698 70.5243Z" fill="#1988FF"/>
<path d="M20.44 70.5243C20.7642 70.5243 21.0271 70.2621 21.0271 69.9386C21.0271 69.6152 20.7642 69.353 20.44 69.353C20.1157 69.353 19.8528 69.6152 19.8528 69.9386C19.8528 70.2621 20.1157 70.5243 20.44 70.5243Z" fill="#1988FF"/>
<path d="M12.7895 67.4992C12.8552 67.1825 12.651 66.8726 12.3334 66.807C12.0159 66.7415 11.7052 66.9451 11.6395 67.2619C11.5738 67.5786 11.7779 67.8885 12.0955 67.9541C12.4131 68.0196 12.7238 67.8159 12.7895 67.4992Z" fill="#1988FF"/>
<path d="M15.5259 67.5163C15.6008 67.2016 15.4056 66.886 15.0901 66.8113C14.7745 66.7367 14.4581 66.9313 14.3833 67.2461C14.3085 67.5608 14.5036 67.8764 14.8191 67.951C15.1347 68.0257 15.4511 67.831 15.5259 67.5163Z" fill="#1988FF"/>
<path d="M18.2785 67.4721C18.3268 67.1522 18.1061 66.8539 17.7854 66.8057C17.4647 66.7575 17.1656 66.9777 17.1173 67.2975C17.069 67.6174 17.2897 67.9157 17.6104 67.9639C17.9311 68.0121 18.2302 67.7919 18.2785 67.4721Z" fill="#1988FF"/>
<path d="M21.0213 67.4771C21.0733 67.1579 20.8559 66.857 20.5358 66.8052C20.2157 66.7534 19.9141 66.9702 19.8621 67.2895C19.8102 67.6087 20.0276 67.9096 20.3477 67.9614C20.6677 68.0132 20.9694 67.7964 21.0213 67.4771Z" fill="#1988FF"/>
<path d="M12.2144 60.2895C12.5387 60.2895 12.8015 60.0273 12.8015 59.7038C12.8015 59.3804 12.5387 59.1182 12.2144 59.1182C11.8901 59.1182 11.6272 59.3804 11.6272 59.7038C11.6272 60.0273 11.8901 60.2895 12.2144 60.2895Z" fill="#1988FF"/>
<path d="M14.9561 60.2895C15.2804 60.2895 15.5432 60.0273 15.5432 59.7038C15.5432 59.3804 15.2804 59.1182 14.9561 59.1182C14.6318 59.1182 14.3689 59.3804 14.3689 59.7038C14.3689 60.0273 14.6318 60.2895 14.9561 60.2895Z" fill="#1988FF"/>
<path d="M17.698 60.2895C18.0223 60.2895 18.2852 60.0273 18.2852 59.7038C18.2852 59.3804 18.0223 59.1182 17.698 59.1182C17.3737 59.1182 17.1108 59.3804 17.1108 59.7038C17.1108 60.0273 17.3737 60.2895 17.698 60.2895Z" fill="#1988FF"/>
<path d="M20.44 60.2895C20.7642 60.2895 21.0271 60.0273 21.0271 59.7038C21.0271 59.3804 20.7642 59.1182 20.44 59.1182C20.1157 59.1182 19.8528 59.3804 19.8528 59.7038C19.8528 60.0273 20.1157 60.2895 20.44 60.2895Z" fill="#1988FF"/>
<path d="M12.2144 57.7301C12.5387 57.7301 12.8015 57.4679 12.8015 57.1444C12.8015 56.821 12.5387 56.5588 12.2144 56.5588C11.8901 56.5588 11.6272 56.821 11.6272 57.1444C11.6272 57.4679 11.8901 57.7301 12.2144 57.7301Z" fill="#1988FF"/>
<path d="M14.9561 57.7301C15.2804 57.7301 15.5432 57.4679 15.5432 57.1444C15.5432 56.821 15.2804 56.5588 14.9561 56.5588C14.6318 56.5588 14.3689 56.821 14.3689 57.1444C14.3689 57.4679 14.6318 57.7301 14.9561 57.7301Z" fill="#1988FF"/>
<path d="M17.698 57.7301C18.0223 57.7301 18.2852 57.4679 18.2852 57.1444C18.2852 56.821 18.0223 56.5588 17.698 56.5588C17.3737 56.5588 17.1108 56.821 17.1108 57.1444C17.1108 57.4679 17.3737 57.7301 17.698 57.7301Z" fill="#1988FF"/>
<path d="M20.44 57.7301C20.7642 57.7301 21.0271 57.4679 21.0271 57.1444C21.0271 56.821 20.7642 56.5588 20.44 56.5588C20.1157 56.5588 19.8528 56.821 19.8528 57.1444C19.8528 57.4679 20.1157 57.7301 20.44 57.7301Z" fill="#1988FF"/>
<path d="M42.217 91.4481H41.1125C40.9782 91.4481 40.8694 91.5567 40.8694 91.6906V95.8831C40.8694 96.0171 40.9782 96.1257 41.1125 96.1257H42.217C42.3513 96.1257 42.4602 96.0171 42.4602 95.8831V91.6906C42.4602 91.5567 42.3513 91.4481 42.217 91.4481Z" fill="#1988FF"/>
<path d="M43.7665 92.9935H39.5632C39.4289 92.9935 39.3201 93.1021 39.3201 93.2361V94.3377C39.3201 94.4716 39.4289 94.5802 39.5632 94.5802H43.7665C43.9008 94.5802 44.0097 94.4716 44.0097 94.3377V93.2361C44.0097 93.1021 43.9008 92.9935 43.7665 92.9935Z" fill="#1988FF"/>
<path d="M71.5549 25.9006H70.4504C70.3161 25.9006 70.2073 26.0092 70.2073 26.1432V30.3357C70.2073 30.4696 70.3161 30.5782 70.4504 30.5782H71.5549C71.6892 30.5782 71.7981 30.4696 71.7981 30.3357V26.1432C71.7981 26.0092 71.6892 25.9006 71.5549 25.9006Z" fill="#1988FF"/>
<path d="M73.1044 27.446H68.9011C68.7668 27.446 68.658 27.5546 68.658 27.6886V28.7902C68.658 28.9242 68.7668 29.0327 68.9011 29.0327H73.1044C73.2387 29.0327 73.3476 28.9242 73.3476 28.7902V27.6886C73.3476 27.5546 73.2387 27.446 73.1044 27.446Z" fill="#1988FF"/>
<path d="M172.453 51.9096H171.349C171.214 51.9096 171.105 52.0182 171.105 52.1521V56.3446C171.105 56.4786 171.214 56.5871 171.349 56.5871H172.453C172.587 56.5871 172.696 56.4786 172.696 56.3446V52.1521C172.696 52.0182 172.587 51.9096 172.453 51.9096Z" fill="#1988FF"/>
<path d="M174.003 53.455H169.799C169.665 53.455 169.556 53.5636 169.556 53.6975V54.7992C169.556 54.9331 169.665 55.0417 169.799 55.0417H174.003C174.137 55.0417 174.246 54.9331 174.246 54.7992V53.6975C174.246 53.5636 174.137 53.455 174.003 53.455Z" fill="#1988FF"/>
<path d="M175.024 116.185H18.9758C18.2205 116.185 17.6074 116.466 17.6074 116.812V117.111C17.6074 117.457 18.2205 117.738 18.9758 117.738H175.024C175.779 117.738 176.393 117.457 176.393 117.111V116.812C176.393 116.466 175.779 116.185 175.024 116.185Z" fill="#1988FF"/>
<g style="mix-blend-mode:multiply">
<path d="M59.2916 88.752C58.9467 88.3598 58.62 87.9608 58.3113 87.5549L83.3657 66.0119C83.5214 65.8786 83.7235 65.8122 83.9281 65.8272C84.1326 65.8422 84.3229 65.9373 84.4573 66.0919C84.5917 66.2472 84.6588 66.4494 84.6437 66.6541C84.6287 66.8587 84.5328 67.049 84.3771 67.1832L59.2916 88.752Z" fill="#DEC3C1"/>
</g>
</svg>
