<svg width="32" height="33" viewBox="0 0 32 33" fill="none" xmlns="http://www.w3.org/2000/svg">
<path d="M11.4758 30.0987V25.3592C11.4758 24.1493 12.4823 23.1686 13.7237 23.1686H18.2619C18.8581 23.1686 19.4298 23.3994 19.8514 23.8102C20.2729 24.221 20.5098 24.7782 20.5098 25.3592V30.0987C20.506 30.6016 20.7084 31.0853 21.072 31.4423C21.4357 31.7992 21.9305 32 22.4466 32H25.5428C26.9888 32.0036 28.3769 31.4464 29.4007 30.4512C30.4245 29.4561 30.9999 28.1048 30.9999 26.6956V13.1936C30.9999 12.0553 30.4821 10.9755 29.5861 10.2452L19.0536 2.0476C17.2214 0.610271 14.5964 0.656679 12.8189 2.15782L2.52674 10.2452C1.58842 10.954 1.02759 12.037 0.999878 13.1936V26.6818C0.999878 29.619 3.44311 32 6.45699 32H9.48244C10.5544 32 11.4257 31.1571 11.4334 30.1124L11.4758 30.0987Z" stroke="#1988FF" stroke-width="1.8"/>
</svg>
