<svg width="31" height="31" viewBox="0 0 31 31" fill="none" xmlns="http://www.w3.org/2000/svg">
<path d="M14.6272 17.2637C15.3296 17.2637 16.0033 16.9848 16.5 16.4884C16.9966 15.9919 17.2757 15.3186 17.2757 14.6166C17.2757 13.9145 16.9966 13.2412 16.5 12.7448C16.0033 12.2484 15.3296 11.9695 14.6272 11.9695C13.9248 11.9695 13.2512 12.2484 12.7545 12.7448C12.2578 13.2412 11.9788 13.9145 11.9788 14.6166C11.9788 15.3186 12.2578 15.9919 12.7545 16.4884C13.2512 16.9848 13.9248 17.2637 14.6272 17.2637ZM5.79903 14.6166C5.83017 12.3059 6.76702 10.0997 8.40824 8.47199C10.0495 6.84431 12.2641 5.92511 14.5761 5.91193C16.8881 5.89876 19.1131 6.79266 20.7727 8.40153C22.4324 10.0104 23.3944 12.2058 23.4519 14.516L21.4214 16.5472C21.849 15.0437 21.7651 13.4409 21.1831 11.9901C20.6011 10.5394 19.5537 9.3227 18.2054 8.53096C16.857 7.73922 15.2838 7.41717 13.7326 7.61533C12.1813 7.81349 10.7398 8.52064 9.63394 9.62588C8.52813 10.7311 7.82061 12.172 7.62235 13.7224C7.42409 15.2728 7.7463 16.8452 8.53845 18.1929C9.3306 19.5406 10.5479 20.5874 11.9994 21.1691C13.4509 21.7508 15.0546 21.8346 16.5588 21.4073L15.1075 22.8579C14.9238 23.0396 14.7543 23.2355 14.599 23.4402C12.2625 23.4328 10.0242 22.4998 8.37475 20.8459C6.72524 19.1919 5.79901 16.9519 5.79903 14.6166ZM14.6272 2.26348C17.6013 2.26357 20.4757 3.33555 22.7229 5.28272C24.9701 7.2299 26.4394 9.92169 26.8613 12.8642C27.4669 12.8219 28.0796 12.8889 28.664 13.0619C28.3717 10.4267 27.3428 7.92714 25.6953 5.84925C24.0477 3.77135 21.848 2.19915 19.3481 1.31263C16.8481 0.426102 14.1489 0.261092 11.5595 0.836486C8.97006 1.41188 6.59507 2.70442 4.70643 4.56614C2.81778 6.42785 1.49181 8.78349 0.880311 11.3634C0.268816 13.9432 0.396516 16.6431 1.24879 19.1538C2.10106 21.6645 3.64347 23.8846 5.69941 25.5599C7.75536 27.2353 10.2418 28.2981 12.8739 28.6268C12.8916 28.4591 12.9181 28.2915 12.9622 28.1221L13.2677 26.8956C10.1284 26.5462 7.24215 25.0088 5.20152 22.599C3.16089 20.1893 2.12078 17.0901 2.29478 13.9379C2.46877 10.7856 3.84367 7.81962 6.13714 5.64886C8.4306 3.4781 11.4686 2.26559 14.6272 2.26348ZM16.3558 24.1055L24.882 15.5819C25.503 14.9711 26.3403 14.6303 27.2115 14.6338C28.0828 14.6373 28.9173 14.9849 29.5333 15.6008C30.1492 16.2166 30.4966 17.0509 30.4999 17.9217C30.5031 18.7925 30.1618 19.6292 29.5504 20.2496L21.0241 28.7733C20.5271 29.2694 19.9047 29.6213 19.2232 29.7915L16.5782 30.4533C16.3151 30.5189 16.0394 30.5153 15.778 30.4429C15.5166 30.3705 15.2784 30.2317 15.0866 30.04C14.8948 29.8483 14.7559 29.6102 14.6835 29.349C14.611 29.0877 14.6075 28.8122 14.6731 28.5491L15.3352 25.9056C15.5065 25.2244 15.8579 24.6014 16.3558 24.1055Z" fill="#495057"/>
</svg>
