<svg width="300" height="300" viewBox="0 0 300 300" fill="none" xmlns="http://www.w3.org/2000/svg">
<g clip-path="url(#clip0_5_4098)">
<path d="M235.036 230.498C230.427 235.35 226.07 238.476 222.625 240.947C182.141 269.995 134.236 261.528 124.054 259.46C109.021 256.406 79.9594 250.504 58.9489 225.797C27.1626 188.415 32.1122 129.522 56.7656 90.6469C61.2761 83.5359 85.099 44.0701 133.519 37.7386C162.823 33.9081 196.981 41.6337 221.718 62.358C273.645 105.86 269.948 193.747 235.036 230.498Z" fill="url(#paint0_linear_5_4098)"/>
<path d="M195.714 208.991C229.638 175.066 229.638 120.064 195.714 86.1388C161.789 52.214 106.786 52.214 72.8612 86.1388C38.9364 120.064 38.9364 175.066 72.8612 208.991C106.786 242.916 161.789 242.916 195.714 208.991Z" fill="#BDD0FB"/>
<path d="M134.288 221.705C175.234 221.705 208.427 188.511 208.427 147.565C208.427 106.619 175.234 73.4257 134.288 73.4257C93.3414 73.4257 60.1479 106.619 60.1479 147.565C60.1479 188.511 93.3414 221.705 134.288 221.705Z" fill="url(#paint1_linear_5_4098)"/>
<path d="M134.287 225.419C91.3593 225.419 56.434 190.494 56.434 147.565C56.434 104.636 91.3593 69.7124 134.287 69.7124C177.214 69.7124 212.14 104.637 212.14 147.565C212.14 190.494 177.215 225.419 134.287 225.419ZM134.287 73.4256C93.4059 73.4256 60.148 106.684 60.148 147.565C60.148 188.446 93.4059 221.706 134.287 221.706C175.168 221.706 208.426 188.447 208.426 147.565C208.426 106.684 175.168 73.4232 134.287 73.4232V73.4256Z" fill="white"/>
<path d="M166.248 179.525C183.899 161.874 183.899 133.256 166.248 115.605C148.597 97.9533 119.978 97.9533 102.327 115.605C84.6756 133.256 84.6756 161.874 102.327 179.525C119.978 197.177 148.597 197.177 166.248 179.525Z" fill="url(#paint2_linear_5_4098)"/>
<path d="M134.287 196.478C107.317 196.478 85.3748 174.536 85.3748 147.565C85.3748 120.594 107.317 98.6523 134.287 98.6523C161.257 98.6523 183.2 120.594 183.2 147.564C183.2 174.535 161.258 196.478 134.287 196.478ZM134.287 106.08C111.412 106.08 92.8044 124.69 92.8044 147.562C92.8044 170.434 111.415 189.049 134.287 189.049C157.159 189.049 175.773 170.438 175.773 147.566C175.773 124.694 157.163 106.08 134.287 106.08Z" fill="white"/>
<path d="M146.67 159.948C153.509 153.109 153.509 142.021 146.67 135.182C139.831 128.344 128.743 128.344 121.905 135.182C115.066 142.021 115.066 153.109 121.905 159.948C128.743 166.786 139.831 166.786 146.67 159.948Z" fill="url(#paint3_linear_5_4098)"/>
<path d="M134.287 168.791C122.584 168.791 113.062 159.269 113.062 147.565C113.062 135.861 122.584 126.34 134.287 126.34C145.99 126.34 155.512 135.862 155.512 147.565C155.512 159.268 145.991 168.791 134.287 168.791ZM134.287 133.767C126.678 133.767 120.489 139.957 120.489 147.565C120.489 155.174 126.678 161.364 134.287 161.364C141.895 161.364 148.085 155.174 148.085 147.565C148.085 139.956 141.895 133.767 134.287 133.767Z" fill="white"/>
<path d="M147.335 134.744L149.179 136.588L219.024 66.7438L217.179 64.8992L147.335 134.744Z" fill="url(#paint4_linear_5_4098)"/>
<path d="M148.638 130.295C149.696 129.237 154.684 134.225 153.626 135.283L135.121 149.829C134.438 150.366 133.553 149.481 134.09 148.797L148.638 130.295Z" fill="url(#paint5_linear_5_4098)"/>
<path d="M218.981 66.7852L228.377 67.7184L215.478 80.62C213.391 82.7064 210.866 84.3036 208.087 85.2965C205.308 86.2893 202.344 86.653 199.407 86.3612L218.981 66.7852Z" fill="#91B3FA"/>
<path d="M217.136 64.9407L216.202 55.5437L203.303 68.4437C201.216 70.531 199.619 73.0554 198.626 75.835C197.633 78.6145 197.27 81.5797 197.562 84.5167L217.136 64.9407Z" fill="#91B3FA"/>
<g opacity="0.3">
<path d="M88.1878 51.934C88.1254 51.9965 88.0513 52.0461 87.9697 52.0799C87.8881 52.1137 87.8007 52.1311 87.7124 52.1311C87.624 52.1311 87.5366 52.1137 87.455 52.0799C87.3734 52.0461 87.2993 51.9965 87.2369 51.934C86.7274 51.4238 86.1857 50.9281 85.6334 50.4607C85.4988 50.3474 85.4141 50.1858 85.3974 50.0107C85.3808 49.8355 85.4336 49.6609 85.5444 49.5243L85.5525 49.5138C85.6094 49.4463 85.679 49.3907 85.7573 49.3501C85.8357 49.3095 85.9213 49.2847 86.0092 49.2772C86.0971 49.2697 86.1857 49.2796 86.2698 49.3063C86.3539 49.333 86.4319 49.376 86.4994 49.4329C87.0832 49.9246 87.6509 50.4469 88.1878 50.9839C88.3053 51.1012 88.3751 51.2579 88.3837 51.4236C88.3924 51.5894 88.3393 51.7525 88.2347 51.8814C88.221 51.8992 88.2048 51.9138 88.1878 51.934ZM82.7789 48.376C82.166 47.9887 81.5312 47.624 80.8908 47.2917C80.812 47.2511 80.742 47.1953 80.6847 47.1276C80.6275 47.06 80.5841 46.9817 80.5571 46.8972C80.5301 46.8128 80.52 46.7239 80.5274 46.6355C80.5348 46.5472 80.5595 46.4612 80.6001 46.3824C80.6407 46.3036 80.6964 46.2336 80.7641 46.1763C80.8318 46.1191 80.9101 46.0757 80.9945 46.0487C81.079 46.0217 81.1679 46.0116 81.2562 46.019C81.3446 46.0264 81.4306 46.0511 81.5094 46.0917C82.183 46.441 82.8517 46.8243 83.4962 47.2318C83.5708 47.279 83.6354 47.3404 83.6863 47.4126C83.7372 47.4847 83.7733 47.5662 83.7927 47.6524C83.8121 47.7385 83.8143 47.8276 83.7992 47.9146C83.7841 48.0016 83.752 48.0847 83.7048 48.1593C83.6908 48.1819 83.6754 48.2035 83.6587 48.224C83.5555 48.3519 83.409 48.4375 83.2469 48.4648C83.0848 48.4921 82.9183 48.4591 82.7789 48.372V48.376ZM77.6474 45.8863C76.9657 45.6437 76.2655 45.4318 75.5652 45.2507C75.4789 45.2294 75.3978 45.1912 75.3264 45.1383C75.255 45.0854 75.1949 45.0188 75.1494 44.9425C75.1039 44.8662 75.074 44.7817 75.0613 44.6937C75.0487 44.6058 75.0537 44.5162 75.0759 44.4302C75.0982 44.3442 75.1373 44.2634 75.1909 44.1926C75.2446 44.1218 75.3117 44.0623 75.3885 44.0176C75.4653 43.9729 75.5502 43.9439 75.6382 43.9323C75.7263 43.9206 75.8158 43.9265 75.9016 43.9496C76.639 44.1405 77.3765 44.3653 78.0946 44.6184C78.2627 44.6777 78.4004 44.8013 78.4774 44.9621C78.5543 45.123 78.5642 45.3078 78.5049 45.4759C78.4456 45.644 78.322 45.7817 78.1612 45.8587C78.0003 45.9357 77.8155 45.9456 77.6474 45.8863ZM72.0873 44.6062C71.3684 44.5254 70.6374 44.4728 69.9153 44.4526C69.8271 44.4501 69.7402 44.4303 69.6596 44.3943C69.579 44.3583 69.5063 44.3068 69.4456 44.2426C69.3849 44.1785 69.3375 44.1031 69.306 44.0206C69.2745 43.9381 69.2595 43.8503 69.262 43.762C69.2644 43.6738 69.2842 43.5869 69.3202 43.5063C69.3562 43.4257 69.4078 43.353 69.4719 43.2923C69.536 43.2316 69.6115 43.1842 69.694 43.1527C69.7764 43.1212 69.8643 43.1062 69.9525 43.1087C70.7134 43.1297 71.4832 43.1847 72.2393 43.2704C72.4165 43.2905 72.5783 43.3802 72.6893 43.5198C72.8003 43.6593 72.8514 43.8372 72.8312 44.0143C72.8111 44.1915 72.7214 44.3533 72.5818 44.4643C72.4423 44.5754 72.2644 44.6264 72.0873 44.6062ZM66.3808 44.5973C65.6636 44.6782 64.939 44.7882 64.2291 44.9289C64.0542 44.9634 63.8727 44.927 63.7246 44.8278C63.5766 44.7285 63.474 44.5745 63.4394 44.3996C63.4049 44.2247 63.4413 44.0433 63.5405 43.8952C63.6398 43.7471 63.7938 43.6445 63.9687 43.61C64.7167 43.462 65.4784 43.3448 66.2328 43.2615C66.3207 43.2516 66.4096 43.2591 66.4945 43.2837C66.5794 43.3082 66.6586 43.3492 66.7277 43.4044C66.7967 43.4596 66.8542 43.5279 66.8968 43.6053C66.9394 43.6827 66.9663 43.7678 66.976 43.8556C66.9856 43.9435 66.9779 44.0324 66.9532 44.1172C66.9284 44.2021 66.8872 44.2812 66.8319 44.3501C66.7765 44.419 66.7081 44.4763 66.6306 44.5187C66.553 44.5612 66.4679 44.5879 66.38 44.5973H66.3808ZM60.8151 45.8491C60.1318 46.0852 59.4509 46.3545 58.7935 46.648C58.7124 46.6864 58.6245 46.7081 58.5349 46.712C58.4453 46.7159 58.3559 46.7018 58.2718 46.6706C58.1877 46.6394 58.1107 46.5918 58.0453 46.5304C57.9799 46.469 57.9275 46.3952 57.891 46.3132C57.8546 46.2313 57.8349 46.1429 57.8331 46.0533C57.8313 45.9636 57.8475 45.8745 57.8806 45.7912C57.9138 45.7078 57.9633 45.632 58.0262 45.568C58.0891 45.5041 58.1641 45.4534 58.2469 45.4189C58.9423 45.11 59.6603 44.827 60.3792 44.5787C60.5457 44.5283 60.7253 44.5445 60.8801 44.6237C61.035 44.703 61.1531 44.8393 61.2095 45.0038C61.266 45.1684 61.2564 45.3484 61.1828 45.506C61.1093 45.6637 60.9774 45.7867 60.8151 45.8491ZM43.6722 63.989C43.5868 63.9668 43.5065 63.9279 43.4361 63.8747C43.3656 63.8215 43.3064 63.7549 43.2617 63.6787C43.217 63.6026 43.1878 63.5184 43.1757 63.4309C43.1636 63.3434 43.1688 63.2545 43.1911 63.169C43.3827 62.4332 43.6091 61.6957 43.8638 60.9769C43.9235 60.8088 44.0474 60.6714 44.2084 60.5947C44.2881 60.5567 44.3745 60.5349 44.4626 60.5303C44.5508 60.5257 44.639 60.5386 44.7222 60.5681C44.8054 60.5976 44.882 60.6432 44.9475 60.7023C45.0131 60.7615 45.0664 60.8329 45.1043 60.9126C45.1423 60.9923 45.1642 61.0787 45.1688 61.1669C45.1733 61.255 45.1605 61.3432 45.131 61.4264C44.8884 62.1089 44.6741 62.8092 44.4921 63.5078C44.4682 63.6008 44.4243 63.6874 44.3636 63.7618C44.282 63.862 44.1732 63.9367 44.0503 63.9767C43.9274 64.0167 43.7956 64.0204 43.6706 63.9874L43.6722 63.989ZM55.6706 48.3017C55.0576 48.6833 54.4536 49.0973 53.8754 49.5308C53.8048 49.5839 53.7244 49.6225 53.6389 49.6445C53.5533 49.6666 53.4643 49.6715 53.3768 49.6592C53.2893 49.6468 53.2051 49.6173 53.129 49.5723C53.053 49.5274 52.9865 49.468 52.9334 49.3973C52.8803 49.3267 52.8416 49.2463 52.8196 49.1608C52.7976 49.0752 52.7926 48.9862 52.805 48.8987C52.8174 48.8112 52.8469 48.727 52.8918 48.6509C52.9367 48.5749 52.9962 48.5084 53.0668 48.4553C53.6749 47.9984 54.3113 47.5658 54.9566 47.1615C55.0915 47.0767 55.2522 47.0426 55.4099 47.0653C55.5676 47.088 55.7121 47.1661 55.8177 47.2855C55.9232 47.4049 55.9828 47.5579 55.986 47.7172C55.9891 47.8766 55.9355 48.0318 55.8347 48.1553C55.7879 48.2131 55.7319 48.2628 55.669 48.3025L55.6706 48.3017ZM45.6347 58.4685C45.4766 58.386 45.3577 58.2441 45.3042 58.0739C45.2507 57.9038 45.2669 57.7194 45.3493 57.5612C45.701 56.8876 46.0868 56.2197 46.4943 55.576C46.539 55.4964 46.5995 55.4267 46.6721 55.3712C46.7447 55.3157 46.8278 55.2756 46.9165 55.2534C47.0051 55.2311 47.0973 55.2272 47.1875 55.2417C47.2776 55.2563 47.3639 55.2891 47.441 55.3382C47.5181 55.3872 47.5843 55.4515 47.6357 55.527C47.6871 55.6026 47.7226 55.6878 47.7399 55.7775C47.7573 55.8672 47.7562 55.9594 47.7366 56.0487C47.7171 56.1379 47.6796 56.2223 47.6264 56.2965C47.239 56.9078 46.8727 57.5426 46.5388 58.1831C46.5175 58.223 46.4926 58.2609 46.4644 58.2963C46.3668 58.4157 46.2311 58.498 46.0801 58.5294C45.929 58.5608 45.7718 58.5393 45.6347 58.4685ZM51.2013 51.845C50.6894 52.3545 50.193 52.8963 49.7256 53.4453C49.6119 53.5827 49.4483 53.6693 49.2708 53.686C49.0933 53.7028 48.9164 53.6483 48.7791 53.5347C48.6417 53.421 48.5551 53.2574 48.5384 53.0799C48.5216 52.9024 48.5761 52.7255 48.6897 52.5882L48.6994 52.5769C49.1911 51.9955 49.7134 51.4286 50.252 50.8925C50.3737 50.7709 50.5375 50.7006 50.7096 50.6962C50.8816 50.6918 51.0488 50.7535 51.1767 50.8687C51.3045 50.9839 51.3833 51.1438 51.3968 51.3154C51.4102 51.4869 51.3573 51.6571 51.249 51.7909C51.2345 51.8095 51.2183 51.8273 51.2013 51.845Z" fill="#91B3FA"/>
<path d="M43.5906 68.4162C43.6768 68.31 43.7285 68.1799 43.7385 68.0434C43.7644 67.6973 43.7976 67.3464 43.8372 67.0003C43.8472 66.9126 43.8399 66.8237 43.8156 66.7389C43.7913 66.654 43.7505 66.5747 43.6956 66.5056C43.6407 66.4365 43.5727 66.3789 43.4955 66.336C43.4183 66.2932 43.3334 66.266 43.2457 66.2559C43.158 66.2459 43.0691 66.2533 42.9843 66.2775C42.8994 66.3018 42.8201 66.3426 42.751 66.3975C42.6819 66.4525 42.6243 66.5205 42.5814 66.5977C42.5386 66.6749 42.5114 66.7597 42.5013 66.8475C42.4593 67.2113 42.4205 67.5801 42.3978 67.9439C42.3872 68.0868 42.4225 68.2292 42.4986 68.3506C42.5746 68.472 42.6874 68.5658 42.8206 68.6186C42.9538 68.6713 43.1003 68.6801 43.2388 68.6437C43.3773 68.6073 43.5005 68.5276 43.5906 68.4162Z" fill="#91B3FA"/>
</g>
<g opacity="0.3">
<path d="M50.1833 87.8168C50.284 87.6928 50.3371 87.5369 50.3331 87.3773C50.3291 87.2176 50.2682 87.0646 50.1614 86.9459C49.9302 86.6879 49.7005 86.4203 49.4789 86.1518C49.4227 86.0837 49.3536 86.0273 49.2756 85.9859C49.1976 85.9445 49.1122 85.9188 49.0243 85.9104C48.9363 85.902 48.8476 85.911 48.7631 85.9369C48.6787 85.9627 48.6002 86.005 48.532 86.0612C48.4639 86.1175 48.4075 86.1865 48.3661 86.2646C48.3247 86.3426 48.2991 86.428 48.2907 86.5159C48.2822 86.6039 48.2912 86.6926 48.3171 86.777C48.343 86.8615 48.3853 86.94 48.4415 87.0081C48.6752 87.2911 48.917 87.5742 49.1603 87.8451C49.2796 87.9775 49.4464 88.0573 49.6243 88.067C49.8022 88.0767 49.9768 88.0155 50.1097 87.8968C50.1365 87.8724 50.1612 87.8456 50.1833 87.8168Z" fill="#91B3FA"/>
<path d="M89.1534 87.879C89.0945 87.9448 89.0232 87.9983 88.9437 88.0366C88.8641 88.0748 88.7778 88.097 88.6896 88.1019C88.6015 88.1068 88.5132 88.0943 88.4299 88.065C88.3466 88.0358 88.2699 87.9905 88.2041 87.9316C88.1383 87.8727 88.0847 87.8014 88.0465 87.7219C88.0083 87.6423 87.9861 87.5559 87.9812 87.4678C87.9763 87.3796 87.9888 87.2914 88.0181 87.2081C88.0473 87.1248 88.0926 87.048 88.1515 86.9823C88.6229 86.4558 89.0798 85.9011 89.514 85.327C89.6239 85.1923 89.7816 85.1054 89.9542 85.0845C90.1267 85.0637 90.3007 85.1105 90.4394 85.2151C90.5782 85.3198 90.671 85.4741 90.6984 85.6458C90.7258 85.8174 90.6856 85.993 90.5863 86.1356C90.3981 86.3847 90.2065 86.6292 90.0113 86.869C89.734 87.2143 89.4453 87.5531 89.1534 87.879ZM91.6771 83.3305C91.6002 83.2872 91.5325 83.2292 91.478 83.1598C91.4234 83.0904 91.3831 83.0109 91.3593 82.9259C91.3355 82.8409 91.3287 82.7521 91.3392 82.6644C91.3498 82.5768 91.3775 82.4921 91.4208 82.4151C91.7701 81.7941 92.0968 81.1513 92.3911 80.5052C92.4277 80.4248 92.4798 80.3525 92.5443 80.2923C92.6088 80.232 92.6846 80.1851 92.7673 80.1542C92.85 80.1233 92.9379 80.1089 93.0261 80.112C93.1143 80.115 93.2011 80.1354 93.2814 80.172C93.3618 80.2086 93.4341 80.2606 93.4943 80.3252C93.5545 80.3897 93.6015 80.4655 93.6324 80.5482C93.6633 80.6308 93.6777 80.7188 93.6746 80.807C93.6716 80.8952 93.6512 80.982 93.6146 81.0623C93.3041 81.7432 92.9604 82.42 92.5925 83.0733C92.574 83.107 92.5527 83.1389 92.5286 83.1688C92.4283 83.2915 92.288 83.375 92.1323 83.4045C91.9766 83.4341 91.8154 83.4079 91.6771 83.3305ZM86.5286 90.4343C85.9626 90.9194 85.3593 91.3836 84.7496 91.8186C84.6777 91.8699 84.5965 91.9065 84.5104 91.9263C84.4244 91.9461 84.3353 91.9488 84.2482 91.9342C84.1612 91.9196 84.0779 91.888 84.003 91.8412C83.9282 91.7943 83.8633 91.7333 83.812 91.6614C83.7608 91.5895 83.7242 91.5082 83.7044 91.4222C83.6846 91.3361 83.6819 91.2471 83.6965 91.16C83.7111 91.0729 83.7427 90.9896 83.7895 90.9147C83.8363 90.8399 83.8974 90.775 83.9693 90.7238C84.5499 90.3105 85.1184 89.8682 85.6601 89.4089C85.7877 89.3006 85.9511 89.2438 86.1184 89.2496C86.2857 89.2554 86.4447 89.3235 86.5645 89.4404C86.6842 89.5573 86.756 89.7147 86.7659 89.8818C86.7757 90.0488 86.7228 90.2136 86.6176 90.3437C86.5909 90.3767 86.5611 90.407 86.5286 90.4343ZM94.0666 78.0841C93.982 78.0588 93.9032 78.0171 93.8347 77.9614C93.7663 77.9056 93.7094 77.8369 93.6675 77.7592C93.6256 77.6815 93.5994 77.5962 93.5905 77.5084C93.5816 77.4205 93.59 77.3318 93.6154 77.2472C93.8192 76.5655 93.9963 75.8669 94.1418 75.1715C94.1783 74.997 94.2825 74.8442 94.4317 74.7466C94.5808 74.649 94.7626 74.6147 94.9371 74.6511C95.1116 74.6876 95.2644 74.7918 95.362 74.941C95.4596 75.0901 95.4939 75.2719 95.4574 75.4464C95.3038 76.179 95.1178 76.9149 94.9027 77.6297C94.8779 77.7138 94.8367 77.7921 94.7814 77.8601C94.6979 77.9641 94.5854 78.0409 94.4581 78.0808C94.3308 78.1207 94.1945 78.1219 94.0666 78.0841ZM81.6283 93.7318C80.9661 94.0779 80.2795 94.4006 79.5882 94.6909C79.5068 94.7251 79.4194 94.7429 79.3312 94.7433C79.2429 94.7438 79.1554 94.7268 79.0736 94.6935C78.9919 94.6601 78.9175 94.6109 78.8548 94.5488C78.7921 94.4867 78.7422 94.4128 78.708 94.3314C78.6738 94.25 78.656 94.1627 78.6555 94.0744C78.6551 93.9861 78.672 93.8986 78.7054 93.8169C78.7388 93.7352 78.7879 93.6608 78.85 93.5981C78.9122 93.5353 78.986 93.4854 79.0674 93.4513C79.7248 93.1755 80.3766 92.869 81.0081 92.5407C81.0863 92.4999 81.1718 92.4748 81.2597 92.4669C81.3476 92.4591 81.4362 92.4686 81.5204 92.495C81.6046 92.5214 81.6828 92.5641 81.7505 92.6208C81.8182 92.6774 81.8741 92.7468 81.915 92.825C81.9559 92.9032 81.981 92.9887 81.9888 93.0766C81.9966 93.1645 81.9871 93.2531 81.9607 93.3373C81.9343 93.4215 81.8916 93.4997 81.835 93.5674C81.7784 93.6351 81.709 93.691 81.6308 93.7318H81.6283ZM76.1232 95.8747C75.3995 96.0688 74.6596 96.2337 73.9229 96.3663C73.7475 96.3979 73.5667 96.3584 73.4204 96.2567C73.2741 96.1549 73.1741 95.9992 73.1426 95.8238C73.1111 95.6483 73.1505 95.4676 73.2523 95.3212C73.3541 95.1749 73.5098 95.075 73.6852 95.0434C74.3847 94.9173 75.0882 94.7604 75.7763 94.5769C75.8624 94.5512 75.9528 94.5431 76.0421 94.553C76.1313 94.5629 76.2177 94.5906 76.2961 94.6345C76.3745 94.6784 76.4433 94.7375 76.4985 94.8084C76.5536 94.8794 76.594 94.9606 76.6172 95.0474C76.6404 95.1342 76.6459 95.2247 76.6335 95.3137C76.6211 95.4027 76.591 95.4883 76.5449 95.5654C76.4989 95.6425 76.4378 95.7096 76.3654 95.7628C76.293 95.8159 76.2106 95.854 76.1232 95.8747ZM70.2825 96.7642C69.5329 96.7957 68.7744 96.7957 68.0273 96.7642C67.8491 96.7568 67.6813 96.6789 67.5606 96.5478C67.4398 96.4166 67.3762 96.2428 67.3836 96.0647C67.391 95.8866 67.4688 95.7187 67.6 95.598C67.7312 95.4773 67.9049 95.4137 68.083 95.4211C68.793 95.4502 69.5143 95.4502 70.2259 95.4211C70.3141 95.4173 70.4022 95.431 70.4851 95.4613C70.568 95.4917 70.6441 95.538 70.7091 95.5977C70.7741 95.6575 70.8266 95.7294 70.8638 95.8095C70.901 95.8895 70.9221 95.9761 70.9258 96.0643C70.9295 96.1525 70.9158 96.2406 70.8855 96.3235C70.8552 96.4064 70.8088 96.4825 70.7491 96.5475C70.6894 96.6125 70.6174 96.6651 70.5373 96.7022C70.4573 96.7394 70.3707 96.7605 70.2825 96.7642ZM64.3852 96.3599C63.6477 96.2273 62.907 96.0607 62.1841 95.8658C62.0934 95.8483 62.0073 95.8122 61.9312 95.7599C61.8551 95.7075 61.7905 95.6401 61.7416 95.5617C61.6927 95.4833 61.6605 95.3957 61.647 95.3043C61.6335 95.2129 61.639 95.1197 61.6632 95.0305C61.6873 94.9414 61.7295 94.8581 61.7873 94.786C61.845 94.7139 61.917 94.6545 61.9988 94.6115C62.0805 94.5684 62.1703 94.5427 62.2624 94.5359C62.3545 94.5291 62.4471 94.5414 62.5343 94.572C63.22 94.7572 63.9235 94.9149 64.6246 95.041C64.7114 95.0569 64.7943 95.0898 64.8685 95.1378C64.9426 95.1857 65.0066 95.2478 65.0568 95.3205C65.1069 95.3932 65.1423 95.4751 65.1608 95.5614C65.1793 95.6477 65.1806 95.7369 65.1647 95.8238C65.1488 95.9106 65.1159 95.9935 65.068 96.0676C65.02 96.1418 64.9579 96.2058 64.8852 96.2559C64.8125 96.3061 64.7307 96.3415 64.6443 96.36C64.558 96.3785 64.4688 96.3798 64.382 96.3639L64.3852 96.3599ZM58.7184 94.6707C58.0294 94.3787 57.3437 94.0537 56.6814 93.7003C56.6033 93.6592 56.5341 93.603 56.4777 93.5351C56.4213 93.4672 56.3788 93.3889 56.3527 93.3045C56.3265 93.2202 56.3173 93.1316 56.3254 93.0437C56.3335 92.9558 56.3589 92.8703 56.4 92.7922C56.4412 92.7141 56.4973 92.6449 56.5652 92.5885C56.6331 92.5321 56.7115 92.4896 56.7958 92.4635C56.8801 92.4373 56.9688 92.4281 57.0567 92.4362C57.1446 92.4443 57.23 92.4697 57.3081 92.5108C57.938 92.8432 58.589 93.1513 59.2432 93.4286C59.3244 93.4631 59.3981 93.5133 59.4599 93.5762C59.5218 93.6392 59.5706 93.7138 59.6037 93.7956C59.6367 93.8775 59.6533 93.965 59.6525 94.0533C59.6517 94.1415 59.6335 94.2288 59.599 94.31C59.5744 94.3681 59.542 94.4225 59.5027 94.4717C59.4119 94.5863 59.2862 94.6682 59.1447 94.705C59.0031 94.7417 58.8535 94.7314 58.7184 94.6755V94.6707ZM53.5658 91.7806C53.117 91.4572 52.6763 91.1224 52.2453 90.7755C52.0911 90.6499 51.9383 90.5232 51.7868 90.3955C51.7185 90.3392 51.6621 90.2698 51.621 90.1914C51.5798 90.113 51.5547 90.0272 51.5472 89.939C51.5397 89.8508 51.5498 89.762 51.5771 89.6778C51.6044 89.5935 51.6482 89.5156 51.706 89.4486C51.7628 89.381 51.8325 89.3252 51.9109 89.2846C51.9893 89.2439 52.075 89.2191 52.163 89.2116C52.2511 89.2041 52.3397 89.214 52.4239 89.2408C52.5081 89.2676 52.5862 89.3107 52.6537 89.3677C52.7976 89.489 52.9432 89.6103 53.0895 89.7291C53.4938 90.0583 53.9184 90.376 54.3445 90.6849C54.4894 90.7885 54.5873 90.9455 54.6166 91.1212C54.6458 91.297 54.6041 91.4772 54.5006 91.6221C54.4925 91.6335 54.4844 91.6448 54.4755 91.6553C54.3689 91.7886 54.2154 91.8763 54.0464 91.9005C53.8774 91.9247 53.7055 91.8836 53.5658 91.7855V91.7806Z" fill="#91B3FA"/>
<path d="M95.8115 72.1763C95.8989 72.0691 95.9509 71.9375 95.9603 71.7995C95.9854 71.4364 96.0031 71.0661 96.0129 70.6982C96.0177 70.5199 95.9515 70.3471 95.8289 70.2177C95.7063 70.0882 95.5373 70.0128 95.3591 70.008C95.2708 70.0056 95.183 70.0206 95.1005 70.0522C95.0181 70.0837 94.9427 70.1312 94.8786 70.1919C94.7492 70.3146 94.6737 70.4836 94.6689 70.6618C94.6592 71.0111 94.6422 71.3629 94.6188 71.7073C94.6089 71.8499 94.6448 71.9918 94.7211 72.1126C94.7974 72.2334 94.9103 72.3267 95.0433 72.379C95.1762 72.4313 95.3224 72.4398 95.4605 72.4034C95.5987 72.3669 95.7216 72.2874 95.8115 72.1763Z" fill="#91B3FA"/>
</g>
<path d="M88.2509 63.4771C88.2375 63.4132 88.2046 63.355 88.1566 63.3107C88.1086 63.2663 88.0481 63.238 87.9833 63.2297L84.19 62.7445C83.4279 61.1022 82.4028 59.5953 81.1552 58.2833L82.0941 54.5822C82.11 54.5189 82.1057 54.4521 82.082 54.3913C82.0582 54.3304 82.0161 54.2784 81.9614 54.2426L78.1261 51.7278C78.0714 51.6919 78.0068 51.674 77.9415 51.6766C77.8761 51.6792 77.8131 51.7022 77.7614 51.7423L74.7396 54.0809C73.0385 53.4602 71.2477 53.1207 69.4375 53.0758L67.4814 49.7911C67.4479 49.7349 67.3978 49.6905 67.3379 49.6642C67.2781 49.6378 67.2115 49.6307 67.1474 49.644L62.6571 50.5779C62.5931 50.5912 62.5349 50.6241 62.4906 50.6721C62.4462 50.7201 62.4179 50.7808 62.4097 50.8456L61.9245 54.6388C60.2819 55.4012 58.7748 56.4266 57.4625 57.6744L53.759 56.7348C53.6955 56.7188 53.6286 56.723 53.5676 56.7468C53.5066 56.7705 53.4545 56.8127 53.4186 56.8674L50.9046 60.7027C50.8687 60.7574 50.8507 60.8219 50.8531 60.8873C50.8556 60.9526 50.8784 61.0156 50.9183 61.0674L53.2569 64.0901C52.6357 65.7907 52.2962 67.5814 52.2517 69.3914L48.9663 71.3483C48.9101 71.3818 48.8659 71.4319 48.8396 71.4918C48.8134 71.5517 48.8065 71.6183 48.8199 71.6822L49.7547 76.1725C49.7678 76.2367 49.8007 76.2951 49.8487 76.3396C49.8967 76.3841 49.9574 76.4125 50.0224 76.4208L53.8148 76.906C54.5777 78.548 55.603 80.0548 56.8504 81.3671L55.9116 85.0674C55.8955 85.1309 55.8996 85.1978 55.9234 85.2589C55.9472 85.3199 55.9894 85.372 56.0442 85.4078L59.8795 87.9227C59.9342 87.9582 59.9986 87.9758 60.0638 87.9732C60.1289 87.9706 60.1917 87.9479 60.2434 87.9081L63.266 85.5704C64.9681 86.1918 66.76 86.5316 68.5714 86.5763L70.5275 89.8618C70.561 89.9178 70.6112 89.962 70.6711 89.9883C70.7309 90.0145 70.7975 90.0214 70.8614 90.0081L75.3517 89.0742C75.4158 89.061 75.4741 89.0281 75.5184 88.9801C75.5628 88.9321 75.5911 88.8714 75.5992 88.8065L76.0844 85.014C77.7242 84.2508 79.2288 83.2255 80.5391 81.9785L84.2434 82.9173C84.3067 82.9334 84.3734 82.9293 84.4343 82.9057C84.4952 82.8821 84.5472 82.8401 84.583 82.7855L87.0978 78.9494C87.1338 78.8948 87.1517 78.8304 87.1491 78.7651C87.1465 78.6998 87.1235 78.637 87.0833 78.5855L84.7455 75.5628C85.3668 73.8619 85.7063 72.071 85.7507 70.2607L89.0353 68.3046C89.0916 68.2712 89.136 68.2211 89.1624 68.1612C89.1888 68.1013 89.1958 68.0347 89.1825 67.9706L88.2509 63.4771Z" fill="#91B3FA"/>
<path d="M72.1222 73.2211C71.2437 74.0284 70.0863 74.4635 68.8936 74.4351C67.7008 74.4067 66.5655 73.9168 65.7265 73.0685C64.8875 72.2203 64.4101 71.0797 64.3947 69.8867C64.3793 68.6937 64.8271 67.5412 65.644 66.6716C66.4609 65.8019 67.5831 65.283 68.7748 65.2238C69.9664 65.1646 71.1346 65.5698 72.0336 66.3541C72.9327 67.1385 73.4925 68.241 73.5954 69.4296C73.6984 70.6183 73.3363 71.8006 72.5855 72.7278C72.4434 72.9033 72.2885 73.0682 72.1222 73.2211ZM65.4712 69.6769C65.4366 70.4938 65.6864 71.2975 66.178 71.951C66.6695 72.6045 67.3724 73.0673 68.167 73.2607C68.9615 73.454 69.7985 73.3658 70.5353 73.0112C71.2721 72.6566 71.8632 72.0575 72.2078 71.316C72.5525 70.5744 72.6293 69.7363 72.4253 68.9445C72.2212 68.1526 71.749 67.456 71.0889 66.9733C70.4288 66.4906 69.6218 66.2517 68.8054 66.2974C67.989 66.343 67.2136 66.6703 66.6114 67.2235C66.4825 67.342 66.3625 67.4698 66.2524 67.606C65.7753 68.1938 65.5012 68.9203 65.4712 69.6769Z" fill="#BDD0FB"/>
<path d="M77.6985 76.9941C77.9416 76.6943 78.1707 76.3809 78.3858 76.0536C78.4529 75.9509 78.5192 75.8466 78.5831 75.7415C78.8991 75.2251 79.1733 74.6843 79.403 74.1243L79.4128 74.1016C79.4216 74.0798 79.4305 74.058 79.4386 74.0361C79.4556 73.9941 79.4718 73.9553 79.4888 73.9092C79.5092 73.8562 79.5124 73.7981 79.4979 73.7432C79.4834 73.6883 79.4519 73.6394 79.4079 73.6035C79.3859 73.5859 79.3614 73.5717 79.3351 73.5615C79.2685 73.5361 79.1946 73.5381 79.1295 73.5671C79.0643 73.596 79.0133 73.6495 78.9874 73.7159C78.1929 75.7771 76.7857 77.5454 74.9555 78.7824C73.1252 80.0194 70.9599 80.6658 68.751 80.6345C66.7004 80.6095 64.6999 79.9975 62.9863 78.8709C62.6763 78.6676 62.3767 78.4487 62.0888 78.2151C60.8358 77.1942 59.828 75.9052 59.1396 74.4429C58.4512 72.9807 58.0998 71.3825 58.1114 69.7664C58.1229 68.1502 58.4971 66.5573 59.2063 65.105C59.9155 63.6528 60.9416 62.3782 62.2091 61.3754C63.4765 60.3725 64.9528 59.667 66.5293 59.3107C68.1057 58.9545 69.742 58.9567 71.3175 59.3171C72.893 59.6775 74.3675 60.3869 75.6323 61.3931C76.897 62.3993 77.9198 63.6766 78.6252 65.1307C78.6406 65.1626 78.6621 65.1911 78.6885 65.2146C78.7149 65.2382 78.7457 65.2563 78.7791 65.2679C78.8125 65.2796 78.8479 65.2845 78.8832 65.2825C78.9186 65.2804 78.9531 65.2715 78.985 65.2561C79.0168 65.2407 79.0454 65.2191 79.0689 65.1927C79.0924 65.1663 79.1105 65.1355 79.1222 65.1021C79.1338 65.0687 79.1388 65.0333 79.1367 64.998C79.1347 64.9627 79.1257 64.9281 79.1103 64.8962C78.387 63.4022 77.3434 62.0858 76.0537 61.0407C75.7553 60.7986 75.4449 60.5717 75.1238 60.3606C69.896 56.9337 62.8545 58.3997 59.4284 63.6251C57.891 65.9709 57.2775 68.8032 57.7064 71.5749C58.1353 74.3466 59.5762 76.861 61.7508 78.6323C62.0516 78.8755 62.3656 79.1049 62.6928 79.3205C65.0388 80.8581 67.8715 81.4716 70.6434 81.0424C73.4154 80.6131 75.9298 79.1716 77.7009 76.9965L77.6985 76.9941Z" fill="#BDD0FB"/>
<g opacity="0.3">
<path d="M116.442 45.22C116.499 45.1503 116.531 45.0642 116.535 44.9745C116.538 44.8849 116.512 44.7965 116.461 44.7226C116.261 44.4324 116.05 44.1445 115.832 43.8671C115.765 43.7804 115.665 43.7241 115.556 43.7107C115.447 43.6973 115.337 43.7278 115.25 43.7956C115.163 43.8633 115.107 43.9628 115.093 44.072C115.08 44.1813 115.11 44.2914 115.178 44.3782C115.385 44.6434 115.587 44.9175 115.778 45.1949C115.815 45.2482 115.863 45.2923 115.92 45.3235C115.976 45.3548 116.039 45.3723 116.104 45.3747C116.168 45.3772 116.233 45.3645 116.291 45.3376C116.35 45.3107 116.402 45.2704 116.442 45.22Z" fill="#91B3FA"/>
<path d="M114.364 42.8006C114.325 42.8391 114.28 42.8697 114.229 42.8906C114.179 42.9115 114.125 42.9223 114.07 42.9223C114.016 42.9223 113.962 42.9115 113.912 42.8906C113.861 42.8697 113.815 42.8391 113.777 42.8006C113.366 42.3908 112.934 42.0021 112.483 41.6361C112.388 41.5596 112.292 41.4836 112.195 41.4081C112.152 41.3747 112.116 41.3331 112.089 41.2857C112.062 41.2383 112.045 41.1861 112.038 41.1321C112.031 41.078 112.035 41.0231 112.05 40.9706C112.064 40.9181 112.089 40.8689 112.122 40.8259C112.192 40.7419 112.291 40.6875 112.399 40.6738C112.507 40.6602 112.616 40.6882 112.705 40.7523C112.807 40.8316 112.907 40.9111 113.006 40.9909C113.477 41.3733 113.935 41.7841 114.365 42.2119C114.437 42.2845 114.481 42.3814 114.486 42.4839C114.492 42.5864 114.459 42.6874 114.395 42.7674C114.385 42.7793 114.375 42.7903 114.364 42.8006ZM110.453 40.2202C109.849 39.8589 109.224 39.5348 108.581 39.2499C108.48 39.2055 108.401 39.1229 108.361 39.0203C108.321 38.9177 108.324 38.8035 108.368 38.7029C108.413 38.6022 108.495 38.5232 108.598 38.4834C108.701 38.4436 108.815 38.4462 108.915 38.4906C109.59 38.7883 110.246 39.1269 110.879 39.5046C110.973 39.5612 111.042 39.6531 111.068 39.76C111.095 39.8669 111.078 39.9801 111.022 40.0747C111.012 40.0917 111 40.1079 110.988 40.1232C110.925 40.2009 110.837 40.2534 110.738 40.2712C110.64 40.289 110.539 40.2709 110.453 40.2202ZM106.602 38.5221C105.928 38.3204 105.242 38.1608 104.548 38.0442C104.443 38.0225 104.35 37.9607 104.289 37.8719C104.228 37.7831 104.204 37.6741 104.222 37.568C104.24 37.4618 104.298 37.3668 104.385 37.3028C104.472 37.2389 104.58 37.211 104.686 37.2251C105.414 37.3478 106.133 37.5153 106.84 37.7264C106.892 37.742 106.941 37.7677 106.983 37.8021C107.025 37.8365 107.06 37.8789 107.086 37.9269C107.112 37.9749 107.128 38.0276 107.134 38.0818C107.14 38.1361 107.134 38.1909 107.119 38.2431C107.103 38.295 107.077 38.3433 107.043 38.3855C106.992 38.4497 106.922 38.4971 106.844 38.5217C106.765 38.5463 106.681 38.547 106.602 38.5237V38.5221ZM102.453 37.8251C101.75 37.7947 101.047 37.8077 100.346 37.8639C100.236 37.8727 100.127 37.8376 100.043 37.7662C99.9596 37.6949 99.9076 37.5931 99.8988 37.4834C99.89 37.3737 99.9252 37.2651 99.9965 37.1813C100.068 37.0975 100.17 37.0455 100.279 37.0367C101.014 36.9776 101.752 36.9639 102.489 36.9954C102.599 37.0003 102.703 37.0485 102.777 37.1296C102.852 37.2107 102.891 37.3181 102.886 37.4281C102.881 37.5382 102.833 37.6419 102.752 37.7163C102.671 37.7908 102.563 37.8299 102.453 37.8251ZM98.2585 38.1607C97.5696 38.3024 96.8898 38.486 96.2232 38.7105C96.1189 38.7457 96.0049 38.738 95.9062 38.6891C95.8076 38.6402 95.7324 38.5541 95.6972 38.4498C95.662 38.3454 95.6698 38.2314 95.7187 38.1327C95.7676 38.0341 95.8537 37.9589 95.958 37.9237C96.6567 37.6884 97.369 37.4958 98.0912 37.3472C98.1455 37.3336 98.2021 37.3311 98.2575 37.3399C98.3128 37.3487 98.3659 37.3687 98.4133 37.3985C98.4608 37.4284 98.5017 37.4675 98.5337 37.5136C98.5656 37.5596 98.5879 37.6117 98.5992 37.6666C98.6105 37.7215 98.6106 37.7782 98.5994 37.8331C98.5883 37.888 98.5661 37.9402 98.5343 37.9863C98.5024 38.0325 98.4616 38.0717 98.4142 38.1017C98.3668 38.1316 98.3139 38.1517 98.2585 38.1607ZM94.272 39.5046C93.6388 39.8094 93.025 40.1529 92.434 40.5332C92.3415 40.5928 92.229 40.6132 92.1214 40.5899C92.0139 40.5667 91.9199 40.5016 91.8603 40.409C91.8007 40.3165 91.7803 40.2041 91.8035 40.0965C91.8268 39.9889 91.8919 39.895 91.9844 39.8353C92.6039 39.436 93.2478 39.0757 93.9122 38.7566C93.9972 38.7155 94.0937 38.7046 94.1857 38.7257C94.2777 38.7469 94.3598 38.7988 94.4183 38.8729C94.4769 38.947 94.5084 39.0388 94.5077 39.1332C94.5069 39.2277 94.474 39.319 94.4143 39.3922C94.3754 39.44 94.3262 39.4785 94.2704 39.5046H94.272ZM90.7367 41.7817C90.1973 42.2329 89.6863 42.7171 89.2068 43.2316C89.1302 43.3057 89.0282 43.3475 88.9216 43.3486C88.8151 43.3496 88.7122 43.3096 88.6343 43.237C88.5564 43.1643 88.5093 43.0645 88.5028 42.9582C88.4964 42.8518 88.531 42.7471 88.5995 42.6655C89.1029 42.1269 89.6386 41.6195 90.2038 41.1461C90.2831 41.0806 90.3838 41.0469 90.4865 41.0513C90.5892 41.0558 90.6866 41.0982 90.7599 41.1703C90.8332 41.2423 90.8772 41.339 90.8834 41.4417C90.8895 41.5443 90.8575 41.6456 90.7933 41.7259C90.7755 41.7461 90.756 41.7648 90.7351 41.7817H90.7367ZM86.1696 46.7952C86.1217 46.7688 86.0794 46.7331 86.0453 46.6903C86.0112 46.6475 85.986 46.5984 85.9709 46.5458C85.9559 46.4932 85.9514 46.4381 85.9578 46.3838C85.9641 46.3294 85.9811 46.2769 86.0079 46.2291C86.3183 45.6692 86.6581 45.1262 87.0259 44.6022C87.0817 44.5213 87.1383 44.4405 87.1949 44.3644C87.2629 44.2857 87.358 44.2354 87.4613 44.2233C87.5646 44.2112 87.6687 44.2383 87.753 44.2993C87.8373 44.3602 87.8957 44.4506 87.9166 44.5524C87.9375 44.6543 87.9195 44.7604 87.8661 44.8496C87.8127 44.9232 87.7593 44.9976 87.7044 45.0736C87.3533 45.5739 87.0294 46.0927 86.734 46.6278C86.7222 46.6492 86.7083 46.6695 86.6928 46.6884C86.6326 46.766 86.5468 46.8198 86.4507 46.84C86.3546 46.8603 86.2544 46.8459 86.168 46.7992L86.1696 46.7952Z" fill="#91B3FA"/>
</g>
<g opacity="0.3">
<path d="M115.472 66.3954C115.007 66.9525 114.51 67.4812 113.982 67.9787C113.901 68.0454 113.797 68.0786 113.692 68.0717C113.587 68.0648 113.489 68.0182 113.417 67.9415C113.345 67.8647 113.305 67.7634 113.305 67.6582C113.304 67.5529 113.344 67.4516 113.416 67.3747C113.92 66.9004 114.394 66.396 114.836 65.8642C114.91 65.7959 115.006 65.7566 115.107 65.7538C115.207 65.7509 115.305 65.7846 115.383 65.8485C115.46 65.9125 115.512 66.0024 115.528 66.1017C115.545 66.2009 115.525 66.3027 115.472 66.3881V66.3954ZM116.186 64.7668C116.093 64.7069 116.029 64.6128 116.006 64.5052C115.983 64.3976 116.003 64.2852 116.063 64.1927C116.439 63.6119 116.779 63.0089 117.082 62.3871C117.131 62.2881 117.216 62.2123 117.32 62.1765C117.425 62.1406 117.539 62.1476 117.638 62.1958C117.737 62.2441 117.812 62.3297 117.848 62.4338C117.884 62.5379 117.877 62.652 117.829 62.7509C117.511 63.4027 117.154 64.0348 116.76 64.6439C116.752 64.6567 116.743 64.6689 116.733 64.6803C116.669 64.7612 116.577 64.8153 116.475 64.8321C116.373 64.8488 116.269 64.827 116.182 64.7709L116.186 64.7668ZM112.311 69.3704C111.726 69.7991 111.116 70.192 110.483 70.5469C110.388 70.5954 110.277 70.6051 110.175 70.5738C110.072 70.5426 109.986 70.4729 109.933 70.3793C109.881 70.2858 109.867 70.1756 109.894 70.0719C109.921 69.9683 109.988 69.8791 110.079 69.8232C110.683 69.4846 111.265 69.1098 111.823 68.7008C111.905 68.6423 112.004 68.6153 112.104 68.6247C112.204 68.6341 112.297 68.6793 112.366 68.752C112.435 68.8247 112.475 68.9199 112.48 69.02C112.484 69.1202 112.452 69.2185 112.389 69.2968C112.366 69.325 112.338 69.3497 112.308 69.3704H112.311ZM118.133 60.9987C118.029 60.9628 117.943 60.8872 117.895 60.7883C117.847 60.6894 117.84 60.5754 117.876 60.4714C118.101 59.8169 118.286 59.1494 118.43 58.4725C118.46 58.3727 118.526 58.2878 118.616 58.2348C118.705 58.1817 118.812 58.1644 118.914 58.1862C119.016 58.208 119.106 58.2674 119.166 58.3525C119.226 58.4376 119.252 58.5422 119.238 58.6456C119.088 59.3554 118.894 60.0553 118.658 60.7415C118.642 60.7874 118.618 60.8301 118.587 60.8677C118.534 60.9337 118.461 60.9816 118.38 61.0051C118.298 61.0285 118.211 61.0263 118.13 60.9987H118.133ZM108.526 71.4922C107.855 71.7675 107.168 72.0021 106.469 72.1949C106.364 72.2226 106.251 72.2075 106.156 72.1529C106.062 72.0983 105.992 72.0086 105.963 71.9032C105.934 71.7978 105.948 71.6852 106.001 71.5898C106.055 71.4944 106.144 71.4239 106.249 71.3935C106.916 71.2107 107.571 70.9871 108.211 70.724C108.313 70.6822 108.427 70.6825 108.529 70.725C108.63 70.7675 108.711 70.8485 108.753 70.9504C108.795 71.0523 108.794 71.1666 108.752 71.2682C108.709 71.3698 108.628 71.4504 108.526 71.4922ZM104.343 72.6445C103.625 72.7513 102.902 72.8148 102.177 72.8345C102.123 72.836 102.068 72.8267 102.017 72.8073C101.967 72.7878 101.92 72.7585 101.88 72.721C101.841 72.6835 101.809 72.6386 101.787 72.5889C101.765 72.5391 101.752 72.4855 101.751 72.431C101.749 72.3765 101.759 72.3223 101.778 72.2714C101.798 72.2205 101.827 72.1739 101.864 72.1344C101.902 72.0948 101.947 72.063 101.997 72.0408C102.046 72.0185 102.1 72.0063 102.154 72.0049C102.846 71.9857 103.536 71.9252 104.22 71.8237C104.329 71.8075 104.44 71.8352 104.529 71.9007C104.617 71.9663 104.676 72.0642 104.692 72.173C104.708 72.2819 104.68 72.3927 104.615 72.4811C104.549 72.5695 104.451 72.6283 104.343 72.6445ZM100.003 72.7625C99.2812 72.6943 98.5637 72.5822 97.855 72.427C97.7988 72.4185 97.7449 72.3987 97.6967 72.3686C97.6486 72.3385 97.607 72.2988 97.5748 72.2521C97.5426 72.2053 97.5203 72.1524 97.5094 72.0966C97.4984 72.0409 97.499 71.9835 97.5112 71.928C97.5233 71.8725 97.5468 71.8201 97.58 71.774C97.6133 71.7279 97.6556 71.6892 97.7044 71.6601C97.7533 71.6311 97.8076 71.6124 97.8639 71.6052C97.9203 71.598 97.9775 71.6025 98.0321 71.6183C98.7079 71.7675 99.3922 71.8755 100.081 71.9418C100.135 71.9469 100.188 71.9626 100.236 71.988C100.285 72.0135 100.327 72.0482 100.362 72.0902C100.397 72.1322 100.423 72.1806 100.439 72.2327C100.455 72.2848 100.461 72.3395 100.456 72.3938C100.449 72.4754 100.417 72.5529 100.365 72.6162C100.321 72.6686 100.265 72.7094 100.201 72.735C100.138 72.7605 100.069 72.77 100.001 72.7625H100.003Z" fill="#91B3FA"/>
<path d="M119.472 56.7C119.524 56.6357 119.556 56.5571 119.563 56.4744C119.594 56.121 119.614 55.7644 119.624 55.4151C119.628 55.3594 119.62 55.3036 119.601 55.251C119.583 55.1984 119.554 55.1501 119.516 55.1089C119.478 55.0677 119.433 55.0345 119.382 55.0113C119.331 54.9882 119.276 54.9754 119.221 54.9739C119.165 54.9724 119.109 54.9821 119.057 55.0025C119.005 55.0229 118.958 55.0535 118.918 55.0926C118.878 55.1316 118.847 55.1783 118.825 55.2299C118.804 55.2814 118.793 55.3367 118.794 55.3925C118.785 55.7256 118.765 56.0653 118.736 56.4033C118.728 56.4918 118.749 56.5804 118.796 56.6562C118.842 56.7319 118.912 56.7907 118.994 56.8239C119.077 56.8572 119.168 56.8631 119.254 56.8408C119.34 56.8184 119.416 56.7691 119.472 56.7Z" fill="#91B3FA"/>
</g>
<path d="M114.464 50.586C114.455 50.5431 114.433 50.5041 114.401 50.4744C114.369 50.4447 114.328 50.4257 114.285 50.4202L111.747 50.0968C111.237 48.9979 110.551 47.9895 109.716 47.1114L110.344 44.6329C110.355 44.5905 110.352 44.5458 110.336 44.5051C110.32 44.4644 110.292 44.4296 110.255 44.4057L107.689 42.7229C107.652 42.6992 107.609 42.6873 107.566 42.6891C107.522 42.6908 107.481 42.706 107.446 42.7326L105.425 44.2965C104.286 43.8816 103.088 43.6546 101.876 43.6246L100.567 41.4267C100.545 41.3889 100.512 41.3591 100.471 41.3414C100.431 41.3237 100.387 41.319 100.344 41.3281L97.3391 41.9531C97.297 41.9626 97.2589 41.9849 97.2299 42.0169C97.201 42.0489 97.1826 42.089 97.1774 42.1318L96.8539 44.6701C95.7549 45.1803 94.7465 45.8664 93.8685 46.7014L91.3892 46.0731C91.3469 46.0625 91.3023 46.0652 91.2616 46.081C91.2209 46.0968 91.1861 46.1248 91.162 46.1612L89.4792 48.7278C89.4556 48.7643 89.4438 48.8072 89.4455 48.8506C89.4473 48.8941 89.4624 48.9359 89.4889 48.9704L91.0536 50.9919C90.638 52.13 90.4107 53.3282 90.3809 54.5394L88.183 55.8485C88.1455 55.8712 88.1159 55.9048 88.0982 55.9449C88.0806 55.985 88.0757 56.0296 88.0844 56.0725L88.7062 59.0782C88.7159 59.1203 88.7383 59.1585 88.7704 59.1874C88.8025 59.2164 88.8428 59.2347 88.8857 59.2399L91.4232 59.5634C91.9335 60.6623 92.6196 61.6707 93.4544 62.5488L92.8261 65.0273C92.8146 65.0695 92.8166 65.1143 92.8318 65.1553C92.847 65.1964 92.8748 65.2316 92.911 65.2561L95.4776 66.9388C95.514 66.9626 95.5569 66.9745 95.6003 66.9729C95.6438 66.9714 95.6857 66.9563 95.7202 66.93L97.7418 65.3653C98.8801 65.7806 100.079 66.0076 101.29 66.0372L102.599 68.2359C102.621 68.2735 102.655 68.3032 102.695 68.3208C102.735 68.3383 102.78 68.3429 102.822 68.3337L105.827 67.7087C105.869 67.6992 105.907 67.6769 105.936 67.6449C105.965 67.6129 105.984 67.5728 105.989 67.53L106.312 64.9917C107.411 64.4813 108.42 63.7952 109.298 62.9604L111.776 63.5887C111.819 63.5998 111.864 63.5972 111.904 63.5814C111.945 63.5656 111.98 63.5373 112.004 63.5006L113.693 60.9372C113.716 60.9007 113.728 60.8578 113.726 60.8144C113.724 60.771 113.709 60.7292 113.683 60.6946L112.118 58.6731C112.534 57.5351 112.761 56.3368 112.791 55.1256L114.989 53.8165C115.026 53.794 115.056 53.7605 115.074 53.7205C115.091 53.6806 115.096 53.6361 115.088 53.5933L114.464 50.586Z" fill="#91B3FA"/>
<path d="M103.709 57.1439C103.11 57.6836 102.325 57.9702 101.519 57.9434C100.713 57.9166 99.9492 57.5786 99.3873 57.0003C98.8255 56.4221 98.5097 55.6486 98.5061 54.8423C98.5026 54.0361 98.8116 53.2599 99.3684 52.6767C99.9251 52.0935 100.686 51.7488 101.492 51.715C102.297 51.6811 103.085 51.9608 103.688 52.4952C104.292 53.0296 104.665 53.7771 104.729 54.5808C104.793 55.3845 104.543 56.1818 104.032 56.8051C103.933 56.9259 103.825 57.0392 103.709 57.1439ZM99.883 56.3952C100.298 56.8462 100.874 57.1141 101.486 57.14C102.098 57.1659 102.695 56.9478 103.147 56.5334C103.59 56.1169 103.851 55.5425 103.873 54.9348C103.895 54.3271 103.677 53.7351 103.266 53.2873C102.855 52.8394 102.283 52.5718 101.676 52.5425C101.068 52.5132 100.474 52.7245 100.021 53.1307C99.9379 53.2076 99.8601 53.2903 99.7884 53.3782C99.4404 53.8091 99.2585 54.3506 99.2759 54.9042C99.2933 55.4579 99.5087 55.9869 99.883 56.3952Z" fill="#BDD0FB"/>
<path d="M107.59 59.7704C107.757 59.5644 107.914 59.3501 108.059 59.1283C108.351 58.6829 108.597 58.209 108.794 57.714L108.82 57.6477C108.852 57.5658 108.856 57.4761 108.834 57.3913C108.811 57.3065 108.763 57.231 108.695 57.1755C108.66 57.1482 108.622 57.1264 108.581 57.1108C108.479 57.0715 108.365 57.0744 108.264 57.119C108.164 57.1635 108.085 57.2461 108.045 57.3485C107.866 57.8127 107.638 58.2564 107.365 58.6723L107.319 58.741C106.676 59.7049 105.801 60.492 104.774 61.0302C104.216 61.3218 103.62 61.5372 103.004 61.6706H102.989L102.943 61.6803C102.044 61.8698 101.117 61.8792 100.215 61.7079C99.3127 61.5366 98.4534 61.1881 97.6868 60.6825C97.4847 60.5499 97.2909 60.4086 97.1054 60.2588C95.713 59.1284 94.8084 57.506 94.5786 55.7273C94.3488 53.9486 94.8114 52.1496 95.8708 50.7024C96.9301 49.2553 98.5052 48.2706 100.27 47.9521C102.035 47.6337 103.855 48.0057 105.353 48.9914C105.552 49.121 105.743 49.2608 105.927 49.4103C106.722 50.0545 107.366 50.8662 107.812 51.7876C107.861 51.8845 107.946 51.9581 108.05 51.9927C108.153 52.0274 108.265 52.0202 108.363 51.9728C108.461 51.9254 108.536 51.8415 108.573 51.7392C108.61 51.6369 108.605 51.5242 108.56 51.4254C108.049 50.3722 107.308 49.4471 106.392 48.7183C105.476 47.9896 104.408 47.4757 103.267 47.2147C102.126 46.9537 100.94 46.9522 99.7987 47.2102C98.6569 47.4683 97.5876 47.9793 96.6697 48.7057C95.7517 49.4321 95.0085 50.3553 94.4949 51.4071C93.9813 52.459 93.7103 53.6128 93.702 54.7833C93.6937 55.9539 93.9482 57.1114 94.4469 58.1704C94.9455 59.2295 95.6755 60.1631 96.5831 60.9024C96.7901 61.0698 97.0068 61.2259 97.23 61.3771C98.8501 62.4371 100.805 62.8595 102.718 62.5627C104.632 62.266 106.367 61.2713 107.59 59.7704Z" fill="#BDD0FB"/>
<path d="M65.7873 255.868C65.7873 255.868 65.3199 258.374 65.079 260.858C65.0573 261.088 65.0824 261.32 65.1527 261.54C65.2231 261.76 65.3372 261.964 65.4883 262.138C65.6394 262.313 65.8243 262.456 66.0319 262.557C66.2395 262.659 66.4655 262.717 66.6962 262.729C70.0051 262.898 77.0822 263.233 79.6237 263.144C79.7124 263.141 79.7991 263.117 79.8764 263.073C79.9537 263.029 80.0195 262.968 80.0682 262.894C80.1169 262.819 80.1472 262.735 80.1566 262.646C80.1659 262.558 80.154 262.469 80.1218 262.386C80.0059 262.087 79.7795 261.844 79.4895 261.708L67.8453 256.221L65.7873 255.868Z" fill="#1988FF"/>
<path d="M65.438 254.389L65.7663 257.396C65.7663 257.396 67.8056 258.366 69.2151 257.309L68.3984 253.954L65.438 254.389Z" fill="white" stroke="#222221" stroke-width="0.5"/>
<path d="M66.2451 197.929C66.0833 198.712 65.0451 237.059 68.9814 254.29C69.0134 254.426 68.9958 254.568 68.9317 254.692C68.8677 254.816 68.7614 254.913 68.6321 254.965C67.5615 255.368 66.4304 255.587 65.2868 255.612C65.0646 255.617 64.8469 255.549 64.6678 255.417C64.4887 255.285 64.3584 255.098 64.2971 254.884C63.165 250.885 57.7383 230.852 57.1876 211.759C56.5731 190.423 57.1949 211.031 57.1949 211.031L57.8006 197.85L66.2451 197.929Z" fill="#37474F"/>
<path d="M52.3221 257.049C52.3221 257.049 51.6041 258.311 50.8885 261.672C50.8574 261.815 50.8568 261.963 50.8867 262.106C50.9165 262.25 50.9762 262.385 51.0617 262.504C51.1472 262.623 51.2568 262.722 51.3832 262.796C51.5097 262.87 51.6502 262.916 51.7957 262.932C52.8882 263.05 54.5693 263.204 55.9197 263.208C56.0664 263.208 56.2117 263.178 56.346 263.119C56.4803 263.06 56.6006 262.974 56.6991 262.865C56.7975 262.756 56.8719 262.628 56.9174 262.488C56.9628 262.349 56.9783 262.201 56.9628 262.055C56.8246 260.825 56.379 258.803 54.9575 257.217L52.3221 257.049Z" fill="#1988FF"/>
<path d="M51.7391 253.181L52.5283 257.73C52.5283 257.73 53.3459 258.35 54.9785 257.922L54.6275 253.032L51.7391 253.181Z" fill="white" stroke="#222221" stroke-width="0.5"/>
<path d="M50.007 198.951C46.4604 219.154 50.2569 248.972 51.5774 254.814C51.6165 254.989 51.7064 255.148 51.8359 255.272C51.9654 255.397 52.1286 255.48 52.3051 255.511C52.9181 255.619 53.9288 255.712 54.9283 255.43C55.0964 255.383 55.2454 255.284 55.3542 255.147C55.463 255.011 55.5262 254.844 55.5348 254.669C55.7644 249.959 55.7078 221.03 58.9415 209.629C59.1049 209.051 59.4636 208.548 59.9563 208.206L66.0615 203.952L66.5927 196.988L50.007 198.951Z" fill="#37474F"/>
<path d="M71.738 160.812C61.6916 160.55 50.5771 163.249 50.5771 163.249C47.4153 180.697 49.6948 200.879 49.6948 200.879C57.4576 202.993 66.2612 199.789 66.2612 199.789C67.6237 192.497 73.8525 171.996 73.8525 171.996C78.7682 171.43 82.8283 170.056 86.1744 168.215C83.662 165.246 82.5 161.487 82.001 159.267C78.4366 160.337 74.8366 160.893 71.738 160.812Z" fill="#1988FF"/>
<path d="M101.563 146.294C100.587 145.092 99.3324 145.647 99.3324 145.647C97.796 151.879 89.9928 156.87 82.0035 159.269C82.5025 161.49 83.6645 165.248 86.1769 168.218C99.465 160.908 101.563 146.294 101.563 146.294Z" fill="white" stroke="#222221" stroke-width="0.5"/>
<path d="M101.321 146.595C101.421 146.925 100.22 147.413 99.528 146.064C99.5102 145.417 99.1447 142.659 99.5345 142.138C101.609 139.365 105.614 135.902 105.614 135.902C106.279 136.571 105.72 137.216 105.72 137.216L103.774 139.205C104.17 139.933 104.655 140.556 104.878 141.439C105.04 142.113 104.937 142.824 104.589 143.423C104.246 144.029 103.777 144.817 103.334 145.432C102.496 146.597 101.321 146.595 101.321 146.595Z" fill="url(#paint6_linear_5_4098)"/>
<path d="M102.917 140.499L101.147 141.97L100.581 143.447L102.129 145.198C102.129 145.198 102.684 142.263 103.081 141.631C103.478 140.998 103.279 140.688 102.917 140.499Z" fill="url(#paint7_linear_5_4098)"/>
<path d="M54.3397 173.015L50.578 163.249C50.578 163.249 41.1316 169.536 39.5111 177.607C41.2828 177.754 44.506 178.247 47.6491 179.871C48.3793 176.06 54.3397 173.015 54.3397 173.015Z" fill="#1988FF"/>
<path d="M62.4534 182.249C62.4534 182.249 51.8604 188.104 48.3517 182.985C47.624 181.921 47.4574 180.871 47.6482 179.871C44.5051 178.247 41.2819 177.754 39.5102 177.607C39.0251 180.04 39.2426 182.635 40.6504 185.269C46.7701 196.722 63.8232 184.865 63.8232 184.865L62.4534 182.249Z" fill="white" stroke="#222221" stroke-width="0.5"/>
<path d="M61.6374 152.557L58.352 161.775C58.325 161.849 58.3251 161.93 58.3521 162.004C58.3792 162.078 58.4316 162.14 58.5 162.18C59.3676 162.67 62.4938 164.093 66.3008 161.729C66.4972 161.609 66.6648 161.447 66.7915 161.254C66.9183 161.062 67.0011 160.844 67.0342 160.616L68.1453 152.623L61.6374 152.557Z" fill="white" stroke="#222221" stroke-width="0.5"/>
<path d="M68.6766 144.061C68.6766 144.061 72.1246 150.704 71.6483 153.369C71.172 156.034 66.824 155.801 63.0445 153.597L60.4569 146.435L68.6766 144.061Z" fill="white" stroke="#222221" stroke-width="0.5"/>
<path d="M63.2458 150.094C63.2823 150.078 63.315 150.055 63.3415 150.026C63.3681 149.996 63.3879 149.961 63.3996 149.923C63.4113 149.886 63.4146 149.846 63.4093 149.806C63.4039 149.767 63.3901 149.729 63.3687 149.696C63.0913 149.263 62.573 148.382 62.4121 147.613C62.4121 147.613 61.7846 147.203 64.0294 146.689C66.2741 146.174 69.617 145.375 70.3366 143.477C71.0377 141.627 69.2854 136.939 66.3841 140.633C66.3586 140.666 66.3259 140.693 66.2885 140.711C66.251 140.73 66.2099 140.739 66.1682 140.739C66.1264 140.739 66.0853 140.73 66.0479 140.711C66.0104 140.693 65.9777 140.666 65.9523 140.633C65.4881 140.017 64.2647 138.735 62.5423 139.489C60.9307 140.194 60.7382 141.368 60.7552 141.961C60.7565 142.001 60.7486 142.042 60.732 142.079C60.7154 142.116 60.6907 142.149 60.6596 142.176C60.6285 142.202 60.5919 142.221 60.5524 142.231C60.513 142.241 60.4718 142.243 60.4318 142.235C59.6232 142.073 57.6752 141.921 56.7469 143.91C55.9827 145.548 56.4606 146.485 56.8997 146.944C56.9322 146.978 56.9554 147.019 56.9671 147.065C56.9788 147.11 56.9786 147.158 56.9665 147.203C56.9543 147.248 56.9307 147.29 56.8979 147.323C56.8651 147.356 56.8242 147.381 56.7792 147.394C56.2439 147.556 55.5509 147.998 55.6083 149.248C55.6892 150.977 57.6194 150.843 58.1701 150.769C58.2146 150.763 58.2601 150.767 58.3024 150.783C58.3447 150.798 58.3825 150.824 58.4126 150.857C58.8792 151.384 60.9825 153.619 63.2789 153.908C63.3248 153.913 63.3713 153.907 63.414 153.889C63.4567 153.872 63.4944 153.844 63.5235 153.808C63.5525 153.772 63.5721 153.73 63.5804 153.684C63.5887 153.639 63.5854 153.592 63.5709 153.548L62.6005 150.646C62.5787 150.581 62.5821 150.51 62.6102 150.448C62.6382 150.385 62.6887 150.335 62.7517 150.308L63.2458 150.094Z" fill="black"/>
<path d="M63.6388 150.508C63.6388 150.508 61.1555 148.769 60.959 150.212C60.7625 151.654 63.19 152.326 64.4005 151.798L63.6388 150.508Z" fill="white" stroke="#222221" stroke-width="0.5"/>
<path d="M60.288 191.502L66.0599 171.348C66.0916 171.236 66.1557 171.136 66.244 171.061C66.3324 170.986 66.4411 170.938 66.5564 170.925C67.6028 170.803 70.6327 170.46 74.1308 170.164C78.3446 169.808 83.2384 169.517 86.1623 169.764C86.2587 169.772 86.3518 169.802 86.4335 169.854C86.5152 169.905 86.5829 169.976 86.6309 170.06C86.6788 170.144 86.7054 170.238 86.7083 170.335C86.7112 170.431 86.6903 170.527 86.6475 170.613C84.985 173.977 78.1448 187.663 74.7195 192.146C74.6638 192.219 74.5918 192.278 74.5091 192.319C74.4264 192.36 74.3353 192.38 74.2432 192.379L60.8532 192.255C60.762 192.254 60.6721 192.233 60.5906 192.192C60.5091 192.151 60.4381 192.092 60.3834 192.019C60.3286 191.946 60.2915 191.861 60.2749 191.772C60.2584 191.682 60.2628 191.59 60.288 191.502Z" fill="url(#paint8_linear_5_4098)"/>
<path d="M61.6828 186.631C61.6828 186.631 60.879 183.325 61.2033 182.153C61.5276 180.98 62.1559 179.471 64.2502 179.808C66.3445 180.144 68.8149 181.02 68.8149 181.02C68.8149 181.02 68.6904 182.548 67.0982 182.056L68.0855 182.819C68.0855 182.819 67.944 184.042 66.6001 183.385L67.5203 184.407C67.5203 184.407 66.9429 185.411 65.954 184.767C64.965 184.122 64.4879 187.03 61.6828 186.631Z" fill="white" stroke="#222221" stroke-width="0.5"/>
<path d="M73.7467 176.18C73.7467 176.516 73.8463 176.844 74.0329 177.123C74.2195 177.403 74.4847 177.62 74.795 177.749C75.1053 177.877 75.4467 177.911 75.7761 177.846C76.1055 177.78 76.4081 177.618 76.6456 177.381C76.8831 177.143 77.0448 176.841 77.1103 176.511C77.1758 176.182 77.1422 175.84 77.0137 175.53C76.8851 175.22 76.6675 174.955 76.3882 174.768C76.109 174.582 75.7807 174.482 75.4448 174.482C74.9944 174.482 74.5625 174.661 74.2441 174.979C73.9256 175.298 73.7467 175.73 73.7467 176.18Z" fill="#91B3FA"/>
<path d="M66.7116 177.297L67.8866 173.311C67.9549 173.073 68.0865 172.858 68.2674 172.689C68.4482 172.52 68.6715 172.403 68.9135 172.351C72.5968 171.583 82.6771 171.421 82.7782 171.419L82.7717 170.969C82.3561 170.975 72.5467 171.13 68.8221 171.911C68.5005 171.979 68.2034 172.134 67.9626 172.358C67.7219 172.582 67.5463 172.867 67.4548 173.183L66.2806 177.17L66.7116 177.297Z" fill="#BDD0FB"/>
<path d="M216.712 147.323C216.747 147.255 216.802 147.199 216.87 147.163C216.937 147.127 217.014 147.112 217.09 147.12C217.166 147.128 217.238 147.159 217.297 147.209C217.355 147.258 217.397 147.324 217.418 147.398C217.76 148.63 218.588 150.78 220.329 151.543C220.416 151.582 220.499 151.624 220.579 151.659C220.626 151.527 220.64 151.385 220.622 151.246C220.603 151.107 220.551 150.975 220.47 150.86C219.93 150.034 220.906 148.906 220.906 148.906C220.906 148.906 220.97 149.9 221.725 150.523C222.372 151.063 222.688 152.261 222.243 153.245C221.303 156.899 219.898 161.732 225.382 165.263C230.865 168.794 238.597 158.599 238.597 158.599L234.761 170.758C234.761 170.758 228.841 175.125 221.955 168.984C215.068 162.843 219.633 153.902 219.633 153.902C219.633 153.902 214.376 151.785 216.712 147.323Z" fill="white" stroke="#222221" stroke-width="0.5"/>
<path d="M239.553 140.736C239.553 140.736 237.963 133.604 246.132 135.492C246.132 135.492 250.094 134.845 250.299 138.586C250.299 138.586 252.855 140.271 250.983 143.51C250.983 143.51 258.579 140.575 261.889 147.23C265.198 153.884 262.156 157.551 258.967 158.505C258.967 158.505 261.555 159.799 260.327 162.732C259.1 165.665 252.91 167.726 249.249 164.164C249.249 164.164 238.838 165.539 239.047 158.186C239.047 158.186 234.204 155.059 239.289 148.982C244.375 142.905 239.553 140.736 239.553 140.736Z" fill="black"/>
<path d="M239.104 157.265C240.746 156.773 245.525 155.864 250.071 160.059C250.45 160.409 250.725 160.855 250.868 161.349C251.01 161.844 251.015 162.368 250.88 162.865C249.659 167.36 246.437 180.641 249.263 186.388C249.263 186.388 244.285 191.876 238.854 187.452C238.854 187.452 236.418 176.833 233.226 172.169C231.023 168.95 236.74 160.083 238.186 157.938C238.406 157.614 238.73 157.377 239.104 157.265Z" fill="#1988FF"/>
<path d="M243.639 148.334C243.639 148.334 246.065 155.201 246.249 158.23C246.249 158.23 243.566 159.45 241.038 157.391C241.038 157.391 240.773 150.532 240.391 149.305L243.639 148.334Z" fill="white" stroke="#222221" stroke-width="0.5"/>
<path d="M240.264 138.972C240.264 138.972 233.915 147.857 237.711 150.438C241.506 153.019 246.026 146.705 246.026 146.705C246.026 146.705 247.499 141.841 245.959 140.191C244.418 138.542 240.264 138.972 240.264 138.972Z" fill="white" stroke="#222221" stroke-width="0.5"/>
<path d="M243.203 136.848C243.203 136.848 240.286 137.539 239.878 138.859C239.47 140.178 244.014 141.403 245.288 141.463L246.314 146.788C246.314 146.788 249.348 141.775 248.146 138.885C246.944 135.995 243.203 136.848 243.203 136.848Z" fill="black"/>
<path d="M244.795 146.051C244.795 146.051 247.266 143.189 248.25 145.054C249.233 146.92 246.025 148.321 244.915 147.405L244.795 146.051Z" fill="url(#paint9_linear_5_4098)"/>
<path d="M232.516 209.749C232.535 210.235 231.688 214.055 231.227 216.095C231.042 216.916 231.171 217.776 231.589 218.505L247.543 245.356C247.735 245.681 247.877 246.033 247.962 246.401C248.254 247.661 248.86 250.749 248.544 253.558L247.718 255.273L251.288 254.464L252.065 244.878L251.054 244.262C250.182 243.73 249.502 242.933 249.113 241.988C247.671 238.485 244.088 229.565 243.165 225.218C242.114 220.277 236.629 216.264 236.629 216.264L237.593 213.986L232.516 209.749Z" fill="white" stroke="#222221" stroke-width="0.5"/>
<path d="M255.255 251.164C255.255 251.164 253.327 248.108 253.101 246.918C252.874 245.728 252.243 243.628 251.054 244.261C251.054 244.261 250.494 250.039 250.687 252.297C250.879 254.554 248.135 254.48 248.135 254.48C248.135 254.48 247.378 254.587 246.824 255.141C246.442 255.523 246.715 256.187 247.255 256.222C248.533 256.31 249.817 256.239 251.078 256.011C251.333 255.961 251.564 255.828 251.734 255.633C251.905 255.437 252.006 255.191 252.022 254.932L252.417 248.281L254.849 251.354L255.255 251.164Z" fill="#1988FF"/>
<path d="M242.047 214.026C242.047 214.026 242.613 238.042 242.686 241.456C242.758 244.869 242.147 252.426 238.727 254.686L240.215 255.788C240.215 255.788 242.075 254.207 243.892 251.166C245.932 247.748 246.55 247.122 246.55 247.122L245.872 245.736C245.576 245.129 245.489 244.441 245.625 243.78C246.363 240.203 248.829 228.307 249.501 225.747C250.295 222.723 250.351 218.685 247.59 215.305C244.828 211.925 242.047 214.026 242.047 214.026Z" fill="white" stroke="#222221" stroke-width="0.5"/>
<path d="M245.204 256.87C245.255 256.871 245.305 256.853 245.344 256.82C245.383 256.787 245.408 256.741 245.415 256.69C245.529 255.889 246.003 252.679 246.391 251.848C246.835 250.896 248.285 246.89 246.391 246.549C246.391 246.549 241.679 253.434 240.774 254.362C239.869 255.29 238.728 254.685 238.728 254.685C238.118 254.901 237.582 255.286 237.182 255.795C237.112 255.887 237.068 255.997 237.057 256.112C237.046 256.228 237.067 256.344 237.118 256.448C237.169 256.552 237.248 256.64 237.346 256.702C237.444 256.764 237.558 256.797 237.674 256.798L240.847 256.828C241.298 256.831 241.738 256.699 242.112 256.448C242.486 256.197 242.775 255.839 242.941 255.42C243.5 254.026 244.46 251.978 245.578 251.071L244.997 256.636C244.994 256.665 244.997 256.695 245.006 256.723C245.015 256.751 245.03 256.777 245.05 256.799C245.069 256.821 245.093 256.838 245.12 256.85C245.147 256.863 245.176 256.869 245.205 256.87L245.204 256.87Z" fill="#1988FF"/>
<path d="M238.105 184.863C238.105 184.863 238.819 187.143 237.721 190.897L230.905 214.7C230.853 214.88 230.872 215.073 230.958 215.239C231.043 215.406 231.189 215.534 231.365 215.596C233.405 216.328 240.107 218.397 249.256 217.766C249.48 217.752 249.694 217.665 249.864 217.519C250.035 217.373 250.154 217.176 250.203 216.957C250.806 214.244 252.863 204.986 253.287 203.083C254.904 195.834 256.702 188.018 248.775 183.29C245.123 184.852 241.715 185.778 238.105 184.863Z" fill="#37474F"/>
<path d="M250.722 160.957C250.722 160.957 258.477 167.402 260.402 176.208C262.326 185.015 249.069 185.952 249.069 185.952C249.069 185.952 247.27 183.942 245.132 184.658C242.995 185.373 244.971 181.151 247.467 181.161C249.963 181.172 248.809 183.15 252.345 181.548C255.79 179.987 257.92 175.16 249.13 167.846C248.618 167.424 248.218 166.88 247.969 166.265C246.262 161.968 247.616 159.15 250.722 160.957Z" fill="white" stroke="#222221" stroke-width="0.5"/>
<path d="M202.192 226.758H199.426V256.674H202.192V226.758Z" fill="#7D97F4"/>
<path d="M212.923 257.25H188.695V255.65C188.695 255.624 188.7 255.598 188.71 255.573C188.72 255.549 188.735 255.527 188.753 255.508C188.772 255.49 188.794 255.475 188.818 255.465C188.843 255.455 188.869 255.45 188.895 255.45H212.723C212.75 255.45 212.776 255.455 212.8 255.465C212.824 255.475 212.846 255.49 212.865 255.508C212.884 255.527 212.898 255.549 212.908 255.573C212.918 255.598 212.923 255.624 212.923 255.65V257.25Z" fill="#7D97F4"/>
<path d="M214.344 219.635H188.292C186.546 219.635 185.131 221.05 185.131 222.796V225.655C185.131 227.401 186.546 228.817 188.292 228.817H214.344C216.09 228.817 217.506 227.401 217.506 225.655V222.796C217.506 221.05 216.09 219.635 214.344 219.635Z" fill="#7D97F4"/>
<path d="M176.287 247.589C176.287 247.589 167.344 251.44 167.857 255.472C167.857 255.472 177.101 253.699 178.756 251.056C180.41 248.414 179.498 246.884 179.498 246.884L176.287 247.589Z" fill="#1988FF"/>
<path d="M178.477 243.186L178.932 247.111C178.968 247.399 178.907 247.691 178.758 247.94C178.609 248.189 178.381 248.381 178.11 248.486C177.745 248.607 177.363 248.666 176.978 248.659C176.646 248.662 176.323 248.555 176.057 248.356C175.792 248.157 175.599 247.876 175.509 247.557L174.629 244.382L178.477 243.186Z" fill="white" stroke="#222221" stroke-width="0.5"/>
<path d="M198.014 213.088C198.014 213.088 181.566 212.326 173.381 217.1C165.196 221.873 173.795 244.782 173.795 244.782C173.795 244.782 175.933 245.242 179.012 243.596C179.012 243.596 174.619 226.826 182.246 223.908C190.826 220.629 199.701 221.426 199.701 221.426L198.056 213.606L198.014 213.088Z" fill="#37474F"/>
<path d="M169.654 253.703C171.524 253.293 177.07 250.995 177.913 251.026C178.756 251.056 179.949 252.319 179.949 252.319C179.949 252.319 180.154 253.009 179.552 254C178.123 255.115 175.045 257.161 171.466 257.385C168.834 257.546 167.25 256.502 166.343 255.486C167.136 254.717 168.408 253.975 169.654 253.703Z" fill="#1988FF"/>
<path d="M171.465 257.385C175.045 257.161 178.123 255.116 179.551 254.001C179.147 254.67 178.368 255.476 176.91 256.301C173.293 258.345 167.315 258.046 166.13 257.586C165.18 257.218 165.474 256.331 166.342 255.484C167.249 256.501 168.833 257.547 171.465 257.385Z" fill="#1988FF"/>
<path d="M181.912 250.265C181.79 250.727 180.48 252.119 179.723 252.894C179.546 253.076 179.326 253.209 179.084 253.282C178.841 253.355 178.584 253.365 178.337 253.312C177.992 253.242 177.658 253.124 177.345 252.963C177.122 252.838 176.957 252.629 176.887 252.382C176.817 252.136 176.847 251.872 176.971 251.647L178.887 248.164L181.912 250.265Z" fill="white" stroke="#222221" stroke-width="0.5"/>
<path d="M214.316 211.709C214.316 211.709 215.751 221.897 211.599 223.976C207.448 226.055 198.343 227.421 195.207 232.704C192.071 237.987 186.437 248.356 181.312 251.335C181.312 251.335 178.384 250.384 177.529 248.943C177.529 248.943 183.613 232.949 186.151 229.062C188.35 225.695 191.564 220.844 196.13 218.747C197.438 218.146 197.54 216.759 197.31 215.339L196.891 212.752L214.316 211.709Z" fill="#37474F"/>
<path d="M175.84 200.161C181.662 201.823 184.265 185.445 184.241 185.045L193.164 195.476C193.164 195.476 187.848 204.832 179.822 205.827C177.791 206.079 176.063 205.727 174.614 205.063C175.519 203.595 175.948 201.883 175.84 200.161Z" fill="#1988FF"/>
<path d="M165.061 194.798C167.598 193.756 169.751 195.836 169.751 195.836C172.265 198.408 174.259 199.708 175.841 200.159C175.949 201.882 175.519 203.596 174.612 205.064C171.476 203.628 169.648 200.724 168.895 199.274C168.766 199.023 168.544 198.831 168.276 198.74C168.007 198.65 167.714 198.667 167.459 198.789C166.921 199.049 166.367 199.446 166.333 199.984C166.264 201.047 165 201.109 164.993 200.717C164.985 200.325 165.972 198.226 165.972 198.226C165.972 198.226 163.061 200.096 161.922 200.814C160.784 201.532 159.82 200.349 159.82 200.349C159.82 200.349 162.525 195.843 165.061 194.798Z" fill="white" stroke="#222221" stroke-width="0.5"/>
<path d="M212.073 178.302C212.073 178.302 204.252 172.965 185.363 182.616C185.363 182.616 183.417 185.082 184.329 187.861C185.24 190.641 196.458 205.687 196.891 212.75C196.891 212.75 204.558 217.263 214.511 212.789C214.511 212.792 217.848 194.142 212.073 178.302Z" fill="#1988FF"/>
<path d="M195.787 171.483L198.877 177.539C199.03 177.834 199.094 178.166 199.063 178.496C199.031 178.825 198.905 179.139 198.7 179.399C197.848 180.465 196.071 181.899 193.039 180.974C192.595 180.84 192.195 180.591 191.877 180.253C191.56 179.915 191.336 179.5 191.229 179.048L189.628 172.288L195.787 171.483Z" fill="white" stroke="#222221" stroke-width="0.5"/>
<path d="M217.866 199.454C218.394 195.772 208.666 188.636 208.666 188.636L212.073 178.302C212.073 178.302 230.638 191.55 226.734 202.369C226.174 203.92 225.339 205.05 224.322 205.851C222.355 201.822 219.689 200.147 217.866 199.454Z" fill="#1988FF"/>
<path d="M204.293 200.475C204.293 200.475 215.297 203.548 217.581 200.199C217.732 199.976 217.829 199.721 217.866 199.454C219.689 200.147 222.355 201.822 224.322 205.854C219.096 209.964 209.022 205.357 206.284 203.975C205.835 203.748 205.315 203.705 204.835 203.854C203.864 204.158 202.174 204.63 201.234 204.581C199.859 204.505 198.383 209.475 196.042 208.22C196.042 208.214 197.106 199.723 204.293 200.475Z" fill="white" stroke="#222221" stroke-width="0.5"/>
<path d="M191.825 161.585C191.727 161.666 187.65 168.791 185.575 172.421C185.425 172.682 185.333 172.972 185.304 173.272C185.274 173.571 185.309 173.874 185.404 174.159C185.5 174.444 185.655 174.706 185.859 174.927C186.063 175.149 186.312 175.324 186.589 175.443L187.488 175.827C188.716 176.355 191.358 176.798 192.398 175.955L198.953 169.037C198.953 169.037 194.03 159.677 191.825 161.585Z" fill="white" stroke="#222221" stroke-width="0.5"/>
<path d="M200.799 167.149C201.602 166.698 202.569 165.784 201.817 164.166C201.052 162.522 199.54 162.379 198.567 162.484C198.377 162.503 198.186 162.455 198.028 162.348C197.87 162.24 197.755 162.081 197.702 161.897C197.638 161.681 197.478 161.493 197.132 161.436C197.022 161.417 196.918 161.375 196.825 161.312C196.732 161.25 196.654 161.169 196.594 161.075C196.535 160.98 196.495 160.874 196.479 160.764C196.463 160.653 196.47 160.541 196.5 160.433C196.733 159.559 196.693 158.372 195.287 157.522C192.792 156.011 190.46 158.205 189.811 160.109C189.162 162.014 191.96 163.501 193.746 163.803C195.104 164.034 195.767 165.6 196.006 166.337C196.043 166.453 196.054 166.575 196.037 166.695C196.021 166.815 195.977 166.93 195.911 167.031L193.918 170.059C194.466 170.749 194.951 171.477 195.43 172.214C195.61 172.021 195.767 171.86 195.889 171.748C196.754 170.955 198.294 171.364 198.927 171.586C199.03 171.622 199.139 171.636 199.247 171.628C199.355 171.62 199.46 171.59 199.557 171.54C200.246 171.184 201.64 170.182 200.498 168.286C200.441 168.192 200.403 168.088 200.387 167.979C200.371 167.871 200.378 167.76 200.406 167.654C200.434 167.548 200.483 167.448 200.551 167.361C200.618 167.275 200.703 167.203 200.799 167.149Z" fill="black"/>
<path d="M194.706 173.51C194.706 173.51 195.98 170.236 197.428 170.419C198.875 170.601 199.959 172.097 198.091 173.648C195.768 175.579 194.706 173.51 194.706 173.51Z" fill="white" stroke="#222221" stroke-width="0.5"/>
<path d="M190.24 207.483H190.181L164.471 207.455C164.171 207.447 163.886 207.323 163.677 207.108C163.467 206.893 163.35 206.604 163.35 206.304C163.35 206.004 163.467 205.716 163.677 205.501C163.886 205.286 164.171 205.161 164.471 205.153L190.185 205.181C190.489 205.177 190.781 205.292 191 205.502C191.218 205.713 191.345 206.001 191.353 206.304C191.36 206.607 191.248 206.901 191.04 207.121C190.832 207.342 190.545 207.472 190.242 207.482L190.24 207.483Z" fill="url(#paint10_linear_5_4098)"/>
<path d="M141.359 184.139H162.771C163.544 184.139 164.302 184.359 164.956 184.774C165.609 185.188 166.131 185.78 166.461 186.48L176.361 207.469H149.751C149.254 207.469 148.768 207.32 148.356 207.04C147.945 206.76 147.627 206.363 147.445 205.9L139.769 186.478C139.666 186.219 139.629 185.938 139.659 185.661C139.69 185.384 139.788 185.118 139.945 184.888C140.102 184.657 140.313 184.468 140.559 184.338C140.806 184.208 141.08 184.139 141.359 184.139Z" fill="url(#paint11_linear_5_4098)"/>
<path d="M156.443 194.901C156.907 196.342 156.564 197.743 155.678 198.028C154.792 198.314 153.696 197.377 153.232 195.935C152.768 194.493 153.111 193.093 153.998 192.808C154.885 192.522 155.984 193.46 156.443 194.901Z" fill="#814EFF"/>
<path d="M144.83 262.626C144.683 262.626 144.539 262.597 144.404 262.54C144.275 262.489 144.157 262.413 144.058 262.315C143.96 262.218 143.881 262.102 143.829 261.973C143.776 261.845 143.749 261.707 143.751 261.569C143.752 261.43 143.782 261.293 143.838 261.166L166.496 210.171C166.616 209.913 166.83 209.712 167.095 209.61C167.36 209.508 167.655 209.513 167.916 209.623C168.045 209.674 168.162 209.751 168.261 209.848C168.36 209.946 168.438 210.062 168.491 210.19C168.544 210.319 168.57 210.456 168.568 210.595C168.567 210.734 168.538 210.871 168.482 210.998L145.823 261.995C145.736 262.184 145.596 262.345 145.42 262.457C145.243 262.569 145.039 262.628 144.83 262.626Z" fill="#91B3FA"/>
<path d="M170.356 262.626C170.147 262.628 169.942 262.569 169.766 262.457C169.59 262.344 169.45 262.183 169.363 261.993L146.704 210.997C146.649 210.87 146.619 210.733 146.618 210.594C146.616 210.456 146.643 210.318 146.696 210.19C146.749 210.061 146.827 209.945 146.925 209.848C147.024 209.75 147.141 209.674 147.27 209.622C147.531 209.512 147.826 209.507 148.09 209.609C148.355 209.712 148.57 209.912 148.689 210.17L171.348 261.167C171.403 261.294 171.433 261.431 171.434 261.569C171.435 261.708 171.409 261.846 171.356 261.974C171.303 262.102 171.225 262.218 171.127 262.316C171.028 262.413 170.911 262.49 170.782 262.541C170.647 262.597 170.502 262.626 170.356 262.626Z" fill="#91B3FA"/>
<path d="M214.969 262.626C214.822 262.626 214.677 262.597 214.542 262.54C214.413 262.489 214.296 262.413 214.197 262.315C214.098 262.218 214.02 262.102 213.967 261.973C213.915 261.845 213.888 261.707 213.89 261.569C213.891 261.43 213.92 261.293 213.976 261.166L236.635 210.17C236.754 209.912 236.969 209.711 237.234 209.609C237.499 209.507 237.793 209.512 238.054 209.622C238.184 209.673 238.301 209.75 238.4 209.847C238.499 209.945 238.577 210.061 238.63 210.189C238.682 210.318 238.709 210.455 238.707 210.594C238.706 210.733 238.676 210.87 238.621 210.997L215.962 261.995C215.875 262.184 215.735 262.345 215.559 262.457C215.383 262.569 215.178 262.628 214.969 262.626Z" fill="#91B3FA"/>
<path d="M240.495 262.626C240.286 262.628 240.081 262.569 239.905 262.457C239.728 262.344 239.589 262.183 239.502 261.993L216.843 210.997C216.787 210.87 216.758 210.733 216.756 210.594C216.755 210.456 216.781 210.318 216.834 210.19C216.887 210.061 216.965 209.945 217.064 209.848C217.162 209.75 217.28 209.674 217.409 209.622C217.67 209.512 217.964 209.507 218.229 209.609C218.494 209.712 218.708 209.912 218.828 210.17L241.487 261.166C241.543 261.293 241.572 261.43 241.573 261.569C241.575 261.707 241.548 261.845 241.495 261.973C241.443 262.101 241.365 262.218 241.266 262.315C241.167 262.413 241.05 262.489 240.921 262.54C240.786 262.597 240.641 262.626 240.495 262.626Z" fill="#91B3FA"/>
<path d="M243.154 208.596C243.183 208.433 243.179 208.265 243.142 208.103C243.105 207.941 243.036 207.788 242.939 207.653C242.85 207.527 242.732 207.424 242.595 207.351C242.459 207.279 242.307 207.24 242.153 207.238H139.071C138.867 207.242 138.668 207.301 138.494 207.407C138.321 207.514 138.179 207.665 138.082 207.844C137.976 208.035 137.913 208.247 137.9 208.465C137.887 208.682 137.923 208.901 138.006 209.102L139.122 211.809C139.379 212.429 139.931 212.826 140.542 212.826H241.444C242.01 212.826 242.495 212.376 242.607 211.752L243.154 208.596Z" fill="#91B3FA"/>
</g>
<defs>
<linearGradient id="paint0_linear_5_4098" x1="290.215" y1="328.734" x2="89.6411" y2="79.6334" gradientUnits="userSpaceOnUse">
<stop stop-color="#DAE3FE"/>
<stop offset="1" stop-color="#E9EFFD"/>
</linearGradient>
<linearGradient id="paint1_linear_5_4098" x1="198.877" y1="61.8122" x2="31.9415" y2="283.446" gradientUnits="userSpaceOnUse">
<stop stop-color="#1988FF"/>
<stop offset="1" stop-color="#4042E2"/>
</linearGradient>
<linearGradient id="paint2_linear_5_4098" x1="198.877" y1="61.8121" x2="31.9427" y2="283.445" gradientUnits="userSpaceOnUse">
<stop stop-color="#1988FF"/>
<stop offset="1" stop-color="#4042E2"/>
</linearGradient>
<linearGradient id="paint3_linear_5_4098" x1="149.425" y1="28.2405" x2="140.133" y2="101.487" gradientUnits="userSpaceOnUse">
<stop stop-color="#FF928E"/>
<stop offset="1" stop-color="#FE7062"/>
</linearGradient>
<linearGradient id="paint4_linear_5_4098" x1="114.563" y1="142.245" x2="189.264" y2="97.0552" gradientUnits="userSpaceOnUse">
<stop stop-color="#09005D"/>
<stop offset="1" stop-color="#1A0F91"/>
</linearGradient>
<linearGradient id="paint5_linear_5_4098" x1="139.745" y1="142.231" x2="192.623" y2="98.3722" gradientUnits="userSpaceOnUse">
<stop stop-color="#09005D"/>
<stop offset="1" stop-color="#1A0F91"/>
</linearGradient>
<linearGradient id="paint6_linear_5_4098" x1="97.0879" y1="153.83" x2="83.7505" y2="183.37" gradientUnits="userSpaceOnUse">
<stop stop-color="#FEBBBA"/>
<stop offset="1" stop-color="#FF928E"/>
</linearGradient>
<linearGradient id="paint7_linear_5_4098" x1="101.448" y1="143.709" x2="106.967" y2="135.394" gradientUnits="userSpaceOnUse">
<stop stop-color="#FEBBBA"/>
<stop offset="1" stop-color="#FF928E"/>
</linearGradient>
<linearGradient id="paint8_linear_5_4098" x1="70.4249" y1="168.256" x2="83.9961" y2="224.802" gradientUnits="userSpaceOnUse">
<stop stop-color="white"/>
<stop offset="1" stop-color="#1A0F91"/>
</linearGradient>
<linearGradient id="paint9_linear_5_4098" x1="243.286" y1="139.084" x2="251.135" y2="156.077" gradientUnits="userSpaceOnUse">
<stop stop-color="#FEBBBA"/>
<stop offset="1" stop-color="#FF928E"/>
</linearGradient>
<linearGradient id="paint10_linear_5_4098" x1="194.575" y1="200.675" x2="174.166" y2="207.368" gradientUnits="userSpaceOnUse">
<stop stop-color="#1988FF"/>
<stop offset="1" stop-color="#1A0F91"/>
</linearGradient>
<linearGradient id="paint11_linear_5_4098" x1="166.566" y1="187.27" x2="151.868" y2="202.804" gradientUnits="userSpaceOnUse">
<stop stop-color="#1988FF"/>
<stop offset="1" stop-color="#1A0F91"/>
</linearGradient>
<clipPath id="clip0_5_4098">
<rect width="300" height="300" fill="white"/>
</clipPath>
</defs>
</svg>
