<svg width="300" height="300" viewBox="0 0 300 300" fill="none" xmlns="http://www.w3.org/2000/svg">
<path d="M112.032 49.752C109.716 42.672 103.686 37.71 95.0521 39.156C88.9921 40.176 83.7481 43.956 79.4521 48.348C75.1561 52.74 71.5141 57.732 67.1821 62.082C62.1061 67.176 56.1181 71.286 50.9821 76.344C48.1741 79.122 45.5821 82.344 44.5921 86.148C43.3021 91.212 45.6661 95.748 49.9921 98.352C67.9081 109.014 94.3561 90.174 105.042 76.374C109.338 70.83 112.842 64.302 113.046 57.294C113.146 54.7403 112.803 52.1885 112.032 49.752Z" fill="#E6E6E6"/>
<path d="M129.444 101.004C119.916 104.232 109.602 105.438 99.816 107.232C87.216 109.536 74.736 112.998 63.438 119.01C21.714 141.21 17.724 194.01 43.638 230.322C57.612 249.882 79.638 264.72 102.468 271.914C115.344 275.97 128.934 277.314 142.434 277.638C157.266 278.016 172.23 277.23 186.612 273.594C229.65 262.716 264.06 225.204 273.822 181.896C279.57 156.402 278.364 128.28 270.93 103.164C265.41 84.51 254.772 66.762 238.53 56.034C227.91 49.008 214.782 45.456 202.068 46.674C187.548 48.066 177.702 56.418 167.238 65.796C157.038 74.928 152.13 88.98 140.136 96.144C136.753 98.1361 133.169 99.7651 129.444 101.004Z" fill="#E6E6E6"/>
<path d="M180.36 238.056C179.832 237.4 179.566 236.572 179.611 235.732C179.657 234.891 180.011 234.097 180.606 233.502C181.201 232.907 181.995 232.553 182.836 232.507C183.676 232.462 184.504 232.728 185.16 233.256" fill="black"/>
<path d="M61.8001 66.45C61.806 67.0214 61.6419 67.5816 61.3285 68.0594C61.0152 68.5372 60.5668 68.911 60.0404 69.1332C59.514 69.3555 58.9333 69.4161 58.3724 69.3074C57.8114 69.1987 57.2955 68.9256 56.8902 68.5228C56.4849 68.1201 56.2085 67.6059 56.0963 67.0456C55.9841 66.4853 56.0411 65.9044 56.26 65.3766C56.4789 64.8488 56.8499 64.398 57.3257 64.0817C57.8015 63.7653 58.3607 63.5977 58.9321 63.6C59.6886 63.6031 60.4136 63.9038 60.9503 64.4371C61.4869 64.9704 61.7922 65.6935 61.8001 66.45Z" stroke="black" stroke-width="0.5" stroke-miterlimit="10"/>
<path d="M46.3861 231.036C47.4633 230.534 48.6652 230.364 49.8394 230.546C51.0136 230.728 52.1073 231.255 52.9817 232.06C53.8561 232.865 54.4719 233.911 54.7511 235.066C55.0302 236.221 54.9601 237.433 54.5496 238.548C54.1391 239.663 53.4067 240.631 52.4454 241.329C51.484 242.028 50.3369 242.425 49.1494 242.471C47.962 242.516 46.7878 242.208 45.7756 241.586C44.7635 240.963 43.9589 240.054 43.4641 238.974C42.804 237.533 42.7408 235.89 43.2883 234.402C43.8358 232.915 44.9494 231.705 46.3861 231.036Z" stroke="black" stroke-width="0.5" stroke-miterlimit="10"/>
<path d="M41.574 243.636C41.8273 243.519 42.1094 243.48 42.3848 243.524C42.6601 243.568 42.9164 243.692 43.1211 243.881C43.3259 244.07 43.4699 244.316 43.535 244.587C43.6002 244.858 43.5834 245.143 43.487 245.404C43.3906 245.666 43.2188 245.893 42.9933 246.057C42.7678 246.221 42.4988 246.314 42.2202 246.325C41.9416 246.337 41.666 246.265 41.4281 246.119C41.1903 245.974 41.001 245.761 40.884 245.508C40.7287 245.168 40.7141 244.78 40.8434 244.43C40.9726 244.079 41.2353 243.794 41.574 243.636Z" fill="black"/>
<path d="M190.926 230.484L172.47 248.946" stroke="black" stroke-width="0.5" stroke-miterlimit="10"/>
<path d="M198.282 227.346L179.82 245.802" stroke="black" stroke-width="0.5" stroke-miterlimit="10"/>
<path d="M73.668 61.338L58.944 76.0619" stroke="black" stroke-width="0.5" stroke-miterlimit="10"/>
<path d="M195.714 65.646C196.456 65.646 197.058 65.0443 197.058 64.302C197.058 63.5597 196.456 62.958 195.714 62.958C194.972 62.958 194.37 63.5597 194.37 64.302C194.37 65.0443 194.972 65.646 195.714 65.646Z" fill="black"/>
<path d="M23.514 154.128L26.328 148.566L30.198 154.128L33.288 148.566L36.378 154.128L39.618 148.566L43.002 154.128L45.942 148.566" stroke="black" stroke-width="0.5" stroke-miterlimit="10"/>
<path d="M196.296 171.546L178.062 190.494" stroke="#222221" stroke-width="0.5" stroke-miterlimit="10"/>
<path d="M205.05 168.072L171.432 201.276" stroke="#222221" stroke-width="0.5" stroke-miterlimit="10"/>
<path d="M278.904 154.26V76.2H160.104V154.26C160.104 154.578 160.23 154.883 160.455 155.108C160.681 155.334 160.986 155.46 161.304 155.46H277.68C277.84 155.463 277.998 155.434 278.147 155.376C278.295 155.317 278.43 155.229 278.544 155.117C278.658 155.005 278.749 154.872 278.81 154.725C278.872 154.578 278.904 154.42 278.904 154.26Z" fill="white" stroke="#222221" stroke-width="0.5" stroke-miterlimit="10"/>
<path d="M279.174 79.2V74.724C279.174 73.284 277.842 72.12 276.174 72.12H162.774C161.13 72.12 159.774 73.284 159.774 74.724V79.2H279.174Z" fill="#1988FF" stroke="black" stroke-width="0.5" stroke-miterlimit="10"/>
<path d="M211.134 86.916H198.276V97.542H211.134V86.916Z" fill="white" stroke="#222221" stroke-width="0.5" stroke-miterlimit="10"/>
<path d="M225.762 86.916H212.904V97.542H225.762V86.916Z" fill="white" stroke="#222221" stroke-width="0.5" stroke-miterlimit="10"/>
<path d="M240.39 86.916H227.532V97.542H240.39V86.916Z" fill="white" stroke="#222221" stroke-width="0.5" stroke-miterlimit="10"/>
<path d="M255.024 86.916H242.166V97.542H255.024V86.916Z" fill="white" stroke="#222221" stroke-width="0.5" stroke-miterlimit="10"/>
<path d="M269.652 86.916H256.794V97.542H269.652V86.916Z" fill="white" stroke="#222221" stroke-width="0.5" stroke-miterlimit="10"/>
<path d="M181.878 99.66H169.02V110.286H181.878V99.66Z" fill="white" stroke="#222221" stroke-width="0.5" stroke-miterlimit="10"/>
<path d="M196.506 99.66H183.648V110.286H196.506V99.66Z" fill="white" stroke="#222221" stroke-width="0.5" stroke-miterlimit="10"/>
<path d="M211.134 99.66H198.276V110.286H211.134V99.66Z" fill="white" stroke="#222221" stroke-width="0.5" stroke-miterlimit="10"/>
<path d="M225.762 99.66H212.904V110.286H225.762V99.66Z" fill="white" stroke="#222221" stroke-width="0.5" stroke-miterlimit="10"/>
<path d="M240.39 99.66H227.532V110.286H240.39V99.66Z" fill="white" stroke="#222221" stroke-width="0.5" stroke-miterlimit="10"/>
<path d="M255.024 99.66H242.166V110.286H255.024V99.66Z" fill="white" stroke="#222221" stroke-width="0.5" stroke-miterlimit="10"/>
<path d="M269.652 99.66H256.794V110.286H269.652V99.66Z" fill="white" stroke="#222221" stroke-width="0.5" stroke-miterlimit="10"/>
<path d="M181.878 112.398H169.02V123.024H181.878V112.398Z" fill="white" stroke="#222221" stroke-width="0.5" stroke-miterlimit="10"/>
<path d="M196.506 112.398H183.648V123.024H196.506V112.398Z" fill="white" stroke="#222221" stroke-width="0.5" stroke-miterlimit="10"/>
<path d="M211.134 112.398H198.276V123.024H211.134V112.398Z" fill="white" stroke="#222221" stroke-width="0.5" stroke-miterlimit="10"/>
<path d="M225.762 112.398H212.904V123.024H225.762V112.398Z" fill="white" stroke="#222221" stroke-width="0.5" stroke-miterlimit="10"/>
<path d="M240.39 112.398H227.532V123.024H240.39V112.398Z" fill="white" stroke="#222221" stroke-width="0.5" stroke-miterlimit="10"/>
<path d="M255.024 112.398H242.166V123.024H255.024V112.398Z" fill="white" stroke="#222221" stroke-width="0.5" stroke-miterlimit="10"/>
<path d="M269.652 112.398H256.794V123.024H269.652V112.398Z" fill="white" stroke="#222221" stroke-width="0.5" stroke-miterlimit="10"/>
<path d="M181.878 125.136H169.02V135.762H181.878V125.136Z" fill="white" stroke="#222221" stroke-width="0.5" stroke-miterlimit="10"/>
<path d="M196.506 125.136H183.648V135.762H196.506V125.136Z" fill="white" stroke="#222221" stroke-width="0.5" stroke-miterlimit="10"/>
<path d="M211.134 125.136H198.276V135.762H211.134V125.136Z" fill="white" stroke="#222221" stroke-width="0.5" stroke-miterlimit="10"/>
<path d="M225.762 125.136H212.904V135.762H225.762V125.136Z" fill="white" stroke="#222221" stroke-width="0.5" stroke-miterlimit="10"/>
<path d="M240.39 125.136H227.532V135.762H240.39V125.136Z" fill="white" stroke="#222221" stroke-width="0.5" stroke-miterlimit="10"/>
<path d="M255.024 125.136H242.166V135.762H255.024V125.136Z" fill="white" stroke="#222221" stroke-width="0.5" stroke-miterlimit="10"/>
<path d="M269.652 125.136H256.794V135.762H269.652V125.136Z" fill="white" stroke="#222221" stroke-width="0.5" stroke-miterlimit="10"/>
<path d="M181.878 137.88H169.02V148.506H181.878V137.88Z" fill="white" stroke="#222221" stroke-width="0.5" stroke-miterlimit="10"/>
<path d="M196.506 137.88H183.648V148.506H196.506V137.88Z" fill="white" stroke="#222221" stroke-width="0.5" stroke-miterlimit="10"/>
<path d="M211.134 137.88H198.276V148.506H211.134V137.88Z" fill="white" stroke="#222221" stroke-width="0.5" stroke-miterlimit="10"/>
<path d="M225.762 137.88H212.904V148.506H225.762V137.88Z" fill="white" stroke="#222221" stroke-width="0.5" stroke-miterlimit="10"/>
<path d="M215.586 106.974L221.538 102.348" stroke="#050504" stroke-width="0.5" stroke-miterlimit="10"/>
<path d="M221.238 107.292L216.174 102.6" stroke="#050504" stroke-width="0.5" stroke-miterlimit="10"/>
<path d="M186.228 132L192.186 127.374" stroke="#050504" stroke-width="0.5" stroke-miterlimit="10"/>
<path d="M191.886 132.288L186.816 127.59" stroke="#050504" stroke-width="0.5" stroke-miterlimit="10"/>
<path d="M231 132.09L236.952 127.464" stroke="#050504" stroke-width="0.5" stroke-miterlimit="10"/>
<path d="M236.64 132.408L231.6 127.71" stroke="#050504" stroke-width="0.5" stroke-miterlimit="10"/>
<path d="M201 116.808C201.42 116.808 204.168 120.156 204.168 120.156L208.674 113.802" stroke="#050504" stroke-width="0.5" stroke-miterlimit="10"/>
<path d="M244.338 103.89C244.752 103.89 247.5 107.238 247.5 107.238L252 100.884" stroke="#050504" stroke-width="0.5" stroke-miterlimit="10"/>
<path d="M244.338 116.628C244.752 116.628 247.5 119.982 247.5 119.982L252.012 113.622" stroke="#050504" stroke-width="0.5" stroke-miterlimit="10"/>
<path d="M171.6 103.686C172.02 103.686 174.768 107.034 174.768 107.034L179.274 100.68" stroke="#050504" stroke-width="0.5" stroke-miterlimit="10"/>
<path d="M215.496 143.022C215.916 143.022 218.664 146.37 218.664 146.37L223.2 140.016" stroke="#050504" stroke-width="0.5" stroke-miterlimit="10"/>
<path d="M265.116 117.846C265.116 118.269 264.991 118.682 264.756 119.033C264.521 119.385 264.187 119.658 263.796 119.82C263.405 119.981 262.976 120.023 262.561 119.94C262.147 119.858 261.766 119.654 261.468 119.354C261.169 119.055 260.966 118.674 260.884 118.259C260.803 117.844 260.846 117.415 261.008 117.024C261.171 116.634 261.446 116.301 261.798 116.067C262.15 115.833 262.563 115.709 262.986 115.71C263.552 115.712 264.093 115.937 264.493 116.338C264.892 116.738 265.116 117.281 265.116 117.846Z" fill="#F65E59" stroke="black" stroke-width="0.5" stroke-miterlimit="10"/>
<path d="M250.488 130.584C250.489 131.007 250.365 131.421 250.131 131.773C249.896 132.125 249.563 132.4 249.172 132.562C248.782 132.725 248.352 132.767 247.937 132.685C247.522 132.603 247.141 132.399 246.842 132.1C246.543 131.801 246.339 131.42 246.257 131.005C246.175 130.59 246.217 130.16 246.38 129.77C246.542 129.379 246.817 129.046 247.169 128.811C247.521 128.577 247.935 128.453 248.358 128.454C248.923 128.454 249.465 128.678 249.864 129.078C250.264 129.477 250.488 130.019 250.488 130.584Z" fill="#F65E59" stroke="black" stroke-width="0.5" stroke-miterlimit="10"/>
<path d="M177.6 117.846C177.6 118.269 177.475 118.682 177.24 119.033C177.005 119.385 176.671 119.658 176.28 119.82C175.889 119.981 175.46 120.023 175.045 119.94C174.631 119.858 174.25 119.654 173.952 119.354C173.653 119.055 173.45 118.674 173.368 118.259C173.287 117.844 173.33 117.415 173.492 117.024C173.655 116.634 173.93 116.301 174.282 116.067C174.634 115.833 175.047 115.709 175.47 115.71C176.036 115.712 176.577 115.937 176.977 116.338C177.376 116.738 177.6 117.281 177.6 117.846Z" fill="#F65E59" stroke="black" stroke-width="0.5" stroke-miterlimit="10"/>
<path d="M184.278 49.104H76.8061C74.1849 49.104 72.0601 51.2289 72.0601 53.85V208.482C72.0601 211.103 74.1849 213.228 76.8061 213.228H184.278C186.899 213.228 189.024 211.103 189.024 208.482V53.85C189.024 51.2289 186.899 49.104 184.278 49.104Z" fill="white" stroke="#222221" stroke-width="0.5" stroke-miterlimit="10"/>
<path d="M185.142 214.2H75.942C74.6719 214.191 73.4565 213.682 72.5583 212.784C71.6602 211.886 71.1514 210.67 71.142 209.4V52.986C71.1514 51.7158 71.6602 50.5004 72.5583 49.6023C73.4565 48.7041 74.6719 48.1954 75.942 48.186H185.142C186.413 48.1938 187.629 48.7021 188.527 49.6006C189.426 50.499 189.934 51.7154 189.942 52.986V209.346C189.948 210.626 189.446 211.856 188.546 212.766C187.646 213.676 186.422 214.192 185.142 214.2ZM75.942 50.076C75.1623 50.076 74.4145 50.3857 73.8631 50.9371C73.3118 51.4884 73.002 52.2362 73.002 53.016V209.376C73.002 210.156 73.3118 210.904 73.8631 211.455C74.4145 212.006 75.1623 212.316 75.942 212.316H185.142C185.921 212.314 186.668 212.004 187.219 211.453C187.77 210.902 188.08 210.155 188.082 209.376V52.986C188.08 52.2067 187.77 51.4598 187.219 50.9088C186.668 50.3578 185.921 50.0476 185.142 50.046L75.942 50.076Z" fill="#1988FF" stroke="black" stroke-width="0.5" stroke-miterlimit="10"/>
<path d="M167.934 84.108C171.029 84.108 173.538 81.599 173.538 78.504C173.538 75.409 171.029 72.9 167.934 72.9C164.839 72.9 162.33 75.409 162.33 78.504C162.33 81.599 164.839 84.108 167.934 84.108Z" fill="white" stroke="#222221" stroke-width="0.5" stroke-miterlimit="10"/>
<path d="M167.934 108.324C171.029 108.324 173.538 105.815 173.538 102.72C173.538 99.625 171.029 97.116 167.934 97.116C164.839 97.116 162.33 99.625 162.33 102.72C162.33 105.815 164.839 108.324 167.934 108.324Z" fill="white" stroke="#222221" stroke-width="0.5" stroke-miterlimit="10"/>
<path d="M170.098 131.537C172.955 130.346 174.305 127.064 173.113 124.208C171.922 121.351 168.641 120.001 165.784 121.193C162.928 122.384 161.578 125.666 162.769 128.522C163.96 131.379 167.242 132.729 170.098 131.537Z" fill="white" stroke="#222221" stroke-width="0.5" stroke-miterlimit="10"/>
<path d="M167.934 158.244C171.029 158.244 173.538 155.735 173.538 152.64C173.538 149.545 171.029 147.036 167.934 147.036C164.839 147.036 162.33 149.545 162.33 152.64C162.33 155.735 164.839 158.244 167.934 158.244Z" fill="white" stroke="#222221" stroke-width="0.5" stroke-miterlimit="10"/>
<path d="M167.112 82.1999L163.728 78.8159C163.584 78.6719 163.503 78.4766 163.503 78.273C163.503 78.0693 163.584 77.874 163.728 77.73C163.873 77.5856 164.069 77.5045 164.274 77.5045C164.479 77.5045 164.675 77.5856 164.82 77.73L166.692 79.6079L170.634 71.7239C170.679 71.6337 170.742 71.5532 170.818 71.4871C170.895 71.421 170.983 71.3707 171.079 71.3389C171.175 71.3071 171.276 71.2946 171.377 71.302C171.478 71.3094 171.576 71.3365 171.666 71.3819C171.756 71.4272 171.837 71.4898 171.903 71.5661C171.969 71.6425 172.019 71.7312 172.051 71.827C172.083 71.9229 172.095 72.0241 172.088 72.1248C172.081 72.2255 172.053 72.3238 172.008 72.414L167.112 82.1999Z" fill="#9DD1C9"/>
<path d="M167.112 106.032L163.728 102.642C163.584 102.498 163.503 102.303 163.503 102.099C163.503 101.895 163.584 101.7 163.728 101.556C163.873 101.412 164.069 101.331 164.274 101.331C164.479 101.331 164.675 101.412 164.82 101.556L166.692 103.434L170.634 95.556C170.679 95.4652 170.741 95.3841 170.817 95.3174C170.893 95.2507 170.982 95.1997 171.078 95.1674C171.174 95.1351 171.275 95.122 171.376 95.129C171.477 95.1359 171.575 95.1628 171.666 95.208C171.756 95.2532 171.837 95.3158 171.903 95.3922C171.969 95.4685 172.019 95.5572 172.051 95.653C172.083 95.7489 172.095 95.8501 172.088 95.9508C172.081 96.0515 172.053 96.1498 172.008 96.24L167.112 106.032Z" fill="#F65E59"/>
<path opacity="0.7" d="M83.712 76.728H144.456" stroke="black" stroke-width="0.5" stroke-miterlimit="10"/>
<path opacity="0.7" d="M83.712 80.784H150.378" stroke="black" stroke-width="0.5" stroke-miterlimit="10"/>
<path opacity="0.7" d="M83.712 84.84H122.022" stroke="black" stroke-width="0.5" stroke-miterlimit="10"/>
<path opacity="0.7" d="M83.712 123.36H128.184" stroke="black" stroke-width="0.5" stroke-miterlimit="10"/>
<path opacity="0.7" d="M83.712 127.416H139.278" stroke="black" stroke-width="0.5" stroke-miterlimit="10"/>
<path opacity="0.7" d="M83.712 131.472H122.022" stroke="black" stroke-width="0.5" stroke-miterlimit="10"/>
<path opacity="0.7" d="M83.712 149.004H134.184" stroke="black" stroke-width="0.5" stroke-miterlimit="10"/>
<path opacity="0.7" d="M83.712 153.06H127.278" stroke="black" stroke-width="0.5" stroke-miterlimit="10"/>
<path opacity="0.7" d="M83.712 157.116H122.022" stroke="black" stroke-width="0.5" stroke-miterlimit="10"/>
<path opacity="0.7" d="M83.712 99.7079H142.71" stroke="black" stroke-width="0.5" stroke-miterlimit="10"/>
<path opacity="0.7" d="M83.712 103.764H120.522" stroke="black" stroke-width="0.5" stroke-miterlimit="10"/>
<path opacity="0.7" d="M83.712 107.82H117.618" stroke="black" stroke-width="0.5" stroke-miterlimit="10"/>
<path d="M153.39 47.916H107.694V61.176H153.39V47.916Z" fill="#7696EA" stroke="black" stroke-width="0.5" stroke-miterlimit="10"/>
<path d="M216.102 144.948C216.548 145.392 217.07 145.751 217.644 146.01" stroke="#222221" stroke-width="0.5" stroke-miterlimit="10"/>
<path d="M156.96 198.684C165.539 198.684 172.494 191.85 172.494 183.42C172.494 174.99 165.539 168.156 156.96 168.156C148.381 168.156 141.426 174.99 141.426 183.42C141.426 191.85 148.381 198.684 156.96 198.684Z" fill="white" stroke="#222221" stroke-width="0.5" stroke-miterlimit="10"/>
<path d="M154.488 177C154.242 176.77 154.049 176.491 153.92 176.18C153.792 175.869 153.732 175.534 153.744 175.198C153.756 174.862 153.84 174.533 153.99 174.232C154.14 173.931 154.353 173.666 154.614 173.454C154.862 173.253 155.066 173.004 155.214 172.722C155.363 172.44 155.452 172.131 155.476 171.813C155.501 171.495 155.461 171.175 155.358 170.874C155.255 170.572 155.092 170.294 154.878 170.058L153.93 169.008C153.517 168.55 153.299 167.949 153.325 167.333C153.351 166.717 153.618 166.135 154.068 165.714L154.668 165.162C154.907 164.941 155.097 164.673 155.227 164.376C155.358 164.078 155.425 163.756 155.425 163.431C155.425 163.106 155.358 162.784 155.227 162.486C155.097 162.188 154.907 161.921 154.668 161.7" stroke="#050504" stroke-width="0.5" stroke-miterlimit="10"/>
<path d="M157.026 173.064C157.272 172.835 157.466 172.555 157.595 172.245C157.724 171.934 157.785 171.6 157.773 171.264C157.762 170.928 157.679 170.598 157.529 170.297C157.379 169.996 157.167 169.73 156.906 169.518C156.659 169.316 156.455 169.067 156.307 168.784C156.16 168.501 156.071 168.192 156.046 167.873C156.021 167.555 156.061 167.236 156.164 166.934C156.266 166.632 156.429 166.353 156.642 166.116L157.59 165.072C158.003 164.614 158.219 164.012 158.192 163.396C158.165 162.779 157.897 162.199 157.446 161.778L156.846 161.22C156.607 161 156.416 160.733 156.285 160.436C156.154 160.138 156.087 159.817 156.087 159.492C156.087 159.167 156.154 158.846 156.285 158.548C156.416 158.251 156.607 157.984 156.846 157.764" stroke="#050504" stroke-width="0.5" stroke-miterlimit="10"/>
<path d="M161.838 189.534C161.65 189.651 161.441 189.729 161.222 189.763C161.004 189.797 160.78 189.786 160.566 189.732C159.858 189.516 161.238 187.266 161.49 187.062C161.925 186.761 162.411 186.542 162.924 186.414L165 185.76C165.874 185.553 166.692 185.16 167.4 184.608C167.934 184.134 168.426 183.678 168.354 182.898C168.323 182.598 168.211 182.312 168.032 182.069C167.853 181.826 167.612 181.636 167.334 181.518C166.96 181.377 166.56 181.319 166.161 181.347C165.763 181.375 165.375 181.488 165.024 181.68C164.587 181.934 164.173 182.228 163.788 182.556L162.336 181.662C162.862 180.819 163.63 180.154 164.54 179.754C165.45 179.355 166.459 179.24 167.436 179.424C167.97 179.549 168.47 179.79 168.9 180.131C169.331 180.471 169.681 180.901 169.926 181.392C170.164 181.854 170.295 182.363 170.309 182.882C170.324 183.402 170.222 183.918 170.01 184.392C169.362 185.838 167.898 186.792 166.41 187.272C165.273 187.575 164.178 188.02 163.152 188.598C162.731 188.933 162.292 189.246 161.838 189.534Z" fill="#F65E59" stroke="black" stroke-width="0.5" stroke-miterlimit="10"/>
<path d="M148.692 178.536H164.292V184.902C164.292 186.843 163.521 188.705 162.148 190.078C160.775 191.451 158.913 192.222 156.972 192.222H155.934C154.009 192.222 152.162 191.457 150.8 190.096C149.439 188.734 148.674 186.887 148.674 184.962V178.536H148.692Z" fill="#FFC444" stroke="black" stroke-width="0.5" stroke-miterlimit="10"/>
<path d="M152.647 50.1257C159.018 43.7547 159.018 33.4252 152.647 27.0542C146.276 20.6832 135.947 20.6832 129.576 27.0542C123.205 33.4252 123.205 43.7547 129.576 50.1257C135.947 56.4967 146.276 56.4967 152.647 50.1257Z" fill="white" stroke="#222221" stroke-width="0.5" stroke-miterlimit="10"/>
<path d="M151.8 31.866H130.422V45.318H151.8V31.866Z" fill="#1988FF" stroke="black" stroke-width="0.5" stroke-miterlimit="10"/>
<path d="M151.8 31.866C151.8 31.866 141.894 37.956 141.114 38.592L130.422 31.866" stroke="white" stroke-width="0.5" stroke-miterlimit="10"/>
<path d="M43.2036 110.733C51.4638 107.134 55.2428 97.5208 51.6443 89.2607C48.0458 81.0005 38.4325 77.2214 30.1723 80.8199C21.9121 84.4184 18.1331 94.0318 21.7316 102.292C25.3301 110.552 34.9434 114.331 43.2036 110.733Z" fill="white" stroke="#222221" stroke-width="0.5" stroke-miterlimit="10"/>
<path d="M44.196 91.428C44.196 95.574 36.684 107.628 36.684 107.628C36.684 107.628 29.178 95.562 29.178 91.428C29.2864 89.5122 30.1238 87.7105 31.5184 86.3926C32.9131 85.0747 34.7591 84.3404 36.678 84.3404C38.5968 84.3404 40.4429 85.0747 41.8375 86.3926C43.2321 87.7105 44.0696 89.5122 44.178 91.428H44.196Z" fill="#1988FF" stroke="black" stroke-width="0.5" stroke-miterlimit="10"/>
<path d="M39.4441 90.972C39.4441 91.5178 39.2822 92.0515 38.9789 92.5053C38.6757 92.9592 38.2446 93.313 37.7403 93.5219C37.236 93.7308 36.681 93.7854 36.1456 93.6789C35.6102 93.5724 35.1185 93.3096 34.7325 92.9236C34.3465 92.5376 34.0836 92.0458 33.9771 91.5104C33.8706 90.975 33.9253 90.4201 34.1342 89.9158C34.3431 89.4114 34.6968 88.9804 35.1507 88.6771C35.6046 88.3738 36.1382 88.212 36.6841 88.212C37.4161 88.212 38.1181 88.5028 38.6357 89.0204C39.1533 89.538 39.4441 90.24 39.4441 90.972Z" fill="#1C0C00"/>
<path d="M117.714 108.21H66.048C65.2859 108.21 64.668 108.828 64.668 109.59V180.024C64.668 180.786 65.2859 181.404 66.048 181.404H117.714C118.476 181.404 119.094 180.786 119.094 180.024V109.59C119.094 108.828 118.476 108.21 117.714 108.21Z" fill="#1988FF" stroke="black" stroke-width="0.5" stroke-miterlimit="10"/>
<path d="M60.2161 118.794H69.7621" stroke="black" stroke-width="2" stroke-miterlimit="10" stroke-linecap="round"/>
<path d="M60.2161 129.528H69.7621" stroke="black" stroke-width="2" stroke-miterlimit="10" stroke-linecap="round"/>
<path d="M60.2161 140.268H69.7621" stroke="black" stroke-width="2" stroke-miterlimit="10" stroke-linecap="round"/>
<path d="M60.2161 151.002H69.7621" stroke="black" stroke-width="2" stroke-miterlimit="10" stroke-linecap="round"/>
<path d="M60.2161 161.736H69.7621" stroke="black" stroke-width="2" stroke-miterlimit="10" stroke-linecap="round"/>
<path d="M60.2161 172.47H69.7621" stroke="black" stroke-width="2" stroke-miterlimit="10" stroke-linecap="round"/>
<path d="M87.024 121.17H106.512" stroke="white" stroke-width="0.5" stroke-miterlimit="10"/>
<path d="M87.024 139.806H106.512" stroke="white" stroke-width="0.5" stroke-miterlimit="10"/>
<path d="M75.438 149.13H104.466" stroke="white" stroke-width="0.5" stroke-miterlimit="10"/>
<path d="M75.438 129.714H104.466" stroke="white" stroke-width="0.5" stroke-miterlimit="10"/>
<path d="M80.4661 120.954C80.4661 121.487 80.3081 122.008 80.012 122.451C79.716 122.894 79.2953 123.239 78.803 123.443C78.3107 123.647 77.7691 123.7 77.2465 123.596C76.7239 123.492 76.2439 123.236 75.8671 122.859C75.4904 122.482 75.2338 122.002 75.1298 121.48C75.0259 120.957 75.0792 120.415 75.2831 119.923C75.487 119.431 75.8323 119.01 76.2754 118.714C76.7184 118.418 77.2392 118.26 77.7721 118.26C78.4866 118.26 79.1718 118.544 79.677 119.049C80.1822 119.554 80.4661 120.24 80.4661 120.954Z" fill="#F65E59" stroke="black" stroke-width="0.5" stroke-miterlimit="10"/>
<path d="M113.178 130.272C113.178 130.805 113.02 131.326 112.724 131.769C112.427 132.212 112.006 132.558 111.514 132.762C111.021 132.965 110.479 133.018 109.956 132.914C109.434 132.809 108.953 132.552 108.577 132.175C108.2 131.797 107.944 131.317 107.841 130.794C107.738 130.271 107.792 129.729 107.997 129.237C108.202 128.745 108.548 128.324 108.992 128.029C109.436 127.734 109.957 127.577 110.49 127.578C111.203 127.58 111.887 127.864 112.391 128.369C112.895 128.874 113.178 129.559 113.178 130.272Z" fill="#9DD1C9" stroke="black" stroke-width="0.5" stroke-miterlimit="10"/>
<path d="M80.4661 139.59C80.4672 140.123 80.3103 140.645 80.015 141.088C79.7197 141.532 79.2993 141.878 78.8072 142.083C78.315 142.288 77.7731 142.342 77.2502 142.239C76.7272 142.136 76.2466 141.88 75.8692 141.503C75.4919 141.127 75.2347 140.647 75.1303 140.124C75.0258 139.601 75.0788 139.059 75.2826 138.566C75.4863 138.074 75.8316 137.653 76.2747 137.356C76.7179 137.06 77.239 136.902 77.7721 136.902C78.4855 136.902 79.1698 137.185 79.6749 137.689C80.1799 138.193 80.4645 138.877 80.4661 139.59Z" fill="#12002C"/>
<path d="M69.8281 108.21H117.666C118.045 108.21 118.408 108.36 118.676 108.628C118.944 108.896 119.094 109.259 119.094 109.638V115.332" stroke="#050504" stroke-width="0.5" stroke-miterlimit="10"/>
<path d="M114.54 148.914C114.54 149.447 114.382 149.968 114.086 150.411C113.789 150.854 113.368 151.2 112.876 151.403C112.383 151.607 111.841 151.66 111.318 151.556C110.796 151.451 110.315 151.194 109.939 150.817C109.562 150.439 109.306 149.959 109.203 149.436C109.1 148.913 109.154 148.371 109.359 147.879C109.564 147.387 109.91 146.966 110.354 146.671C110.798 146.376 111.319 146.219 111.852 146.22C112.206 146.219 112.556 146.288 112.883 146.424C113.21 146.559 113.507 146.757 113.757 147.008C114.006 147.258 114.204 147.555 114.339 147.883C114.473 148.21 114.542 148.56 114.54 148.914Z" fill="white" stroke="#222221" stroke-width="0.5" stroke-miterlimit="10"/>
<path d="M224.634 113.592C225.018 112.674 225.617 111.861 226.38 111.222C227.399 110.356 228.67 109.841 230.005 109.754C231.339 109.666 232.666 110.011 233.79 110.736C236.496 112.656 237.678 117.12 239.946 119.658C240.37 120.049 240.686 120.543 240.864 121.092C240.917 121.487 240.859 121.89 240.697 122.254C240.535 122.618 240.275 122.931 239.946 123.156C239.278 123.594 238.529 123.896 237.744 124.044C236.184 124.434 234.612 124.782 233.04 125.124C230.448 125.724 227.742 126.27 225.174 125.604C224.518 125.477 223.914 125.157 223.44 124.686C221.7 122.76 223.764 115.668 224.634 113.592Z" fill="black"/>
<path d="M212.634 238.638C213.762 247.812 215.112 256.98 216.468 266.238C219.522 266.082 220.608 263.49 221.1 260.298C222.132 253.56 222.69 246.048 223.218 238.62L212.634 238.638Z" fill="white" stroke="#222221" stroke-width="0.5" stroke-miterlimit="10"/>
<path d="M254.628 245.076C253.656 239.112 252.444 233.19 251.346 227.244H238.59C239.076 228.714 239.556 230.19 240.048 231.654C243.444 241.782 246.744 253.152 251.574 262.68C252.252 264.024 252.822 263.94 254.706 263.466C256.74 262.956 256.632 262.38 256.404 260.85C255.678 256.008 255.42 249.912 254.628 245.076Z" fill="white" stroke="#222221" stroke-width="0.5" stroke-miterlimit="10"/>
<path d="M250.482 191.592C251.01 194.88 251.454 198.192 251.862 201.516C254.062 219.372 255.902 237.268 257.382 255.204C253.236 254.791 249.05 255.299 245.124 256.692C240.252 243.492 236.724 229.758 233.292 216.048C230.544 205.704 227.532 195.558 227.448 184.728C227.634 209.412 227.448 234.15 224.748 258.678C220.765 257.103 216.437 256.611 212.202 257.25C211.356 257.382 207.78 212.304 207.696 208.05C207.366 191.892 208.116 174.498 213.546 159.132C214.368 156.804 215.49 154.506 217.296 152.922C218.983 151.571 221.009 150.709 223.152 150.432C226.326 149.922 229.752 150.33 232.104 151.59C234.798 153.042 236.904 155.472 238.704 158.082C245.538 168.216 248.58 179.742 250.482 191.592Z" fill="#37474F" stroke="black" stroke-width="0.5" stroke-miterlimit="10"/>
<path d="M203.202 140.82C203.73 140.82 204.264 140.862 204.798 140.874C207.558 141.008 210.323 140.729 213 140.046C214.884 139.531 216.643 138.634 218.166 137.412C219.612 136.212 219.966 134.97 220.254 133.146C220.471 132.029 220.416 130.877 220.092 129.786C218.772 125.886 214.422 127.386 211.572 128.346C208.791 129.277 205.934 129.965 203.034 130.404C197.898 131.178 192.534 129.612 187.914 127.446C184.937 126.073 182.108 124.398 179.472 122.448C177.564 121.014 176.328 118.14 173.88 117.648C172.909 117.513 171.923 117.513 170.952 117.648C170.195 117.671 169.448 117.825 168.744 118.104C167.544 118.668 166.86 120.132 168.324 120.876C169.638 121.548 171.588 120.924 173.016 121.242C173.199 121.261 173.367 121.351 173.484 121.494C173.515 121.56 173.532 121.632 173.534 121.705C173.536 121.778 173.523 121.851 173.495 121.919C173.468 121.986 173.426 122.047 173.374 122.098C173.321 122.149 173.259 122.189 173.19 122.214C172.416 122.544 171.624 121.782 170.922 121.614C170.322 121.458 169.878 121.614 169.974 122.268C170.07 122.922 170.892 123.174 171.414 123.39C173.022 124.05 174.252 125.286 175.452 126.504C180.138 131.304 185.196 135.984 191.412 138.504C195.186 139.925 199.171 140.707 203.202 140.82Z" fill="white" stroke="#222221" stroke-width="0.5" stroke-miterlimit="10"/>
<path d="M227.508 124.44C227.52 124.509 227.52 124.58 227.508 124.65L227.382 124.596L227.508 124.44Z" fill="#522E97"/>
<path d="M241.512 151.98C241.44 149.142 241.374 146.31 241.296 143.472C241.236 141.472 241.174 139.472 241.11 137.472C240.918 131.898 240.738 126.072 234.39 124.656C225.84 122.712 216.192 124.098 208.176 127.512C208.776 128.784 210.87 140.334 211.134 142.17C212.28 142.392 215.004 141.57 215.832 141.396C215.61 141.396 215.514 141.678 215.478 141.894L213.12 156.96C213.12 156.996 223.956 157.776 224.958 157.788C229.218 157.824 233.472 157.572 237.708 157.188C239.064 157.068 240.39 156.87 241.734 156.648C241.553 155.099 241.479 153.539 241.512 151.98Z" fill="#1988FF" stroke="black" stroke-width="0.5" stroke-miterlimit="10"/>
<path d="M227.004 122.742C227.028 122.534 227.046 122.334 227.058 122.142C227.099 121.825 227.049 121.502 226.914 121.212C226.7 120.946 226.438 120.724 226.14 120.558C225.198 119.868 225.006 118.68 224.88 117.588C224.741 116.354 224.843 115.105 225.18 113.91C225.511 112.569 226.285 111.379 227.376 110.532C227.822 110.191 228.352 109.977 228.91 109.913C229.467 109.848 230.032 109.936 230.544 110.166C231.145 110.472 231.664 110.919 232.056 111.468C232.634 112.166 233.044 112.987 233.256 113.868C233.316 114.436 233.364 115.006 233.4 115.578C233.616 118.848 233.55 122.334 232.416 125.448C231.894 126.888 230.982 128.724 229.416 129.222C228.258 129.588 227.304 128.844 226.902 127.788C226.296 126.186 226.8 124.41 227.004 122.742Z" fill="white" stroke="#222221" stroke-width="0.5" stroke-miterlimit="10"/>
<path d="M226.8 109.05C227.631 108.859 228.491 108.833 229.332 108.972C231.111 109.263 232.732 110.17 233.91 111.534C234.798 112.566 236.232 114.72 235.002 115.896C234.636 116.244 233.466 116.988 233.01 116.694C232.77 116.538 232.776 115.914 232.56 115.68C232.26 115.344 231.612 115.368 231.396 114.972C231.12 114.468 231.396 113.25 231.396 112.68C230.718 112.8 230.544 113.802 229.896 114.024C229.65 114.09 229.392 114.09 229.146 114.024L223.512 113.04C223.492 112.357 223.656 111.681 223.986 111.083C224.317 110.484 224.801 109.985 225.39 109.638C225.826 109.369 226.302 109.171 226.8 109.05Z" fill="black"/>
<path d="M231 115.662C231.056 115.332 231.187 115.02 231.384 114.75C231.583 114.478 231.88 114.295 232.212 114.24C232.483 114.219 232.755 114.273 232.998 114.396C233.222 114.498 233.423 114.644 233.588 114.826C233.753 115.008 233.879 115.222 233.958 115.455C234.038 115.688 234.068 115.934 234.049 116.179C234.029 116.424 233.959 116.663 233.844 116.88C233.746 117.054 233.611 117.205 233.448 117.321C233.285 117.437 233.099 117.516 232.902 117.552C232.603 117.591 232.301 117.591 232.002 117.552" fill="white"/>
<path d="M231 115.662C231.056 115.332 231.187 115.02 231.384 114.75C231.583 114.478 231.88 114.295 232.212 114.24C232.483 114.219 232.755 114.273 232.998 114.396C233.222 114.498 233.423 114.644 233.588 114.826C233.753 115.008 233.879 115.222 233.958 115.455C234.038 115.688 234.068 115.934 234.049 116.179C234.029 116.424 233.959 116.663 233.844 116.88C233.746 117.054 233.611 117.205 233.448 117.321C233.285 117.437 233.099 117.516 232.902 117.552C232.603 117.591 232.301 117.591 232.002 117.552" stroke="#222221" stroke-width="0.5" stroke-miterlimit="10"/>
<path d="M226.584 120.648C227.184 120.785 227.8 120.834 228.414 120.792C228.18 121.08 227.994 121.392 227.766 121.68C227.472 121.954 227.219 122.269 227.016 122.616C227.016 122.346 227.016 122.082 227.016 121.812C227.017 121.585 226.97 121.36 226.878 121.152C226.712 120.886 226.47 120.677 226.182 120.552H226.152C226.302 120.558 226.44 120.6 226.584 120.648Z" fill="black"/>
<path d="M253.566 144.156C252.15 140.124 249.888 134.556 246.084 132.006C245.154 131.37 244.097 130.946 242.986 130.762C241.875 130.579 240.737 130.641 239.652 130.944C238.621 131.173 237.672 131.677 236.904 132.402C235.206 134.106 236.142 135.324 236.946 137.142C237.826 139.142 238.8 141.094 239.868 142.998C241.104 145.212 241.968 147.54 243.192 149.778C238.646 149.875 234.107 149.36 229.698 148.248C229.691 149.05 229.639 149.852 229.542 150.648C229.494 151.086 229.446 151.524 229.416 151.962C229.416 152.052 229.416 152.142 229.416 152.232V152.286C229.416 152.514 229.416 152.736 229.416 152.964C229.416 153.192 229.416 153.306 229.416 153.48L229.842 153.624C232.952 154.776 236.118 155.769 239.328 156.6C241.89 157.2 244.548 157.614 247.128 157.2C251.4 156.504 254.478 153.51 254.55 149.088C254.519 147.398 254.186 145.728 253.566 144.156Z" fill="white" stroke="#222221" stroke-width="0.5" stroke-miterlimit="10"/>
<path d="M232.722 115.278C232.424 115.292 232.138 115.401 231.906 115.59C231.688 115.881 231.587 116.243 231.624 116.604" fill="white"/>
<path d="M232.722 115.278C232.424 115.292 232.138 115.401 231.906 115.59C231.688 115.881 231.587 116.243 231.624 116.604" stroke="#222221" stroke-width="0.5" stroke-miterlimit="10"/>
<path d="M202.284 267.69C202.591 267.46 202.936 267.287 203.304 267.18C205.704 266.322 208.104 265.566 210.456 264.666C212.166 264.018 214.02 263.466 215.154 261.948L215.298 261.756C217.28 262.114 219.322 261.957 221.226 261.3C221.427 263.998 221.385 266.709 221.1 269.4C221.097 269.504 221.054 269.603 220.98 269.676C220.907 269.712 220.826 269.726 220.746 269.718H220.626C218.862 269.682 217.098 269.772 215.328 269.718C213.558 269.664 211.674 269.586 209.85 269.586C208.188 269.586 206.4 269.826 204.774 269.718C203.946 269.676 200.76 268.998 202.284 267.69Z" fill="#1988FF"/>
<path d="M241.278 271.896C241.649 271.341 242.131 270.868 242.694 270.51C244.224 269.412 245.856 268.452 247.302 267.246C248.811 266.098 249.956 264.54 250.602 262.758C250.658 262.544 250.749 262.341 250.872 262.158C250.927 262.095 250.992 262.04 251.064 261.996C251.603 262.131 252.163 262.153 252.711 262.06C253.258 261.967 253.78 261.761 254.244 261.456C255.108 260.97 255.942 260.256 256.872 259.836C257.03 260.45 257.139 261.076 257.196 261.708C257.31 262.434 257.52 263.154 257.7 263.862C257.796 264.228 258.9 268.098 258.81 268.14L258.36 268.314C255.018 269.586 251.604 270.714 248.196 271.914C246.624 272.46 245.016 273.276 243.444 273.714C242.952 273.852 241.74 274.158 241.29 273.87C240.726 273.486 241.02 272.334 241.278 271.896Z" fill="#1988FF"/>
<mask id="mask0_233_1042" style="mask-type:luminance" maskUnits="userSpaceOnUse" x="207" y="150" width="51" height="109">
<path d="M250.482 191.592C251.01 194.88 251.454 198.192 251.862 201.516C254.062 219.372 255.902 237.268 257.382 255.204C253.236 254.791 249.05 255.299 245.124 256.692C240.252 243.492 236.724 229.758 233.292 216.048C230.544 205.704 227.532 195.558 227.448 184.728C227.634 209.412 227.448 234.15 224.748 258.678C220.765 257.103 216.437 256.611 212.202 257.25C211.356 257.382 207.78 212.304 207.696 208.05C207.366 191.892 208.116 174.498 213.546 159.132C214.368 156.804 215.49 154.506 217.296 152.922C218.983 151.571 221.009 150.709 223.152 150.432C226.326 149.922 229.752 150.33 232.104 151.59C234.798 153.042 236.904 155.472 238.704 158.082C245.538 168.216 248.58 179.742 250.482 191.592Z" fill="white"/>
</mask>
<g mask="url(#mask0_233_1042)">
<path d="M253.23 222.258C251.232 223.432 249.383 224.842 247.722 226.458C246.786 227.448 246.006 229.068 246.936 230.058C247.226 230.304 247.567 230.481 247.935 230.578C248.302 230.675 248.687 230.688 249.06 230.616C251.616 230.37 253.86 228.9 255.984 227.442C257.418 226.452 258.918 225.366 259.614 223.77C262.314 217.572 255.294 220.926 253.23 222.258Z" fill="black"/>
<path d="M246.168 241.014C247.285 240.587 248.513 240.549 249.654 240.906C250.758 241.35 251.568 242.664 251.094 243.75C250.821 244.259 250.404 244.677 249.894 244.95C247.11 246.75 243.672 247.05 240.384 247.35C239.1 247.47 237.72 247.578 236.61 246.918C233.46 245.052 236.58 244.152 237.918 243.69C240.6 242.796 243.438 241.8 246.168 241.014Z" fill="black"/>
<path d="M224.4 156.894C225.078 156.294 225.684 155.604 226.41 155.052C227.934 154.026 229.688 153.393 231.516 153.21C231.715 153.153 231.924 153.136 232.13 153.16C232.336 153.183 232.535 153.247 232.716 153.348C232.904 153.546 233.028 153.797 233.071 154.067C233.114 154.337 233.074 154.613 232.956 154.86C232.487 155.993 231.72 156.978 230.736 157.71C229.614 158.67 228.42 159.51 227.22 160.404L224.676 162.252C224.387 162.486 224.06 162.668 223.71 162.792C223.134 162.913 222.535 162.845 222 162.6C221.313 162.397 220.721 161.954 220.332 161.352C219.282 159.408 223.332 157.848 224.4 156.894Z" fill="black"/>
<path d="M237.078 231.69C235.308 232.968 230.514 233.094 232.974 229.92C234.666 227.73 236.376 223.764 238.806 222.378C239.91 221.748 241.632 221.874 242.112 223.056C242.49 223.974 241.938 224.988 241.404 225.828L239.688 228.54C239.027 229.747 238.141 230.816 237.078 231.69Z" fill="black"/>
<path d="M243.114 214.554C243.072 215.184 243.084 215.934 243.612 216.276C243.796 216.373 243.998 216.429 244.205 216.439C244.413 216.449 244.62 216.414 244.812 216.336C247.02 215.616 247.776 212.91 248.028 210.6C248.16 209.4 248.25 208.164 248.286 206.94C248.37 204.498 246.486 200.832 244.086 203.652C242.526 205.518 243.282 212.16 243.114 214.554Z" fill="black"/>
<path d="M230.4 202.08C232.014 200.712 234.102 199.416 236.124 200.052C236.603 200.174 237.016 200.477 237.276 200.898C237.876 202.056 236.586 203.298 235.44 203.898C233.105 205.196 230.69 206.344 228.21 207.336C227.549 207.649 226.83 207.823 226.098 207.846C225.731 207.852 225.37 207.753 225.058 207.56C224.745 207.368 224.494 207.09 224.334 206.76C223.758 205.308 229.236 203.064 230.4 202.08Z" fill="black"/>
<path d="M240.432 187.038C238.962 187.638 237.84 189.438 238.632 190.812C239.358 192.042 241.122 192.168 242.544 191.91C244.248 191.604 245.886 190.962 247.614 190.824C249.894 190.638 255.822 188.304 251.214 186.024C249.54 185.214 242.112 186.33 240.432 187.038Z" fill="black"/>
<path d="M235.158 179.838C234.498 181.314 234.036 182.796 232.53 183.642C232.312 183.781 232.062 183.862 231.804 183.876C231.581 183.857 231.367 183.781 231.182 183.654C230.997 183.528 230.847 183.357 230.748 183.156C230.551 182.734 230.449 182.274 230.449 181.809C230.449 181.343 230.551 180.884 230.748 180.462C231.078 179.592 231.606 178.812 231.948 177.954C232.378 176.701 232.72 175.42 232.974 174.12C233.214 173.22 233.724 172.194 234.648 172.11C238.146 171.78 235.722 178.572 235.158 179.838Z" fill="black"/>
<path d="M243.03 175.2C241.77 175.884 240.246 176.868 240.48 178.278C240.6 178.736 240.864 179.144 241.234 179.44C241.603 179.736 242.059 179.905 242.532 179.922C243.48 179.932 244.416 179.701 245.25 179.25C246.55 178.655 247.8 177.957 248.988 177.162C250.542 176.13 254.7 171.606 251.04 170.19C249.336 169.53 244.692 174.294 243.03 175.2Z" fill="black"/>
<path d="M216.432 241.248C216.822 241.182 217.158 241.14 217.404 241.122C217.805 241.068 218.213 241.148 218.563 241.349C218.914 241.551 219.188 241.864 219.342 242.238C219.642 243.258 218.706 244.2 217.8 244.752C216.66 245.448 206.076 249.072 206.526 245.736C206.838 243.426 213.432 241.728 216.432 241.248Z" fill="black"/>
<path d="M211.608 228.858C211.608 229.554 211.77 230.358 212.382 230.694C212.612 230.803 212.867 230.851 213.121 230.834C213.376 230.816 213.621 230.732 213.834 230.592C214.256 230.308 214.61 229.936 214.872 229.5C216.102 227.507 216.96 225.307 217.404 223.008C217.71 221.7 218.196 219.546 217.062 218.448C215.694 217.122 215.04 218.604 214.512 219.9C213.414 222.636 211.638 225.864 211.608 228.858Z" fill="black"/>
<path d="M224.814 229.446C223.233 229.742 221.701 230.261 220.266 230.988C219.414 231.42 218.466 232.122 218.556 233.076C218.593 233.346 218.692 233.604 218.846 233.829C219 234.055 219.205 234.24 219.444 234.372C220.59 235.05 222.048 234.66 223.32 234.246L225.684 233.484C226.998 233.058 228.384 232.578 229.284 231.51C230.022 230.61 230.418 228.624 228.984 228.246C228.036 228 225.852 229.254 224.814 229.446Z" fill="black"/>
<path d="M211.866 202.104C211.648 201.528 211.529 200.92 211.512 200.304C211.531 199.76 211.702 199.231 212.005 198.779C212.309 198.326 212.732 197.967 213.228 197.742C213.452 197.62 213.704 197.561 213.958 197.57C214.213 197.58 214.46 197.658 214.674 197.796C214.827 197.93 214.951 198.093 215.04 198.276C215.994 200.016 215.82 202.128 216.24 204.066C216.476 204.85 216.641 205.653 216.732 206.466C216.774 206.87 216.713 207.277 216.554 207.651C216.396 208.024 216.145 208.352 215.826 208.602C213.516 210.09 212.286 203.436 211.866 202.104Z" fill="black"/>
<path d="M223.854 188.562H223.722L220.086 187.68C219.461 187.489 218.807 187.405 218.154 187.434C217.827 187.453 217.511 187.553 217.233 187.726C216.955 187.899 216.725 188.139 216.564 188.424C216.456 188.708 216.404 189.011 216.414 189.314C216.423 189.618 216.492 189.917 216.618 190.194C216.746 190.59 216.983 190.941 217.302 191.208C217.591 191.392 217.913 191.518 218.25 191.58C219.786 191.97 228.636 196.032 227.388 191.052C227.275 190.678 227.087 190.331 226.835 190.031C226.583 189.732 226.273 189.487 225.924 189.312C225.272 188.968 224.575 188.715 223.854 188.562Z" fill="black"/>
<path d="M207.6 179.682C208.278 179.082 208.884 178.392 209.61 177.846C211.133 176.818 212.888 176.183 214.716 175.998C214.916 175.941 215.125 175.924 215.331 175.949C215.537 175.973 215.736 176.039 215.916 176.142C216.105 176.339 216.229 176.588 216.272 176.857C216.314 177.127 216.274 177.402 216.156 177.648C215.687 178.783 214.92 179.77 213.936 180.504C212.814 181.464 211.614 182.304 210.42 183.198L207.876 185.046C207.587 185.28 207.26 185.462 206.91 185.586C206.335 185.705 205.736 185.64 205.2 185.4C204.512 185.195 203.92 184.75 203.532 184.146C202.5 182.202 206.55 180.636 207.6 179.682Z" fill="black"/>
<path d="M222.18 171.084C222.189 170.412 222.25 169.742 222.36 169.08C222.612 167.664 223.476 166.194 224.886 165.9C225.19 165.827 225.508 165.841 225.804 165.942C226.068 166.064 226.296 166.252 226.467 166.487C226.638 166.722 226.747 166.997 226.782 167.286C226.844 167.866 226.81 168.452 226.68 169.02C226.224 171.798 226.458 174.786 225.636 177.48C225.138 179.13 222.744 180.444 221.664 178.422C221.208 177.57 221.544 176.532 221.796 175.596C222.103 174.113 222.232 172.598 222.18 171.084Z" fill="black"/>
<path d="M212.328 164.52C213.528 163.92 214.884 163.278 216.132 163.746C216.394 163.83 216.62 163.999 216.774 164.226C216.865 164.443 216.901 164.679 216.877 164.913C216.852 165.147 216.77 165.371 216.636 165.564C215.971 166.673 214.955 167.53 213.75 168C212.552 168.464 211.307 168.792 210.036 168.978C209.363 169.174 208.646 169.155 207.984 168.924C205.02 167.484 211.488 164.958 212.328 164.52Z" fill="black"/>
<path d="M236.304 163.386C235.886 163.468 235.482 163.609 235.104 163.806C234.438 164.172 233.868 164.946 234.132 165.654C234.396 166.362 235.266 166.566 236.004 166.614C238.341 166.798 240.688 166.838 243.03 166.734C244.338 166.656 247.374 166.734 245.616 164.706C243.858 162.678 240 162.96 237.6 163.2C237.15 163.254 236.718 163.302 236.304 163.386Z" fill="black"/>
<path d="M225.108 250.71C223.38 251.832 221.118 251.832 219.348 252.888C219.133 252.994 218.953 253.159 218.826 253.362C218.735 253.568 218.717 253.8 218.775 254.018C218.833 254.236 218.963 254.427 219.144 254.562C219.498 254.813 219.912 254.967 220.344 255.006C221.926 255.227 223.538 255.064 225.043 254.531C226.549 253.999 227.905 253.112 228.996 251.946C229.315 251.646 229.526 251.25 229.596 250.818C229.594 250.564 229.534 250.313 229.421 250.085C229.307 249.858 229.144 249.659 228.942 249.504C227.358 248.034 226.524 249.786 225.108 250.71Z" fill="black"/>
<path d="M254.022 248.802C253.164 249.372 252.186 249.858 251.652 250.734C251.118 251.61 251.334 253.044 252.33 253.296C252.919 253.367 253.512 253.212 253.992 252.864C255.513 251.993 256.955 250.989 258.3 249.864C258.657 249.585 258.981 249.267 259.266 248.916C260.172 247.752 260.52 245.13 258.456 245.118C256.836 245.1 255.33 247.938 254.022 248.802Z" fill="black"/>
</g>
<path d="M237.822 143.772C242.579 141.644 247.089 139.005 251.274 135.9C249.357 132.606 246.656 129.836 243.412 127.837C240.167 125.838 236.478 124.671 232.674 124.44" fill="#1988FF"/>
<path d="M237.822 143.772C242.579 141.644 247.089 139.005 251.274 135.9C249.357 132.606 246.656 129.836 243.412 127.837C240.167 125.838 236.478 124.671 232.674 124.44" stroke="black" stroke-width="0.5" stroke-miterlimit="10"/>
<path d="M225.75 118.11C226.085 118.354 226.488 118.485 226.902 118.485C227.316 118.485 227.719 118.354 228.054 118.11" fill="white"/>
<path d="M225.75 118.11C226.085 118.354 226.488 118.485 226.902 118.485C227.316 118.485 227.719 118.354 228.054 118.11" stroke="#222221" stroke-width="0.5" stroke-miterlimit="10"/>
<path d="M242.058 159.282C237.396 161.358 229.626 161.358 225.066 159.18L222.48 139.704H243.822L242.058 159.282Z" fill="#F65E59" stroke="black" stroke-width="0.5" stroke-miterlimit="10"/>
<path d="M243.192 149.778C239.698 149.824 236.207 149.546 232.764 148.95C229.254 148.296 225.84 147.18 222.948 145.02C222.816 144.924 222.606 144.828 222.51 144.966C222.478 145.009 222.463 145.063 222.468 145.116C222.451 145.355 222.488 145.594 222.575 145.818C222.662 146.041 222.798 146.242 222.972 146.406C222.684 146.279 222.375 146.205 222.06 146.19C220.824 146.19 221.46 148.116 221.598 148.872C221.635 149.25 221.722 149.621 221.856 149.976C222.322 150.925 223.133 151.659 224.124 152.028L226.29 152.712C229.602 153.75 232.818 155.034 236.214 155.886C238.082 156.356 239.975 156.723 241.884 156.984C243.616 157.312 245.388 157.377 247.14 157.176" fill="white"/>
<path d="M243.192 149.778C239.698 149.824 236.207 149.546 232.764 148.95C229.254 148.296 225.84 147.18 222.948 145.02C222.816 144.924 222.606 144.828 222.51 144.966C222.478 145.009 222.463 145.063 222.468 145.116C222.451 145.355 222.488 145.594 222.575 145.818C222.662 146.041 222.798 146.242 222.972 146.406C222.684 146.279 222.375 146.205 222.06 146.19C220.824 146.19 221.46 148.116 221.598 148.872C221.635 149.25 221.722 149.621 221.856 149.976C222.322 150.925 223.133 151.659 224.124 152.028L226.29 152.712C229.602 153.75 232.818 155.034 236.214 155.886C238.082 156.356 239.975 156.723 241.884 156.984C243.616 157.312 245.388 157.377 247.14 157.176" stroke="#222221" stroke-width="0.5" stroke-miterlimit="10"/>
<path d="M243.936 139.56C243.936 141.276 239.1 142.668 233.136 142.668C227.172 142.668 222.336 141.276 222.336 139.56C222.336 137.844 227.178 136.452 233.136 136.452C239.094 136.452 243.936 137.844 243.936 139.56Z" fill="black"/>
<path d="M167.7 119.088C169.276 118.561 170.935 118.326 172.596 118.392Z" fill="white"/>
<path d="M167.7 119.088C169.276 118.561 170.935 118.326 172.596 118.392" stroke="#222221" stroke-width="0.5" stroke-miterlimit="10"/>
<path d="M167.508 119.868C169.005 119.346 170.586 119.108 172.17 119.166Z" fill="white"/>
<path d="M167.508 119.868C169.005 119.346 170.586 119.108 172.17 119.166" stroke="#222221" stroke-width="0.5" stroke-miterlimit="10"/>
<path d="M168 120.642C169.239 120.294 170.517 120.108 171.804 120.09Z" fill="white"/>
<path d="M168 120.642C169.239 120.294 170.517 120.108 171.804 120.09" stroke="#222221" stroke-width="0.5" stroke-miterlimit="10"/>
<mask id="mask1_233_1042" style="mask-type:luminance" maskUnits="userSpaceOnUse" x="222" y="134" width="22" height="9">
<path d="M243.924 139.56C243.887 139.804 243.798 140.037 243.664 140.244C243.529 140.451 243.352 140.627 243.144 140.76C240.576 142.686 236.16 142.698 233.13 142.698C230.1 142.698 225.984 142.638 223.314 140.898C220.44 139.014 224.844 135.93 226.608 135.228C230.639 133.728 235.075 133.728 239.106 135.228C240.462 135.66 244.152 137.706 243.924 139.56Z" fill="white"/>
</mask>
<g mask="url(#mask1_233_1042)">
<path d="M225.276 137.346L228.696 142.008L233.67 135.33" stroke="#9DD1C9" stroke-width="2" stroke-miterlimit="10"/>
<path d="M229.92 139.764L234.666 143.064L237.204 135.132" stroke="#9DD1C9" stroke-width="2" stroke-miterlimit="10"/>
<path d="M234.78 136.41L236.196 142.014L243.318 137.694" stroke="#9DD1C9" stroke-width="2" stroke-miterlimit="10"/>
<path d="M228.12 137.634L232.536 141.366L235.806 133.704" stroke="#9DD1C9" stroke-width="2" stroke-miterlimit="10"/>
</g>
<path d="M169.446 126.414L165.516 122.484L166.602 121.398L169.02 123.816L173.304 115.248L174.684 115.938L169.446 126.414Z" fill="#1988FF"/>
<path d="M173.19 122.214C172.416 122.544 171.624 121.782 170.922 121.614C170.568 121.524 169.872 121.56 169.902 122.082C169.932 122.604 170.634 123.03 171 123.198C171.462 123.414 172.026 123.498 172.35 123.894" fill="white"/>
<path d="M173.19 122.214C172.416 122.544 171.624 121.782 170.922 121.614C170.568 121.524 169.872 121.56 169.902 122.082C169.932 122.604 170.634 123.03 171 123.198C171.462 123.414 172.026 123.498 172.35 123.894" stroke="#222221" stroke-width="0.5" stroke-miterlimit="10"/>
<path d="M242.886 149.772C244.19 149.959 245.505 150.059 246.822 150.072" stroke="#222221" stroke-width="0.5" stroke-miterlimit="10"/>
<path d="M39.1501 220.872C47.4476 220.872 54.1741 214.145 54.1741 205.848C54.1741 197.55 47.4476 190.824 39.1501 190.824C30.8526 190.824 24.1261 197.55 24.1261 205.848C24.1261 214.145 30.8526 220.872 39.1501 220.872Z" fill="white" stroke="#222221" stroke-width="0.5" stroke-miterlimit="10"/>
<path d="M28.812 201.198L48.978 200.97L38.172 214.338L33.57 206.928L31.5 209.52L31.386 204.132L28.812 201.198Z" fill="#1988FF" stroke="black" stroke-width="0.5" stroke-miterlimit="10"/>
<mask id="mask2_233_1042" style="mask-type:luminance" maskUnits="userSpaceOnUse" x="28" y="200" width="21" height="15">
<path d="M28.812 201.198L48.978 200.97L39.162 214.398L33.57 206.928L31.5 209.52L31.386 204.132L28.812 201.198Z" fill="white"/>
</mask>
<g mask="url(#mask2_233_1042)">
<path d="M45.672 202.548L33.57 206.928L31.884 212.112L28.962 209.346L31.386 204.132L45.672 202.548Z" fill="black"/>
</g>
<path d="M113.454 150.168L146.016 172.278" stroke="black" stroke-width="0.75" stroke-miterlimit="10"/>
<path d="M148.644 172.05C148.685 172.536 148.581 173.023 148.345 173.449C148.109 173.876 147.752 174.223 147.319 174.447C146.886 174.671 146.397 174.762 145.912 174.707C145.428 174.653 144.97 174.457 144.598 174.142C144.225 173.828 143.954 173.411 143.818 172.943C143.682 172.474 143.689 171.976 143.836 171.512C143.983 171.047 144.265 170.636 144.646 170.332C145.026 170.027 145.488 169.842 145.974 169.8C146.297 169.772 146.623 169.808 146.932 169.906C147.241 170.004 147.528 170.162 147.776 170.371C148.024 170.58 148.228 170.836 148.377 171.124C148.526 171.412 148.617 171.727 148.644 172.05Z" fill="#1C0C00"/>
<path d="M50.676 103.998L76.158 119.088" stroke="black" stroke-width="0.75" stroke-miterlimit="10"/>
<path d="M53.076 105.636C52.7432 106.128 52.2716 106.511 51.7211 106.735C51.1706 106.959 50.5659 107.014 49.9838 106.894C49.4017 106.774 48.8685 106.484 48.4517 106.06C48.0349 105.636 47.7534 105.098 47.6428 104.514C47.5323 103.93 47.5977 103.326 47.8307 102.78C48.0638 102.233 48.454 101.768 48.9519 101.443C49.4498 101.118 50.0329 100.949 50.6272 100.956C51.2215 100.964 51.8002 101.147 52.29 101.484C52.9423 101.932 53.3909 102.62 53.5381 103.398C53.6853 104.176 53.5192 104.98 53.076 105.636Z" fill="#1C0C00"/>
<path d="M43.254 192.048L77.4 141.156" stroke="black" stroke-width="0.75" stroke-miterlimit="10"/>
<path d="M44.532 189.444C45.066 189.705 45.5104 190.119 45.8089 190.633C46.1073 191.147 46.2464 191.738 46.2083 192.331C46.1703 192.924 45.957 193.493 45.5954 193.964C45.2337 194.436 44.7402 194.79 44.1772 194.98C43.6143 195.171 43.0074 195.19 42.4335 195.036C41.8596 194.881 41.3446 194.559 40.9539 194.111C40.5631 193.663 40.3142 193.11 40.2388 192.52C40.1633 191.931 40.2647 191.332 40.53 190.8C40.8833 190.092 41.5022 189.552 42.2518 189.298C43.0013 189.044 43.8209 189.096 44.532 189.444Z" fill="#1C0C00"/>
<path d="M129.018 49.5L110.49 130.272" stroke="black" stroke-width="0.75" stroke-miterlimit="10"/>
<path d="M129.048 52.152C128.505 52.1579 127.973 52.0027 127.519 51.7061C127.065 51.4095 126.709 50.9848 126.496 50.4857C126.283 49.9866 126.223 49.4356 126.324 48.9025C126.424 48.3693 126.68 47.8779 127.06 47.4905C127.44 47.1031 127.926 46.837 128.457 46.7261C128.988 46.6151 129.541 46.6642 130.044 46.8672C130.547 47.0701 130.979 47.4178 131.284 47.8662C131.59 48.3145 131.755 48.8434 131.76 49.386C131.764 49.7458 131.697 50.1028 131.563 50.4367C131.428 50.7705 131.23 51.0746 130.978 51.3316C130.726 51.5885 130.426 51.7932 130.095 51.934C129.763 52.0748 129.408 52.1489 129.048 52.152Z" fill="#1C0C00"/>
<path d="M154.2 259.728L147.576 255.27L147.288 263.25L143.778 256.074L139.536 262.848L140.088 254.874L133.032 258.618L137.49 251.994L129.51 251.706L136.686 248.196L129.912 243.96L137.886 244.506L134.142 237.45L140.766 241.914L141.054 233.928L144.564 241.104L148.8 234.336L148.254 242.304L155.31 238.56L150.846 245.184L158.832 245.472L151.656 248.982L158.424 253.224L150.456 252.672L154.2 259.728Z" fill="#1988FF" stroke="black" stroke-width="0.5" stroke-miterlimit="10"/>
<path d="M144.492 252.126V253.248H143.4V252.126H144.492ZM144.492 244.926L144.324 250.872H143.652L143.478 244.926H144.492Z" fill="#050504"/>
<path d="M275.778 189.534L270.264 185.82L270.03 192.462L267.108 186.492L263.586 192.126L264.042 185.496L258.174 188.61L261.882 183.096L255.24 182.862L261.21 179.94L255.576 176.418L262.206 176.874L259.092 171L264.606 174.714L264.846 168.072L267.762 174.042L271.29 168.414L270.828 175.038L276.702 171.924L272.988 177.438L279.63 177.678L273.66 180.594L279.294 184.122L272.664 183.666L275.778 189.534Z" fill="#1988FF" stroke="black" stroke-width="0.5" stroke-miterlimit="10"/>
<path d="M267.702 183.21V184.14H266.814V183.21H267.702ZM267.702 177.21L267.558 182.154H267L266.862 177.21H267.702Z" fill="#050504"/>
<path d="M223.464 66.618C235.108 66.618 244.548 57.0977 244.548 45.354C244.548 33.6102 235.108 24.09 223.464 24.09C211.82 24.09 202.38 33.6102 202.38 45.354C202.38 57.0977 211.82 66.618 223.464 66.618Z" fill="#1988FF"/>
<mask id="mask3_233_1042" style="mask-type:luminance" maskUnits="userSpaceOnUse" x="202" y="24" width="43" height="43">
<path d="M223.464 66.618C235.108 66.618 244.548 57.0977 244.548 45.354C244.548 33.6102 235.108 24.09 223.464 24.09C211.82 24.09 202.38 33.6102 202.38 45.354C202.38 57.0977 211.82 66.618 223.464 66.618Z" fill="white"/>
</mask>
<g mask="url(#mask3_233_1042)">
<path d="M223.464 66.2039C223.343 66.2039 223.227 66.1559 223.142 66.0704C223.056 65.9849 223.008 65.8689 223.008 65.7479V24.9479C223.008 24.827 223.056 24.711 223.142 24.6255C223.227 24.54 223.343 24.4919 223.464 24.4919C223.585 24.4919 223.701 24.54 223.786 24.6255C223.872 24.711 223.92 24.827 223.92 24.9479V65.7479C223.92 65.8689 223.872 65.9849 223.786 66.0704C223.701 66.1559 223.585 66.2039 223.464 66.2039Z" stroke="#12002C" stroke-width="0.5" stroke-miterlimit="10"/>
<path d="M233.664 63.4739C233.584 63.4741 233.505 63.4531 233.435 63.4131C233.366 63.3731 233.308 63.3154 233.268 63.2459L212.868 27.9179C212.838 27.8659 212.819 27.8085 212.811 27.749C212.803 27.6895 212.807 27.6291 212.823 27.5711C212.838 27.5132 212.865 27.4589 212.902 27.4113C212.938 27.3637 212.984 27.3239 213.036 27.2939C213.088 27.264 213.145 27.2446 213.205 27.2368C213.264 27.229 213.325 27.2331 213.383 27.2487C213.441 27.2643 213.495 27.2911 213.543 27.3277C213.59 27.3643 213.63 27.4099 213.66 27.4619L234.06 62.7899C234.1 62.8589 234.121 62.9371 234.121 63.0167C234.121 63.0963 234.101 63.1746 234.061 63.2438C234.022 63.313 233.965 63.3706 233.896 63.411C233.828 63.4514 233.75 63.4731 233.67 63.4739H233.664Z" stroke="#12002C" stroke-width="0.5" stroke-miterlimit="10"/>
<path d="M241.128 56.0039C241.048 56.0045 240.969 55.9838 240.9 55.9439L205.572 35.5439C205.52 35.514 205.474 35.4741 205.438 35.4265C205.401 35.379 205.374 35.3247 205.359 35.2667C205.343 35.2088 205.339 35.1483 205.347 35.0888C205.355 35.0293 205.374 34.9719 205.404 34.9199C205.434 34.8679 205.474 34.8223 205.521 34.7857C205.569 34.7492 205.623 34.7223 205.681 34.7067C205.739 34.6911 205.8 34.6871 205.859 34.6948C205.919 34.7026 205.976 34.722 206.028 34.7519L241.356 55.1519C241.445 55.2 241.516 55.2769 241.556 55.3701C241.596 55.4633 241.604 55.5673 241.577 55.6653C241.551 55.7632 241.492 55.8494 241.41 55.9098C241.329 55.9702 241.229 56.0012 241.128 55.9979V56.0039Z" stroke="#12002C" stroke-width="0.5" stroke-miterlimit="10"/>
<path d="M243.858 45.8099H203.058C202.937 45.8099 202.821 45.7619 202.736 45.6764C202.65 45.5909 202.602 45.4749 202.602 45.3539C202.602 45.233 202.65 45.117 202.736 45.0315C202.821 44.946 202.937 44.8979 203.058 44.8979H243.858C243.979 44.8979 244.095 44.946 244.18 45.0315C244.266 45.117 244.314 45.233 244.314 45.3539C244.314 45.4749 244.266 45.5909 244.18 45.6764C244.095 45.7619 243.979 45.8099 243.858 45.8099Z" stroke="#12002C" stroke-width="0.5" stroke-miterlimit="10"/>
<path d="M205.8 56.004C205.699 56.0073 205.599 55.9762 205.517 55.9158C205.436 55.8555 205.377 55.7693 205.351 55.6713C205.324 55.5733 205.332 55.4693 205.372 55.3761C205.412 55.2829 205.483 55.2061 205.572 55.158L240.9 34.758C240.952 34.728 241.009 34.7086 241.069 34.7009C241.128 34.6931 241.189 34.6971 241.247 34.7127C241.305 34.7283 241.359 34.7552 241.407 34.7918C241.454 34.8284 241.494 34.874 241.524 34.926C241.554 34.978 241.573 35.0354 241.581 35.0949C241.589 35.1544 241.585 35.2148 241.569 35.2728C241.554 35.3307 241.527 35.385 241.49 35.4326C241.454 35.4801 241.408 35.52 241.356 35.55L206.028 55.95C205.958 55.9878 205.879 56.0064 205.8 56.004Z" stroke="#12002C" stroke-width="0.5" stroke-miterlimit="10"/>
<path d="M213.264 63.474C213.185 63.4724 213.107 63.4504 213.038 63.41C212.97 63.3696 212.913 63.3123 212.873 63.2435C212.833 63.1748 212.812 63.0969 212.811 63.0174C212.81 62.938 212.83 62.8596 212.868 62.79L233.268 27.462C233.295 27.4049 233.333 27.354 233.381 27.3125C233.429 27.271 233.484 27.2399 233.545 27.2211C233.605 27.2023 233.669 27.1962 233.731 27.2033C233.794 27.2103 233.855 27.2303 233.909 27.262C233.964 27.2937 234.011 27.3364 234.049 27.3874C234.086 27.4384 234.112 27.4965 234.126 27.5582C234.139 27.6199 234.14 27.6837 234.128 27.7456C234.115 27.8076 234.09 27.8662 234.054 27.918L213.654 63.246C213.614 63.3142 213.557 63.371 213.489 63.4109C213.42 63.4508 213.343 63.4725 213.264 63.474Z" stroke="#12002C" stroke-width="0.5" stroke-miterlimit="10"/>
</g>
<path d="M223.464 66.618C235.108 66.618 244.548 57.0977 244.548 45.354C244.548 33.6102 235.108 24.09 223.464 24.09C211.82 24.09 202.38 33.6102 202.38 45.354C202.38 57.0977 211.82 66.618 223.464 66.618Z" stroke="black" stroke-width="0.5" stroke-miterlimit="10"/>
<path d="M236.105 57.3978C242.806 50.3631 242.585 39.274 235.61 32.6297C228.635 25.9854 217.549 26.302 210.847 33.3367C204.146 40.3714 204.367 51.4605 211.342 58.1048C218.317 64.7491 229.404 64.4325 236.105 57.3978Z" fill="#9DD1C9" stroke="black" stroke-width="0.5" stroke-miterlimit="10"/>
<path d="M231.922 53.4069C236.409 48.697 236.259 41.2715 231.588 36.8214C226.916 32.3713 219.492 32.5818 215.006 37.2916C210.519 42.0015 210.669 49.427 215.34 53.8771C220.012 58.3272 227.436 58.1167 231.922 53.4069Z" fill="white" stroke="#222221" stroke-width="0.5" stroke-miterlimit="10"/>
<path d="M224.298 46.3199C224.074 46.5517 223.787 46.7119 223.472 46.7804C223.157 46.849 222.829 46.8227 222.529 46.7051C222.229 46.5874 221.97 46.3835 221.786 46.1191C221.601 45.8548 221.5 45.5418 221.493 45.2196C221.486 44.8974 221.575 44.5804 221.748 44.3087C221.921 44.0369 222.171 43.8225 222.466 43.6925C222.761 43.5625 223.088 43.5227 223.405 43.5781C223.723 43.6335 224.017 43.7817 224.25 44.0039C224.406 44.1524 224.531 44.3303 224.618 44.5274C224.705 44.7244 224.752 44.9367 224.756 45.152C224.761 45.3672 224.722 45.5813 224.644 45.7817C224.565 45.9822 224.448 46.1651 224.298 46.3199Z" fill="#12002C"/>
<path d="M231.42 31.314L223.464 45.354" stroke="#12002C" stroke-miterlimit="10"/>
<path d="M229.662 31.644L231.912 30.546L232.026 32.964L229.662 31.644Z" fill="#12002C"/>
<path d="M235.434 42.684L223.464 45.354" stroke="#12002C" stroke-miterlimit="10"/>
<path d="M234.054 41.562L236.664 42.528L234.81 44.466L234.054 41.562Z" fill="#12002C"/>
<path d="M121.464 235.578C126.06 233.292 131.25 228.516 126.306 223.17C124.26 220.95 120.906 220.212 117.96 220.848C115.014 221.484 112.428 223.332 110.4 225.6C102.888 233.892 100.566 245.904 97.2661 256.254C96.8869 257.288 96.5762 258.347 96.3361 259.422C96.7861 259.338 99.3901 259.56 99.5341 259.314C102.284 254.543 105.429 250.011 108.936 245.766C111.588 242.658 114.756 238.95 118.446 237.09C119.466 236.55 120.474 236.064 121.464 235.578Z" fill="#1988FF" stroke="black" stroke-width="0.5" stroke-miterlimit="10"/>
<path d="M89.8921 254.562C90.7487 256.106 91.5179 257.696 92.1961 259.326C92.9908 259.206 93.7981 259.194 94.5961 259.29C94.0252 256.012 93.2415 252.776 92.2501 249.6C91.4256 246.524 90.2688 243.546 88.8001 240.72C87.2281 237.876 85.0561 235.284 82.2001 233.706C75.3781 229.914 63.0601 232.104 59.7481 239.82C58.6561 242.364 58.8841 245.592 60.7981 247.59C61.7529 248.527 62.9327 249.203 64.2241 249.552C65.9461 250.068 67.7761 249.72 69.5701 249.882C76.4941 250.482 81.5221 249.222 83.3701 249.024C85.7701 248.772 87.7681 251.544 89.1661 253.446C89.4221 253.806 89.6641 254.178 89.8921 254.562Z" fill="#1988FF" stroke="black" stroke-width="0.5" stroke-miterlimit="10"/>
<path d="M91.056 241.8C91.9862 244.619 92.6963 247.505 93.18 250.434C93.396 251.838 94.674 256.704 94.68 259.32H96.834C97.254 256.146 97.332 252.906 97.986 249.786C100.215 238.823 101.462 227.683 101.712 216.498C101.826 212.418 101.91 208.176 100.23 204.45C98.55 200.724 94.56 197.718 90.564 198.558C87.192 199.266 84.816 202.506 84.102 205.872C83.334 209.472 84.264 213.072 84.624 216.624C84.9857 220.586 85.672 224.511 86.676 228.36C87.906 232.89 89.634 237.294 91.056 241.8Z" fill="#1988FF" stroke="black" stroke-width="0.5" stroke-miterlimit="10"/>
<path d="M97.704 259.29C102.768 249.18 107.778 238.596 115.962 230.574" stroke="#222221" stroke-width="0.5" stroke-miterlimit="10"/>
<path d="M93.4501 259.236C91.4461 252.186 87.9721 246.234 81.4501 243.162C77.2501 241.242 72.6241 241.626 68.5441 242.016" stroke="#222221" stroke-width="0.5" stroke-miterlimit="10"/>
<path d="M92.9221 214.842C95.3221 229.656 95.4781 244.464 95.7181 259.392" stroke="#222221" stroke-width="0.5" stroke-miterlimit="10"/>
<path d="M88.14 257.61C86.4833 259.484 85.5698 261.9 85.572 264.402C85.572 267.137 86.6587 269.761 88.5929 271.695C90.5272 273.629 93.1506 274.716 95.886 274.716C98.6215 274.716 101.245 273.629 103.179 271.695C105.113 269.761 106.2 267.137 106.2 264.402C106.202 261.902 105.291 259.486 103.638 257.61H88.14Z" fill="#1E1E1E"/>
</svg>
