<svg width="300" height="300" viewBox="0 0 300 300" fill="none" xmlns="http://www.w3.org/2000/svg">
<path d="M264.96 146.232C266.028 123.954 256.482 101.682 240.63 85.992C224.778 70.302 203.034 61.08 180.816 59.058C158.598 57.036 136.02 61.968 115.932 71.658C99.828 79.458 85.038 90.408 74.412 104.796C63.786 119.184 57.558 137.124 58.812 154.962C60.912 184.542 80.682 210.978 107.136 224.376C133.59 237.774 164.946 239.028 193.992 233.046C205.674 230.646 217.242 227.046 227.49 220.968C251.886 206.466 263.604 174.6 264.96 146.232Z" fill="#E6E6E6"/>
<path d="M76.7339 30.864L80.1119 25.02H73.3619L76.7339 30.864Z" fill="#060305"/>
<path d="M200.082 34.914L196.71 40.764H203.46L200.082 34.914Z" fill="#814EFF"/>
<path d="M267.126 93.36L272.97 96.738V89.988L267.126 93.36Z" stroke="#060305" stroke-linecap="round" stroke-linejoin="round"/>
<path d="M36.6899 140.448L42.5399 143.82V137.07L36.6899 140.448Z" fill="#814EFF"/>
<path d="M111.42 238.356L105.576 234.984V241.734L111.42 238.356Z" fill="#060305"/>
<path d="M72.228 46.674C72.2292 46.4872 72.1748 46.3042 72.0717 46.1484C71.9687 45.9926 71.8216 45.8709 71.6492 45.7989C71.4769 45.7268 71.287 45.7077 71.1037 45.7438C70.9204 45.78 70.752 45.8698 70.6199 46.0019C70.4878 46.134 70.398 46.3024 70.3618 46.4857C70.3256 46.669 70.3448 46.8589 70.4169 47.0313C70.4889 47.2036 70.6106 47.3507 70.7664 47.4537C70.9222 47.5568 71.1052 47.6112 71.292 47.61C71.5402 47.61 71.7783 47.5114 71.9538 47.3358C72.1294 47.1603 72.228 46.9222 72.228 46.674Z" fill="#814EFF"/>
<path d="M114.882 61.488C114.882 61.3029 114.827 61.1219 114.724 60.968C114.621 60.8141 114.475 60.6941 114.304 60.6233C114.133 60.5524 113.945 60.5339 113.763 60.57C113.582 60.6061 113.415 60.6952 113.284 60.8262C113.153 60.9571 113.064 61.1238 113.028 61.3054C112.992 61.487 113.01 61.6752 113.081 61.8462C113.152 62.0172 113.272 62.1634 113.426 62.2663C113.58 62.3691 113.761 62.424 113.946 62.424C114.194 62.424 114.432 62.3254 114.608 62.1499C114.783 61.9743 114.882 61.7362 114.882 61.488Z" fill="#060305"/>
<path d="M48.63 160.656C48.6311 160.469 48.5769 160.287 48.4741 160.131C48.3713 159.975 48.2246 159.854 48.0526 159.781C47.8806 159.709 47.691 159.69 47.5079 159.725C47.3248 159.761 47.1564 159.85 47.024 159.982C46.8917 160.113 46.8014 160.281 46.7645 160.464C46.7277 160.647 46.746 160.837 46.8171 161.009C46.8882 161.182 47.0089 161.329 47.164 161.433C47.319 161.537 47.5014 161.592 47.688 161.592C47.8114 161.593 47.9337 161.569 48.048 161.522C48.1622 161.476 48.2661 161.407 48.3537 161.32C48.4412 161.233 48.5107 161.13 48.5581 161.016C48.6055 160.902 48.63 160.779 48.63 160.656Z" stroke="#060305" stroke-linecap="round" stroke-linejoin="round"/>
<path d="M133.692 73.848C133.693 73.6612 133.639 73.4782 133.536 73.3224C133.433 73.1666 133.286 73.0449 133.113 72.9729C132.941 72.9008 132.751 72.8817 132.568 72.9178C132.384 72.954 132.216 73.0438 132.084 73.1759C131.952 73.308 131.862 73.4764 131.826 73.6597C131.79 73.843 131.809 74.0329 131.881 74.2053C131.953 74.3776 132.075 74.5247 132.23 74.6278C132.386 74.7308 132.569 74.7852 132.756 74.784C133.004 74.784 133.242 74.6854 133.418 74.5099C133.593 74.3343 133.692 74.0962 133.692 73.848Z" stroke="#060305" stroke-linecap="round" stroke-linejoin="round"/>
<path d="M174.816 41.484C174.816 41.2977 174.761 41.1156 174.657 40.9606C174.554 40.8057 174.407 40.685 174.234 40.6137C174.062 40.5424 173.873 40.5237 173.69 40.5601C173.508 40.5964 173.34 40.6862 173.208 40.8179C173.076 40.9496 172.986 41.1175 172.95 41.3002C172.914 41.4829 172.932 41.6724 173.004 41.8445C173.075 42.0166 173.196 42.1637 173.351 42.2672C173.506 42.3707 173.688 42.426 173.874 42.426C173.998 42.4268 174.121 42.403 174.235 42.3559C174.35 42.3089 174.454 42.2395 174.542 42.1519C174.63 42.0642 174.699 41.9601 174.746 41.8454C174.793 41.7308 174.817 41.6079 174.816 41.484Z" fill="#060305"/>
<path d="M207.498 106.8C207.498 106.615 207.443 106.434 207.34 106.28C207.237 106.126 207.091 106.006 206.92 105.935C206.749 105.864 206.561 105.846 206.379 105.882C206.198 105.918 206.031 106.007 205.9 106.138C205.769 106.269 205.68 106.436 205.644 106.617C205.608 106.799 205.626 106.987 205.697 107.158C205.768 107.329 205.888 107.475 206.042 107.578C206.196 107.681 206.377 107.736 206.562 107.736C206.81 107.736 207.048 107.637 207.224 107.462C207.399 107.286 207.498 107.048 207.498 106.8Z" fill="#814EFF"/>
<path d="M235.2 94.674C235.201 94.4872 235.147 94.3042 235.044 94.1484C234.941 93.9926 234.794 93.8709 234.621 93.7989C234.449 93.7268 234.259 93.7077 234.076 93.7438C233.892 93.78 233.724 93.8698 233.592 94.0019C233.46 94.134 233.37 94.3024 233.334 94.4857C233.298 94.669 233.317 94.8589 233.389 95.0313C233.461 95.2036 233.582 95.3507 233.738 95.4537C233.894 95.5568 234.077 95.6112 234.264 95.61C234.512 95.61 234.75 95.5114 234.926 95.3358C235.101 95.1603 235.2 94.9222 235.2 94.674Z" stroke="#060305" stroke-linecap="round" stroke-linejoin="round"/>
<path d="M132.756 167.4C132.757 167.213 132.703 167.031 132.6 166.875C132.497 166.719 132.351 166.598 132.179 166.525C132.007 166.453 131.817 166.434 131.634 166.469C131.451 166.505 131.282 166.594 131.15 166.726C131.018 166.857 130.927 167.025 130.89 167.208C130.854 167.391 130.872 167.581 130.943 167.753C131.014 167.926 131.135 168.073 131.29 168.177C131.445 168.281 131.627 168.336 131.814 168.336C131.937 168.337 132.06 168.313 132.174 168.266C132.288 168.22 132.392 168.151 132.48 168.064C132.567 167.977 132.637 167.874 132.684 167.76C132.732 167.646 132.756 167.523 132.756 167.4Z" fill="#814EFF"/>
<path d="M75.06 162.708C75.0588 162.523 75.0029 162.343 74.8993 162.19C74.7957 162.037 74.6492 161.917 74.478 161.848C74.3069 161.778 74.1189 161.76 73.9377 161.797C73.7565 161.834 73.5903 161.923 73.46 162.054C73.3297 162.185 73.2412 162.352 73.2055 162.534C73.1699 162.715 73.1888 162.903 73.2598 163.074C73.3308 163.244 73.4508 163.39 73.6046 163.493C73.7584 163.595 73.9391 163.65 74.124 163.65C74.2474 163.65 74.3696 163.626 74.4836 163.578C74.5975 163.531 74.701 163.461 74.788 163.374C74.8749 163.286 74.9438 163.182 74.9904 163.068C75.0371 162.954 75.0608 162.831 75.06 162.708Z" fill="#814EFF"/>
<path d="M212.502 116.802C212.503 116.615 212.449 116.432 212.346 116.276C212.243 116.121 212.096 115.999 211.923 115.927C211.751 115.855 211.561 115.836 211.378 115.872C211.194 115.908 211.026 115.998 210.894 116.13C210.762 116.262 210.672 116.43 210.636 116.614C210.6 116.797 210.619 116.987 210.691 117.159C210.763 117.332 210.884 117.479 211.04 117.582C211.196 117.685 211.379 117.739 211.566 117.738C211.814 117.738 212.052 117.639 212.228 117.464C212.403 117.288 212.502 117.05 212.502 116.802Z" fill="#060305"/>
<path d="M145.2 184.446C145.201 184.259 145.147 184.077 145.044 183.921C144.941 183.765 144.795 183.644 144.623 183.571C144.451 183.499 144.261 183.48 144.078 183.515C143.895 183.551 143.726 183.64 143.594 183.772C143.462 183.903 143.371 184.071 143.334 184.254C143.298 184.437 143.316 184.627 143.387 184.799C143.458 184.972 143.579 185.119 143.734 185.223C143.889 185.327 144.071 185.382 144.258 185.382C144.381 185.383 144.504 185.359 144.618 185.312C144.732 185.266 144.836 185.197 144.924 185.11C145.011 185.023 145.081 184.92 145.128 184.806C145.175 184.692 145.2 184.569 145.2 184.446Z" fill="#814EFF"/>
<path d="M132.756 242.754C132.756 242.568 132.701 242.386 132.597 242.231C132.494 242.076 132.347 241.955 132.174 241.884C132.002 241.812 131.813 241.794 131.63 241.83C131.447 241.866 131.28 241.956 131.148 242.088C131.016 242.22 130.926 242.387 130.89 242.57C130.854 242.753 130.872 242.942 130.944 243.114C131.015 243.287 131.136 243.434 131.291 243.537C131.446 243.641 131.628 243.696 131.814 243.696C131.938 243.697 132.061 243.673 132.175 243.626C132.29 243.579 132.394 243.509 132.482 243.422C132.569 243.334 132.639 243.23 132.686 243.115C132.733 243.001 132.757 242.878 132.756 242.754Z" fill="#814EFF"/>
<path d="M118.236 196.698C118.236 196.513 118.181 196.332 118.078 196.178C117.975 196.024 117.829 195.904 117.658 195.833C117.487 195.762 117.299 195.744 117.117 195.78C116.936 195.816 116.769 195.905 116.638 196.036C116.507 196.167 116.418 196.334 116.382 196.515C116.346 196.697 116.364 196.885 116.435 197.056C116.506 197.227 116.626 197.373 116.78 197.476C116.934 197.579 117.115 197.634 117.3 197.634C117.423 197.634 117.545 197.61 117.658 197.563C117.772 197.516 117.875 197.447 117.962 197.36C118.049 197.273 118.118 197.17 118.165 197.056C118.212 196.943 118.236 196.821 118.236 196.698Z" fill="#814EFF"/>
<path d="M108.216 197.634C108.211 197.449 108.152 197.269 108.045 197.117C107.939 196.965 107.79 196.848 107.617 196.78C107.444 196.713 107.255 196.698 107.074 196.738C106.892 196.777 106.727 196.869 106.598 197.003C106.469 197.136 106.382 197.304 106.348 197.487C106.314 197.669 106.335 197.857 106.408 198.028C106.481 198.199 106.602 198.344 106.758 198.446C106.913 198.547 107.094 198.601 107.28 198.6C107.405 198.6 107.53 198.575 107.645 198.526C107.761 198.477 107.865 198.405 107.953 198.315C108.04 198.225 108.108 198.118 108.154 198.001C108.199 197.884 108.22 197.759 108.216 197.634Z" stroke="#060305" stroke-linecap="round" stroke-linejoin="round"/>
<path d="M250.146 75.6C250.02 75.9949 249.771 76.3394 249.436 76.5839C249.101 76.8283 248.698 76.9601 248.283 76.9601C247.868 76.9601 247.465 76.8283 247.13 76.5839C246.795 76.3394 246.546 75.9949 246.42 75.6C246.295 75.2043 246.048 74.8587 245.713 74.6133C245.379 74.3679 244.975 74.2356 244.56 74.2356C244.145 74.2356 243.741 74.3679 243.407 74.6133C243.072 74.8587 242.825 75.2043 242.7 75.6C242.572 75.9927 242.323 76.3348 241.989 76.5775C241.655 76.8201 241.253 76.9508 240.84 76.9508C240.427 76.9508 240.025 76.8201 239.691 76.5775C239.357 76.3348 239.108 75.9927 238.98 75.6C238.854 75.2051 238.605 74.8606 238.27 74.6162C237.935 74.3717 237.532 74.24 237.117 74.24C236.702 74.24 236.299 74.3717 235.964 74.6162C235.629 74.8606 235.38 75.2051 235.254 75.6C235.126 75.9927 234.877 76.3348 234.543 76.5775C234.209 76.8201 233.807 76.9508 233.394 76.9508C232.981 76.9508 232.579 76.8201 232.245 76.5775C231.911 76.3348 231.662 75.9927 231.534 75.6C231.409 75.2043 231.162 74.8587 230.827 74.6133C230.493 74.3679 230.089 74.2356 229.674 74.2356C229.259 74.2356 228.855 74.3679 228.521 74.6133C228.186 74.8587 227.939 75.2043 227.814 75.6C227.688 75.9949 227.439 76.3394 227.104 76.5839C226.769 76.8283 226.366 76.9601 225.951 76.9601C225.536 76.9601 225.133 76.8283 224.798 76.5839C224.463 76.3394 224.214 75.9949 224.088 75.6C223.963 75.2043 223.716 74.8587 223.381 74.6133C223.047 74.3679 222.643 74.2356 222.228 74.2356C221.813 74.2356 221.409 74.3679 221.075 74.6133C220.74 74.8587 220.493 75.2043 220.368 75.6C220.24 75.9927 219.991 76.3348 219.657 76.5775C219.323 76.8201 218.921 76.9508 218.508 76.9508C218.095 76.9508 217.693 76.8201 217.359 76.5775C217.025 76.3348 216.776 75.9927 216.648 75.6C216.523 75.2043 216.276 74.8587 215.941 74.6133C215.607 74.3679 215.203 74.2356 214.788 74.2356C214.373 74.2356 213.969 74.3679 213.635 74.6133C213.3 74.8587 213.053 75.2043 212.928 75.6" stroke="#060305" stroke-linecap="round" stroke-linejoin="round"/>
<path d="M86.4 180.888C86.2754 181.284 86.0279 181.629 85.6934 181.875C85.3589 182.12 84.9549 182.252 84.54 182.252C84.1251 182.252 83.7211 182.12 83.3866 181.875C83.0521 181.629 82.8046 181.284 82.68 180.888C82.5522 180.495 82.3035 180.153 81.9694 179.911C81.6353 179.668 81.2329 179.537 80.82 179.537C80.4071 179.537 80.0048 179.668 79.6706 179.911C79.3365 180.153 79.0878 180.495 78.96 180.888C78.8337 181.283 78.5852 181.627 78.2503 181.872C77.9155 182.116 77.5116 182.248 77.097 182.248C76.6824 182.248 76.2786 182.116 75.9437 181.872C75.6088 181.627 75.3603 181.283 75.234 180.888C75.1062 180.495 74.8575 180.153 74.5234 179.911C74.1893 179.668 73.7869 179.537 73.374 179.537C72.9611 179.537 72.5588 179.668 72.2246 179.911C71.8905 180.153 71.6418 180.495 71.514 180.888C71.3894 181.284 71.1419 181.629 70.8074 181.875C70.4729 182.12 70.0689 182.252 69.654 182.252C69.2392 182.252 68.8351 182.12 68.5006 181.875C68.1661 181.629 67.9186 181.284 67.794 180.888C67.6677 180.493 67.4192 180.149 67.0843 179.904C66.7495 179.66 66.3456 179.528 65.931 179.528C65.5164 179.528 65.1126 179.66 64.7777 179.904C64.4428 180.149 64.1943 180.493 64.068 180.888C63.9434 181.284 63.6959 181.629 63.3614 181.875C63.0269 182.12 62.6229 182.252 62.208 182.252C61.7932 182.252 61.3891 182.12 61.0546 181.875C60.7201 181.629 60.4726 181.284 60.348 180.888C60.2202 180.495 59.9715 180.153 59.6374 179.911C59.3033 179.668 58.9009 179.537 58.488 179.537C58.0751 179.537 57.6728 179.668 57.3386 179.911C57.0045 180.153 56.7558 180.495 56.628 180.888C56.5034 181.284 56.2559 181.629 55.9214 181.875C55.5869 182.12 55.1829 182.252 54.768 182.252C54.3532 182.252 53.9491 182.12 53.6146 181.875C53.2801 181.629 53.0326 181.284 52.908 180.888C52.7817 180.493 52.5332 180.149 52.1983 179.904C51.8635 179.66 51.4596 179.528 51.045 179.528C50.6304 179.528 50.2265 179.66 49.8917 179.904C49.5568 180.149 49.3083 180.493 49.182 180.888" stroke="#060305" stroke-linecap="round" stroke-linejoin="round"/>
<path d="M153 211.368C152.872 211.761 152.623 212.103 152.289 212.345C151.955 212.588 151.553 212.719 151.14 212.719C150.727 212.719 150.325 212.588 149.991 212.345C149.657 212.103 149.408 211.761 149.28 211.368C149.155 210.972 148.908 210.627 148.573 210.381C148.239 210.136 147.835 210.004 147.42 210.004C147.005 210.004 146.601 210.136 146.267 210.381C145.932 210.627 145.685 210.972 145.56 211.368C145.434 211.763 145.185 212.107 144.85 212.352C144.515 212.596 144.112 212.728 143.697 212.728C143.282 212.728 142.879 212.596 142.544 212.352C142.209 212.107 141.96 211.763 141.834 211.368C141.709 210.972 141.462 210.627 141.127 210.381C140.793 210.136 140.389 210.004 139.974 210.004C139.559 210.004 139.155 210.136 138.821 210.381C138.486 210.627 138.239 210.972 138.114 211.368C137.986 211.761 137.737 212.103 137.403 212.345C137.069 212.588 136.667 212.719 136.254 212.719C135.841 212.719 135.439 212.588 135.105 212.345C134.771 212.103 134.522 211.761 134.394 211.368C134.268 210.973 134.019 210.629 133.684 210.384C133.349 210.14 132.946 210.008 132.531 210.008C132.116 210.008 131.713 210.14 131.378 210.384C131.043 210.629 130.794 210.973 130.668 211.368C130.54 211.761 130.291 212.103 129.957 212.345C129.623 212.588 129.221 212.719 128.808 212.719C128.395 212.719 127.993 212.588 127.659 212.345C127.325 212.103 127.076 211.761 126.948 211.368C126.823 210.972 126.576 210.627 126.241 210.381C125.907 210.136 125.503 210.004 125.088 210.004C124.673 210.004 124.269 210.136 123.935 210.381C123.6 210.627 123.353 210.972 123.228 211.368C123.1 211.761 122.851 212.103 122.517 212.345C122.183 212.588 121.781 212.719 121.368 212.719C120.955 212.719 120.553 212.588 120.219 212.345C119.885 212.103 119.636 211.761 119.508 211.368C119.382 210.973 119.133 210.629 118.798 210.384C118.463 210.14 118.06 210.008 117.645 210.008C117.23 210.008 116.827 210.14 116.492 210.384C116.157 210.629 115.908 210.973 115.782 211.368" stroke="#060305" stroke-linecap="round" stroke-linejoin="round"/>
<path d="M128.688 26.298C128.688 25.5981 128.945 24.9227 129.411 24.4004C129.877 23.8782 130.519 23.5456 131.214 23.466C130.911 22.193 130.405 20.9773 129.714 19.866C129.165 20.2937 128.478 20.5059 127.783 20.4628C127.088 20.4197 126.433 20.1241 125.94 19.6318C125.448 19.1394 125.152 18.4842 125.109 17.7892C125.066 17.0942 125.278 16.4074 125.706 15.858C124.595 15.1654 123.379 14.6568 122.106 14.352C122.022 15.0445 121.687 15.6821 121.164 16.1445C120.642 16.607 119.969 16.8623 119.271 16.8623C118.573 16.8623 117.9 16.607 117.378 16.1445C116.855 15.6821 116.52 15.0445 116.436 14.352C115.163 14.6568 113.947 15.1654 112.836 15.858C113.264 16.4074 113.476 17.0942 113.433 17.7892C113.39 18.4842 113.094 19.1394 112.602 19.6318C112.109 20.1241 111.454 20.4197 110.759 20.4628C110.064 20.5059 109.377 20.2937 108.828 19.866C108.137 20.9773 107.631 22.193 107.328 23.466C108.02 23.5504 108.658 23.8854 109.121 24.4077C109.583 24.9299 109.838 25.6034 109.838 26.301C109.838 26.9986 109.583 27.672 109.121 28.1943C108.658 28.7166 108.02 29.0516 107.328 29.136C107.631 30.4088 108.138 31.6244 108.828 32.736C109.381 32.3262 110.063 32.1297 110.749 32.1827C111.435 32.2357 112.079 32.5346 112.562 33.0244C113.045 33.5142 113.335 34.1621 113.379 34.8488C113.423 35.5354 113.217 36.2148 112.8 36.762C113.911 37.4546 115.127 37.9631 116.4 38.268C116.484 37.5755 116.819 36.9379 117.342 36.4755C117.864 36.013 118.537 35.7577 119.235 35.7577C119.933 35.7577 120.606 36.013 121.128 36.4755C121.651 36.9379 121.986 37.5755 122.07 38.268C123.343 37.9631 124.559 37.4546 125.67 36.762C125.242 36.2125 125.03 35.5257 125.073 34.8308C125.116 34.1358 125.412 33.4806 125.904 32.9882C126.397 32.4958 127.052 32.2003 127.747 32.1572C128.442 32.114 129.129 32.3263 129.678 32.754C130.368 31.6424 130.875 30.4268 131.178 29.154C130.486 29.0633 129.851 28.723 129.393 28.197C128.934 27.6711 128.684 26.9958 128.688 26.298ZM119.25 30.222C118.474 30.2232 117.714 29.994 117.068 29.5636C116.422 29.1331 115.918 28.5207 115.62 27.8038C115.323 27.0869 115.244 26.2977 115.395 25.5361C115.545 24.7746 115.919 24.0748 116.467 23.5254C117.016 22.976 117.715 22.6017 118.476 22.4498C119.238 22.2979 120.027 22.3753 120.744 22.6721C121.462 22.9689 122.075 23.4719 122.506 24.1173C122.938 24.7627 123.168 25.5216 123.168 26.298C123.168 27.3377 122.755 28.3348 122.021 29.0706C121.286 29.8063 120.29 30.2204 119.25 30.222Z" fill="#814EFF"/>
<path d="M157.098 52.2C157.1 55.4183 156.026 58.545 154.048 61.0834C152.069 63.6217 149.299 65.4261 146.178 66.21C145.025 66.5027 143.84 66.6499 142.65 66.648C139.794 66.6468 137.003 65.7989 134.629 64.2116C132.255 62.6242 130.405 60.3686 129.312 57.7299C128.22 55.0912 127.934 52.1879 128.492 49.387C129.049 46.5861 130.425 44.0133 132.444 41.9939C134.463 39.9746 137.036 38.5992 139.837 38.0418C142.638 37.4843 145.541 37.7698 148.18 38.8622C150.819 39.9545 153.074 41.8046 154.662 44.1787C156.249 46.5527 157.097 49.3441 157.098 52.2Z" fill="#1988FF"/>
<path d="M142.65 37.74V52.2H128.202C128.201 50.3019 128.574 48.4222 129.3 46.6682C130.026 44.9143 131.09 43.3204 132.431 41.9777C133.773 40.635 135.366 39.5696 137.119 38.8425C138.872 38.1154 140.752 37.7408 142.65 37.74Z" fill="#FF99A8"/>
<path d="M155.55 45.69L142.65 52.2V37.746C145.326 37.7407 147.95 38.4812 150.229 39.8844C152.508 41.2876 154.35 43.298 155.55 45.69Z" fill="#9E97FF"/>
<path d="M154.23 60.834C152.242 63.4939 149.398 65.3881 146.178 66.198L142.65 52.2L154.23 60.834Z" fill="#F6921E"/>
<path d="M163.638 21.996H159.912V33.888H163.638V21.996Z" fill="#1988FF"/>
<path d="M169.998 18.714H166.272V33.888H169.998V18.714Z" fill="#9E97FF"/>
<path d="M176.352 24.99H172.626V33.882H176.352V24.99Z" fill="#1988FF"/>
<path d="M179.79 16.026H156.48V33.888H179.79V16.026Z" stroke="#060305" stroke-linecap="round" stroke-linejoin="round"/>
<path d="M101.376 36.642H91.344V46.674H101.376V36.642Z" fill="#1988FF"/>
<path d="M96.8039 45.222L92.1599 39.732L93.7739 38.37L96.5759 41.682L100.782 35.16L102.558 36.312L96.8039 45.222Z" fill="#F6921E"/>
<path d="M101.376 51.426H91.344V61.458H101.376V51.426Z" fill="#1988FF"/>
<path d="M96.8039 60.006L92.1599 54.516L93.7739 53.154L96.5759 56.466L100.782 49.944L102.558 51.096L96.8039 60.006Z" fill="#F6921E"/>
<path d="M101.376 66.21H91.344V76.242H101.376V66.21Z" fill="#1988FF"/>
<path d="M96.8039 74.796L92.1599 69.3L93.7739 67.938L96.5759 71.25L100.782 64.734L102.558 65.88L96.8039 74.796Z" fill="#F6921E"/>
<path d="M31.3983 100.374L29.1879 102.584L40.5072 113.904L42.7177 111.693L31.3983 100.374Z" fill="#C14F4F"/>
<path d="M35.5899 106.778C38.5141 103.853 38.5141 99.1123 35.5899 96.1881C32.6656 93.2638 27.9245 93.2638 25.0003 96.1881C22.076 99.1123 22.076 103.853 25.0003 106.778C27.9245 109.702 32.6656 109.702 35.5899 106.778Z" fill="#1988FF"/>
<path d="M30.294 109.914C28.6267 109.914 26.9969 109.42 25.6106 108.493C24.2243 107.567 23.1438 106.25 22.5057 104.71C21.8677 103.17 21.7007 101.475 22.026 99.8393C22.3513 98.2041 23.1541 96.702 24.3331 95.523C25.5121 94.3441 27.0141 93.5412 28.6494 93.2159C30.2847 92.8907 31.9797 93.0576 33.52 93.6957C35.0604 94.3337 36.377 95.4142 37.3033 96.8005C38.2296 98.1868 38.724 99.8167 38.724 101.484C38.7224 103.719 37.8338 105.863 36.2532 107.443C34.6726 109.024 32.5293 109.912 30.294 109.914ZM30.294 94.914C28.9982 94.914 27.7314 95.2982 26.6539 96.0182C25.5764 96.7381 24.7367 97.7614 24.2408 98.9586C23.7449 100.156 23.6151 101.473 23.8679 102.744C24.1207 104.015 24.7447 105.183 25.6611 106.099C26.5774 107.015 27.7448 107.639 29.0158 107.892C30.2867 108.145 31.6041 108.015 32.8014 107.519C33.9986 107.023 35.0219 106.184 35.7418 105.106C36.4617 104.029 36.846 102.762 36.846 101.466C36.8397 99.7319 36.1468 98.0709 34.9189 96.8464C33.691 95.6219 32.0281 94.9335 30.294 94.932V94.914Z" fill="#FF99A8"/>
<path d="M37 108L41.23 112.29" stroke="#1988FF" stroke-linecap="round" stroke-linejoin="round"/>
<path d="M197.022 57.174V90.786H163.638V47.832H187.686L197.022 57.174Z" fill="#1988FF"/>
<path d="M197.022 57.174H187.686V47.832L197.022 57.174Z" fill="#9E97FF"/>
<path d="M170.526 59.94H191.28" stroke="#060305" stroke-linecap="round" stroke-linejoin="round"/>
<path d="M170.526 64.158H191.28" stroke="#060305" stroke-linecap="round" stroke-linejoin="round"/>
<path d="M170.526 68.376H191.28" stroke="#060305" stroke-linecap="round" stroke-linejoin="round"/>
<path d="M170.526 72.6H191.28" stroke="#060305" stroke-linecap="round" stroke-linejoin="round"/>
<path d="M170.526 76.818H191.28" stroke="#060305" stroke-linecap="round" stroke-linejoin="round"/>
<path d="M170.526 81.036H191.28" stroke="#060305" stroke-linecap="round" stroke-linejoin="round"/>
<path d="M21.0719 59.772H41.3339V70.632H27.9779L26.0099 74.034L24.0479 70.632H21.0719V59.772Z" fill="#1988FF"/>
<path d="M24.84 63.66H38.166" stroke="#060305" stroke-linecap="round" stroke-linejoin="round"/>
<path d="M24.84 66.948H38.166" stroke="#060305" stroke-linecap="round" stroke-linejoin="round"/>
<path d="M57.8219 43.506H37.5599V54.36H50.9159L52.8779 57.762L54.8459 54.36H57.8219V43.506Z" fill="#1988FF"/>
<path d="M41.028 47.346H54.354" stroke="#060305" stroke-linecap="round" stroke-linejoin="round"/>
<path d="M41.028 50.634H54.354" stroke="#060305" stroke-linecap="round" stroke-linejoin="round"/>
<path d="M67.23 70.488V92.388H45.48V64.404H61.146L67.23 70.488Z" fill="#1988FF"/>
<path d="M67.23 70.488H61.146V64.404L67.23 70.488Z" fill="#9E97FF"/>
<path d="M59.7659 74.538C59.249 74.8324 58.8313 75.2737 58.5658 75.806C58.3004 76.3384 58.1991 76.9376 58.275 77.5275C58.3509 78.1175 58.6004 78.6716 58.9919 79.1195C59.3834 79.5673 59.8992 79.8886 60.4738 80.0426C61.0483 80.1966 61.6557 80.1763 62.2187 79.9844C62.7817 79.7924 63.2749 79.4374 63.6357 78.9644C63.9965 78.4915 64.2085 77.922 64.2449 77.3283C64.2812 76.7345 64.1403 76.1434 63.8399 75.63C63.4412 74.9485 62.7899 74.4516 62.0272 74.2472C61.2645 74.0428 60.452 74.1473 59.7659 74.538Z" fill="#1988FF"/>
<path d="M49.8419 80.268C49.3251 80.5623 48.9073 81.0037 48.6419 81.536C48.3764 82.0683 48.2752 82.6676 48.351 83.2575C48.4269 83.8475 48.6765 84.4016 49.068 84.8494C49.4595 85.2973 49.9753 85.6186 50.5498 85.7726C51.1244 85.9266 51.7318 85.9063 52.2948 85.7144C52.8578 85.5224 53.351 85.1674 53.7118 84.6944C54.0725 84.2215 54.2846 83.652 54.3209 83.0583C54.3573 82.4645 54.2163 81.8734 53.9159 81.36C53.5172 80.6785 52.8659 80.1816 52.1032 79.9772C51.3406 79.7727 50.5281 79.8772 49.8419 80.268Z" fill="#1988FF"/>
<path d="M62.7479 80.268C62.2345 79.9683 61.6436 79.8279 61.0503 79.8646C60.4569 79.9013 59.8879 80.1135 59.4153 80.4742C58.9428 80.835 58.588 81.3279 58.3962 81.8906C58.2043 82.4533 58.1839 83.0603 58.3376 83.6345C58.4913 84.2088 58.8122 84.7245 59.2594 85.1161C59.7067 85.5077 60.2603 85.7575 60.8498 85.834C61.4394 85.9104 62.0384 85.81 62.5707 85.5454C63.1031 85.2808 63.5449 84.8641 63.8399 84.348C64.2326 83.6613 64.3381 82.8474 64.1336 82.0833C63.9291 81.3191 63.4311 80.6667 62.7479 80.268Z" fill="#1988FF"/>
<path d="M52.7999 74.538C52.2865 74.2383 51.6956 74.0979 51.1023 74.1346C50.5089 74.1714 49.9399 74.3835 49.4673 74.7443C48.9948 75.105 48.64 75.5979 48.4482 76.1606C48.2563 76.7233 48.2359 77.3303 48.3896 77.9045C48.5433 78.4788 48.8642 78.9945 49.3114 79.3861C49.7587 79.7777 50.3123 80.0276 50.9018 80.104C51.4914 80.1804 52.0904 80.08 52.6227 79.8154C53.1551 79.5509 53.5969 79.1341 53.8919 78.618C54.2846 77.9313 54.3901 77.1174 54.1856 76.3533C53.9811 75.5892 53.4831 74.9368 52.7999 74.538Z" fill="#1988FF"/>
<path d="M56.2919 88.698C57.9389 88.698 59.2739 87.3629 59.2739 85.716C59.2739 84.0691 57.9389 82.734 56.2919 82.734C54.645 82.734 53.3099 84.0691 53.3099 85.716C53.3099 87.3629 54.645 88.698 56.2919 88.698Z" fill="#1988FF"/>
<path d="M56.2919 77.244C57.9389 77.244 59.2739 75.9089 59.2739 74.262C59.2739 72.6151 57.9389 71.28 56.2919 71.28C54.645 71.28 53.3099 72.6151 53.3099 74.262C53.3099 75.9089 54.645 77.244 56.2919 77.244Z" fill="#1988FF"/>
<path d="M60.558 79.986C60.558 79.1422 60.3078 78.3174 59.8391 77.6159C59.3703 76.9144 58.704 76.3676 57.9245 76.0447C57.145 75.7218 56.2873 75.6373 55.4597 75.8019C54.6322 75.9665 53.8721 76.3728 53.2755 76.9695C52.6789 77.5661 52.2726 78.3262 52.108 79.1537C51.9434 79.9812 52.0278 80.839 52.3507 81.6185C52.6736 82.398 53.2204 83.0643 53.9219 83.533C54.6235 84.0018 55.4483 84.252 56.292 84.252C56.8524 84.2528 57.4075 84.143 57.9255 83.9289C58.4434 83.7147 58.914 83.4005 59.3103 83.0043C59.7066 82.608 60.0208 82.1374 60.2349 81.6194C60.449 81.1015 60.5588 80.5464 60.558 79.986Z" fill="black"/>
<path d="M250.152 279.84C250.152 275.478 221.748 275.478 186.714 275.478C151.68 275.478 123.276 275.478 123.276 279.84C123.276 284.202 151.674 284.208 186.714 284.208C221.754 284.208 250.152 284.208 250.152 279.84Z" fill="white"/>
<path d="M159.204 256.236C158.942 259.843 157.876 263.346 156.082 266.487C154.289 269.628 151.815 272.327 148.842 274.386C146.664 275.868 143.832 277.212 143.682 279.84L216.522 279.462C218.43 271.356 220.764 262.788 222.672 254.682C201.36 254.838 180.522 256.086 159.204 256.236Z" fill="#1988FF"/>
<path d="M190.35 257.646C190.088 260.99 189.166 264.25 187.637 267.236C186.109 270.223 184.005 272.877 181.446 275.046C179.82 276.408 177.624 277.446 176.736 279.354" stroke="black" stroke-linecap="round" stroke-linejoin="round"/>
<path d="M178.134 278.4L217.392 276.804" stroke="black" stroke-linecap="round" stroke-linejoin="round"/>
<path d="M144.468 278.298L177.402 277.968" stroke="black" stroke-linecap="round" stroke-linejoin="round"/>
<path d="M264.198 187.038C243.522 181.734 221.184 181.464 200.82 187.854C200.874 189.54 200.172 191.052 200.22 192.744C195.222 193.188 190.17 192.936 185.172 193.38C180.132 193.194 175.614 196.98 172.806 201.15C169.998 205.32 168.702 210.33 167.442 215.214C163.842 229.262 160.232 243.308 156.612 257.352L223.566 258C225.966 246.894 229.356 235.728 231.768 224.628C236.736 223.986 241.74 223.338 246.492 221.754C251.244 220.17 255.792 217.554 258.906 213.66C264.672 206.43 264.6 196.29 264.198 187.038Z" fill="#37474F"/>
<path d="M233.724 216.816C233.084 219.584 232.444 222.35 231.804 225.114L234.102 222.186" stroke="#060305" stroke-linecap="round" stroke-linejoin="round"/>
<path d="M189.438 257.238L200.916 206.838C202.302 200.76 206.958 195.546 213.084 194.394" stroke="#060305" stroke-linecap="round" stroke-linejoin="round"/>
<path d="M209.304 199.878C210.643 198.892 212.233 198.305 213.892 198.185C215.55 198.065 217.209 198.417 218.676 199.2" stroke="#060305" stroke-linecap="round" stroke-linejoin="round"/>
<path d="M178.734 198.414C179.37 197.71 180.142 197.142 181.002 196.743C181.863 196.344 182.795 196.123 183.743 196.092C184.691 196.061 185.636 196.222 186.52 196.564C187.405 196.906 188.212 197.423 188.892 198.084" stroke="#060305" stroke-linecap="round" stroke-linejoin="round"/>
<path d="M158.136 252.6C158.136 252.6 216.744 252.966 223.692 253.05" stroke="#060305" stroke-linecap="round" stroke-linejoin="round"/>
<path d="M253.764 131.058C248.484 129.66 243.798 128.892 238.44 127.83C238.218 128.63 237.752 129.341 237.106 129.864C236.461 130.387 235.669 130.695 234.84 130.746C234.029 130.772 233.231 130.54 232.562 130.082C231.892 129.625 231.385 128.967 231.114 128.202L218.772 131.862C212.496 133.728 207 138 202.5 142.8C198.864 146.688 195.06 150.318 191.388 154.2C195.972 167.4 199.938 175.89 205.944 188.514L263.628 183.114C266.766 172.314 270.228 166.41 273.372 155.616C274.842 154.362 276.72 153.108 278.172 151.854C273.828 141.816 267.456 134.682 253.764 131.058Z" fill="#1988FF"/>
<path d="M225.954 129.792C226.482 132.474 228.738 134.628 231.354 135.42C234.021 136.132 236.858 135.831 239.316 134.574C241.753 133.318 243.915 131.588 245.676 129.486" stroke="#060305" stroke-linecap="round" stroke-linejoin="round"/>
<path d="M210.348 136.158C209.436 141.894 208.52 147.628 207.6 153.36" stroke="#060305" stroke-linecap="round" stroke-linejoin="round"/>
<path d="M259.644 133.2C258.476 133.26 257.336 133.581 256.309 134.141C255.281 134.701 254.393 135.484 253.71 136.434C252.36 138.342 252.192 140.814 252.612 143.112C253.568 148.666 254.863 154.156 256.488 159.552" stroke="#060305" stroke-linecap="round" stroke-linejoin="round"/>
<path d="M255.918 157.002L277.518 150.066" stroke="#060305" stroke-linecap="round" stroke-linejoin="round"/>
<path d="M281.4 164.862C280.53 160.482 278.766 156.33 277.02 152.22L257.82 159.312L259.656 167.148C254.634 168.594 249.402 169.722 244.386 171.168C238.8 172.8 233.214 174.6 228 177.294C226.2 181.122 224.4 184.842 222.564 188.694C222.417 189.04 222.373 189.421 222.437 189.791C222.501 190.161 222.67 190.505 222.924 190.782C223.186 191.008 223.5 191.167 223.838 191.243C224.176 191.319 224.528 191.312 224.862 191.22C228.408 190.218 231.462 187.428 234.63 185.568C232.326 188.008 230.116 190.552 228 193.2C228.423 193.555 228.955 193.757 229.507 193.771C230.06 193.785 230.601 193.611 231.042 193.278C233.886 191.28 236.886 189.726 239.778 187.794L236.592 192.594C236.631 192.79 236.746 192.962 236.91 193.074C237.075 193.186 237.278 193.229 237.474 193.194C237.888 193.133 238.279 192.971 238.614 192.72L242.958 190.008C245.718 190.392 248.898 189.798 251.592 189.096C258.162 187.38 265.392 188.874 271.638 186.27C275.55 184.644 278.664 181.932 280.392 178.062C282.204 173.934 282.276 169.248 281.4 164.862Z" fill="white" stroke="#222221" stroke-width="0.5"/>
<path d="M259.2 167.166L263.622 166.41" stroke="#060305" stroke-linecap="round" stroke-linejoin="round"/>
<path d="M223.26 190.02L231.6 180.63" stroke="#060305" stroke-linecap="round" stroke-linejoin="round"/>
<path d="M235.692 184.584L233.694 186.708" stroke="#060305" stroke-linecap="round" stroke-linejoin="round"/>
<path d="M212.454 155.124L224.328 190.614H247.302C247.568 190.612 247.831 190.683 248.06 190.818C248.29 190.953 248.479 191.147 248.607 191.381C248.735 191.615 248.797 191.879 248.787 192.145C248.777 192.412 248.695 192.67 248.55 192.894C248.186 193.428 247.697 193.864 247.127 194.167C246.556 194.469 245.92 194.627 245.274 194.628H164.592C163.787 194.626 163.003 194.372 162.35 193.9C161.698 193.429 161.21 192.764 160.956 192L148.614 155.124C148.513 154.824 148.485 154.505 148.532 154.192C148.579 153.88 148.699 153.583 148.883 153.326C149.067 153.068 149.309 152.859 149.59 152.713C149.871 152.568 150.182 152.492 150.498 152.49H208.8C209.609 152.489 210.397 152.743 211.053 153.216C211.709 153.689 212.199 154.357 212.454 155.124Z" fill="#060305"/>
<path d="M181.632 174.18C181.633 173.677 181.784 173.185 182.064 172.768C182.345 172.35 182.743 172.025 183.208 171.833C183.673 171.642 184.185 171.593 184.678 171.692C185.171 171.791 185.624 172.035 185.979 172.391C186.334 172.748 186.575 173.202 186.672 173.696C186.769 174.189 186.718 174.701 186.524 175.165C186.33 175.629 186.003 176.026 185.584 176.305C185.165 176.583 184.673 176.731 184.17 176.73C183.496 176.727 182.85 176.457 182.375 175.979C181.899 175.501 181.632 174.854 181.632 174.18Z" fill="#814EFF"/>
<path d="M208.812 152.49L222.996 194.628" stroke="#1988FF" stroke-linecap="round" stroke-linejoin="round"/>
<path d="M149.844 154.044H178.578" stroke="#1988FF" stroke-linecap="round" stroke-linejoin="round"/>
<path d="M227.154 192.6C227.154 192.4 227.095 192.205 226.984 192.039C226.873 191.873 226.715 191.744 226.53 191.668C226.346 191.592 226.143 191.572 225.947 191.612C225.751 191.651 225.572 191.748 225.431 191.889C225.29 192.031 225.195 192.211 225.157 192.407C225.118 192.603 225.139 192.806 225.216 192.99C225.294 193.174 225.424 193.331 225.59 193.441C225.757 193.551 225.952 193.609 226.152 193.608C226.284 193.608 226.415 193.582 226.537 193.531C226.659 193.48 226.769 193.406 226.863 193.312C226.956 193.219 227.029 193.108 227.079 192.985C227.129 192.863 227.155 192.732 227.154 192.6Z" stroke="#1988FF" stroke-linecap="round" stroke-linejoin="round"/>
<path d="M229.788 192.624H232.518" stroke="#1988FF" stroke-linecap="round" stroke-linejoin="round"/>
<path d="M243.822 117.312C243.886 119.081 244.615 120.76 245.862 122.016C246.546 122.724 247.38 123.33 247.986 124.092C248.592 124.854 248.934 125.892 248.49 126.702" stroke="#060305" stroke-linecap="round" stroke-linejoin="round"/>
<path d="M240.684 112.2L241.35 111.69" stroke="#060305" stroke-linecap="round" stroke-linejoin="round"/>
<path d="M246.906 124.35C246.438 123.654 245.766 123.102 245.316 122.394C244.446 121.008 244.536 119.262 244.236 117.654C243.887 115.797 242.996 114.085 241.676 112.734C240.355 111.383 238.663 110.453 236.815 110.062C234.966 109.671 233.044 109.837 231.289 110.538C229.534 111.238 228.027 112.443 226.956 114C225.786 115.704 225.204 117.726 224.466 119.658C223.728 121.59 222.75 123.534 221.07 124.728L247.128 126.708C247.614 126 247.374 125.046 246.906 124.35Z" fill="#060305"/>
<path d="M242.67 129.18C241.638 129.03 240.378 128.946 239.346 128.796C239.28 127.596 239.208 126.396 239.142 125.196C239.626 125.19 240.102 125.07 240.531 124.845C240.959 124.621 241.329 124.298 241.61 123.904C241.891 123.509 242.075 123.054 242.147 122.576C242.219 122.097 242.177 121.608 242.024 121.149C241.872 120.689 241.613 120.272 241.269 119.932C240.925 119.591 240.506 119.336 240.045 119.188C239.584 119.04 239.095 119.002 238.617 119.079C238.139 119.155 237.686 119.343 237.294 119.628C237.078 118.77 236.724 117.75 236.508 116.892C236.033 116.983 235.542 116.888 235.135 116.626C234.729 116.365 234.438 115.957 234.324 115.488C234.144 115.902 233.4 116.052 232.95 115.992C232.503 115.906 232.087 115.698 231.75 115.392C231.417 115.088 231.058 114.815 230.676 114.576C230.372 114.408 230.036 114.307 229.69 114.281C229.344 114.255 228.996 114.305 228.671 114.426C228.346 114.548 228.051 114.738 227.807 114.985C227.563 115.231 227.375 115.528 227.256 115.854C226.44 118.038 225.378 120.21 225.378 122.538C225.382 123.93 225.911 125.269 226.86 126.288C227.829 127.345 229.167 127.989 230.598 128.088C230.598 128.55 230.634 128.82 230.64 129.288C229.854 129.432 228.738 129.576 227.958 129.72C228.231 130.648 228.745 131.486 229.448 132.151C230.151 132.815 231.018 133.28 231.96 133.5C233.957 133.954 236.05 133.702 237.882 132.786C239.688 131.891 241.311 130.668 242.67 129.18Z" fill="white" stroke="#222221" stroke-width="0.5"/>
<path d="M238.308 121.638L239.766 121.212" stroke="#060305" stroke-linecap="round" stroke-linejoin="round"/>
<path d="M238.032 125.256L239.19 125.406" stroke="#060305" stroke-linecap="round" stroke-linejoin="round"/>
<path d="M230.268 128.226C231.594 128.555 232.994 128.422 234.234 127.848" stroke="#060305" stroke-linecap="round" stroke-linejoin="round"/>
<path d="M228.75 114.384C228.951 114.305 229.17 114.284 229.382 114.323C229.594 114.362 229.791 114.46 229.95 114.606C230.262 114.914 230.513 115.278 230.688 115.68" stroke="#060305" stroke-linecap="round" stroke-linejoin="round"/>
<path d="M233.406 120.906C233.737 120.906 234.006 120.637 234.006 120.306C234.006 119.975 233.737 119.706 233.406 119.706C233.075 119.706 232.806 119.975 232.806 120.306C232.806 120.637 233.075 120.906 233.406 120.906Z" fill="#060305"/>
<path d="M227.526 119.844C227.857 119.844 228.126 119.575 228.126 119.244C228.126 118.913 227.857 118.644 227.526 118.644C227.195 118.644 226.926 118.913 226.926 119.244C226.926 119.575 227.195 119.844 227.526 119.844Z" fill="#060305"/>
<path d="M230.148 119.4C229.902 120 229.656 120.6 229.404 121.2C229.62 121.248 229.8 121.374 230.004 121.422" stroke="#060305" stroke-linecap="round" stroke-linejoin="round"/>
<path d="M230.91 122.568C230.967 122.71 231.07 122.827 231.204 122.902C231.337 122.976 231.492 123.002 231.642 122.976C231.789 122.943 231.921 122.859 232.014 122.74C232.107 122.621 232.156 122.473 232.152 122.322" stroke="#060305" stroke-linecap="round" stroke-linejoin="round"/>
<path d="M226.938 116.85C227.119 116.681 227.341 116.562 227.581 116.504C227.822 116.446 228.074 116.451 228.312 116.52C228.55 116.588 228.766 116.717 228.94 116.893C229.113 117.07 229.238 117.289 229.302 117.528" stroke="#060305" stroke-linecap="round" stroke-linejoin="round"/>
<path d="M232.242 117.828L234.042 117.966" stroke="#060305" stroke-linecap="round" stroke-linejoin="round"/>
<path d="M125.04 145.716C123.004 145.716 120.97 145.614 118.944 145.41C118.546 145.369 118.181 145.172 117.928 144.862C117.675 144.552 117.556 144.155 117.597 143.757C117.637 143.359 117.834 142.994 118.144 142.741C118.454 142.489 118.852 142.369 119.25 142.41C143.934 144.942 168.918 130.41 174.942 110.01C174.989 109.812 175.076 109.626 175.198 109.462C175.319 109.299 175.473 109.162 175.649 109.06C175.825 108.958 176.02 108.893 176.222 108.869C176.424 108.844 176.629 108.862 176.825 108.919C177.02 108.977 177.201 109.073 177.358 109.203C177.515 109.333 177.643 109.493 177.736 109.675C177.829 109.856 177.884 110.054 177.898 110.257C177.911 110.46 177.883 110.664 177.816 110.856C174.816 121.056 166.974 130.572 156.312 137.028C146.87 142.71 136.059 145.714 125.04 145.716Z" fill="#9E97FF"/>
<path d="M141.198 140.49C141.396 141.42 141.6 142.35 141.798 143.28" stroke="#060305" stroke-linecap="round" stroke-linejoin="round"/>
<path d="M143.724 139.902L144.606 142.104" stroke="#060305" stroke-linecap="round" stroke-linejoin="round"/>
<path d="M146.628 138.6C146.88 139.476 147.126 140.358 147.378 141.24" stroke="#060305" stroke-linecap="round" stroke-linejoin="round"/>
<path d="M149.334 137.538L150.36 139.596" stroke="#060305" stroke-linecap="round" stroke-linejoin="round"/>
<path d="M152.322 135.972L153.672 138.462" stroke="#060305" stroke-linecap="round" stroke-linejoin="round"/>
<path d="M154.866 134.484L156.414 136.884" stroke="#060305" stroke-linecap="round" stroke-linejoin="round"/>
<path d="M157.398 132.552L159.306 135.054" stroke="#060305" stroke-linecap="round" stroke-linejoin="round"/>
<path d="M160.008 131.106L161.616 133.32" stroke="#060305" stroke-linecap="round" stroke-linejoin="round"/>
<path d="M171.504 103.332C171.744 102.045 172.39 100.869 173.348 99.9767C174.306 99.0845 175.525 98.5234 176.826 98.376L175.752 104.118L179.25 104.766L180.318 99.03C181.321 99.5511 182.159 100.341 182.739 101.31C183.32 102.28 183.62 103.391 183.605 104.521C183.591 105.651 183.263 106.755 182.658 107.71C182.054 108.664 181.196 109.432 180.18 109.928C179.165 110.424 178.031 110.628 176.907 110.517C175.782 110.406 174.71 109.986 173.811 109.302C172.911 108.618 172.219 107.698 171.812 106.644C171.405 105.59 171.298 104.443 171.504 103.332Z" fill="#814EFF"/>
<path d="M178.284 108.798C179.246 108.729 180.156 108.335 180.864 107.681C181.573 107.027 182.038 106.151 182.184 105.198" stroke="#060305" stroke-linecap="round" stroke-linejoin="round"/>
<path d="M96.084 163.2C104.16 165 112.284 161.034 115.14 153.828L122.4 135.6L84.042 126.978L82.842 146.532C82.392 154.296 88.014 161.364 96.084 163.2Z" fill="#9E97FF"/>
<path d="M84.864 148.95C85.818 154.608 90.342 159.282 95.7 161.328" stroke="#1988FF" stroke-linecap="round" stroke-linejoin="round"/>
<path d="M90.2759 137.076C90.3489 136.753 90.5158 136.46 90.7555 136.232C90.9952 136.004 91.297 135.852 91.6229 135.796C91.9488 135.739 92.284 135.781 92.5864 135.915C92.8888 136.049 93.1448 136.269 93.322 136.548C93.4992 136.827 93.5898 137.153 93.5822 137.484C93.5747 137.814 93.4694 138.135 93.2796 138.406C93.0898 138.677 92.8241 138.885 92.5159 139.005C92.2077 139.125 91.8709 139.151 91.5479 139.08C91.1137 138.983 90.7359 138.717 90.4974 138.341C90.259 137.965 90.1793 137.51 90.2759 137.076Z" fill="#1988FF"/>
<path d="M90 135.282C90.327 134.946 90.7333 134.697 91.1816 134.558C91.6298 134.42 92.1057 134.396 92.5655 134.489C93.0253 134.582 93.4544 134.789 93.8134 135.091C94.1723 135.393 94.4497 135.781 94.62 136.218" stroke="#060305" stroke-linecap="round" stroke-linejoin="round"/>
<path d="M96.1739 138.402C96.2461 138.079 96.4126 137.784 96.6523 137.556C96.8919 137.327 97.194 137.175 97.5203 137.118C97.8466 137.061 98.1824 137.102 98.4853 137.236C98.7882 137.37 99.0444 137.591 99.2217 137.871C99.399 138.151 99.4893 138.477 99.4812 138.808C99.4731 139.139 99.3669 139.46 99.1762 139.731C98.9854 140.002 98.7186 140.21 98.4096 140.329C98.1005 140.448 97.763 140.473 97.4399 140.4C97.0073 140.303 96.631 140.037 96.3936 139.663C96.1563 139.288 96.0773 138.835 96.1739 138.402Z" fill="#1988FF"/>
<path d="M96.2579 136.368C96.6239 136.104 97.052 135.939 97.5005 135.889C97.9491 135.84 98.4028 135.907 98.8177 136.085C99.2326 136.262 99.5945 136.544 99.8682 136.903C100.142 137.261 100.318 137.685 100.38 138.132" stroke="#060305" stroke-linecap="round" stroke-linejoin="round"/>
<path d="M83.592 136.038C83.3636 136.038 83.1381 135.986 82.932 135.888C67.464 128.304 63.378 114.642 63.216 114.06C63.1271 113.685 63.186 113.29 63.3806 112.957C63.5752 112.624 63.8905 112.379 64.2611 112.272C64.6316 112.166 65.029 112.206 65.3707 112.385C65.7124 112.563 65.9721 112.867 66.096 113.232C66.132 113.358 70.026 126.216 84.252 133.194C84.5547 133.344 84.7979 133.592 84.9422 133.897C85.0865 134.203 85.1235 134.548 85.0471 134.877C84.9707 135.206 84.7855 135.5 84.5214 135.711C84.2573 135.921 83.9298 136.037 83.592 136.038Z" fill="#9E97FF"/>
<path d="M68.328 123.888L71.268 121.974" stroke="#060305" stroke-linecap="round" stroke-linejoin="round"/>
<path d="M69.522 125.52L72.312 123.456" stroke="#060305" stroke-linecap="round" stroke-linejoin="round"/>
<path d="M70.3679 126.942L72.8699 124.89" stroke="#060305" stroke-linecap="round" stroke-linejoin="round"/>
<path d="M71.7 128.13L73.758 125.634" stroke="#060305" stroke-linecap="round" stroke-linejoin="round"/>
<path d="M74.646 126.372L73.2 128.724" stroke="#060305" stroke-linecap="round" stroke-linejoin="round"/>
<path d="M75.672 127.548L73.614 130.044" stroke="#060305" stroke-linecap="round" stroke-linejoin="round"/>
<path d="M56.3999 111.246C55.7718 110.1 55.5267 108.783 55.7005 107.487C55.8743 106.192 56.4579 104.986 57.3659 104.046L60.1859 109.164L63.2999 107.448L60.4799 102.33C61.5857 102.096 62.7347 102.174 63.7989 102.554C64.863 102.935 65.8006 103.604 66.507 104.486C67.2133 105.368 67.6608 106.43 67.7994 107.551C67.9381 108.673 67.7625 109.811 67.2922 110.839C66.8219 111.867 66.0754 112.743 65.1359 113.372C64.1964 114 63.1009 114.355 61.9715 114.397C60.842 114.44 59.723 114.167 58.7393 113.611C57.7555 113.055 56.9456 112.236 56.3999 111.246Z" fill="#814EFF"/>
<path d="M58.002 111.564C59.0417 112.274 60.2916 112.61 61.5471 112.517C62.8026 112.425 63.9896 111.909 64.914 111.054" stroke="#060305" stroke-linecap="round" stroke-linejoin="round"/>
<path d="M146.022 83.466L142.8 87.81" stroke="#1988FF" stroke-linecap="round" stroke-linejoin="round"/>
<path d="M145.266 82.644C145.215 82.337 145.257 82.0218 145.385 81.7383C145.514 81.4549 145.724 81.2161 145.988 81.052C146.253 80.8879 146.56 80.8061 146.871 80.8168C147.182 80.8275 147.483 80.9303 147.736 81.1121C147.988 81.294 148.181 81.5467 148.29 81.8383C148.399 82.1299 148.418 82.4472 148.347 82.75C148.275 83.0529 148.115 83.3276 147.887 83.5395C147.659 83.7513 147.373 83.8907 147.066 83.94C146.656 84.0042 146.237 83.9042 145.9 83.6616C145.563 83.419 145.335 83.0534 145.266 82.644Z" fill="#814EFF"/>
<path d="M133.434 92.694C133.249 91.5779 133.4 90.432 133.866 89.4012C134.332 88.3704 135.093 87.5009 136.053 86.9024C137.013 86.3039 138.129 86.0033 139.26 86.0386C140.39 86.0739 141.485 86.4434 142.406 87.1006C143.327 87.7577 144.033 88.673 144.434 89.7309C144.835 90.7887 144.913 91.9417 144.659 93.0441C144.405 94.1466 143.831 95.1491 143.007 95.9251C142.184 96.701 141.149 97.2157 140.034 97.404C139.291 97.5285 138.531 97.5055 137.798 97.3361C137.064 97.1668 136.371 96.8545 135.758 96.417C135.145 95.9796 134.624 95.4256 134.225 94.7868C133.826 94.148 133.558 93.4368 133.434 92.694Z" fill="#814EFF"/>
<path d="M114.558 81.312C132.276 78.354 149.688 94.254 153.45 116.826L89.298 127.524C85.536 104.952 96.846 84.264 114.558 81.312Z" fill="#9E97FF"/>
<path d="M119.502 95.268C119.394 94.5665 119.495 93.8486 119.793 93.2046C120.092 92.5606 120.574 92.0192 121.179 91.6484C121.785 91.2777 122.486 91.0942 123.196 91.121C123.905 91.1478 124.59 91.3836 125.166 91.799C125.742 92.2143 126.182 92.7905 126.431 93.4552C126.68 94.1199 126.727 94.8434 126.566 95.5347C126.405 96.2261 126.043 96.8544 125.526 97.3407C125.009 97.8271 124.36 98.1497 123.66 98.268C123.19 98.3476 122.708 98.3328 122.243 98.2246C121.779 98.1164 121.34 97.917 120.953 97.6379C120.566 97.3587 120.239 97.0055 119.99 96.5986C119.741 96.1918 119.575 95.7395 119.502 95.268Z" fill="#814EFF"/>
<path d="M118.422 92.4C118.684 91.6574 119.133 90.995 119.726 90.4767C120.319 89.9584 121.035 89.6018 121.806 89.4413C122.577 89.2809 123.377 89.322 124.127 89.5607C124.877 89.7994 125.553 90.2276 126.09 90.804" stroke="#060305" stroke-linecap="round" stroke-linejoin="round"/>
<path d="M110.676 103.716C112.175 105.12 113.938 106.214 115.862 106.932C117.786 107.651 119.834 107.982 121.887 107.904C123.94 107.826 125.957 107.343 127.821 106.481C129.686 105.619 131.361 104.395 132.75 102.882" stroke="#1988FF" stroke-width="2" stroke-linecap="round" stroke-linejoin="round"/>
<path d="M101.55 91.242C103.197 88.9316 105.322 87.0031 107.781 85.5878C110.24 84.1724 112.975 83.3035 115.8 83.04" stroke="#1988FF" stroke-linecap="round" stroke-linejoin="round"/>
<path d="M91.05 103.512C90.068 102.683 89.3937 101.547 89.1356 100.288C88.8774 99.0293 89.0505 97.72 89.6269 96.5714C90.2034 95.4227 91.1496 94.5014 92.3132 93.9559C93.4769 93.4103 94.7903 93.2723 96.042 93.564C96.4638 95.5426 96.1993 97.6059 95.2919 99.4141C94.3845 101.222 92.8884 102.668 91.05 103.512Z" fill="#814EFF"/>
<path d="M85.062 93.774L90.012 96.504" stroke="#1988FF" stroke-linecap="round" stroke-linejoin="round"/>
<path d="M82.5599 93.564C82.5078 93.2554 82.5485 92.9384 82.677 92.653C82.8055 92.3677 83.0159 92.127 83.2815 91.9616C83.5471 91.7961 83.8559 91.7134 84.1686 91.7238C84.4814 91.7343 84.7839 91.8375 85.0379 92.0204C85.2918 92.2032 85.4857 92.4574 85.5948 92.7507C85.7039 93.044 85.7234 93.363 85.6507 93.6674C85.578 93.9718 85.4165 94.2477 85.1867 94.46C84.9568 94.6724 84.6691 94.8116 84.3599 94.86C83.9497 94.9242 83.5307 94.8242 83.1938 94.5816C82.8569 94.339 82.6291 93.9734 82.5599 93.564Z" fill="#814EFF"/>
</svg>
