<svg width="300" height="300" viewBox="0 0 300 300" fill="none" xmlns="http://www.w3.org/2000/svg">
<path d="M153.788 36.8443C94.1693 35.084 42.5272 78.343 34.7248 135.104C26.1938 197.165 73.1458 253.002 130.917 261.949C202.777 273.073 272.475 208.718 266.216 138.901C261.501 86.3007 214.392 38.6338 153.788 36.8443Z" fill="#E6E6E6"/>
<path d="M254.51 234.951L47.9822 233.191V238.4C47.9822 239.814 48.883 241.016 50.1032 241.23L108.503 251.487C109.194 251.609 109.898 251.641 110.598 251.583L252.269 239.889C253.535 239.784 254.514 238.579 254.514 237.126L254.51 234.951Z" fill="#26264F"/>
<path d="M179.562 226.605L50.1178 236.133C47.8019 236.303 45.9186 234.492 45.9186 232.086V135.693C45.9186 133.287 47.8019 131.336 50.1178 131.336H179.562C181.47 131.336 183.013 133.099 183.013 135.274V222.412C183.013 224.587 181.47 226.464 179.562 226.605Z" fill="#26264F"/>
<path d="M181.626 226.605L52.1822 236.133C49.8655 236.303 47.9822 234.492 47.9822 232.086V135.693C47.9822 133.287 49.8655 131.336 52.1822 131.336H181.626C183.534 131.336 185.077 133.099 185.077 135.274V222.412C185.077 224.587 183.534 226.464 181.626 226.605Z" fill="url(#paint0_linear_5_1382)"/>
<path d="M177.594 220.461L57.0275 228.738C55.1426 228.867 53.6102 227.38 53.6102 225.416V141.024C53.6102 139.06 55.1466 137.462 57.0275 137.454L177.594 136.934C179.167 136.926 180.441 138.371 180.441 140.161V217.027C180.441 218.814 179.167 220.351 177.594 220.461Z" fill="#1988FF" fill-opacity="0.9"/>
<path d="M121.476 133.973C121.476 134.868 120.809 135.596 119.986 135.599C119.163 135.603 118.494 134.877 118.494 133.978C118.494 133.08 119.163 132.353 119.986 132.352C120.809 132.351 121.476 133.077 121.476 133.973Z" fill="white"/>
<g style="mix-blend-mode:soft-light" opacity="0.48">
<path d="M52.1814 236.133L180.97 226.652L181.626 226.604C182.501 226.54 183.298 226.107 183.906 225.45C174.638 224.943 168.881 221.65 165.168 218.254C157.711 211.43 159.005 204.699 150.963 200.212C140.936 194.615 133.046 201.707 125.435 194.71C120.821 190.468 123.09 187.304 117.408 180.963C111.12 173.942 107.026 176.302 100.705 169.983C92.7145 161.992 96.7107 155.776 89.8277 150.039C81.4771 143.08 72.4714 149.52 64.5218 142.847C61.0932 139.968 59.2124 135.783 58.2299 131.332H52.1822C49.8655 131.332 47.9822 133.282 47.9822 135.688V232.085C47.9822 234.492 49.8655 236.303 52.1814 236.133Z" fill="black"/>
</g>
<path d="M186.785 226.076L47.9822 236.103L108.503 246.732C109.194 246.853 109.898 246.886 110.598 246.828L254.51 234.948L188.993 226.14C188.261 226.043 187.521 226.021 186.785 226.076Z" fill="#6089B5"/>
<path d="M68.2358 236.192L183.793 227.717L219.557 232.487L104.995 241.546L68.2358 236.192Z" fill="#26264F"/>
<g opacity="0.67">
<path d="M98.4906 173.72C100.953 168.934 105.553 165.452 110.928 164.664L111.302 141.467C95.9435 142.233 82.6028 152.184 76.5939 166.179L98.4906 173.72Z" fill="white"/>
<path d="M128.441 183.235C127.147 190.949 120.673 197.09 112.802 197.475C110.557 197.59 108.314 197.211 106.232 196.362L94.1709 216.901C99.7561 219.643 106.109 220.986 112.802 220.552C132.554 219.273 148.388 202.94 150.161 183.296L128.441 183.235Z" fill="white"/>
<path d="M90.4286 214.788L102.55 194.213C98.9111 191.329 96.5734 186.795 96.5734 181.598C96.5735 180.366 96.7063 179.137 96.9696 177.933L75.0267 170.458C73.839 174.357 73.2357 178.409 73.2365 182.484C73.2365 196.28 80.0823 208.095 90.4286 214.788Z" fill="white"/>
</g>
<path d="M115.202 164.627C122.385 165.546 127.948 171.419 128.61 178.886L164.411 179.1C164.411 179.083 164.411 179.066 164.411 179.05C164.411 150.781 143.316 127.702 115.821 126.126L115.202 164.627Z" fill="#CACACA"/>
<path d="M46.103 61.9409V120.203C46.103 122.137 47.7025 123.705 49.6739 123.705H169.569C170.02 123.706 170.467 123.617 170.883 123.444C171.3 123.272 171.679 123.019 171.998 122.7C172.317 122.382 172.57 122.003 172.743 121.586C172.916 121.17 173.005 120.723 173.005 120.272V63.145L46.103 61.9409Z" fill="#EBEFF2"/>
<path d="M169.569 55.8566L49.6739 54.5822C47.7025 54.5612 46.103 56.1122 46.103 58.0464V64.0165L173.006 65.1841V59.3273C173.005 58.413 172.643 57.5362 172 56.8867C171.356 56.2371 170.483 55.8671 169.569 55.8566Z" fill="#D8DEE8"/>
<path d="M75.3824 93.073L81.9897 70.4121C91.9884 73.6676 99.2134 82.9369 99.2709 93.8299L75.3824 93.073Z" fill="#D8DEE8"/>
<path d="M93.0954 95.2368C92.7242 100.418 90.1973 105.006 86.3903 108.137L76.0197 94.6772L93.0954 95.2368Z" fill="white"/>
<path d="M73.9084 92.2926C69.9073 88.501 65.0822 83.9185 61.2461 80.2586C64.7929 76.9685 69.4661 75.1632 74.3038 75.2144C75.8027 75.2246 77.2953 75.41 78.7512 75.7667L73.9084 92.2926Z" fill="white"/>
<path d="M73.0707 93.7099L58.5615 104.136C56.2257 100.724 55.1083 96.6242 55.39 92.4991C55.6717 88.374 57.3361 84.4643 60.1141 81.4019C61.1766 82.4143 62.3559 83.5372 63.6518 84.7706C67.5728 88.4992 71.5117 92.2334 73.0707 93.7099Z" fill="white"/>
<path d="M73.4912 95.3882L73.2106 112.399C70.5705 112.25 67.9905 111.552 65.6345 110.352C63.2785 109.151 61.198 107.474 59.5254 105.426L73.4912 95.3882Z" fill="white"/>
<path d="M75.0987 96.1143L85.1086 109.102C82.0783 111.185 78.5066 112.34 74.8302 112.426L75.0987 96.1143Z" fill="white"/>
<path d="M164.095 81.635L102.654 81.2291V75.4668L164.095 75.9277V81.635Z" fill="white"/>
<path d="M164.095 91.9628L102.654 91.6571V85.894L164.095 86.2555V91.9628Z" fill="white"/>
<path d="M164.095 102.29L102.654 102.084V96.3218L164.095 96.583V102.29Z" fill="white"/>
<path d="M164.095 112.618L102.654 112.511V106.749L164.095 106.911V112.618Z" fill="white"/>
<path d="M54.3008 59.2942C54.2988 59.4995 54.2561 59.7023 54.1751 59.891C54.0942 60.0797 53.9766 60.2504 53.8292 60.3933C53.6818 60.5362 53.5075 60.6485 53.3164 60.7235C53.1252 60.7986 52.9212 60.835 52.7159 60.8306C52.2983 60.8293 51.898 60.6638 51.6014 60.3698C51.3048 60.0758 51.1359 59.677 51.131 59.2594C51.133 59.0541 51.1757 58.8512 51.2566 58.6626C51.3376 58.4739 51.4552 58.3031 51.6026 58.1602C51.75 58.0173 51.9243 57.9051 52.1154 57.83C52.3065 57.755 52.5106 57.7186 52.7159 57.723C53.1335 57.724 53.534 57.8895 53.8306 58.1835C54.1272 58.4776 54.2961 58.8765 54.3008 59.2942Z" fill="white"/>
<path d="M204.463 137.948L199.994 144.78L222.328 159.389L226.797 152.557L204.463 137.948Z" fill="white"/>
<path d="M203.952 149.137C208.614 149.137 212.393 145.358 212.393 140.696C212.393 136.035 208.614 132.256 203.952 132.256C199.291 132.256 195.512 136.035 195.512 140.696C195.512 145.358 199.291 149.137 203.952 149.137Z" fill="#CCCCCC"/>
<path d="M226.039 155.168C226.918 151.442 224.611 147.71 220.886 146.83C217.16 145.951 213.427 148.258 212.548 151.984C211.669 155.709 213.976 159.442 217.701 160.321C221.427 161.2 225.16 158.893 226.039 155.168Z" fill="url(#paint1_linear_5_1382)"/>
<path d="M218.962 120.316C224.834 120.316 229.595 113.626 229.595 105.374C229.595 97.1218 224.834 90.4321 218.962 90.4321C213.09 90.4321 208.329 97.1218 208.329 105.374C208.329 113.626 213.09 120.316 218.962 120.316Z" fill="#CCCCCC"/>
<path d="M186.469 69.1685H166.455C145.935 69.1685 129.302 85.8019 129.302 106.322C129.302 117.27 138.177 126.147 149.127 126.147H203.794C214.742 126.147 223.619 117.27 223.619 106.322C223.619 85.8027 206.985 69.1685 186.469 69.1685Z" fill="#9E97FF"/>
<path d="M182.951 166.772H169.973C156.661 166.772 145.869 155.981 145.869 142.668C145.869 139.257 147.224 135.985 149.636 133.573C152.048 131.161 155.319 129.806 158.731 129.806H194.198C197.608 129.807 200.879 131.163 203.29 133.575C205.701 135.987 207.055 139.258 207.055 142.668C207.055 155.984 196.264 166.772 182.951 166.772Z" fill="#9E97FF"/>
<path d="M204.63 118.133H166.591C161.436 118.133 157.207 114.181 157.207 109.307V101.833C157.207 96.9581 161.436 93.1422 166.591 93.3064L204.63 94.5193C209.234 94.6657 212.924 98.4557 212.924 102.985V109.93C212.924 114.461 209.234 118.133 204.63 118.133Z" fill="url(#paint2_linear_5_1382)"/>
<path d="M178.779 105.173C178.779 108.429 176.008 111.032 172.562 110.989C169.084 110.945 166.243 108.227 166.243 104.918C166.243 101.61 169.084 99.0074 172.562 99.1052C176.008 99.2014 178.779 101.918 178.779 105.173Z" fill="white"/>
<path d="M204.485 105.695C204.485 108.842 201.898 111.356 198.68 111.319C195.435 111.277 192.784 108.65 192.784 105.458C192.784 102.265 195.435 99.7455 198.68 99.8369C201.898 99.9266 204.485 102.55 204.485 105.695Z" fill="white"/>
<g style="mix-blend-mode:soft-light" opacity="0.3">
<path d="M190.265 120.935C184.604 114.288 187.121 108.972 179.725 99.9648C169.548 87.5742 157.677 88.9732 154.958 80.5667C154.204 78.237 154.117 75.0406 156.138 70.6206C140.638 75.0915 129.302 89.3807 129.302 106.321C129.302 117.27 138.177 126.146 149.127 126.146H196.768C193.915 124.591 191.829 122.774 190.265 120.935Z" fill="white"/>
</g>
<path d="M134.648 120.212C140.52 120.212 145.281 113.523 145.281 105.27C145.281 97.0183 140.52 90.3286 134.648 90.3286C128.776 90.3286 124.016 97.0183 124.016 105.27C124.016 113.523 128.776 120.212 134.648 120.212Z" fill="#CCCCCC"/>
<path d="M126.237 111.804C128.805 111.804 130.887 108.878 130.887 105.27C130.887 101.662 128.805 98.7363 126.237 98.7363C123.669 98.7363 121.587 101.662 121.587 105.27C121.587 108.878 123.669 111.804 126.237 111.804Z" fill="#CCCCCC"/>
<g style="mix-blend-mode:multiply" opacity="0.4">
<path d="M186.146 153.502C184.367 145.138 164.662 145.335 164.127 139.871C163.714 135.657 175.025 131.483 176.447 130.959C177.66 130.51 178.873 130.131 180.064 129.806H158.727C155.316 129.806 152.044 131.161 149.632 133.573C147.22 135.985 145.865 139.257 145.865 142.668C145.865 155.981 156.657 166.772 169.969 166.772H182.952C184.18 166.772 185.406 166.679 186.62 166.494C185.488 165.094 184.754 163.562 184.576 161.891C184.181 158.185 186.839 156.744 186.146 153.502Z" fill="#9E97FF"/>
</g>
<path d="M176.78 133.005C188.104 133.005 197.285 131.894 197.285 130.523C197.285 129.152 188.104 128.041 176.78 128.041C165.456 128.041 156.276 129.152 156.276 130.523C156.276 131.894 165.456 133.005 176.78 133.005Z" fill="#9E97FF"/>
<path d="M150.463 137.945L145.994 144.777L168.328 159.386L172.797 152.554L150.463 137.945Z" fill="white"/>
<path d="M149.957 149.137C154.619 149.137 158.398 145.358 158.398 140.696C158.398 136.035 154.619 132.256 149.957 132.256C145.296 132.256 141.517 136.035 141.517 140.696C141.517 145.358 145.296 149.137 149.957 149.137Z" fill="#CCCCCC"/>
<path d="M169.237 151.279H188.787L188.011 159.368L168.849 158.727L169.237 151.279Z" fill="white"/>
<path d="M170.207 158.485C172.914 155.779 172.914 151.39 170.207 148.684C167.501 145.977 163.112 145.977 160.406 148.684C157.699 151.39 157.699 155.779 160.406 158.485C163.112 161.192 167.501 161.192 170.207 158.485Z" fill="#CCCCCC"/>
<path d="M190.492 151.051C189.307 150.388 187.634 149.919 185.28 150.007C184.739 150.027 184.222 150.239 183.824 150.606C183.425 150.973 183.171 151.47 183.107 152.008L182.426 157.795H192.512L192.841 156.413C193.087 155.386 192.99 154.306 192.566 153.338C192.142 152.37 191.414 151.567 190.492 151.051Z" fill="#CCCCCC"/>
<path d="M208.302 157.933L171.919 157.304C171.673 157.3 171.429 157.356 171.208 157.466C170.988 157.577 170.798 157.74 170.654 157.94L169.544 159.484C169.419 159.659 169.344 159.863 169.326 160.077C169.308 160.291 169.349 160.505 169.445 160.698C169.54 160.89 169.686 161.052 169.866 161.168C170.047 161.283 170.256 161.347 170.47 161.353L208.98 162.425L208.302 157.933Z" fill="#1988FF"/>
<path d="M247.352 140.227L209.838 138.48C209.293 138.455 208.75 138.572 208.263 138.82C207.776 139.068 207.362 139.437 207.061 139.893L192.581 161.864L232.254 162.898C232.79 162.913 233.321 162.793 233.8 162.55C234.278 162.307 234.688 161.949 234.993 161.508L248.335 142.22C248.464 142.034 248.541 141.816 248.558 141.59C248.575 141.364 248.53 141.138 248.43 140.934C248.33 140.731 248.177 140.558 247.987 140.434C247.798 140.309 247.578 140.238 247.352 140.227Z" fill="#1988FF"/>
<g style="mix-blend-mode:multiply" opacity="0.3">
<path d="M207.061 139.893C207.362 139.437 207.776 139.067 208.263 138.819C208.75 138.572 209.293 138.455 209.838 138.48L210.66 138.518C210.703 139.736 211.001 140.863 211.682 141.808C213.808 144.75 217.76 143.283 220.426 146.423C223.354 149.872 220.197 153.539 222.807 156.742C225.556 160.113 230.508 157.843 235.871 160.238L234.993 161.508C234.688 161.949 234.278 162.307 233.8 162.55C233.321 162.792 232.79 162.912 232.254 162.898L192.581 161.864L207.061 139.893Z" fill="#9E97FF"/>
</g>
<path opacity="0.68" d="M159.391 186.832V235.434C159.391 237.051 160.598 238.293 162.082 238.214L247.527 233.728C248.808 233.661 249.843 232.395 249.843 230.902V185.903L159.391 186.832Z" fill="white"/>
<path d="M247.527 180.207L162.082 180.647C160.598 180.655 159.391 181.969 159.391 183.583V188.563L249.843 187.512V182.903C249.843 181.406 248.808 180.2 247.527 180.207Z" fill="#1988FF"/>
<path d="M165.556 184.507C165.556 185.22 165.024 185.801 164.368 185.811C163.711 185.82 163.178 185.245 163.178 184.527C163.178 183.809 163.711 183.228 164.368 183.223C165.024 183.218 165.556 183.793 165.556 184.507Z" fill="white"/>
<path d="M177.839 231.097L171.116 231.415V195.288L177.839 195.171V231.097Z" fill="white"/>
<path d="M177.839 231.097L171.116 231.415V214.263L177.839 214.041V231.097Z" fill="#1988FF"/>
<path d="M187.07 230.66L180.45 230.973V195.126L187.07 195.011V230.66Z" fill="white"/>
<path d="M187.07 230.66L180.45 230.973V222.464L187.07 222.198V230.66Z" fill="#1988FF"/>
<path d="M196.16 230.231L189.64 230.539V194.967L196.16 194.854V230.231Z" fill="white"/>
<path d="M196.16 230.231L189.64 230.539V226.106L196.16 225.822V230.231Z" fill="#1988FF"/>
<path d="M205.112 229.808L198.691 230.112V194.81L205.112 194.699V229.808Z" fill="white"/>
<path d="M205.112 229.808L198.691 230.112V202.457L205.112 202.304V229.808Z" fill="#1988FF"/>
<path d="M213.93 229.391L207.606 229.69V194.656L213.93 194.546V229.391Z" fill="white"/>
<path d="M213.93 229.391L207.606 229.69V205.364L213.93 205.196V229.391Z" fill="#1988FF"/>
<path d="M222.616 228.981L216.386 229.276V194.503L222.616 194.396V228.981Z" fill="white"/>
<path d="M222.616 228.981L216.386 229.276V199.559L222.616 199.424V228.981Z" fill="#1988FF"/>
<path d="M231.173 228.576L225.036 228.866V194.353L231.173 194.247V228.576Z" fill="white"/>
<path d="M231.173 228.576L225.036 228.866V207.666L231.173 207.489V228.576Z" fill="#1988FF"/>
<path d="M239.605 228.178L233.557 228.464V194.205L239.605 194.101V228.178Z" fill="white"/>
<path d="M239.605 228.178L233.557 228.464V216.57L239.605 216.347V228.178Z" fill="#1988FF"/>
<defs>
<linearGradient id="paint0_linear_5_1382" x1="47.9822" y1="183.74" x2="185.077" y2="183.74" gradientUnits="userSpaceOnUse">
<stop stop-color="#444B8C"/>
<stop offset="1" stop-color="#26264F"/>
</linearGradient>
<linearGradient id="paint1_linear_5_1382" x1="212.356" y1="153.586" x2="226.217" y2="153.586" gradientUnits="userSpaceOnUse">
<stop stop-color="#40447E"/>
<stop offset="1" stop-color="#3C3B6B"/>
</linearGradient>
<linearGradient id="paint2_linear_5_1382" x1="157.207" y1="105.717" x2="212.924" y2="105.717" gradientUnits="userSpaceOnUse">
<stop stop-color="#444B8C"/>
<stop offset="1" stop-color="#26264F"/>
</linearGradient>
</defs>
</svg>
