<svg width="30" height="31" viewBox="0 0 30 31" fill="none" xmlns="http://www.w3.org/2000/svg">
<path d="M14.9999 3C13.6738 3 12.402 3.52678 11.4643 4.46447C10.5267 5.40215 9.99988 6.67392 9.99988 8C9.99988 9.32608 10.5267 10.5979 11.4643 11.5355C12.402 12.4732 13.6738 13 14.9999 13C16.326 13 17.5977 12.4732 18.5354 11.5355C19.4731 10.5979 19.9999 9.32608 19.9999 8C19.9999 6.67392 19.4731 5.40215 18.5354 4.46447C17.5977 3.52678 16.326 3 14.9999 3ZM12.4999 8C12.4999 7.33696 12.7633 6.70107 13.2321 6.23223C13.701 5.76339 14.3368 5.5 14.9999 5.5C15.6629 5.5 16.2988 5.76339 16.7676 6.23223C17.2365 6.70107 17.4999 7.33696 17.4999 8C17.4999 8.66304 17.2365 9.29893 16.7676 9.76777C16.2988 10.2366 15.6629 10.5 14.9999 10.5C14.3368 10.5 13.701 10.2366 13.2321 9.76777C12.7633 9.29893 12.4999 8.66304 12.4999 8ZM21.2499 15.5H8.74988C7.75532 15.5 6.80149 15.8951 6.09823 16.5983C5.39497 17.3016 4.99988 18.2554 4.99988 19.25C4.99988 22.04 6.14738 24.275 8.02988 25.7875C9.88238 27.275 12.3674 28 14.9999 28C17.6324 28 20.1174 27.275 21.9699 25.7875C23.8499 24.275 24.9999 22.04 24.9999 19.25C24.9999 18.2554 24.6048 17.3016 23.9015 16.5983C23.1983 15.8951 22.2444 15.5 21.2499 15.5ZM8.74988 18H21.2499C21.5814 18 21.8993 18.1317 22.1338 18.3661C22.3682 18.6005 22.4999 18.9185 22.4999 19.25C22.4999 21.2925 21.6874 22.8075 20.4049 23.8375C19.0899 24.8925 17.1999 25.5 14.9999 25.5C12.7999 25.5 10.9099 24.8925 9.59488 23.8375C8.31238 22.8075 7.49988 21.2925 7.49988 19.25C7.49988 18.9185 7.63157 18.6005 7.86599 18.3661C8.10042 18.1317 8.41836 18 8.74988 18Z" fill="#495057"/>
</svg>
