<svg width="18" height="14" viewBox="0 0 18 14" fill="none" xmlns="http://www.w3.org/2000/svg">
<path d="M11.4062 0.984375H16.5625C16.8816 0.984375 17.1876 1.11113 17.4132 1.33676C17.6389 1.56239 17.7656 1.86841 17.7656 2.1875V7.6875C17.7656 8.00659 17.6389 8.31261 17.4132 8.53824C17.1876 8.76387 16.8816 8.89062 16.5625 8.89062H11.2344V9.75C11.2344 10.5249 11.5422 11.2681 12.0902 11.8161C12.6381 12.364 13.3813 12.6719 14.1562 12.6719C14.293 12.6719 14.4242 12.7262 14.5209 12.8229C14.6176 12.9196 14.6719 13.0507 14.6719 13.1875C14.6719 13.3243 14.6176 13.4554 14.5209 13.5521C14.4242 13.6488 14.293 13.7031 14.1562 13.7031C13.1082 13.7018 12.1035 13.2848 11.3625 12.5438C10.6214 11.8027 10.2045 10.798 10.2031 9.75V2.1875C10.2031 1.86841 10.3299 1.56239 10.5555 1.33676C10.7811 1.11113 11.0872 0.984375 11.4062 0.984375ZM11.2344 7.85938H16.5625C16.6081 7.85938 16.6518 7.84127 16.684 7.80903C16.7163 7.7768 16.7344 7.73308 16.7344 7.6875V2.1875C16.7344 2.14192 16.7163 2.0982 16.684 2.06597C16.6518 2.03373 16.6081 2.01562 16.5625 2.01562H11.4062C11.3607 2.01562 11.3169 2.03373 11.2847 2.06597C11.2525 2.0982 11.2344 2.14192 11.2344 2.1875V7.85938ZM1.4375 0.984375H6.59375C6.91284 0.984375 7.21886 1.11113 7.44449 1.33676C7.67012 1.56239 7.79687 1.86841 7.79688 2.1875V7.6875C7.79688 8.00659 7.67012 8.31261 7.44449 8.53824C7.21886 8.76387 6.91284 8.89062 6.59375 8.89062H1.26562V9.75C1.26562 10.5249 1.57346 11.2681 2.12142 11.8161C2.66938 12.364 3.41257 12.6719 4.1875 12.6719C4.32425 12.6719 4.4554 12.7262 4.5521 12.8229C4.6488 12.9196 4.70312 13.0507 4.70312 13.1875C4.70312 13.3243 4.6488 13.4554 4.5521 13.5521C4.4554 13.6488 4.32425 13.7031 4.1875 13.7031C3.13948 13.7018 2.13478 13.2848 1.39372 12.5438C0.652665 11.8027 0.235739 10.798 0.234375 9.75V2.1875C0.234375 1.86841 0.361134 1.56239 0.586763 1.33676C0.812393 1.11113 1.11841 0.984375 1.4375 0.984375ZM1.26562 7.85938H6.59375C6.63933 7.85938 6.68305 7.84127 6.71528 7.80903C6.74752 7.7768 6.76562 7.73308 6.76562 7.6875V2.1875C6.76562 2.14192 6.74752 2.0982 6.71528 2.06597C6.68305 2.03373 6.63933 2.01562 6.59375 2.01562H1.4375C1.39192 2.01562 1.3482 2.03373 1.31597 2.06597C1.28373 2.0982 1.26562 2.14192 1.26562 2.1875V7.85938Z" fill="#495057"/>
</svg>
