<svg width="14" height="12" viewBox="0 0 14 12" fill="none" xmlns="http://www.w3.org/2000/svg">
<g id="Group 13510">
<path id="Vector" d="M5.82035 7.31849C6.10974 7.31849 6.38728 7.20359 6.59191 6.99907C6.79653 6.79454 6.91149 6.51715 6.91149 6.22791C6.91149 5.93867 6.79653 5.66127 6.59191 5.45675C6.38728 5.25223 6.10974 5.13733 5.82035 5.13733C5.53096 5.13733 5.25342 5.25223 5.0488 5.45675C4.84417 5.66127 4.72921 5.93867 4.72921 6.22791C4.72921 6.51715 4.84417 6.79454 5.0488 6.99907C5.25342 7.20359 5.53096 7.31849 5.82035 7.31849ZM2.18321 6.22791C2.19604 5.27593 2.58201 4.36697 3.25818 3.69638C3.93435 3.02579 4.84674 2.64709 5.79928 2.64166C6.75182 2.63623 7.66848 3.00451 8.35226 3.66735C9.03603 4.3302 9.43235 5.2347 9.45604 6.18647L8.6195 7.02331C8.79565 6.40388 8.76112 5.74353 8.52133 5.14582C8.28153 4.54812 7.85004 4.04687 7.29452 3.72068C6.73899 3.39449 6.09086 3.26181 5.45176 3.34345C4.81266 3.42509 4.21875 3.71643 3.76316 4.17178C3.30757 4.62713 3.01608 5.22074 2.9344 5.85951C2.85272 6.49828 2.98547 7.14608 3.31183 7.70131C3.63819 8.25655 4.1397 8.68783 4.73771 8.9275C5.33572 9.16716 5.99641 9.20167 6.61616 9.02561L6.01821 9.62325C5.94256 9.69814 5.87273 9.77884 5.80871 9.86318C4.8461 9.8601 3.92396 9.47574 3.24438 8.79433C2.5648 8.11292 2.1832 7.19003 2.18321 6.22791ZM5.82035 1.13853C7.04566 1.13856 8.22987 1.58021 9.1557 2.38243C10.0815 3.18465 10.6869 4.29365 10.8607 5.50594C11.1102 5.48849 11.3626 5.51612 11.6034 5.58737C11.483 4.50172 11.0591 3.47191 10.3803 2.61583C9.70152 1.75976 8.79527 1.11202 7.76531 0.746782C6.73534 0.381542 5.62329 0.313559 4.55647 0.550617C3.48965 0.787675 2.51117 1.32019 1.73306 2.0872C0.954957 2.85421 0.408666 3.82472 0.156735 4.88761C-0.0951957 5.95049 -0.0425844 7.06281 0.308546 8.0972C0.659676 9.13159 1.29513 10.0463 2.14217 10.7365C2.9892 11.4267 4.01357 11.8646 5.09801 12C5.10529 11.9309 5.1162 11.8619 5.13439 11.7921L5.26023 11.2868C3.96689 11.1428 2.77776 10.5094 1.93704 9.51661C1.09632 8.52381 0.667799 7.24697 0.739484 5.94828C0.811169 4.64959 1.37761 3.42761 2.3225 2.53328C3.26739 1.63894 4.51901 1.1394 5.82035 1.13853Z" fill="#D1D1D1"/>
<g id="Group 13509">
<g id="Group">
<g id="Group_2">
<g id="Group_3">
<path id="Vector_2" d="M12.8405 2.82964L12.8383 2.67711C12.8376 2.65584 12.8326 2.63493 12.8236 2.61562C12.8146 2.59632 12.8019 2.579 12.7861 2.5647L12.7881 2.71813C12.8039 2.7324 12.8166 2.74973 12.8255 2.76906C12.8344 2.7884 12.8393 2.80934 12.8399 2.83063L12.8405 2.82964Z" fill="#D1D1D1"/>
</g>
</g>
<path id="Vector_3" d="M12.0725 2.56616L12.0699 2.41341L10.3446 3.44217L10.3472 3.59493L12.0725 2.56616Z" fill="#D1D1D1"/>
<path id="Vector_4" d="M12.7892 2.71714L12.7865 2.56458L12.0706 2.41334L12.0732 2.56609L12.7892 2.71714Z" fill="#D1D1D1"/>
<path id="Vector_5" d="M12.0728 2.56626L10.3475 3.59503C10.4146 3.59075 11.6882 3.5143 12.363 3.23314C12.4433 3.20046 12.5213 3.16208 12.5962 3.11832C12.9825 2.8884 12.7985 2.72581 12.7888 2.71731L12.0728 2.56626Z" fill="#D1D1D1"/>
</g>
<g id="Group_4">
<g id="Group_5">
<g id="Group_6">
<path id="Vector_6" d="M12.3154 1.78369L12.4486 1.85811C12.4435 1.83643 12.434 1.81601 12.4207 1.7981C12.4075 1.78019 12.3907 1.76516 12.3715 1.75393L12.2383 1.6795C12.2575 1.69074 12.2743 1.70577 12.2875 1.72368C12.3008 1.74159 12.3103 1.76201 12.3154 1.78369Z" fill="#D1D1D1"/>
</g>
</g>
<path id="Vector_7" d="M12.1071 2.4864L12.2405 2.56043L12.4491 1.8572L12.3157 1.78317L12.1071 2.4864Z" fill="#D1D1D1"/>
<path id="Vector_8" d="M10.3872 3.50525L10.5207 3.57928L12.2405 2.56034L12.1071 2.48631L10.3872 3.50525Z" fill="#D1D1D1"/>
<path id="Vector_9" d="M10.3872 3.50531L12.107 2.48637L12.3153 1.78373C12.3113 1.76683 12.2374 1.44325 11.6616 1.90828C11.0953 2.36529 10.4225 3.4482 10.3872 3.50531Z" fill="#D1D1D1"/>
</g>
<path id="Vector_10" d="M5.85553 6.24957C5.83972 6.23963 5.82651 6.22608 5.81696 6.21004C5.80741 6.194 5.80182 6.17592 5.80062 6.15728C5.79967 6.15035 5.80073 6.14328 5.80368 6.13693C5.80663 6.13058 5.81136 6.12522 5.81728 6.12148L8.18477 4.8421L8.24754 4.98029L5.89482 6.25168C5.89307 6.25308 5.89107 6.25415 5.88894 6.25483C5.88332 6.25648 5.87742 6.25686 5.87164 6.25595C5.86587 6.25504 5.86036 6.25286 5.85553 6.24957Z" fill="#D1D1D1"/>
<path id="Vector_11" d="M6.75232 5.98121C6.82787 6.02347 6.91425 6.04237 7.00055 6.03551C7.08684 6.02866 7.16916 5.99635 7.23709 5.94269C7.30502 5.88903 7.3555 5.81643 7.38215 5.73406C7.40879 5.6517 7.41041 5.56329 7.38678 5.48001C7.36316 5.39673 7.31536 5.32233 7.24944 5.26622C7.18351 5.21012 7.10243 5.17484 7.01644 5.16484C6.93045 5.15484 6.84343 5.17057 6.76639 5.21005C6.68935 5.24952 6.62575 5.31097 6.58365 5.3866C6.52723 5.48783 6.5133 5.60732 6.54493 5.71881C6.57655 5.83031 6.65115 5.92468 6.75232 5.98121Z" fill="#D1D1D1"/>
<g id="Group_7">
<g id="Group_8">
<g id="Group_9">
<path id="Vector_12" d="M6.71801 5.32703C6.71619 5.20846 6.75692 5.12449 6.82393 5.08485L8.06382 4.3546C7.9967 4.39444 7.95608 4.47821 7.95779 4.59697C7.95958 4.66754 7.97281 4.73736 7.99696 4.80369L6.75652 5.53493C6.73251 5.46817 6.7195 5.39796 6.71801 5.32703Z" fill="#D1D1D1"/>
<path id="Vector_13" d="M7.99633 4.80351L6.75609 5.53485C6.78624 5.61903 6.82894 5.69816 6.88274 5.76957L8.12263 5.03931C8.06883 4.9679 8.02613 4.88877 7.99598 4.8046L7.99633 4.80351Z" fill="#D1D1D1"/>
<path id="Vector_14" d="M8.12337 5.03829L6.88367 5.76865C6.94019 5.84626 7.01211 5.91136 7.09493 5.9599C7.1967 6.01676 7.28841 6.02056 7.35458 5.98149L8.59447 5.25123C8.5283 5.29031 8.4367 5.28631 8.33482 5.22965C8.25194 5.18118 8.18001 5.11606 8.12356 5.0384L8.12337 5.03829Z" fill="#D1D1D1"/>
</g>
</g>
<path id="Vector_15" d="M7.95625 4.59654C7.95963 4.83225 8.12888 5.11577 8.33412 5.22967C8.53936 5.34356 8.70288 5.24468 8.69949 5.00897C8.6961 4.77326 8.52727 4.48946 8.32203 4.37556C8.11679 4.26167 7.95336 4.36086 7.95625 4.59654Z" fill="#D1D1D1"/>
</g>
<path id="Vector_16" d="M7.75916 5.25697C7.70536 5.18556 7.66266 5.10643 7.63251 5.02226C7.60839 4.95591 7.59516 4.8861 7.59334 4.81553C7.59164 4.69677 7.62879 4.60951 7.69579 4.56987L7.88152 4.46122C7.81441 4.50106 7.77399 4.58495 7.77549 4.7036C7.77747 4.77415 7.7907 4.84394 7.81467 4.91032C7.84487 4.99447 7.88757 5.07359 7.94132 5.14504C7.99785 5.22261 8.06981 5.28766 8.15269 5.33609C8.25446 5.39294 8.34636 5.39686 8.41234 5.35767L8.22015 5.47096C8.15362 5.51113 8.07241 5.50468 7.97042 5.44822C7.88755 5.39975 7.81562 5.33463 7.75916 5.25697Z" fill="#D1D1D1"/>
<path id="Vector_17" d="M7.34823 5.49907C7.29443 5.4276 7.25176 5.3484 7.22169 5.26416C7.19757 5.19781 7.18435 5.128 7.18251 5.05743C7.18089 4.93898 7.21805 4.85172 7.28516 4.81188L7.47069 4.70313C7.40378 4.74307 7.36316 4.82685 7.36486 4.94561C7.36652 5.0162 7.37976 5.08603 7.40404 5.15233C7.43419 5.2365 7.47689 5.31564 7.53069 5.38705C7.58709 5.46476 7.65898 5.52995 7.74184 5.57849C7.8436 5.63535 7.93542 5.63896 8.0016 5.59988L7.8094 5.71317C7.74343 5.75236 7.66156 5.74709 7.55968 5.69043C7.47682 5.64182 7.40484 5.57669 7.34823 5.49907Z" fill="#D1D1D1"/>
<path id="Vector_18" d="M6.97243 5.72103C6.9187 5.64958 6.87601 5.57046 6.84578 5.48632C6.82163 5.41998 6.8084 5.35017 6.80661 5.2796C6.80491 5.16084 6.84206 5.07358 6.90906 5.03394L7.09412 4.92465C7.027 4.96449 6.98638 5.04826 6.98809 5.16703C6.99007 5.23758 7.00329 5.30736 7.02726 5.37375C7.05747 5.4579 7.10016 5.53702 7.15391 5.60846C7.21043 5.68608 7.2823 5.75124 7.36506 5.79991C7.46683 5.85677 7.55884 5.86048 7.62482 5.8213L7.43263 5.93459C7.36646 5.97366 7.28489 5.96831 7.18291 5.91184C7.10036 5.86341 7.0287 5.79845 6.97243 5.72103Z" fill="#D1D1D1"/>
<g id="Group_10">
<g id="Group_11">
<path id="Vector_19" d="M12.3753 2.41969L12.3782 2.63502C12.3763 2.4958 12.2775 2.32795 12.156 2.258L12.342 2.36345C12.3515 2.3696 12.3595 2.37789 12.3653 2.38765C12.371 2.39741 12.3745 2.40837 12.3753 2.41969Z" fill="#D1D1D1"/>
</g>
<g id="Group_12">
<g id="Group_13">
<path id="Vector_20" d="M7.98751 4.58711C7.98739 4.57656 7.98776 4.5662 7.98863 4.55603C7.99547 4.45983 8.03423 4.39229 8.09326 4.35953L11.999 2.24048C11.9617 2.26094 11.938 2.30337 11.9336 2.36352L11.9328 2.38292C11.9334 2.42482 11.9409 2.46634 11.9548 2.50584L8.02181 4.78364C7.99968 4.72045 7.98809 4.65406 7.98751 4.58711Z" fill="#D1D1D1"/>
<path id="Vector_21" d="M8.15289 5.02638C8.09637 4.95327 8.05214 4.87145 8.02195 4.78411L11.9552 2.50643C11.974 2.56111 12.0016 2.61234 12.037 2.65809C12.0652 2.69534 12.0993 2.7278 12.1379 2.7542L8.31397 5.18056C8.25229 5.13821 8.1979 5.08614 8.15289 5.02638Z" fill="#D1D1D1"/>
<path id="Vector_22" d="M8.31382 5.18017L12.1378 2.7538C12.1439 2.75721 12.15 2.76061 12.1555 2.76499C12.2198 2.80089 12.2771 2.80402 12.3177 2.77828L8.602 5.21898C8.53705 5.26003 8.44483 5.2562 8.34255 5.1975C8.33281 5.19232 8.32321 5.18644 8.31382 5.18017Z" fill="#D1D1D1"/>
</g>
</g>
<g id="Group_14">
<g id="Group_15">
<path id="Vector_23" d="M12.3428 2.3639L12.1568 2.25844C12.0336 2.1878 11.9332 2.24354 11.9338 2.38412C11.9339 2.41073 11.9371 2.43723 11.9432 2.46313L12.3101 2.39383C12.3091 2.39002 12.3086 2.38611 12.3086 2.38218C12.3088 2.36113 12.3236 2.35264 12.342 2.36346L12.3428 2.3639Z" fill="#D1D1D1"/>
<path id="Vector_24" d="M12.3109 2.39383L11.9433 2.4627C11.9635 2.54582 12.004 2.62264 12.0612 2.68633L12.3285 2.42738C12.32 2.41782 12.314 2.4063 12.3109 2.39383Z" fill="#D1D1D1"/>
<path id="Vector_25" d="M12.0602 2.68598L12.3275 2.42703C12.3316 2.43172 12.3364 2.43572 12.3418 2.43887C12.3603 2.44919 12.375 2.4409 12.375 2.42004L12.3781 2.63468L12.378 2.63931C12.3774 2.77892 12.2782 2.83562 12.1552 2.7651C12.1195 2.7439 12.0875 2.71719 12.0602 2.68598Z" fill="#D1D1D1"/>
</g>
</g>
</g>
<g id="Group_16">
<g id="Group_17">
<path id="Vector_26" d="M10.9614 2.20854L10.9581 2.05697C10.8906 2.09751 10.8266 2.14379 10.7669 2.19529C10.3015 2.59415 10.2061 3.33331 10.2011 3.37227L10.2037 3.52502C10.2087 3.48606 10.3036 2.74638 10.7696 2.34784C10.8293 2.29635 10.8932 2.25007 10.9608 2.20952L10.9614 2.20854Z" fill="#D1D1D1"/>
</g>
<path id="Vector_27" d="M11.9302 2.4953L11.9277 2.34255L11.6462 1.93268L11.6487 2.08513L11.9302 2.4953Z" fill="#D1D1D1"/>
<g id="Group_18">
<path id="Vector_28" d="M11.6478 2.08489L11.6453 1.93244C11.6303 1.92712 11.3442 1.82553 10.9579 2.05545L10.9606 2.208C11.3468 1.97809 11.6322 2.07924 11.648 2.085L11.6478 2.08489Z" fill="#D1D1D1"/>
</g>
<path id="Vector_29" d="M10.9618 2.20853C10.8942 2.24908 10.8302 2.29535 10.7706 2.34685C10.305 2.74561 10.2097 3.48507 10.2046 3.52403L11.9294 2.49625L11.648 2.08487C11.6334 2.07976 11.3469 1.97796 10.9618 2.20853Z" fill="#D1D1D1"/>
</g>
<g id="Group_19">
<path id="Vector_30" d="M12.3491 3.20841L12.4848 3.27831L12.2465 2.83889L12.1109 2.76879L12.3491 3.20841Z" fill="#D1D1D1"/>
<g id="Group_20">
<path id="Vector_31" d="M10.4236 3.8405L10.559 3.91049C10.5959 3.92387 11.2959 4.17704 11.859 3.94386C12.4303 3.70571 12.4822 3.29985 12.4849 3.27842L12.3492 3.20852C12.3465 3.22995 12.2957 3.63646 11.7234 3.87376C11.1603 4.10725 10.4603 3.85377 10.4236 3.8405Z" fill="#D1D1D1"/>
</g>
<path id="Vector_32" d="M10.4231 3.84045C10.4597 3.85372 11.1598 4.10719 11.7228 3.8737C12.2952 3.63641 12.346 3.2299 12.3487 3.20846L12.1104 2.76884L10.4231 3.84045Z" fill="#D1D1D1"/>
</g>
</g>
</g>
</svg>
