<svg width="30" height="31" viewBox="0 0 30 31" fill="none" xmlns="http://www.w3.org/2000/svg">
<path d="M18.0474 0.5C18.2802 0.500007 18.5069 0.572008 18.695 0.705634C18.8831 0.83926 19.0228 1.02761 19.0941 1.24357L20.3034 4.90571C20.8113 5.14786 21.2973 5.42 21.7612 5.72643L25.6223 4.91643C25.85 4.86906 26.0872 4.89334 26.2998 4.98576C26.5123 5.07818 26.6893 5.23398 26.8053 5.43071L29.8528 10.5714C29.9692 10.768 30.0185 10.9956 29.9936 11.2213C29.9687 11.447 29.8709 11.6591 29.7143 11.8271L27.0647 14.6771C27.1033 15.2236 27.1033 15.7721 27.0647 16.3186L29.7143 19.1729C29.8709 19.3409 29.9687 19.553 29.9936 19.7787C30.0185 20.0044 29.9692 20.232 29.8528 20.4286L26.8053 25.5714C26.689 25.7678 26.5119 25.9231 26.2993 26.0152C26.0868 26.1072 25.8497 26.1311 25.6223 26.0836L21.7612 25.2736C21.2995 25.5779 20.8113 25.8521 20.3056 26.0943L19.0941 29.7564C19.0228 29.9724 18.8831 30.1607 18.695 30.2944C18.5069 30.428 18.2802 30.5 18.0474 30.5H11.9523C11.7196 30.5 11.4928 30.428 11.3047 30.2944C11.1166 30.1607 10.9769 29.9724 10.9057 29.7564L9.69856 26.0964C9.192 25.855 8.7034 25.5793 8.23635 25.2714L4.37745 26.0836C4.14979 26.1309 3.91259 26.1067 3.7 26.0142C3.48741 25.9218 3.31041 25.766 3.19449 25.5693L0.146946 20.4286C0.0305736 20.232 -0.0187184 20.0044 0.00617804 19.7787C0.0310745 19.553 0.128873 19.3409 0.285471 19.1729L2.93503 16.3186C2.89665 15.7735 2.89665 15.2265 2.93503 14.6814L0.285471 11.8271C0.128873 11.6591 0.0310745 11.447 0.00617804 11.2213C-0.0187184 10.9956 0.0305736 10.768 0.146946 10.5714L3.19449 5.42857C3.31073 5.23223 3.48787 5.07687 3.70043 4.98485C3.91299 4.89282 4.15003 4.86887 4.37745 4.91643L8.23635 5.72857C8.7025 5.42214 9.19063 5.14571 9.69856 4.90357L10.9079 1.24357C10.9789 1.02831 11.1179 0.840454 11.3052 0.706893C11.4924 0.573332 11.7181 0.500912 11.9501 0.5H18.0452H18.0474ZM17.2427 2.64286H12.7571L11.5082 6.42929L10.666 6.83C10.252 7.02744 9.85239 7.25225 9.46988 7.50286L8.6915 8.01714L4.69847 7.17714L2.45569 10.9657L5.1932 13.9186L5.12724 14.8271C5.09565 15.2752 5.09565 15.7248 5.12724 16.1729L5.1932 17.0814L2.45129 20.0343L4.69627 23.8229L8.68931 22.985L9.46768 23.4971C9.85019 23.7478 10.2498 23.9726 10.6638 24.17L11.506 24.5707L12.7571 28.3571H17.2471L18.5004 24.5686L19.3403 24.17C19.7539 23.973 20.1528 23.7482 20.5343 23.4971L21.3104 22.985L25.3057 23.8229L27.5485 20.0343L24.8088 17.0814L24.8747 16.1729C24.9064 15.7241 24.9064 15.2738 24.8747 14.825L24.8088 13.9164L27.5507 10.9657L25.3057 7.17714L21.3104 8.01286L20.5343 7.50286C20.1529 7.25174 19.7539 7.02691 19.3403 6.83L18.5004 6.43143L17.2449 2.64286H17.2427ZM14.9999 9.07143C16.7494 9.07143 18.4272 9.74872 19.6642 10.9543C20.9013 12.1599 21.5963 13.795 21.5963 15.5C21.5963 17.205 20.9013 18.8401 19.6642 20.0457C18.4272 21.2513 16.7494 21.9286 14.9999 21.9286C13.2504 21.9286 11.5726 21.2513 10.3355 20.0457C9.09844 18.8401 8.40346 17.205 8.40346 15.5C8.40346 13.795 9.09844 12.1599 10.3355 10.9543C11.5726 9.74872 13.2504 9.07143 14.9999 9.07143ZM14.9999 11.2143C13.8336 11.2143 12.715 11.6658 11.8903 12.4695C11.0656 13.2733 10.6023 14.3634 10.6023 15.5C10.6023 16.6366 11.0656 17.7267 11.8903 18.5305C12.715 19.3342 13.8336 19.7857 14.9999 19.7857C16.1662 19.7857 17.2847 19.3342 18.1095 18.5305C18.9342 17.7267 19.3975 16.6366 19.3975 15.5C19.3975 14.3634 18.9342 13.2733 18.1095 12.4695C17.2847 11.6658 16.1662 11.2143 14.9999 11.2143Z" fill="#495057"/>
</svg>
