<svg width="344" height="255" viewBox="0 0 344 255" fill="none" xmlns="http://www.w3.org/2000/svg">
<g clip-path="url(#clip0_233_1044)">
<rect width="344" height="255" fill="white"/>
<path d="M309.531 235.453H286.745V235.624H309.531V235.453Z" fill="#EBEBEB"/>
<path d="M227.879 237.317H221.901V237.489H227.879V237.317Z" fill="#EBEBEB"/>
<path d="M286.057 229.093H272.854V229.264H286.057V229.093Z" fill="#EBEBEB"/>
<path d="M65.8072 230.244H36.0925V230.416H65.8072V230.244Z" fill="#EBEBEB"/>
<path d="M76.2923 230.244H71.9373V230.416H76.2923V230.244Z" fill="#EBEBEB"/>
<path d="M154.903 233.137H90.4514V233.308H154.903V233.137Z" fill="#EBEBEB"/>
<path d="M164.019 193.858H31.1664C30.1245 193.858 29.1253 193.446 28.3885 192.712C27.6518 191.978 27.2379 190.982 27.2379 189.944V3.91348C27.2379 2.87556 27.6518 1.88015 28.3885 1.14623C29.1253 0.412312 30.1245 0 31.1664 0L164.019 0C164.535 0 165.046 0.101225 165.523 0.297896C165.999 0.494567 166.432 0.782832 166.797 1.14623C167.162 1.50963 167.451 1.94105 167.649 2.41586C167.846 2.89066 167.948 3.39956 167.948 3.91348V189.944C167.948 190.458 167.846 190.967 167.649 191.442C167.451 191.917 167.162 192.348 166.797 192.712C166.432 193.075 165.999 193.363 165.523 193.56C165.046 193.757 164.535 193.858 164.019 193.858ZM31.1664 0.171343C30.1707 0.173155 29.2163 0.567997 28.5122 1.26939C27.8081 1.97079 27.4117 2.92156 27.4099 3.91348V189.944C27.4117 190.936 27.8081 191.887 28.5122 192.588C29.2163 193.29 30.1707 193.685 31.1664 193.687H164.019C165.015 193.685 165.969 193.29 166.673 192.588C167.377 191.887 167.774 190.936 167.776 189.944V3.91348C167.774 2.92156 167.377 1.97079 166.673 1.26939C165.969 0.567997 165.015 0.173155 164.019 0.171343H31.1664Z" fill="#EBEBEB"/>
<path d="M312.834 193.858H179.981C178.939 193.858 177.94 193.446 177.203 192.712C176.466 191.978 176.052 190.982 176.052 189.944V3.91348C176.052 2.87556 176.466 1.88015 177.203 1.14623C177.94 0.412312 178.939 0 179.981 0L312.834 0C313.875 0 314.875 0.412312 315.611 1.14623C316.348 1.88015 316.762 2.87556 316.762 3.91348V189.944C316.762 190.458 316.66 190.967 316.463 191.442C316.266 191.917 315.976 192.348 315.611 192.712C315.247 193.075 314.814 193.363 314.337 193.56C313.86 193.757 313.349 193.858 312.834 193.858ZM179.981 0.171343C178.985 0.173155 178.031 0.567997 177.327 1.26939C176.622 1.97079 176.226 2.92156 176.224 3.91348V189.944C176.226 190.936 176.622 191.887 177.327 192.588C178.031 193.29 178.985 193.685 179.981 193.687H312.834C313.829 193.685 314.784 193.29 315.488 192.588C316.192 191.887 316.588 190.936 316.59 189.944V3.91348C316.588 2.92156 316.192 1.97079 315.488 1.26939C314.784 0.567997 313.829 0.173155 312.834 0.171343H179.981Z" fill="#EBEBEB"/>
<path d="M344 224.426H0V224.597H344V224.426Z" fill="#EBEBEB"/>
<path d="M82.099 178.06C81.5211 171.439 74.7374 168.958 66.6947 169.664C58.652 170.37 52.4118 173.975 52.976 180.596L82.099 178.06Z" fill="#F0F0F0"/>
<path d="M66.4333 166.635C70.1622 166.313 71.3525 163.208 71.0291 159.459C70.7058 155.71 68.9651 152.852 65.2499 153.181C61.5347 153.51 60.3307 156.642 60.6541 160.364C60.9774 164.085 62.7043 166.964 66.4333 166.635Z" fill="#F0F0F0"/>
<path d="M233.989 37.0102C234.054 37.745 233.899 38.4825 233.543 39.1295C233.188 39.7766 232.648 40.3039 231.991 40.645C231.334 40.986 230.591 41.1253 229.855 41.0453C229.119 40.9653 228.423 40.6696 227.856 40.1955C227.288 39.7215 226.875 39.0905 226.667 38.3823C226.46 37.6741 226.469 36.9206 226.691 36.2171C226.914 35.5136 227.341 34.8918 227.919 34.4303C228.497 33.9688 229.199 33.6883 229.936 33.6244C230.924 33.5389 231.906 33.8474 232.666 34.4822C233.426 35.117 233.901 36.0262 233.989 37.0102Z" fill="#F5F5F5"/>
<path d="M254.677 35.2213C254.741 35.9546 254.585 36.6903 254.229 37.3354C253.873 37.9804 253.334 38.5059 252.678 38.8454C252.022 39.1848 251.281 39.323 250.546 39.2424C249.812 39.1618 249.118 38.8661 248.552 38.3926C247.986 37.9191 247.574 37.2892 247.368 36.5825C247.162 35.8757 247.17 35.1239 247.393 34.422C247.615 33.7202 248.042 33.0999 248.618 32.6395C249.195 32.1791 249.895 31.8993 250.632 31.8356C251.618 31.7519 252.598 32.0613 253.356 32.6959C254.115 33.3305 254.59 34.2386 254.677 35.2213Z" fill="#F5F5F5"/>
<path d="M275.372 33.4188C275.437 34.1536 275.282 34.8912 274.927 35.5382C274.571 36.1852 274.031 36.7126 273.374 37.0536C272.717 37.3946 271.974 37.5339 271.238 37.4539C270.502 37.3739 269.806 37.0782 269.239 36.6042C268.671 36.1302 268.258 35.4991 268.051 34.7909C267.843 34.0828 267.852 33.3293 268.075 32.6258C268.297 31.9223 268.725 31.3004 269.302 30.8389C269.88 30.3774 270.582 30.097 271.32 30.0331C271.809 29.9898 272.302 30.0431 272.771 30.1899C273.239 30.3367 273.674 30.5741 274.051 30.8886C274.427 31.2031 274.738 31.5885 274.964 32.0226C275.191 32.4568 275.33 32.9313 275.372 33.4188Z" fill="#F5F5F5"/>
<path d="M235.833 58.0306C235.898 58.7653 235.743 59.5029 235.387 60.1499C235.032 60.7969 234.491 61.3243 233.835 61.6653C233.178 62.0064 232.435 62.1457 231.699 62.0657C230.962 61.9857 230.267 61.69 229.699 61.2159C229.132 60.7419 228.719 60.1109 228.511 59.4027C228.304 58.6945 228.312 57.941 228.535 57.2375C228.758 56.534 229.185 55.9122 229.763 55.4507C230.341 54.9892 231.043 54.7087 231.78 54.6448C232.768 54.5593 233.75 54.8677 234.51 55.5025C235.269 56.1373 235.745 57.0466 235.833 58.0306Z" fill="#F5F5F5"/>
<path d="M256.521 56.2006C256.591 56.9353 256.44 57.6742 256.087 58.3232C255.734 58.9722 255.196 59.5021 254.54 59.8455C253.884 60.1889 253.141 60.3304 252.404 60.2518C251.667 60.1732 250.971 59.8783 250.403 59.4044C249.835 58.9304 249.421 58.299 249.214 57.5903C249.007 56.8816 249.017 56.1277 249.241 55.4243C249.466 54.7209 249.895 54.0999 250.474 53.6401C251.054 53.1803 251.758 52.9026 252.496 52.8423C253.475 52.7622 254.447 53.0698 255.2 53.6984C255.954 54.327 256.428 55.226 256.521 56.2006Z" fill="#F5F5F5"/>
<path d="M277.216 54.4255C277.28 55.159 277.126 55.8953 276.771 56.5413C276.416 57.1873 275.877 57.7142 275.222 58.0555C274.567 58.3968 273.825 58.5372 273.09 58.4591C272.355 58.3809 271.66 58.0877 271.092 57.6163C270.524 57.145 270.109 56.5167 269.899 55.8106C269.689 55.1046 269.694 54.3524 269.912 53.6489C270.131 52.9455 270.554 52.3223 271.127 51.8579C271.701 51.3936 272.4 51.1089 273.136 51.0397C273.627 50.9936 274.123 51.0447 274.594 51.1901C275.066 51.3355 275.504 51.5723 275.883 51.887C276.262 52.2017 276.575 52.588 276.804 53.0236C277.033 53.4593 277.173 53.9357 277.216 54.4255Z" fill="#F5F5F5"/>
<path d="M237.676 79.0372C237.74 79.7705 237.585 80.5062 237.229 81.1513C236.873 81.7964 236.333 82.3218 235.678 82.6613C235.022 83.0007 234.28 83.1389 233.546 83.0583C232.811 82.9777 232.117 82.682 231.552 82.2085C230.986 81.7351 230.574 81.1051 230.367 80.3984C230.161 79.6916 230.17 78.9398 230.392 78.238C230.615 77.5361 231.041 76.9158 231.618 76.4554C232.194 75.995 232.895 75.7153 233.631 75.6515C234.12 75.6092 234.612 75.6632 235.08 75.8104C235.548 75.9576 235.982 76.1953 236.358 76.5097C236.733 76.8241 237.043 77.2091 237.269 77.6428C237.496 78.0765 237.634 78.5503 237.676 79.0372Z" fill="#F5F5F5"/>
<path d="M258.372 77.2347C258.437 77.9695 258.282 78.7071 257.926 79.3541C257.571 80.0011 257.03 80.5285 256.374 80.8695C255.717 81.2105 254.974 81.3498 254.237 81.2698C253.501 81.1898 252.806 80.8941 252.238 80.4201C251.671 79.9461 251.257 79.315 251.05 78.6069C250.843 77.8987 250.851 77.1452 251.074 76.4417C251.297 75.7382 251.724 75.1164 252.302 74.6548C252.879 74.1933 253.581 73.9129 254.319 73.849C255.307 73.7634 256.289 74.0719 257.048 74.7067C257.808 75.3415 258.284 76.2507 258.372 77.2347Z" fill="#F5F5F5"/>
<path d="M279.06 75.4322C279.125 76.167 278.97 76.9045 278.614 77.5515C278.259 78.1985 277.718 78.7259 277.062 79.0669C276.405 79.408 275.662 79.5473 274.926 79.4673C274.19 79.3873 273.494 79.0916 272.926 78.6175C272.359 78.1435 271.946 77.5125 271.738 76.8043C271.531 76.0961 271.539 75.3426 271.762 74.6391C271.985 73.9356 272.412 73.3138 272.99 72.8523C273.568 72.3908 274.27 72.1103 275.007 72.0464C275.995 71.9609 276.977 72.2694 277.737 72.9042C278.496 73.539 278.972 74.4482 279.06 75.4322Z" fill="#F5F5F5"/>
<path d="M274.588 76.6453L232.083 80.3463L269.772 34.721L231.168 38.0931C231.06 38.1025 230.952 38.0905 230.849 38.058C230.746 38.0255 230.651 37.973 230.568 37.9036C230.486 37.8341 230.418 37.7491 230.368 37.6534C230.319 37.5577 230.289 37.4533 230.281 37.346C230.261 37.1306 230.329 36.9165 230.468 36.7507C230.608 36.5849 230.807 36.481 231.024 36.4619L273.535 32.7609L235.84 78.3793L274.457 75.0141C274.675 74.9951 274.892 75.0631 275.059 75.2032C275.227 75.3433 275.332 75.544 275.351 75.7612C275.36 75.8693 275.347 75.9779 275.313 76.0809C275.279 76.1839 275.225 76.2793 275.154 76.3614C275.083 76.4436 274.997 76.511 274.899 76.5597C274.802 76.6084 274.696 76.6375 274.588 76.6453Z" fill="#E6E6E6"/>
<path d="M275.241 158.081C275.176 157.883 275.052 157.708 274.887 157.578C274.722 157.449 274.522 157.371 274.312 157.355C272.463 157.271 270.712 156.498 269.407 155.189C267.708 153.489 266.71 150.906 266.545 147.828C266.528 147.552 266.406 147.294 266.204 147.104C266.002 146.914 265.735 146.808 265.458 146.807C265.307 146.808 265.159 146.839 265.02 146.898C264.882 146.958 264.758 147.045 264.654 147.154C264.551 147.263 264.47 147.391 264.418 147.532C264.366 147.673 264.343 147.822 264.35 147.972C264.543 151.577 265.768 154.661 267.852 156.738C269.486 158.364 271.651 159.352 273.955 159.521H274.113C274.294 159.534 274.475 159.503 274.641 159.43C274.807 159.357 274.953 159.245 275.064 159.102C275.176 158.96 275.251 158.792 275.281 158.614C275.312 158.436 275.298 158.253 275.241 158.081Z" fill="#F0F0F0"/>
<path d="M273.04 171.241C263.924 170.446 257.346 164.25 255.269 154.593C255.235 154.448 255.231 154.297 255.257 154.15C255.283 154.004 255.339 153.864 255.422 153.739C255.504 153.615 255.611 153.508 255.736 153.427C255.861 153.345 256.002 153.289 256.149 153.263C256.427 153.212 256.714 153.27 256.95 153.424C257.186 153.579 257.352 153.818 257.415 154.093C259.28 162.783 265.128 168.348 273.239 169.054C282.128 169.829 291.671 164.003 293.384 149.322C293.415 149.036 293.557 148.773 293.779 148.589C294.001 148.405 294.286 148.314 294.574 148.335C294.72 148.348 294.861 148.39 294.99 148.458C295.119 148.525 295.234 148.618 295.326 148.73C295.419 148.843 295.489 148.972 295.531 149.111C295.573 149.251 295.587 149.397 295.572 149.542C293.927 163.386 284.791 172.262 273.04 171.241Z" fill="#F0F0F0"/>
<path d="M255.84 144.963C255.694 144.951 255.552 144.91 255.422 144.843C255.293 144.775 255.178 144.683 255.085 144.57C254.992 144.458 254.923 144.328 254.881 144.188C254.839 144.048 254.826 143.902 254.842 143.757C256.48 129.913 265.616 121.037 277.36 122.065C287.68 122.956 294.595 130.632 295.675 142.194C295.687 142.34 295.67 142.486 295.624 142.625C295.579 142.763 295.505 142.891 295.409 143.001C295.313 143.111 295.196 143.201 295.064 143.265C294.932 143.329 294.789 143.366 294.643 143.373C294.356 143.39 294.074 143.294 293.858 143.106C293.641 142.917 293.508 142.651 293.487 142.366C292.489 131.948 286.318 125.046 277.175 124.244C268.292 123.47 258.743 129.296 257.037 143.983C257.005 144.27 256.863 144.533 256.639 144.717C256.415 144.9 256.128 144.988 255.84 144.963Z" fill="#F0F0F0"/>
<path d="M273.487 165.367C271.853 165.233 270.252 164.835 268.747 164.188C268.606 164.127 268.48 164.037 268.377 163.925C268.273 163.813 268.194 163.68 268.144 163.536C268.094 163.392 268.075 163.239 268.087 163.087C268.1 162.935 268.144 162.787 268.217 162.653C268.346 162.417 268.558 162.238 268.812 162.149C269.066 162.06 269.345 162.069 269.593 162.173C271.027 162.787 272.56 163.14 274.12 163.215C280.855 163.599 287.969 158.842 288.671 147.348C289.098 140.275 286.662 134.559 282.121 131.825C281.886 131.683 281.713 131.459 281.635 131.196C281.558 130.934 281.581 130.652 281.702 130.406C281.77 130.27 281.866 130.15 281.983 130.052C282.1 129.954 282.236 129.882 282.382 129.839C282.529 129.796 282.683 129.783 282.834 129.802C282.986 129.82 283.132 129.87 283.263 129.947C288.527 133.113 291.347 139.542 290.866 147.486C290.178 158.561 283.256 165.929 273.989 165.401L273.487 165.367Z" fill="#F0F0F0"/>
<path d="M263.69 158.534C263.563 158.618 263.42 158.676 263.27 158.703C263.119 158.731 262.965 158.727 262.816 158.693C262.668 158.659 262.527 158.595 262.404 158.505C262.281 158.416 262.178 158.302 262.1 158.17C260.061 154.393 259.165 150.108 259.52 145.834C260.167 135.231 266.545 128.014 275.207 127.884C275.359 127.882 275.51 127.911 275.651 127.969C275.791 128.028 275.918 128.114 276.024 128.223C276.13 128.332 276.212 128.462 276.265 128.604C276.319 128.746 276.343 128.897 276.335 129.049C276.318 129.323 276.198 129.581 275.999 129.771C275.801 129.962 275.538 130.071 275.262 130.077C268.836 130.2 262.383 135.039 261.722 145.957C261.389 149.815 262.187 153.687 264.02 157.101C264.156 157.339 264.198 157.619 264.137 157.885C264.076 158.152 263.916 158.386 263.69 158.541V158.534Z" fill="#F0F0F0"/>
<path d="M278.729 157.636C278.625 157.392 278.613 157.119 278.695 156.867C278.777 156.615 278.948 156.401 279.177 156.265C282.073 154.531 283.848 150.892 283.876 146.499C283.876 142.983 282.878 140.008 280.993 138.123C280.261 137.401 279.388 136.835 278.429 136.46C277.47 136.085 276.443 135.91 275.413 135.944C272.021 135.944 269.27 137.801 267.749 141.057C267.634 141.307 267.428 141.504 267.173 141.609C266.917 141.713 266.631 141.717 266.373 141.619C266.229 141.566 266.099 141.484 265.988 141.378C265.878 141.272 265.791 141.144 265.733 141.003C265.675 140.862 265.647 140.711 265.65 140.558C265.654 140.406 265.689 140.256 265.754 140.118C267.639 136.115 271.168 133.757 275.386 133.751C276.707 133.717 278.021 133.949 279.25 134.435C280.478 134.92 281.595 135.648 282.534 136.574C284.839 138.877 286.091 142.407 286.064 146.512C286.022 151.694 283.834 156.039 280.271 158.164C280.136 158.237 279.988 158.282 279.835 158.295C279.682 158.308 279.528 158.289 279.383 158.24C279.238 158.19 279.105 158.11 278.992 158.006C278.88 157.903 278.79 157.776 278.729 157.636Z" fill="#F0F0F0"/>
<path d="M270.804 149.576C270.657 149.636 270.499 149.663 270.34 149.656C270.181 149.649 270.026 149.608 269.885 149.536C269.744 149.463 269.62 149.362 269.522 149.237C269.424 149.113 269.355 148.969 269.318 148.815C269.242 148.514 269.187 148.212 269.139 147.897C268.513 143.784 270.728 140.221 274.285 139.59C275.113 139.411 275.972 139.427 276.793 139.637C277.614 139.848 278.373 140.247 279.012 140.803C279.131 140.909 279.225 141.041 279.287 141.188C279.349 141.335 279.376 141.495 279.368 141.654C279.359 141.813 279.315 141.969 279.237 142.108C279.16 142.248 279.053 142.369 278.922 142.462L278.853 142.51C278.647 142.651 278.397 142.718 278.147 142.7C277.897 142.681 277.661 142.578 277.477 142.407C277.092 142.081 276.636 141.849 276.145 141.73C275.654 141.611 275.142 141.608 274.65 141.722C271.939 142.201 270.907 145.011 271.292 147.54C271.333 147.787 271.375 148.027 271.437 148.226C271.503 148.484 271.474 148.757 271.353 148.995C271.233 149.233 271.031 149.42 270.783 149.521L270.804 149.576Z" fill="#F0F0F0"/>
<path d="M274.443 153.798C274.269 153.781 274.101 153.721 273.957 153.622C273.813 153.522 273.696 153.388 273.619 153.231C273.542 153.075 273.506 152.901 273.515 152.726C273.525 152.552 273.579 152.383 273.673 152.235L273.769 152.091C273.868 151.934 274.008 151.807 274.174 151.724C274.34 151.64 274.526 151.604 274.712 151.618C275.057 151.639 275.404 151.616 275.744 151.55C278.11 151.132 279.184 148.932 279.184 146.704C279.175 146.435 279.266 146.173 279.438 145.966C279.61 145.759 279.853 145.622 280.119 145.58C280.272 145.557 280.428 145.566 280.577 145.607C280.726 145.647 280.864 145.719 280.984 145.816C281.103 145.914 281.201 146.036 281.27 146.173C281.339 146.311 281.378 146.461 281.385 146.615C281.447 150.193 279.321 153.14 276.136 153.709C275.578 153.817 275.009 153.847 274.443 153.798Z" fill="#F0F0F0"/>
<path d="M274.932 149.747C274.375 149.701 273.847 149.482 273.422 149.12C272.997 148.759 272.697 148.273 272.565 147.732C272.526 147.58 272.524 147.422 272.559 147.269C272.594 147.116 272.666 146.974 272.768 146.855C272.869 146.735 272.998 146.642 273.144 146.582C273.289 146.523 273.447 146.499 273.604 146.512H273.858C274.051 146.532 274.234 146.608 274.384 146.73C274.534 146.851 274.646 147.014 274.705 147.198C274.729 147.293 274.782 147.379 274.857 147.443C274.932 147.507 275.026 147.546 275.124 147.554C275.654 147.602 275.743 146.869 275.757 146.69C275.79 146.424 275.739 146.153 275.613 145.916C275.423 145.687 275.325 145.397 275.338 145.1C275.357 144.884 275.44 144.678 275.577 144.508C275.713 144.338 275.897 144.213 276.105 144.147C276.313 144.081 276.536 144.078 276.746 144.138C276.956 144.198 277.143 144.318 277.285 144.484C277.821 145.162 278.068 146.024 277.973 146.882C277.794 148.685 276.521 149.884 274.932 149.747Z" fill="#F0F0F0"/>
<path d="M254.237 125.218C254.093 125.206 253.953 125.165 253.825 125.099C253.696 125.033 253.583 124.942 253.49 124.832C253.397 124.722 253.327 124.594 253.284 124.457C253.241 124.32 253.226 124.175 253.239 124.032L254.072 114.526L263.614 115.355C263.758 115.368 263.898 115.409 264.027 115.476C264.155 115.543 264.269 115.635 264.361 115.745C264.454 115.856 264.524 115.984 264.567 116.122C264.61 116.259 264.625 116.404 264.612 116.548C264.6 116.691 264.559 116.831 264.493 116.958C264.426 117.086 264.335 117.199 264.224 117.292C264.114 117.384 263.986 117.454 263.848 117.496C263.71 117.539 263.565 117.555 263.421 117.542L256.074 116.904L255.434 124.224C255.421 124.368 255.38 124.507 255.312 124.635C255.245 124.763 255.153 124.876 255.042 124.968C254.931 125.06 254.803 125.13 254.664 125.173C254.526 125.216 254.381 125.231 254.237 125.218Z" fill="#F0F0F0"/>
<path d="M299.596 129.172C299.452 129.159 299.312 129.118 299.184 129.051C299.056 128.984 298.942 128.893 298.849 128.782C298.757 128.671 298.687 128.543 298.644 128.406C298.601 128.268 298.586 128.123 298.599 127.98L299.239 120.667L291.891 120.023C291.747 120.011 291.607 119.97 291.479 119.904C291.351 119.838 291.237 119.747 291.144 119.637C291.051 119.526 290.982 119.399 290.938 119.262C290.895 119.125 290.88 118.98 290.893 118.837C290.92 118.548 291.059 118.28 291.282 118.093C291.505 117.906 291.793 117.813 292.084 117.836L301.626 118.672L300.794 128.165C300.781 128.309 300.741 128.45 300.674 128.579C300.607 128.708 300.516 128.822 300.405 128.916C300.293 129.009 300.165 129.08 300.026 129.124C299.888 129.168 299.741 129.185 299.596 129.172Z" fill="#F0F0F0"/>
<path d="M296.218 180.253L286.676 179.417C286.532 179.405 286.392 179.365 286.264 179.298C286.136 179.232 286.022 179.141 285.929 179.031C285.836 178.921 285.767 178.793 285.723 178.656C285.68 178.519 285.665 178.375 285.678 178.231C285.69 178.088 285.731 177.949 285.797 177.821C285.864 177.693 285.955 177.58 286.066 177.488C286.176 177.395 286.304 177.325 286.442 177.283C286.58 177.24 286.725 177.224 286.868 177.238L294.216 177.875L294.856 170.555C294.869 170.412 294.91 170.272 294.978 170.144C295.045 170.016 295.137 169.903 295.248 169.811C295.359 169.719 295.487 169.649 295.626 169.606C295.764 169.563 295.909 169.548 296.053 169.561C296.197 169.573 296.337 169.614 296.465 169.68C296.593 169.746 296.707 169.837 296.8 169.947C296.893 170.057 296.963 170.185 297.006 170.322C297.049 170.459 297.064 170.604 297.051 170.747L296.218 180.253Z" fill="#F0F0F0"/>
<path d="M258.206 176.95L248.664 176.141L249.496 166.635C249.509 166.491 249.551 166.352 249.618 166.224C249.685 166.096 249.777 165.983 249.888 165.891C249.999 165.798 250.128 165.729 250.266 165.686C250.404 165.643 250.549 165.628 250.693 165.641C250.837 165.653 250.977 165.693 251.105 165.76C251.234 165.826 251.347 165.917 251.44 166.027C251.533 166.137 251.603 166.265 251.646 166.402C251.689 166.539 251.704 166.684 251.691 166.827L251.051 174.147L258.392 174.784C258.684 174.81 258.953 174.95 259.141 175.174C259.33 175.397 259.421 175.686 259.397 175.976C259.367 176.262 259.225 176.525 259.003 176.707C258.78 176.889 258.493 176.977 258.206 176.95Z" fill="#F0F0F0"/>
<path d="M51.4142 156.382C51.236 156.395 51.0596 156.339 50.9222 156.225C50.7848 156.111 50.6972 155.949 50.6781 155.772L50.169 149.925L56.0307 149.418C56.2089 149.405 56.3854 149.461 56.5228 149.575C56.6602 149.689 56.7477 149.851 56.7669 150.028C56.7803 150.207 56.723 150.384 56.6073 150.521C56.4916 150.658 56.3266 150.744 56.1477 150.762L51.6344 151.152L52.0266 155.655C52.0382 155.832 51.9811 156.006 51.867 156.141C51.7529 156.276 51.5907 156.363 51.4142 156.382Z" fill="#E0E0E0"/>
<path d="M79.3058 153.955C79.1265 153.969 78.9491 153.912 78.8115 153.796C78.6739 153.681 78.5871 153.517 78.5696 153.339L78.1774 148.843L73.6573 149.233C73.4791 149.247 73.3026 149.191 73.1652 149.077C73.0278 148.963 72.9403 148.8 72.9211 148.623C72.9077 148.445 72.965 148.268 73.0807 148.131C73.1964 147.994 73.3614 147.907 73.5403 147.89L79.4021 147.383L79.9181 153.222C79.9316 153.4 79.8753 153.575 79.761 153.712C79.6467 153.849 79.4834 153.936 79.3058 153.955Z" fill="#E0E0E0"/>
<path d="M82.1953 179.115L76.3267 179.623C76.1485 179.636 75.972 179.58 75.8346 179.466C75.6972 179.352 75.6097 179.19 75.5905 179.013C75.5771 178.834 75.6344 178.657 75.7501 178.52C75.8658 178.383 76.0308 178.297 76.2097 178.279L80.723 177.889L80.3309 173.386C80.3192 173.209 80.3764 173.035 80.4905 172.9C80.6046 172.765 80.7668 172.678 80.9432 172.659C81.1214 172.646 81.2979 172.702 81.4353 172.816C81.5727 172.93 81.6602 173.092 81.6793 173.269L82.1953 179.115Z" fill="#E0E0E0"/>
<path d="M58.8171 181.151L52.9554 181.665L52.4394 175.819C52.4259 175.64 52.4832 175.463 52.5989 175.326C52.7146 175.189 52.8796 175.103 53.0586 175.085C53.2367 175.074 53.4124 175.132 53.5484 175.247C53.6845 175.362 53.7704 175.525 53.7878 175.702L54.1869 180.198L58.7002 179.808C58.8784 179.794 59.0548 179.85 59.1922 179.964C59.3296 180.078 59.4172 180.241 59.4363 180.418C59.4498 180.596 59.3925 180.773 59.2768 180.91C59.161 181.047 58.9961 181.134 58.8171 181.151Z" fill="#E0E0E0"/>
<path d="M78.8311 58.9421L56.416 60.8954L55.9551 55.6592C55.898 53.1492 56.802 50.7118 58.4834 48.8417C60.1648 46.9716 62.4977 45.8091 65.0082 45.5901C67.5188 45.3712 70.0189 46.1122 72.0009 47.6628C73.983 49.2134 75.2984 51.4573 75.68 53.9389L75.9415 56.9819L79.1819 56.7009L78.9136 53.6579C78.6089 50.1915 76.9343 46.9876 74.2584 44.7512C71.5824 42.5147 68.1242 41.4288 64.6445 41.7324C61.1648 42.0359 57.9487 43.7041 55.7037 46.3698C53.4586 49.0356 52.3686 52.4806 52.6733 55.947L53.1343 61.2107C51.8579 61.4595 50.719 62.1697 49.9366 63.2047C49.1542 64.2397 48.7837 65.5263 48.8962 66.817L50.4992 85.0754C50.5564 85.7645 50.7497 86.4356 51.0679 87.0501C51.3862 87.6646 51.8231 88.2104 52.3537 88.6562C52.8843 89.1019 53.4981 89.4389 54.1598 89.6478C54.8215 89.8566 55.5181 89.9331 56.2096 89.873L81.3423 87.6867C82.034 87.6297 82.7077 87.4372 83.3245 87.1201C83.9414 86.8031 84.4893 86.3678 84.9368 85.8392C85.3843 85.3106 85.7225 84.6992 85.9321 84.04C86.1418 83.3808 86.2186 82.6869 86.1583 81.9981L84.5415 63.7397C84.4852 63.0503 84.2925 62.3787 83.9745 61.7638C83.6565 61.1489 83.2196 60.6027 82.6888 60.1567C82.158 59.7108 81.5438 59.3739 80.8818 59.1654C80.2197 58.9569 79.5227 58.881 78.8311 58.9421ZM69.2954 73.0128L69.8458 79.2977C69.8606 79.777 69.6908 80.2438 69.3712 80.6024C69.0516 80.961 68.6064 81.1842 68.1269 81.2263C67.6474 81.2683 67.1699 81.1261 66.7923 80.8286C66.4147 80.5312 66.1657 80.1012 66.0962 79.6267L65.5458 73.3349C64.9782 72.9877 64.5351 72.4709 64.2795 71.8582C64.0239 71.2455 63.9688 70.5681 64.1222 69.9224C64.2756 69.2767 64.6295 68.6957 65.1337 68.2621C65.6378 67.8284 66.2664 67.5643 66.93 67.5073C67.5936 67.4503 68.2584 67.6033 68.8296 67.9446C69.4008 68.2858 69.8494 68.7979 70.1115 69.4079C70.3735 70.0179 70.4357 70.6947 70.2892 71.3419C70.1427 71.9892 69.7949 72.5739 69.2954 73.0128Z" fill="#EBEBEB"/>
<path d="M117.263 69.5243L114.999 65.837C113.859 66.0059 112.7 66.0059 111.559 65.837L109.289 69.5243L108.855 69.4077C107.384 69.0216 105.972 68.4383 104.659 67.6738L104.273 67.4476L105.23 63.445C105.269 63.2891 105.368 63.1549 105.506 63.0715C105.644 62.9881 105.809 62.9622 105.966 62.9995C106.121 63.0385 106.254 63.1363 106.338 63.2721C106.421 63.4078 106.448 63.5707 106.413 63.726L105.656 66.8513C106.624 67.3808 107.646 67.8058 108.704 68.1192L110.919 64.521L111.325 64.5896C112.61 64.7952 113.92 64.7952 115.206 64.5896L115.605 64.521L117.82 68.1192C118.889 67.8102 119.92 67.385 120.895 66.8513L119.912 62.7391L120.242 62.506C121.138 61.8622 121.941 61.0988 122.629 60.2375C122.725 60.1134 122.865 60.0311 123.02 60.0081C123.176 59.9851 123.334 60.0231 123.462 60.1141C123.529 60.1603 123.585 60.2197 123.628 60.2885C123.671 60.3573 123.7 60.4342 123.712 60.5144C123.724 60.5946 123.72 60.6764 123.699 60.7549C123.679 60.8334 123.642 60.9068 123.592 60.9708C122.918 61.8208 122.139 62.583 121.274 63.2394L122.285 67.4407L121.893 67.6669C120.581 68.4302 119.172 69.0135 117.703 69.4009L117.263 69.5243ZM103.351 61.478C103.166 61.2587 102.98 61.0393 102.801 60.7926L98.5835 61.8001L98.3565 61.4094C97.5938 60.1008 97.0085 58.6973 96.6158 57.2355L96.5058 56.8037L100.2 54.542C100.038 53.4054 100.038 52.2517 100.2 51.1151L96.5058 48.8534L96.6158 48.4216C97.0094 46.958 97.5947 45.5523 98.3565 44.2408L98.5835 43.857L102.801 44.8645C103.51 43.9406 104.339 43.1134 105.264 42.404L104.5 39.2308C104.463 39.0754 104.489 38.9116 104.573 38.7754C104.657 38.6392 104.792 38.5417 104.948 38.5043C105.024 38.485 105.104 38.4813 105.183 38.4934C105.261 38.5055 105.336 38.5331 105.403 38.5747C105.471 38.6162 105.529 38.6709 105.575 38.7353C105.621 38.7997 105.653 38.8726 105.67 38.9498L106.64 42.9044L106.31 43.1442C105.248 43.9021 104.319 44.8282 103.558 45.8857L103.317 46.2147L99.189 45.2346C98.6551 46.2056 98.2262 47.2303 97.9093 48.2914L101.521 50.4983L101.459 50.9027C101.23 52.181 101.23 53.4898 101.459 54.7682L101.521 55.1657L97.9093 57.3794C98.2262 58.4406 98.6551 59.4652 99.189 60.4362L103.317 59.4561L103.558 59.7851C103.772 60.0959 104.001 60.3955 104.246 60.6829C104.352 60.7938 104.411 60.9411 104.411 61.0942C104.411 61.2473 104.352 61.3945 104.246 61.5054C104.188 61.5666 104.117 61.6148 104.039 61.647C103.961 61.6791 103.877 61.6944 103.792 61.6918C103.708 61.6892 103.625 61.6688 103.549 61.6319C103.473 61.5951 103.406 61.5426 103.351 61.478ZM127.94 61.8138L126.386 61.4437C126.23 61.4063 126.095 61.3088 126.011 61.1726C125.927 61.0364 125.901 60.8726 125.938 60.7172C125.976 60.5619 126.074 60.4277 126.211 60.3442C126.347 60.2607 126.512 60.2346 126.668 60.2717L127.356 60.4294C127.887 59.4581 128.314 58.4335 128.628 57.3726L125.016 55.1588L125.085 54.7613C125.315 53.483 125.315 52.1742 125.085 50.8958L125.016 50.4914L128.628 48.2845C128.309 47.2255 127.878 46.2031 127.342 45.2346L123.214 46.2147L122.98 45.8857C122.217 44.8298 121.288 43.904 120.228 43.1442L119.898 42.9044L120.882 38.7921C119.905 38.2591 118.874 37.8318 117.806 37.5173L115.584 41.1224L115.185 41.0539C113.9 40.8482 112.59 40.8482 111.305 41.0539L110.899 41.1224L108.704 37.531L108.291 37.6613C108.144 37.7095 107.984 37.6985 107.845 37.6306C107.706 37.5627 107.6 37.4433 107.548 37.298C107.52 37.2229 107.507 37.1429 107.51 37.0628C107.513 36.9826 107.532 36.9038 107.566 36.831C107.6 36.7583 107.648 36.693 107.707 36.639C107.767 36.585 107.837 36.5434 107.913 36.5167C108.216 36.4139 108.525 36.3248 108.828 36.2494L109.261 36.1329L111.532 39.8202C112.672 39.6513 113.831 39.6513 114.972 39.8202L117.235 36.1329L117.676 36.2494C119.144 36.6368 120.554 37.2201 121.865 37.9834L122.258 38.2027L121.246 42.404C122.168 43.1082 122.991 43.931 123.696 44.8508L127.968 43.8639L128.195 44.2477C128.96 45.5578 129.545 46.9638 129.936 48.4285L130.053 48.8603L126.351 51.122C126.523 52.2579 126.523 53.4129 126.351 54.5489L130.032 56.8174L129.915 57.2492C129.526 58.7121 128.94 60.116 128.174 61.4231L127.94 61.8138ZM113.093 58.7022C111.61 58.6489 110.201 58.0406 109.147 56.9986C108.094 55.9566 107.473 54.5575 107.409 53.0799C107.345 51.6024 107.842 50.155 108.801 49.0262C109.76 47.8974 111.111 47.1701 112.584 46.9892C112.67 46.9785 112.758 46.9861 112.84 47.0115C112.923 47.037 112.999 47.0796 113.065 47.1366C113.13 47.1936 113.182 47.2637 113.218 47.3422C113.253 47.4208 113.272 47.506 113.272 47.5923C113.273 47.7393 113.22 47.8814 113.122 47.9914C113.024 48.1015 112.889 48.1717 112.743 48.1886C111.723 48.3044 110.77 48.7505 110.03 49.4582C109.289 50.1659 108.802 51.0962 108.644 52.1062C108.486 53.1162 108.665 54.15 109.154 55.0488C109.642 55.9477 110.414 56.6618 111.349 57.0816C112.285 57.5014 113.333 57.6036 114.333 57.3725C115.332 57.1414 116.228 56.5898 116.882 55.8025C117.537 55.0151 117.914 54.0355 117.955 53.0141C117.996 51.9927 117.7 50.9861 117.111 50.1488C117.026 50.0301 116.989 49.8841 117.007 49.7394C117.025 49.5948 117.096 49.4621 117.208 49.3674C117.271 49.3103 117.347 49.2673 117.428 49.2412C117.51 49.2152 117.596 49.2068 117.682 49.2165C117.767 49.2262 117.849 49.2539 117.923 49.2976C117.996 49.3414 118.06 49.4002 118.109 49.4702C118.734 50.3628 119.098 51.4108 119.16 52.4974C119.222 53.584 118.98 54.6664 118.46 55.6238C117.941 56.5812 117.165 57.3761 116.218 57.9197C115.272 58.4632 114.192 58.7342 113.1 58.7022H113.093Z" fill="#F0F0F0"/>
<path d="M74.5173 119.694L73.0518 117.315C72.3106 117.425 71.5571 117.425 70.8158 117.315L69.3504 119.694L69.0683 119.618C68.1186 119.369 67.2068 118.993 66.3576 118.501L66.1099 118.35L66.7291 115.766C66.7536 115.667 66.8164 115.581 66.9039 115.527C66.9914 115.473 67.0967 115.456 67.197 115.479C67.2472 115.491 67.2945 115.512 67.3362 115.543C67.3779 115.573 67.4132 115.611 67.4401 115.655C67.4669 115.699 67.4848 115.748 67.4926 115.799C67.5005 115.85 67.4982 115.901 67.4859 115.951L67.0043 117.966C67.6369 118.308 68.3032 118.584 68.9926 118.789L70.4237 116.459L70.6782 116.507C71.5102 116.637 72.3575 116.637 73.1894 116.507L73.444 116.459L74.8819 118.789C75.5687 118.582 76.2326 118.307 76.8634 117.966L76.2304 115.314L76.4437 115.163C77.0223 114.747 77.5408 114.253 77.9848 113.697C78.0463 113.617 78.1365 113.563 78.2365 113.548C78.3365 113.533 78.4386 113.556 78.5214 113.614C78.5639 113.645 78.5999 113.684 78.6274 113.728C78.6549 113.772 78.6733 113.822 78.6816 113.873C78.6899 113.925 78.6879 113.978 78.6758 114.028C78.6637 114.079 78.6416 114.127 78.6109 114.169C78.1725 114.717 77.6688 115.21 77.111 115.636L77.799 118.378L77.5445 118.528C76.6958 119.021 75.7839 119.397 74.8338 119.646L74.5173 119.694ZM65.532 114.498C65.4082 114.355 65.2912 114.211 65.1742 114.06L62.4222 114.745L62.2778 114.498C61.7841 113.653 61.4069 112.744 61.1563 111.798L61.0806 111.517L63.468 110.057C63.3579 109.317 63.3579 108.564 63.468 107.823L61.0806 106.363L61.1563 106.082C61.4069 105.138 61.7841 104.232 62.2778 103.389L62.4222 103.135L65.1742 103.786C65.6307 103.194 66.1626 102.664 66.7566 102.21L66.2682 100.154C66.2559 100.104 66.2537 100.053 66.2617 100.002C66.2696 99.9519 66.2876 99.9036 66.3145 99.8602C66.3414 99.8168 66.3767 99.7792 66.4184 99.7495C66.46 99.7199 66.5072 99.6988 66.5571 99.6875C66.6068 99.6754 66.6585 99.6732 66.7091 99.6811C66.7596 99.689 66.8081 99.7069 66.8517 99.7337C66.8952 99.7605 66.933 99.7957 66.9627 99.8372C66.9925 99.8787 67.0136 99.9257 67.025 99.9754L67.6442 102.532L67.424 102.683C66.7436 103.174 66.1467 103.771 65.6558 104.451L65.4976 104.663L62.8419 104.033C62.4991 104.661 62.2224 105.322 62.0163 106.007L64.3486 107.432L64.3074 107.693C64.1606 108.518 64.1606 109.362 64.3074 110.187L64.3486 110.448L62.0163 111.873C62.2223 112.56 62.499 113.224 62.8419 113.854L65.4976 113.217L65.6558 113.429C65.8003 113.628 65.9517 113.827 66.1168 114.012C66.1845 114.083 66.2223 114.178 66.2223 114.276C66.2223 114.374 66.1845 114.468 66.1168 114.54C66.0772 114.578 66.0298 114.608 65.9778 114.627C65.9258 114.646 65.8704 114.654 65.8151 114.65C65.7599 114.646 65.7061 114.63 65.6573 114.604C65.6085 114.578 65.5658 114.542 65.532 114.498ZM81.4179 114.711L80.4134 114.471C80.3635 114.46 80.3163 114.439 80.2747 114.409C80.233 114.379 80.1977 114.342 80.1708 114.298C80.1439 114.255 80.126 114.207 80.118 114.156C80.11 114.106 80.1122 114.055 80.1245 114.005C80.1358 113.955 80.157 113.908 80.1867 113.867C80.2165 113.825 80.2542 113.79 80.2978 113.763C80.3413 113.736 80.3898 113.719 80.4404 113.711C80.491 113.703 80.5426 113.705 80.5923 113.717L81.0258 113.82C81.3715 113.191 81.6483 112.527 81.8514 111.839L79.519 110.414L79.5603 110.153C79.7071 109.328 79.7071 108.484 79.5603 107.658L79.519 107.398L81.8514 105.972C81.6483 105.287 81.3715 104.625 81.0258 103.999L78.3701 104.629L78.2118 104.417C77.721 103.737 77.1241 103.14 76.4437 102.648L76.2304 102.498L76.8634 99.8452C76.2326 99.5048 75.5687 99.2293 74.8819 99.0227L73.444 101.353L73.1894 101.312C72.358 101.175 71.5097 101.175 70.6782 101.312L70.4237 101.353L68.9926 99.0227L68.7243 99.1118C68.6285 99.1406 68.5252 99.1318 68.4357 99.0872C68.3461 99.0426 68.2771 98.9656 68.2427 98.8719C68.2242 98.8239 68.2156 98.7726 68.2174 98.7211C68.2192 98.6696 68.2313 98.6191 68.2532 98.5724C68.275 98.5257 68.306 98.4838 68.3444 98.4494C68.3828 98.4149 68.4278 98.3884 68.4766 98.3716C68.6762 98.3031 68.8688 98.2483 69.0683 98.1934L69.3504 98.118L70.8158 100.503C71.5571 100.393 72.3106 100.393 73.0518 100.503L74.5173 98.118L74.7994 98.1934C75.7488 98.4472 76.6603 98.8252 77.5101 99.3174L77.7646 99.4614L77.0766 102.203C77.6723 102.656 78.2045 103.186 78.659 103.779L81.411 103.128L81.5555 103.382C82.0492 104.225 82.4264 105.131 82.677 106.075L82.7526 106.356L80.3653 107.816C80.4754 108.557 80.4754 109.31 80.3653 110.05L82.7526 111.51L82.677 111.791C82.4264 112.737 82.0492 113.646 81.5555 114.492L81.4179 114.711ZM71.8272 112.703C70.8551 112.669 69.9317 112.27 69.2426 111.586C68.5535 110.902 68.1496 109.984 68.112 109.015C68.085 108.066 68.4162 107.141 69.0403 106.423C69.6644 105.705 70.536 105.246 71.4832 105.136C71.5384 105.131 71.5942 105.136 71.647 105.153C71.6998 105.17 71.7485 105.198 71.7899 105.235C71.8313 105.272 71.8646 105.317 71.8876 105.367C71.9106 105.417 71.9229 105.472 71.9235 105.527C71.9241 105.622 71.8892 105.714 71.8256 105.785C71.7621 105.856 71.6744 105.901 71.5795 105.911C70.9992 105.977 70.4505 106.209 69.9995 106.579C69.5486 106.948 69.2147 107.44 69.038 107.995C68.8614 108.55 68.8496 109.143 69.0041 109.704C69.1586 110.266 69.4727 110.77 69.9086 111.157C70.3446 111.545 70.8836 111.798 71.4609 111.887C72.0381 111.976 72.6288 111.897 73.1618 111.659C73.6948 111.421 74.1473 111.034 74.4647 110.546C74.7821 110.057 74.9509 109.488 74.9507 108.906C74.952 108.287 74.7596 107.683 74.4003 107.179C74.3464 107.101 74.3228 107.007 74.3343 106.913C74.3457 106.82 74.3912 106.734 74.4622 106.671C74.5037 106.634 74.5526 106.607 74.6057 106.59C74.6588 106.573 74.7149 106.568 74.7702 106.574C74.8255 106.581 74.8788 106.599 74.9266 106.627C74.9743 106.656 75.0154 106.694 75.047 106.74C75.4494 107.317 75.6834 107.993 75.7229 108.694C75.7624 109.396 75.6059 110.094 75.2708 110.712C74.9357 111.33 74.4352 111.843 73.8248 112.195C73.2144 112.546 72.5182 112.722 71.8134 112.703H71.8272Z" fill="#E6E6E6"/>
<path d="M172 255C245.673 255 305.396 251.526 305.396 247.242C305.396 242.957 245.673 239.483 172 239.483C98.3273 239.483 38.6037 242.957 38.6037 247.242C38.6037 251.526 98.3273 255 172 255Z" fill="#F5F5F5"/>
<path d="M250.054 62.2799H227.652L211.828 242.704H234.23C237.373 242.646 240.386 241.443 242.701 239.323C245.015 237.203 246.47 234.313 246.792 231.197L260.614 73.7942C260.775 72.3273 260.62 70.8432 260.16 69.4406C259.7 68.038 258.945 66.7492 257.946 65.6599C256.947 64.5705 255.726 63.7057 254.365 63.1229C253.004 62.5401 251.535 62.2527 250.054 62.2799Z" fill="#1988FF"/>
<path d="M245.485 62.28H169.668C166.523 62.3403 163.509 63.5444 161.193 65.6653C158.878 67.7862 157.421 70.6775 157.098 73.7942L143.276 231.197C143.117 232.662 143.272 234.144 143.732 235.545C144.192 236.946 144.945 238.233 145.943 239.322C146.94 240.41 148.159 241.274 149.518 241.858C150.876 242.441 152.344 242.73 153.823 242.704H229.634C232.773 242.639 235.78 241.434 238.09 239.314C240.4 237.195 241.853 234.309 242.176 231.197L255.998 73.7942C256.158 72.3314 256.004 70.8515 255.547 69.4523C255.089 68.0532 254.339 66.7667 253.345 65.6782C252.351 64.5896 251.137 63.7238 249.782 63.138C248.427 62.5521 246.962 62.2597 245.485 62.28Z" fill="#1988FF"/>
<path opacity="0.3" d="M245.485 62.28H169.668C166.523 62.3403 163.509 63.5444 161.193 65.6653C158.878 67.7862 157.421 70.6775 157.098 73.7942L143.276 231.197C143.117 232.662 143.272 234.144 143.732 235.545C144.192 236.946 144.945 238.233 145.943 239.322C146.94 240.41 148.159 241.274 149.518 241.858C150.876 242.441 152.344 242.73 153.823 242.704H229.634C232.773 242.639 235.78 241.434 238.09 239.314C240.4 237.195 241.853 234.309 242.176 231.197L255.998 73.7942C256.158 72.3314 256.004 70.8515 255.547 69.4523C255.089 68.0532 254.339 66.7667 253.345 65.6782C252.351 64.5896 251.137 63.7238 249.782 63.138C248.427 62.5521 246.962 62.2597 245.485 62.28Z" fill="white"/>
<path opacity="0.4" d="M245.162 65.9672H225.169C224.572 65.9735 223.991 66.1578 223.5 66.4962C223.01 66.8346 222.632 67.3116 222.417 67.8657C221.628 69.8984 220.25 71.651 218.457 72.8998C216.664 74.1486 214.538 74.837 212.351 74.8771H200.559C198.494 74.9169 196.48 74.2365 194.866 72.9537C193.252 71.6708 192.138 69.8662 191.718 67.852C191.604 67.3081 191.304 66.8208 190.868 66.4742C190.432 66.1276 189.888 65.9434 189.331 65.9535H169.344C167.206 65.9913 165.156 66.8089 163.583 68.2514C162.009 69.6939 161.021 71.6611 160.806 73.7805L146.977 231.183C146.868 232.179 146.972 233.187 147.285 234.14C147.597 235.093 148.109 235.968 148.787 236.708C149.465 237.448 150.294 238.035 151.218 238.431C152.143 238.827 153.141 239.022 154.146 239.003H229.964C232.101 238.964 234.149 238.147 235.722 236.706C237.295 235.266 238.284 233.301 238.502 231.183L252.324 73.7805C252.433 72.7855 252.327 71.7789 252.015 70.8276C251.703 69.8763 251.191 69.0021 250.514 68.263C249.836 67.524 249.009 66.937 248.086 66.5412C247.163 66.1454 246.166 65.9497 245.162 65.9672Z" fill="white"/>
<path d="M226.269 151.468H173.211C172.846 151.474 172.484 151.402 172.15 151.258C171.815 151.114 171.514 150.901 171.268 150.633C171.022 150.365 170.837 150.047 170.723 149.702C170.61 149.357 170.571 148.991 170.61 148.63L170.879 145.601C170.957 144.833 171.316 144.12 171.886 143.597C172.457 143.074 173.2 142.778 173.975 142.763H227.04C227.405 142.757 227.766 142.829 228.101 142.973C228.436 143.116 228.737 143.33 228.983 143.598C229.228 143.866 229.414 144.184 229.528 144.529C229.641 144.874 229.68 145.239 229.641 145.601L229.379 148.63C229.299 149.4 228.938 150.114 228.365 150.637C227.792 151.159 227.046 151.455 226.269 151.468Z" fill="white"/>
<path d="M225.127 164.524H172.062C171.698 164.53 171.336 164.459 171.001 164.315C170.667 164.171 170.367 163.958 170.121 163.689C169.876 163.421 169.691 163.103 169.578 162.758C169.466 162.413 169.428 162.047 169.468 161.686L169.73 158.657C169.81 157.89 170.169 157.178 170.739 156.655C171.309 156.133 172.051 155.836 172.826 155.82H225.891C226.256 155.814 226.617 155.885 226.952 156.029C227.287 156.173 227.588 156.386 227.834 156.654C228.079 156.923 228.265 157.24 228.379 157.585C228.492 157.931 228.531 158.296 228.492 158.657L228.223 161.686C228.143 162.454 227.784 163.166 227.214 163.688C226.644 164.211 225.902 164.508 225.127 164.524Z" fill="white"/>
<path opacity="0.1" d="M210.15 68.9212C210.062 69.7741 209.664 70.5654 209.03 71.1452C208.396 71.725 207.57 72.053 206.71 72.067C206.305 72.0743 205.904 71.9956 205.532 71.8363C205.161 71.677 204.827 71.4407 204.555 71.143C204.282 70.8454 204.076 70.4933 203.95 70.1102C203.825 69.7271 203.783 69.3218 203.827 68.9212C203.914 68.0682 204.313 67.2769 204.947 66.6971C205.581 66.1173 206.406 65.7893 207.267 65.7753C207.671 65.768 208.073 65.8467 208.444 66.006C208.816 66.1653 209.149 66.4017 209.422 66.6993C209.695 66.9969 209.901 67.349 210.026 67.7321C210.152 68.1152 210.194 68.5206 210.15 68.9212Z" fill="black"/>
<path opacity="0.1" d="M208.719 68.9212C208.67 69.3861 208.452 69.8172 208.106 70.1329C207.76 70.4486 207.31 70.6271 206.84 70.6346C206.62 70.6388 206.401 70.5961 206.198 70.5095C205.995 70.4229 205.813 70.2943 205.664 70.1322C205.515 69.9701 205.403 69.7783 205.334 69.5695C205.265 69.3607 205.241 69.1397 205.265 68.9212C205.312 68.455 205.529 68.0223 205.875 67.7052C206.222 67.3881 206.673 67.2086 207.143 67.2009C207.364 67.1977 207.583 67.2413 207.786 67.3287C207.989 67.4161 208.17 67.5454 208.319 67.7079C208.468 67.8705 208.581 68.0628 208.65 68.2719C208.718 68.481 208.742 68.7023 208.719 68.9212Z" fill="black"/>
<g opacity="0.8">
<path d="M235.826 74.1643C235.708 74.1658 235.591 74.1425 235.482 74.0959C235.374 74.0492 235.276 73.9803 235.196 73.8936C235.117 73.8069 235.056 73.7044 235.019 73.5928C234.981 73.4812 234.968 73.363 234.98 73.2459L235.131 71.5599C235.156 71.3101 235.272 71.078 235.457 70.9076C235.642 70.7372 235.883 70.64 236.135 70.6346C236.254 70.633 236.372 70.6564 236.481 70.7035C236.59 70.7505 236.687 70.8201 236.767 70.9075C236.847 70.995 236.908 71.0984 236.945 71.2108C236.982 71.3233 236.994 71.4422 236.982 71.5599L236.83 73.2459C236.805 73.495 236.689 73.7262 236.503 73.8955C236.318 74.0649 236.077 74.1605 235.826 74.1643Z" fill="white"/>
<path d="M243.229 74.1643C243.111 74.1658 242.993 74.1425 242.885 74.0959C242.777 74.0492 242.679 73.9803 242.599 73.8936C242.519 73.807 242.459 73.7045 242.421 73.5928C242.384 73.4812 242.371 73.363 242.382 73.2459L242.733 69.2913C242.758 69.0415 242.874 68.8095 243.059 68.639C243.245 68.4686 243.486 68.3715 243.738 68.366C243.857 68.3644 243.974 68.3879 244.083 68.4349C244.192 68.482 244.29 68.5515 244.37 68.639C244.45 68.7264 244.51 68.8298 244.547 68.9423C244.584 69.0547 244.597 69.1737 244.584 69.2913L244.233 73.2459C244.208 73.495 244.092 73.7262 243.906 73.8956C243.721 74.0649 243.48 74.1605 243.229 74.1643Z" fill="white"/>
<path d="M239.527 74.1643C239.409 74.1658 239.292 74.1425 239.184 74.0959C239.075 74.0492 238.978 73.9803 238.898 73.8936C238.818 73.807 238.757 73.7045 238.72 73.5928C238.683 73.4812 238.669 73.363 238.681 73.2459L238.929 70.4222C238.956 70.1724 239.073 69.9411 239.26 69.772C239.446 69.6028 239.688 69.5074 239.94 69.5038C240.058 69.501 240.176 69.5235 240.284 69.5699C240.393 69.6162 240.49 69.6852 240.57 69.7723C240.649 69.8594 240.709 69.9624 240.745 70.0746C240.782 70.1867 240.793 70.3052 240.779 70.4222L240.532 73.2459C240.506 73.495 240.39 73.7262 240.205 73.8956C240.02 74.0649 239.779 74.1605 239.527 74.1643Z" fill="white"/>
</g>
<g opacity="0.8">
<path d="M172.44 74.1643H167.789C167.723 74.1657 167.656 74.1528 167.595 74.1265C167.533 74.1002 167.478 74.061 167.433 74.0116C167.388 73.9622 167.354 73.9038 167.334 73.8403C167.313 73.7768 167.307 73.7096 167.315 73.6434L167.528 71.1623C167.543 71.0204 167.609 70.8887 167.714 70.7917C167.819 70.6946 167.956 70.6388 168.099 70.6346H172.75C172.817 70.6341 172.884 70.6479 172.945 70.675C173.007 70.7022 173.062 70.742 173.107 70.7919C173.152 70.8418 173.185 70.9006 173.206 70.9645C173.226 71.0283 173.232 71.0958 173.225 71.1623L173.004 73.6434C172.992 73.7846 172.928 73.9163 172.824 74.0126C172.719 74.109 172.583 74.1631 172.44 74.1643Z" fill="white"/>
<path d="M174.594 73.4926C174.527 73.4939 174.46 73.481 174.398 73.4547C174.336 73.4284 174.281 73.3894 174.235 73.3401C174.19 73.2909 174.155 73.2326 174.134 73.1691C174.113 73.1056 174.105 73.0383 174.112 72.9717L174.215 71.834C174.229 71.6922 174.295 71.5604 174.4 71.4642C174.506 71.368 174.643 71.3141 174.786 71.3131C174.853 71.3117 174.92 71.3245 174.981 71.3509C175.043 71.3772 175.098 71.4164 175.143 71.4658C175.188 71.5151 175.222 71.5736 175.242 71.6371C175.263 71.7006 175.269 71.7678 175.261 71.834L175.165 72.9717C175.15 73.1129 175.083 73.2438 174.978 73.3398C174.873 73.4357 174.736 73.49 174.594 73.4926Z" fill="white"/>
</g>
<path d="M217.528 131.583C226.786 122.754 227.709 108.747 219.59 100.298C211.471 91.8492 197.384 92.1572 188.126 100.986C178.867 109.815 177.944 123.822 186.063 132.271C194.182 140.72 208.269 140.412 217.528 131.583Z" fill="white"/>
<path d="M202.905 115.437C197.071 115.437 192.138 117.644 191.718 122.456L191.25 127.788H212.392L212.86 122.456C213.28 117.644 208.746 115.437 202.905 115.437Z" fill="#1988FF"/>
<path d="M203.098 113.237C205.808 113.237 207.06 111.051 207.294 108.351C207.528 105.65 206.668 103.464 203.958 103.464C201.247 103.464 200.002 105.65 199.761 108.351C199.52 111.051 200.387 113.237 203.098 113.237Z" fill="#1988FF"/>
<path d="M223.848 146.965C222.41 146.965 221.192 147.513 221.096 148.699L220.979 150.015H226.201L226.318 148.699C226.414 147.513 225.292 146.965 223.848 146.965Z" fill="#1988FF"/>
<path d="M223.896 146.423C224.584 146.423 224.873 145.882 224.935 145.217C224.997 144.552 224.776 144.011 224.109 144.011C223.442 144.011 223.132 144.552 223.07 145.217C223.008 145.882 223.228 146.423 223.896 146.423Z" fill="#1988FF"/>
<path d="M207.776 177.573H187.136C186.577 177.582 186.022 177.473 185.508 177.252C184.994 177.031 184.534 176.704 184.156 176.293C183.779 175.882 183.494 175.395 183.32 174.865C183.145 174.336 183.086 173.775 183.146 173.221C183.267 172.042 183.817 170.948 184.693 170.146C185.569 169.344 186.71 168.89 187.9 168.869H208.54C209.099 168.859 209.655 168.968 210.169 169.188C210.683 169.409 211.144 169.735 211.522 170.147C211.899 170.559 212.185 171.046 212.358 171.576C212.532 172.106 212.591 172.667 212.53 173.221C212.408 174.4 211.857 175.493 210.981 176.295C210.105 177.096 208.965 177.551 207.776 177.573Z" fill="#1988FF"/>
<path d="M205.279 226.077H183.187C182.595 226.093 182.006 225.982 181.461 225.751C180.916 225.52 180.427 225.176 180.028 224.74C179.629 224.304 179.328 223.788 179.147 223.227C178.965 222.665 178.907 222.071 178.976 221.485L180.387 205.427C180.514 204.183 181.095 203.029 182.02 202.183C182.944 201.336 184.147 200.857 185.402 200.835H207.501C208.093 200.819 208.681 200.93 209.226 201.161C209.771 201.392 210.26 201.737 210.66 202.172C211.059 202.608 211.36 203.124 211.541 203.686C211.723 204.247 211.781 204.841 211.711 205.427L210.301 221.485C210.172 222.73 209.589 223.884 208.664 224.73C207.739 225.576 206.534 226.055 205.279 226.077Z" fill="#1988FF"/>
<g opacity="0.6">
<path d="M198.467 209.484C198.503 209.134 198.465 208.78 198.353 208.446C198.242 208.112 198.06 207.805 197.821 207.546C197.582 207.287 197.29 207.081 196.965 206.943C196.64 206.804 196.289 206.736 195.936 206.743C195.183 206.754 194.46 207.038 193.904 207.543C193.347 208.048 192.996 208.739 192.915 209.484C192.871 209.901 192.934 210.323 193.096 210.709C193.258 211.096 193.515 211.436 193.844 211.698L193.362 217.229C193.339 217.438 193.36 217.65 193.426 217.85C193.491 218.05 193.599 218.234 193.742 218.39C193.884 218.545 194.059 218.668 194.253 218.75C194.448 218.833 194.658 218.872 194.869 218.867C195.317 218.859 195.746 218.688 196.076 218.387C196.405 218.085 196.613 217.673 196.658 217.229L197.146 211.698C197.515 211.447 197.824 211.119 198.052 210.737C198.28 210.354 198.422 209.927 198.467 209.484Z" fill="white"/>
</g>
<path d="M207.693 204.173H204.845L205.533 196.229C205.652 195.127 205.535 194.013 205.189 192.959C204.843 191.906 204.276 190.938 203.526 190.12C202.776 189.301 201.859 188.651 200.838 188.212C199.816 187.773 198.713 187.555 197.6 187.573C195.236 187.619 192.97 188.524 191.229 190.118C189.488 191.713 188.392 193.886 188.147 196.229L187.459 204.173H184.611L185.299 196.229C185.621 193.119 187.074 190.233 189.384 188.115C191.695 185.998 194.703 184.796 197.841 184.736C199.318 184.712 200.784 185.001 202.14 185.584C203.497 186.166 204.713 187.03 205.709 188.117C206.705 189.204 207.458 190.489 207.917 191.888C208.377 193.286 208.533 194.766 208.375 196.229L207.693 204.173Z" fill="#1988FF"/>
<path d="M224.199 159.13L224.267 158.369C224.287 158.189 224.268 158.008 224.211 157.836C224.155 157.664 224.063 157.506 223.94 157.373C223.818 157.239 223.669 157.133 223.502 157.061C223.335 156.99 223.155 156.954 222.974 156.957C222.588 156.964 222.218 157.111 221.934 157.371C221.65 157.632 221.471 157.987 221.433 158.369L221.364 159.13C221.211 159.134 221.065 159.193 220.952 159.297C220.839 159.4 220.768 159.54 220.752 159.692L220.573 161.748C220.565 161.82 220.573 161.892 220.595 161.961C220.618 162.029 220.654 162.092 220.703 162.145C220.752 162.198 220.812 162.241 220.878 162.269C220.945 162.298 221.016 162.312 221.089 162.31H223.923C224.076 162.306 224.223 162.247 224.335 162.144C224.448 162.04 224.519 161.9 224.536 161.748L224.715 159.692C224.722 159.62 224.715 159.548 224.692 159.479C224.67 159.411 224.633 159.348 224.584 159.295C224.535 159.242 224.476 159.199 224.409 159.171C224.343 159.143 224.271 159.129 224.199 159.13ZM222.912 157.307C223.049 157.304 223.185 157.33 223.31 157.384C223.436 157.438 223.549 157.518 223.642 157.618C223.734 157.719 223.804 157.838 223.847 157.967C223.889 158.097 223.904 158.234 223.889 158.369L223.82 159.13H221.687L221.756 158.369C221.785 158.082 221.918 157.815 222.131 157.619C222.344 157.423 222.622 157.312 222.912 157.307Z" fill="#1988FF"/>
<path d="M181.529 159.946L180.538 159.74C180.511 159.734 180.485 159.723 180.462 159.705C180.44 159.688 180.422 159.667 180.409 159.641C180.397 159.616 180.39 159.589 180.39 159.561C180.389 159.533 180.395 159.505 180.407 159.48L180.82 158.506C180.837 158.464 180.839 158.418 180.825 158.374C180.811 158.331 180.782 158.294 180.743 158.271C180.704 158.247 180.658 158.237 180.613 158.244C180.568 158.251 180.527 158.273 180.497 158.308L179.747 159.075C179.728 159.096 179.704 159.112 179.678 159.124C179.652 159.135 179.624 159.141 179.596 159.141C179.567 159.141 179.539 159.135 179.513 159.124C179.487 159.112 179.463 159.096 179.444 159.075L178.832 158.308C178.701 158.143 178.419 158.308 178.467 158.506L178.708 159.48C178.714 159.508 178.714 159.537 178.709 159.566C178.704 159.594 178.693 159.621 178.677 159.645C178.661 159.67 178.64 159.691 178.616 159.707C178.592 159.723 178.565 159.734 178.536 159.74L177.511 159.946C177.291 159.987 177.263 160.295 177.476 160.336L178.467 160.542C178.495 160.547 178.521 160.559 178.543 160.576C178.566 160.593 178.584 160.615 178.596 160.641C178.608 160.666 178.614 160.694 178.613 160.722C178.612 160.75 178.605 160.778 178.591 160.802L178.192 161.748C178.175 161.79 178.173 161.837 178.187 161.88C178.201 161.923 178.231 161.96 178.269 161.984C178.308 162.008 178.354 162.017 178.399 162.01C178.444 162.003 178.485 161.981 178.515 161.947L179.265 161.179C179.283 161.156 179.306 161.138 179.333 161.125C179.359 161.113 179.388 161.106 179.417 161.106C179.446 161.106 179.475 161.113 179.501 161.125C179.527 161.138 179.55 161.156 179.568 161.179L180.18 161.947C180.311 162.111 180.593 161.947 180.538 161.748L180.297 160.775C180.291 160.746 180.291 160.716 180.297 160.687C180.303 160.659 180.315 160.631 180.331 160.607C180.348 160.583 180.369 160.562 180.394 160.546C180.419 160.53 180.447 160.519 180.476 160.514L181.501 160.309C181.715 160.295 181.742 159.987 181.529 159.946Z" fill="#263238"/>
<path d="M188.037 159.946L187.047 159.74C187.019 159.734 186.993 159.723 186.971 159.705C186.948 159.688 186.93 159.667 186.918 159.641C186.905 159.616 186.898 159.589 186.898 159.561C186.898 159.533 186.904 159.505 186.916 159.48L187.329 158.506C187.346 158.464 187.347 158.418 187.333 158.374C187.319 158.331 187.29 158.294 187.251 158.271C187.213 158.247 187.167 158.237 187.122 158.244C187.076 158.251 187.035 158.273 187.005 158.308L186.255 159.075C186.236 159.096 186.213 159.112 186.187 159.124C186.161 159.135 186.132 159.141 186.104 159.141C186.076 159.141 186.047 159.135 186.021 159.124C185.995 159.112 185.972 159.096 185.953 159.075L185.34 158.308C185.21 158.143 184.928 158.308 184.983 158.506L185.223 159.48C185.233 159.538 185.22 159.597 185.187 159.646C185.154 159.695 185.102 159.728 185.044 159.74L184.019 159.946C183.799 159.987 183.772 160.295 183.985 160.336L184.976 160.542C185.003 160.547 185.029 160.559 185.052 160.576C185.074 160.593 185.092 160.615 185.105 160.64C185.117 160.665 185.124 160.693 185.124 160.721C185.125 160.749 185.118 160.777 185.106 160.802L184.694 161.776C184.676 161.818 184.675 161.864 184.689 161.907C184.703 161.951 184.732 161.987 184.771 162.011C184.81 162.035 184.856 162.044 184.901 162.038C184.946 162.031 184.987 162.008 185.017 161.974L185.767 161.207C185.785 161.184 185.808 161.165 185.834 161.153C185.86 161.14 185.889 161.133 185.918 161.133C185.947 161.133 185.976 161.14 186.002 161.153C186.029 161.165 186.052 161.184 186.07 161.207L186.682 161.974C186.813 162.139 187.095 161.974 187.047 161.776L186.806 160.802C186.799 160.774 186.798 160.744 186.803 160.715C186.808 160.687 186.819 160.659 186.835 160.635C186.851 160.61 186.872 160.589 186.896 160.573C186.921 160.557 186.949 160.547 186.978 160.542L188.003 160.336C188.223 160.295 188.251 159.987 188.037 159.946Z" fill="#263238"/>
<path d="M194.546 159.946L193.562 159.74C193.534 159.734 193.508 159.723 193.486 159.705C193.464 159.688 193.446 159.666 193.433 159.641C193.42 159.616 193.414 159.589 193.413 159.561C193.413 159.533 193.419 159.505 193.431 159.48L193.844 158.506C193.87 158.463 193.878 158.41 193.866 158.361C193.854 158.311 193.822 158.269 193.779 158.242C193.735 158.216 193.682 158.208 193.633 158.22C193.583 158.233 193.54 158.264 193.514 158.308L192.771 159.075C192.751 159.096 192.727 159.113 192.7 159.124C192.674 159.136 192.645 159.141 192.616 159.141C192.587 159.141 192.558 159.136 192.532 159.124C192.505 159.113 192.481 159.096 192.461 159.075L191.849 158.308C191.718 158.143 191.436 158.308 191.491 158.506L191.732 159.48C191.742 159.537 191.73 159.595 191.698 159.644C191.666 159.692 191.617 159.727 191.56 159.74L190.535 159.946C190.315 159.987 190.287 160.295 190.5 160.336L191.484 160.542C191.512 160.547 191.538 160.559 191.56 160.576C191.582 160.593 191.601 160.615 191.613 160.64C191.626 160.665 191.632 160.693 191.633 160.721C191.633 160.749 191.627 160.777 191.615 160.802L191.202 161.776C191.176 161.819 191.168 161.871 191.18 161.921C191.192 161.97 191.224 162.013 191.267 162.039C191.311 162.066 191.364 162.074 191.413 162.061C191.463 162.049 191.506 162.018 191.532 161.974L192.275 161.207C192.293 161.184 192.316 161.165 192.343 161.153C192.369 161.14 192.398 161.133 192.427 161.133C192.456 161.133 192.485 161.14 192.511 161.153C192.537 161.165 192.56 161.184 192.578 161.207L193.197 161.974C193.328 162.139 193.61 161.974 193.555 161.776L193.314 160.802C193.308 160.774 193.308 160.745 193.313 160.716C193.319 160.688 193.33 160.661 193.346 160.636C193.362 160.612 193.382 160.591 193.406 160.575C193.431 160.559 193.458 160.548 193.486 160.542L194.511 160.336C194.704 160.295 194.759 159.987 194.546 159.946Z" fill="#263238"/>
<path d="M201.061 159.946L200.07 159.74C200.043 159.734 200.017 159.723 199.995 159.705C199.972 159.688 199.954 159.667 199.941 159.641C199.929 159.616 199.922 159.589 199.922 159.561C199.922 159.533 199.928 159.505 199.94 159.48L200.352 158.506C200.37 158.464 200.371 158.418 200.357 158.374C200.343 158.331 200.314 158.294 200.275 158.271C200.236 158.247 200.19 158.237 200.145 158.244C200.1 158.251 200.059 158.273 200.029 158.308L199.279 159.075C199.26 159.096 199.236 159.112 199.21 159.124C199.184 159.135 199.156 159.141 199.128 159.141C199.099 159.141 199.071 159.135 199.045 159.124C199.019 159.112 198.996 159.096 198.976 159.075L198.364 158.308C198.233 158.143 197.951 158.308 198 158.506L198.24 159.48C198.246 159.508 198.247 159.537 198.241 159.566C198.236 159.594 198.225 159.621 198.209 159.645C198.193 159.67 198.172 159.691 198.148 159.707C198.124 159.723 198.097 159.734 198.068 159.74L197.043 159.946C196.823 159.987 196.796 160.295 197.043 160.336L198.034 160.542C198.062 160.547 198.088 160.559 198.11 160.576C198.132 160.593 198.15 160.615 198.162 160.641C198.174 160.666 198.18 160.694 198.18 160.722C198.179 160.75 198.171 160.778 198.158 160.802L197.752 161.776C197.735 161.818 197.733 161.864 197.747 161.907C197.761 161.951 197.79 161.987 197.829 162.011C197.868 162.035 197.914 162.044 197.959 162.038C198.004 162.031 198.045 162.008 198.075 161.974L198.825 161.207C198.843 161.184 198.866 161.165 198.892 161.153C198.919 161.14 198.947 161.133 198.976 161.133C199.006 161.133 199.034 161.14 199.061 161.153C199.087 161.165 199.11 161.184 199.128 161.207L199.74 161.974C199.871 162.139 200.153 161.974 200.098 161.776L199.857 160.802C199.851 160.773 199.851 160.744 199.857 160.715C199.863 160.686 199.874 160.659 199.891 160.634C199.908 160.61 199.929 160.589 199.954 160.573C199.979 160.557 200.007 160.547 200.036 160.542L201.061 160.336C201.247 160.295 201.274 159.987 201.061 159.946Z" fill="#263238"/>
<path d="M207.57 159.946L206.579 159.74C206.551 159.734 206.525 159.723 206.503 159.705C206.481 159.688 206.463 159.667 206.45 159.641C206.437 159.616 206.431 159.589 206.43 159.561C206.43 159.533 206.436 159.505 206.448 159.48L206.861 158.506C206.878 158.464 206.88 158.418 206.866 158.374C206.852 158.331 206.822 158.294 206.784 158.271C206.745 158.247 206.699 158.237 206.654 158.244C206.609 158.251 206.568 158.273 206.538 158.308L205.788 159.075C205.768 159.096 205.745 159.112 205.719 159.124C205.693 159.135 205.665 159.141 205.636 159.141C205.608 159.141 205.58 159.135 205.554 159.124C205.528 159.112 205.504 159.096 205.485 159.075L204.873 158.308C204.742 158.143 204.46 158.308 204.515 158.506L204.756 159.48C204.766 159.538 204.753 159.597 204.719 159.646C204.686 159.695 204.635 159.728 204.577 159.74L203.552 159.946C203.332 159.987 203.304 160.295 203.517 160.336L204.508 160.542C204.536 160.547 204.562 160.559 204.584 160.576C204.606 160.593 204.624 160.615 204.637 160.64C204.65 160.665 204.656 160.693 204.657 160.721C204.657 160.749 204.651 160.777 204.639 160.802L204.226 161.776C204.209 161.818 204.207 161.864 204.221 161.907C204.235 161.951 204.264 161.987 204.303 162.011C204.342 162.035 204.388 162.044 204.433 162.038C204.478 162.031 204.519 162.008 204.549 161.974L205.299 161.207C205.317 161.184 205.34 161.165 205.366 161.153C205.393 161.14 205.421 161.133 205.451 161.133C205.48 161.133 205.508 161.14 205.535 161.153C205.561 161.165 205.584 161.184 205.602 161.207L206.214 161.974C206.345 162.139 206.627 161.974 206.579 161.776L206.338 160.802C206.331 160.774 206.33 160.744 206.335 160.715C206.34 160.687 206.351 160.659 206.367 160.635C206.383 160.61 206.404 160.589 206.429 160.573C206.453 160.557 206.481 160.547 206.51 160.542L207.535 160.336C207.776 160.295 207.776 159.987 207.57 159.946Z" fill="#263238"/>
<path d="M214.078 159.946L213.087 159.74C213.06 159.733 213.035 159.721 213.014 159.704C212.992 159.686 212.975 159.664 212.963 159.639C212.951 159.614 212.945 159.587 212.945 159.559C212.945 159.532 212.951 159.504 212.964 159.48L213.376 158.506C213.403 158.463 213.411 158.41 213.398 158.361C213.386 158.311 213.355 158.269 213.311 158.242C213.267 158.216 213.215 158.208 213.165 158.22C213.115 158.233 213.073 158.264 213.046 158.308L212.303 159.075C212.283 159.096 212.259 159.113 212.232 159.124C212.206 159.136 212.177 159.141 212.148 159.141C212.119 159.141 212.091 159.136 212.064 159.124C212.037 159.113 212.013 159.096 211.993 159.075L211.381 158.308C211.25 158.143 210.968 158.308 211.023 158.506L211.264 159.48C211.274 159.537 211.262 159.595 211.23 159.644C211.198 159.692 211.149 159.727 211.092 159.74L210.067 159.946C209.847 159.987 209.819 160.295 210.033 160.336L211.016 160.542C211.044 160.547 211.07 160.559 211.092 160.576C211.115 160.593 211.133 160.615 211.145 160.64C211.158 160.665 211.165 160.693 211.165 160.721C211.165 160.749 211.159 160.777 211.147 160.802L210.734 161.776C210.721 161.797 210.713 161.821 210.709 161.846C210.705 161.871 210.706 161.896 210.712 161.921C210.718 161.945 210.729 161.969 210.744 161.989C210.759 162.009 210.778 162.026 210.8 162.039C210.821 162.052 210.845 162.061 210.871 162.065C210.896 162.069 210.921 162.068 210.946 162.061C210.97 162.055 210.993 162.045 211.014 162.03C211.034 162.015 211.052 161.996 211.065 161.974L211.808 161.207C211.826 161.184 211.849 161.165 211.875 161.153C211.901 161.14 211.93 161.133 211.959 161.133C211.988 161.133 212.017 161.14 212.043 161.153C212.069 161.165 212.092 161.184 212.11 161.207L212.723 161.974C212.755 162.01 212.798 162.034 212.846 162.042C212.893 162.051 212.942 162.042 212.984 162.019C213.027 161.996 213.06 161.96 213.079 161.915C213.097 161.871 213.1 161.822 213.087 161.776L212.847 160.802C212.841 160.774 212.84 160.745 212.846 160.716C212.851 160.688 212.862 160.661 212.878 160.636C212.894 160.612 212.915 160.591 212.939 160.575C212.963 160.559 212.99 160.548 213.019 160.542L214.044 160.336C214.264 160.295 214.291 159.987 214.078 159.946Z" fill="#263238"/>
<path d="M198.385 145.752H186.166C185.791 145.758 185.431 145.901 185.155 146.153C184.879 146.406 184.705 146.751 184.666 147.122C184.646 147.297 184.665 147.474 184.719 147.642C184.774 147.809 184.864 147.963 184.983 148.092C185.102 148.222 185.248 148.325 185.411 148.394C185.573 148.463 185.748 148.497 185.925 148.493H198.144C198.519 148.487 198.879 148.344 199.155 148.091C199.431 147.839 199.605 147.494 199.644 147.122C199.662 146.948 199.643 146.771 199.588 146.604C199.533 146.437 199.443 146.284 199.324 146.154C199.205 146.025 199.06 145.922 198.898 145.852C198.736 145.783 198.561 145.749 198.385 145.752Z" fill="#263238"/>
<path d="M210.796 145.752H203.703C203.329 145.758 202.97 145.901 202.695 146.154C202.42 146.407 202.247 146.751 202.21 147.122C202.19 147.297 202.208 147.473 202.263 147.64C202.317 147.807 202.406 147.96 202.525 148.09C202.643 148.22 202.788 148.323 202.95 148.392C203.112 148.462 203.286 148.496 203.462 148.493H210.528C210.902 148.486 211.261 148.343 211.536 148.091C211.811 147.838 211.984 147.493 212.021 147.122C212.04 146.95 212.023 146.776 211.97 146.611C211.918 146.446 211.831 146.294 211.715 146.165C211.6 146.036 211.458 145.932 211.3 145.861C211.142 145.79 210.97 145.752 210.796 145.752Z" fill="#263238"/>
<path d="M220.16 207.881C215.841 209.519 211.942 212.095 208.746 215.42C206.805 213.919 204.491 212.971 202.052 212.678L201.728 212.623L201.591 214.241L201.77 214.309C204.444 215.296 206.706 217.153 208.189 219.58L208.423 219.957L208.677 219.552C211.525 215.02 215.546 211.336 220.318 208.888L220.476 208.806L220.566 207.73L220.16 207.881Z" fill="#263238"/>
<path opacity="0.2" d="M158.68 72.9374C157.804 74.4625 157.264 76.1566 157.098 77.9063L146.854 194.571H178.557L184.928 170.24L182.829 145.916L189.2 121.592L187.136 97.2613L193.507 72.9374H158.68Z" fill="black"/>
<path d="M184.35 90.4076L190.72 66.0837H110.548L104.184 90.4076L106.275 114.738L99.9114 139.062L102.003 163.393L95.6389 187.717H175.805L182.176 163.393L180.077 139.062L186.448 114.738L184.35 90.4076Z" fill="#1988FF"/>
<path opacity="0.7" d="M184.35 90.4076L190.72 66.0837H110.548L104.184 90.4076L106.275 114.738L99.9114 139.062L102.003 163.393L95.6389 187.717H175.805L182.176 163.393L180.077 139.062L186.448 114.738L184.35 90.4076Z" fill="white"/>
<path opacity="0.5" d="M184.35 90.4076H104.184L110.548 66.0837H190.72L184.35 90.4076Z" fill="white"/>
<path opacity="0.5" d="M180.077 139.062H99.9114L106.275 114.738H186.448L180.077 139.062Z" fill="white"/>
<path opacity="0.5" d="M175.805 187.717H95.632L102.003 163.393H182.176L175.805 187.717Z" fill="white"/>
<path opacity="0.2" d="M173.624 100.578C172.801 100.815 171.948 100.931 171.092 100.921C169.931 100.972 168.775 100.737 167.728 100.236C167.539 100.122 167.322 100.06 167.101 100.058C166.899 100.063 166.701 100.117 166.524 100.215H166.482C166.174 100.384 165.846 100.515 165.505 100.606C164.735 100.808 163.942 100.907 163.145 100.901C162.905 100.901 162.671 100.901 162.457 100.901C161.839 100.867 161.228 100.761 160.634 100.585C160.547 100.557 160.457 100.539 160.366 100.531C160.214 100.519 160.062 100.539 159.918 100.589C159.775 100.639 159.643 100.718 159.531 100.821C159.42 100.924 159.33 101.048 159.269 101.187C159.208 101.326 159.176 101.476 159.176 101.627V102.374H127.968C127.395 102.374 126.828 102.487 126.299 102.705C125.77 102.923 125.289 103.243 124.884 103.647C124.479 104.05 124.157 104.529 123.938 105.057C123.719 105.584 123.606 106.149 123.606 106.719V111.106C123.606 112.259 124.065 113.365 124.883 114.181C125.701 114.997 126.811 115.456 127.968 115.458H163.421H163.655C164.033 115.773 164.432 116.088 164.859 116.404C165.285 116.719 165.891 117.171 166.448 117.576C166.638 117.713 166.867 117.787 167.101 117.787C167.336 117.787 167.565 117.713 167.755 117.576C172.213 114.355 175.075 112.134 175.075 106.034V101.641C175.079 101.465 175.04 101.291 174.962 101.133C174.884 100.975 174.769 100.838 174.627 100.734C174.484 100.63 174.319 100.561 174.144 100.534C173.97 100.507 173.791 100.522 173.624 100.578Z" fill="black"/>
<path d="M162.74 99.948H127.294C124.881 99.948 122.925 101.897 122.925 104.3V108.68C122.925 111.083 124.881 113.032 127.294 113.032H162.74C165.152 113.032 167.108 111.083 167.108 108.68V104.3C167.108 101.897 165.152 99.948 162.74 99.948Z" fill="#1988FF"/>
<path d="M170.411 98.5018C169.25 98.5547 168.093 98.3192 167.046 97.8164C166.859 97.7054 166.645 97.6468 166.427 97.6468C166.209 97.6468 165.995 97.7054 165.808 97.8164C164.759 98.32 163.6 98.5556 162.437 98.5018C161.58 98.5143 160.727 98.3988 159.905 98.1591C159.739 98.105 159.562 98.0909 159.389 98.1179C159.216 98.145 159.052 98.2124 158.911 98.3147C158.769 98.417 158.654 98.5513 158.574 98.7065C158.495 98.8617 158.453 99.0335 158.453 99.2077V103.594C158.453 109.701 161.315 111.921 165.774 115.143C165.964 115.28 166.192 115.354 166.427 115.354C166.662 115.354 166.891 115.28 167.081 115.143C171.539 111.921 174.401 109.701 174.401 103.594V99.2077C174.4 99.0332 174.357 98.8614 174.277 98.7062C174.197 98.5511 174.081 98.417 173.939 98.3149C173.797 98.2127 173.632 98.1454 173.459 98.1183C173.286 98.0913 173.109 98.1052 172.943 98.1591C172.121 98.3993 171.267 98.5148 170.411 98.5018Z" fill="#1988FF"/>
<path opacity="0.3" d="M170.411 98.5018C169.25 98.5547 168.093 98.3192 167.046 97.8164C166.859 97.7054 166.645 97.6468 166.427 97.6468C166.209 97.6468 165.995 97.7054 165.808 97.8164C164.759 98.32 163.6 98.5556 162.437 98.5018C161.58 98.5143 160.727 98.3988 159.905 98.1591C159.739 98.105 159.562 98.0909 159.389 98.1179C159.216 98.145 159.052 98.2124 158.911 98.3147C158.769 98.417 158.654 98.5513 158.574 98.7065C158.495 98.8617 158.453 99.0335 158.453 99.2077V103.594C158.453 109.701 161.315 111.921 165.774 115.143C165.964 115.28 166.192 115.354 166.427 115.354C166.662 115.354 166.891 115.28 167.081 115.143C171.539 111.921 174.401 109.701 174.401 103.594V99.2077C174.4 99.0332 174.357 98.8614 174.277 98.7062C174.197 98.5511 174.081 98.417 173.939 98.3149C173.797 98.2127 173.632 98.1454 173.459 98.1183C173.286 98.0913 173.109 98.1052 172.943 98.1591C172.121 98.3993 171.267 98.5148 170.411 98.5018Z" fill="white"/>
<path opacity="0.2" d="M165.808 97.8027C164.759 98.3063 163.6 98.5419 162.437 98.4881C161.58 98.5001 160.727 98.3846 159.905 98.1454C159.739 98.0913 159.562 98.0772 159.389 98.1042C159.216 98.1313 159.052 98.1987 158.911 98.301C158.769 98.4033 158.654 98.5375 158.574 98.6928C158.495 98.848 158.453 99.0198 158.453 99.194V103.58C158.453 109.687 161.315 111.908 165.774 115.129C165.974 115.271 166.216 115.344 166.462 115.335V97.6314C166.232 97.6277 166.006 97.687 165.808 97.8027Z" fill="white"/>
<path d="M172.819 102.395C170.136 103.443 167.747 105.122 165.856 107.288C164.536 106.319 162.99 105.7 161.364 105.493H161.15V106.534L161.267 106.582C163.076 107.233 164.635 108.431 165.725 110.009L165.897 110.249L166.042 109.989C167.624 107.061 170.032 104.659 172.97 103.08L173.073 103.032V102.347L172.819 102.395Z" fill="#263238"/>
<path d="M189.303 72.9237H186.262C185.871 72.9309 185.483 72.855 185.123 72.7009C184.764 72.5468 184.442 72.3182 184.178 72.0302C183.914 71.7422 183.715 71.4015 183.594 71.0309C183.473 70.6602 183.433 70.2681 183.476 69.8806L183.744 66.8513C183.827 66.0274 184.21 65.2624 184.821 64.7014C185.433 64.1405 186.229 63.8226 187.06 63.8082H190.101C190.493 63.8 190.882 63.8752 191.242 64.0288C191.603 64.1825 191.926 64.411 192.19 64.6991C192.455 64.9872 192.654 65.3282 192.776 65.6994C192.897 66.0706 192.938 66.4633 192.895 66.8513L192.64 69.9081C192.549 70.7299 192.16 71.4903 191.545 72.0458C190.931 72.6013 190.133 72.9136 189.303 72.9237Z" fill="#1988FF"/>
<path d="M190.569 66.8445L189.909 66.1248L188.244 67.6463L186.854 66.1248L186.063 66.8445L187.459 68.366L185.801 69.8875L186.462 70.614L188.12 69.0925L189.516 70.614L190.301 69.8875L188.904 68.366L190.569 66.8445Z" fill="white"/>
<path d="M121.343 99.0638C123.104 100.976 124.783 102.957 126.454 104.951C128.126 106.946 129.743 108.974 131.353 111.024C131.422 111.113 131.394 111.078 131.408 111.106C131.422 111.133 131.408 111.106 131.408 111.147C131.422 111.171 131.438 111.194 131.456 111.216C131.494 111.265 131.535 111.31 131.58 111.353C131.689 111.443 131.819 111.504 131.958 111.531C132.036 111.541 132.115 111.541 132.192 111.531C132.234 111.534 132.275 111.534 132.316 111.531H132.378C132.412 111.531 132.378 111.531 132.488 111.497L134.208 110.564C136.52 109.344 138.852 108.152 141.26 107.083L143.276 109.564C141.336 111.346 139.313 113.573 137.27 115.204L135.729 116.411C135.694 116.411 135.529 116.555 135.426 116.623C135.323 116.692 135.185 116.781 135.061 116.849C134.814 116.993 134.556 117.119 134.291 117.226C133.759 117.455 133.199 117.611 132.626 117.692C131.468 117.858 130.287 117.741 129.186 117.35C128.626 117.152 128.094 116.882 127.603 116.548C127.364 116.378 127.134 116.195 126.915 115.999C126.798 115.903 126.702 115.801 126.592 115.698L126.317 115.424C124.494 113.559 122.698 111.682 120.937 109.769C119.175 107.857 117.435 105.924 115.77 103.93L121.343 99.0638Z" fill="#E3E3E3"/>
<path d="M140.352 108.584L141.955 103.45L146.179 105.547C146.179 105.547 145.56 109.29 142.492 109.941L140.352 108.584Z" fill="#E3E3E3"/>
<path d="M143.641 102.031L147.452 103.073L146.172 105.547L141.948 103.45L143.641 102.031Z" fill="#E3E3E3"/>
<path d="M99.1339 100.462C98.6798 102.641 98.1157 104.8 97.5309 106.946C96.9461 109.091 96.32 111.236 95.632 113.368L95.3843 114.163L95.2605 114.567C95.2425 114.624 95.2195 114.679 95.1917 114.731C95.1166 114.941 95.0725 115.16 95.0609 115.383C95.0446 115.881 95.1841 116.372 95.46 116.788C95.5929 116.974 95.7426 117.149 95.9072 117.308L96.4782 117.925L97.6065 119.186C98.3427 120.029 99.0857 120.886 99.7875 121.777L97.3864 124.519C96.3957 123.957 95.4462 123.353 94.4968 122.75L93.0864 121.818L92.3984 121.345C92.1193 121.164 91.8505 120.967 91.5934 120.756C90.2462 119.617 89.3169 118.064 88.9515 116.342C88.7668 115.464 88.7227 114.561 88.8208 113.669C88.8208 113.45 88.8896 113.203 88.924 113.018L88.9997 112.607L89.1442 111.778C89.5294 109.584 89.9422 107.391 90.4032 105.212C90.8641 103.032 91.3595 100.86 91.9443 98.7075L99.1339 100.462Z" stroke="#222221" stroke-width="0.5"/>
<path d="M97.4414 121.578L100.276 120.132L101.528 124.93C101.528 124.93 99.2509 125.8 97.4896 124.683L97.4414 121.578Z" fill="#B55B52"/>
<path d="M104.198 118.597L104.328 123.004L101.157 125.074L100.056 120.228L104.198 118.597Z" fill="#B55B52"/>
<path d="M113.479 77.8035C113.547 78.1394 113.788 78.3793 114.008 78.3313C114.229 78.2833 114.359 77.9749 114.291 77.6459C114.222 77.3169 113.981 77.0633 113.761 77.1113C113.541 77.1593 113.41 77.4471 113.479 77.8035Z" fill="#263238"/>
<path d="M113.754 78.3861C114.373 79.342 115.121 80.209 115.976 80.9631C115.776 81.1751 115.532 81.3413 115.261 81.4502C114.991 81.5591 114.699 81.608 114.408 81.5937L113.754 78.3861Z" fill="#A02724"/>
<path d="M111.848 76.1655C111.823 76.1667 111.797 76.1624 111.773 76.153C111.75 76.1435 111.728 76.1291 111.711 76.1107C111.673 76.0723 111.652 76.0206 111.652 75.9668C111.652 75.913 111.673 75.8613 111.711 75.8228C111.926 75.5801 112.196 75.3914 112.498 75.2723C112.801 75.1532 113.127 75.107 113.451 75.1375C113.478 75.1416 113.503 75.151 113.526 75.165C113.548 75.179 113.568 75.1975 113.583 75.2192C113.599 75.2409 113.609 75.2655 113.615 75.2915C113.621 75.3175 113.621 75.3444 113.616 75.3705C113.608 75.424 113.579 75.472 113.535 75.5041C113.491 75.5362 113.436 75.5497 113.382 75.5418C113.126 75.5173 112.867 75.5543 112.628 75.6497C112.388 75.7451 112.175 75.8961 112.006 76.0901C111.987 76.1132 111.963 76.1318 111.935 76.1448C111.908 76.1578 111.878 76.1649 111.848 76.1655Z" fill="#263238"/>
<path d="M103.558 82.5806C104.315 85.7196 105.078 91.4905 102.368 93.5466C102.368 93.5466 103.427 96.7336 110.624 96.7336C118.536 96.7336 114.408 94.6775 114.408 94.6775C110.087 93.8345 110.197 90.0992 110.968 87.6592L103.558 82.5806Z" stroke="#222221" stroke-width="0.5"/>
<path d="M101.521 94.1634C101.053 93.293 100.531 92.2923 101.604 91.9771C102.787 91.6344 110.376 90.997 112.612 91.6412C111.924 92.8544 113.087 94.3485 113.087 94.3485L101.521 94.1634Z" fill="black"/>
<path d="M107.81 241.231H112.77L113.265 231.279H108.298L107.81 241.231Z" stroke="#222221" stroke-width="0.5"/>
<path d="M76.3061 239.86L81.3354 240.121L84.3901 230.32L79.3608 230.052L76.3061 239.86Z" stroke="#222221" stroke-width="0.5"/>
<path d="M81.184 239.723L76.4437 238.702C76.36 238.686 76.2734 238.698 76.1975 238.737C76.1215 238.775 76.0605 238.838 76.024 238.914L74.3797 242.465C74.3407 242.552 74.3217 242.646 74.3242 242.741C74.3267 242.837 74.3507 242.93 74.3942 243.015C74.4378 243.1 74.4999 243.174 74.576 243.231C74.652 243.289 74.7401 243.329 74.8338 243.349C76.4918 243.678 77.3174 243.753 79.4021 244.205C80.6818 244.48 83.5782 245.179 85.3464 245.576C87.1146 245.974 87.7269 244.267 87.0389 243.952C83.9429 242.54 82.6494 241.299 81.8101 240.148C81.662 239.933 81.4387 239.782 81.184 239.723Z" fill="#1988FF"/>
<path d="M112.509 240.73H107.796C107.711 240.732 107.628 240.761 107.562 240.815C107.496 240.868 107.45 240.942 107.431 241.025L106.578 244.843C106.556 244.935 106.556 245.031 106.577 245.124C106.598 245.217 106.639 245.303 106.699 245.377C106.759 245.451 106.835 245.511 106.921 245.551C107.007 245.592 107.102 245.612 107.197 245.61C108.897 245.576 111.325 245.48 113.492 245.48C115.99 245.48 118.143 245.617 121.06 245.617C122.829 245.617 123.324 243.835 122.581 243.671C119.203 242.937 116.451 242.855 113.534 241.066C113.23 240.861 112.875 240.745 112.509 240.73Z" fill="#1988FF"/>
<path d="M93.3754 95.0338C89.6326 96.8089 88.6144 107.562 88.6144 107.562L97.8818 111.832C99.4468 109.2 100.3 106.208 100.359 103.149C100.544 97.5903 97.2075 93.2107 93.3754 95.0338Z" fill="#1988FF"/>
<path opacity="0.4" d="M98.384 101.668C96.7121 104.252 96.8704 108.255 97.4483 111.64L97.8611 111.832C99.4261 109.2 100.279 106.208 100.338 103.149C100.338 102.811 100.338 102.482 100.338 102.162L98.384 101.668Z" fill="black"/>
<path d="M119.237 94.7734C119.237 94.7734 123.833 99.9411 119.492 131.921H96.4232C96.2649 128.391 98.4872 111.174 95.0472 94.5541C97.5961 94.0617 100.175 93.7366 102.767 93.5809C106.034 93.3922 109.31 93.3922 112.577 93.5809C114.825 93.8037 117.052 94.2024 119.237 94.7734Z" fill="#1988FF"/>
<path opacity="0.6" d="M119.237 94.7734C119.237 94.7734 123.833 99.9411 119.492 131.921H96.4232C96.2649 128.391 98.4872 111.174 95.0472 94.5541C97.5961 94.0617 100.175 93.7366 102.767 93.5809C106.034 93.3922 109.31 93.3922 112.577 93.5809C114.825 93.8037 117.052 94.2024 119.237 94.7734Z" fill="#1988FF"/>
<path opacity="0.2" d="M121.253 104.547L121.171 104.471L116.582 102.031C116.114 109.07 119.272 113.477 121.15 115.41C121.385 111.794 121.42 108.167 121.253 104.547Z" fill="black"/>
<path opacity="0.2" d="M113.265 231.279L113.011 236.406H108.044L108.298 231.279H113.265Z" fill="black"/>
<path opacity="0.2" d="M79.3608 230.052L84.3901 230.32L82.8146 235.378L77.7853 235.11L79.3608 230.052Z" fill="black"/>
<path d="M101.962 79.3868C103.069 83.499 103.51 85.9732 106.09 87.6866C109.929 90.2568 114.703 87.3028 114.855 82.937C114.985 79.003 113.155 72.9305 108.718 72.1012C107.738 71.9061 106.724 71.9651 105.773 72.2725C104.822 72.5798 103.967 73.1254 103.289 73.8567C102.611 74.588 102.132 75.4806 101.9 76.449C101.668 77.4173 101.689 78.4289 101.962 79.3868Z" stroke="#222221" stroke-width="0.5"/>
<path d="M111.312 131.921C111.312 131.921 106.413 164.757 103.744 177.059C100.785 190.534 85.0024 235.083 85.0024 235.083L77.2762 233.418C77.2762 233.418 87.1765 197.093 89.6602 178.259C90.6234 170.905 91.7861 159.068 93.2584 149.178C94.6826 139.583 96.437 131.893 96.437 131.893L111.312 131.921Z" fill="#37474F"/>
<path d="M86.8531 232.54L85.4083 235.323L76.7258 233.452L77.455 230.847L86.8531 232.54Z" fill="#1988FF"/>
<path opacity="0.6" d="M86.8531 232.54L85.4083 235.323L76.7258 233.452L77.455 230.847L86.8531 232.54Z" fill="white"/>
<path opacity="0.6" d="M108.216 143.62C102.553 144.723 103.152 165.751 103.833 176.573C105.47 168.924 107.858 154.209 109.488 143.771C109.094 143.577 108.645 143.524 108.216 143.62Z" fill="#37474F"/>
<path d="M119.492 131.921C119.492 131.921 121.797 164.051 121.329 177.155C120.84 190.781 114.352 235.412 114.352 235.412H107.046C107.046 235.412 106.778 191.548 106.454 178.19C106.096 163.599 104.328 131.921 104.328 131.921H119.492Z" fill="#37474F"/>
<path d="M115.756 232.513C115.79 232.513 115.343 235.535 115.343 235.535H106.454L106.213 232.842L115.756 232.513Z" fill="#1988FF"/>
<path opacity="0.6" d="M115.756 232.513C115.79 232.513 115.343 235.535 115.343 235.535H106.454L106.213 232.842L115.756 232.513Z" fill="white"/>
<path d="M116.547 100.791C116.547 109.413 121.15 112.963 121.15 112.963L128.656 105.671C126.873 102.725 124.845 99.9325 122.595 97.323C118.267 92.3403 116.547 95.2669 116.547 100.791Z" fill="#1988FF"/>
<path opacity="0.2" d="M114.566 84.4996C114.412 84.9311 114.155 85.3188 113.817 85.6293C113.479 85.9397 113.07 86.1636 112.626 86.2816C112.136 86.381 111.692 86.6346 111.359 87.0049C111.026 87.3752 110.821 87.8425 110.775 88.3377C111.666 88.041 112.474 87.5386 113.132 86.8715C113.791 86.2045 114.282 85.3918 114.566 84.4996Z" fill="black"/>
<path d="M112.626 71.1966C114.167 69.2569 111.793 69.1404 111.793 69.1404C112.412 66.8239 109.633 68.0713 109.633 68.0713C107.968 65.7821 107.025 68.5647 107.025 68.5647C105.298 66.6251 104.961 69.7984 104.961 69.7984C103.228 67.3379 102.347 70.8813 102.347 70.8813C100.751 68.3317 99.7738 71.6558 99.7738 71.6558C96.4782 70.4838 98.04 73.8969 98.04 73.8969C95.233 73.9723 97.4896 76.1381 97.4896 76.1381C94.1184 76.1381 97.0906 78.0709 97.0906 78.0709C94.4142 79.8186 97.7786 80.2915 97.7786 80.2915C95.5976 83.7183 99.3472 82.4298 99.3472 82.4298C97.8267 85.795 101.191 84.3146 101.191 84.3146C100.978 87.5633 102.856 86.6791 103.764 86.076C103.936 86.7614 104.266 87.4468 104.872 87.5016C106.048 87.6592 106.248 85.4455 106.248 85.4455C106.248 85.4455 107.335 86.2885 108.25 85.8361C109.165 85.3838 108.821 84.2186 108.821 84.2186C109.02 84.3666 109.261 84.4465 109.509 84.4465C109.757 84.4465 109.998 84.3666 110.197 84.2186C110.589 83.9171 110.589 81.7376 110.094 80.97L111.883 80.2846C111.883 80.2846 113.21 80.0996 112.619 78.3519C112.262 77.345 112.23 76.252 112.529 75.2266C114.552 74.2876 112.887 73.1704 112.887 73.1704C115.233 71.6763 112.626 71.1966 112.626 71.1966Z" fill="black"/>
<path d="M109 79.5581C109.28 80.5806 109.892 81.482 110.74 82.1214C111.862 82.9507 112.701 82.1214 112.619 80.8672C112.55 79.7294 111.876 77.9201 110.637 77.5842C109.399 77.2484 108.704 78.3176 109 79.5581Z" stroke="#222221" stroke-width="0.5"/>
</g>
<defs>
<clipPath id="clip0_233_1044">
<rect width="344" height="255" fill="white"/>
</clipPath>
</defs>
</svg>
