<svg width="22" height="23" viewBox="0 0 22 23" fill="none" xmlns="http://www.w3.org/2000/svg">
<g id="uit:calender">
<path id="Vector" d="M17.875 3.77987H15.125V2.40487C15.125 2.28331 15.0768 2.16673 14.9908 2.08078C14.9048 1.99482 14.7883 1.94653 14.6667 1.94653C14.5452 1.94653 14.4286 1.99482 14.3426 2.08078C14.2567 2.16673 14.2084 2.28331 14.2084 2.40487V3.77987H7.79171V2.40487C7.79171 2.28331 7.74342 2.16673 7.65747 2.08078C7.57151 1.99482 7.45493 1.94653 7.33337 1.94653C7.21182 1.94653 7.09524 1.99482 7.00928 2.08078C6.92333 2.16673 6.87504 2.28331 6.87504 2.40487V3.77987H4.12504C3.51748 3.78059 2.935 4.02227 2.50539 4.45188C2.07578 4.8815 1.8341 5.46397 1.83337 6.07153V17.9882C1.8341 18.5958 2.07578 19.1782 2.50539 19.6078C2.935 20.0375 3.51748 20.2791 4.12504 20.2799H17.875C18.4827 20.2794 19.0653 20.0378 19.495 19.6081C19.9246 19.1785 20.1662 18.5958 20.1667 17.9882V6.07153C20.1662 5.46389 19.9246 4.88128 19.495 4.45162C19.0653 4.02195 18.4827 3.78035 17.875 3.77987ZM19.25 17.9882C19.25 18.3529 19.1052 18.7026 18.8473 18.9605C18.5894 19.2183 18.2397 19.3632 17.875 19.3632H4.12504C3.76037 19.3632 3.41063 19.2183 3.15277 18.9605C2.89491 18.7026 2.75004 18.3529 2.75004 17.9882V10.1965H19.25V17.9882ZM19.25 9.27987H2.75004V6.07153C2.75004 5.31253 3.36421 4.69653 4.12504 4.69653H6.87504V6.07153C6.87504 6.19309 6.92333 6.30967 7.00928 6.39562C7.09524 6.48158 7.21182 6.52987 7.33337 6.52987C7.45493 6.52987 7.57151 6.48158 7.65747 6.39562C7.74342 6.30967 7.79171 6.19309 7.79171 6.07153V4.69653H14.2084V6.07153C14.2084 6.19309 14.2567 6.30967 14.3426 6.39562C14.4286 6.48158 14.5452 6.52987 14.6667 6.52987C14.7883 6.52987 14.9048 6.48158 14.9908 6.39562C15.0768 6.30967 15.125 6.19309 15.125 6.07153V4.69653H17.875C18.2397 4.69653 18.5894 4.8414 18.8473 5.09926C19.1052 5.35712 19.25 5.70686 19.25 6.07153V9.27987Z" fill="#D1D1D1"/>
</g>
</svg>
